<?xml version="1.0" encoding="UTF-8"?>
<svg id="_Шар_1" data-name="Шар 1" xmlns="http://www.w3.org/2000/svg" viewBox="0 0 15 15">
  <defs>
    <style>
      .cls-1 {
        fill: #fa0078;
      }

      .cls-2 {
        fill: #ffbe00;
      }
    </style>
  </defs>
  <g>
    <path class="cls-1" d="m9.4,5.76c-.88,1.04-2.45,1.18-3.49.31-1.04-.88-1.18-2.44-.31-3.48.88-1.04,2.45-1.18,3.49-.31,1.05.87,1.19,2.44.31,3.48Z"/>
    <path class="cls-1" d="m2.82,13.25c-.43-3.44,2.27-6.16,4.84-6.08,2.5.08,4.98,2.8,4.5,6.13"/>
  </g>
  <path class="cls-2" d="m8.82,9.09s.03.04.03.07v3.19c0,.08-.09.11-.15.06l-1.14-1.13s-.09-.03-.12,0l-1.14,1.13c-.05.05-.15.02-.15-.06v-3.19s0-.05.03-.07l1.26-1.05s.08-.03.11,0l1.26,1.05Z"/>
</svg>