<?xml version="1.0" encoding="UTF-8"?>
<svg id="_Шар_1" data-name="Шар 1" xmlns="http://www.w3.org/2000/svg" viewBox="0 0 15 15">
  <defs>
    <style>
      .cls-1 {
        fill: #fa0078;
      }

      .cls-2 {
        fill: #fff;
      }
    </style>
  </defs>
  <path class="cls-1" d="m1.29,2.45c0-.05.06-.09.12-.09h12.17c.07,0,.12.03.12.09v8.24c0,.05-.05.09-.12.09H5.32s-.05,0-.07.02l-3.75,1.84c-.09.04-.2,0-.2-.07V2.45h0Z"/>
  <path class="cls-2" d="m2.87,3.74h9.27c.07,0,.12.05.12.12v.7c0,.07-.05.12-.12.12H2.87c-.07,0-.12-.05-.12-.12v-.7c0-.06.05-.12.12-.12Z"/>
  <path class="cls-2" d="m2.87,5.8h9.27c.07,0,.12.05.12.12v.7c0,.07-.05.12-.12.12H2.87c-.07,0-.12-.05-.12-.12v-.7c0-.06.05-.12.12-.12Z"/>
  <path class="cls-2" d="m2.87,7.85h9.27c.07,0,.12.05.12.12v.7c0,.07-.05.12-.12.12H2.87c-.07,0-.12-.05-.12-.12v-.7c0-.07.05-.12.12-.12Z"/>
</svg>