<?xml version="1.0" encoding="UTF-8"?>
<svg id="_Шар_1" data-name="Шар 1" xmlns="http://www.w3.org/2000/svg" viewBox="0 0 15 15">
  <defs>
    <style>
      .cls-1 {
        fill: #00e6a6;
      }

      .cls-2, .cls-3 {
        fill: #ff4c00;
      }

      .cls-4 {
        fill: #fff;
      }

      .cls-3 {
        fill-rule: evenodd;
      }
    </style>
  </defs>
  <path class="cls-1" d="m7.78,2.23h5.61c.26,0,.46.21.46.46v7.67c0,1.33-1.08,2.42-2.42,2.42h-3.66c-.26,0-.46-.21-.46-.46V2.69c0-.26.21-.46.46-.46Z" transform="translate(21.17 15) rotate(-180)"/>
  <path class="cls-1" d="m.53,2.23h3.66c1.33,0,2.42,1.08,2.42,2.42v7.67c0,.26-.21.46-.46.46H.53c-.26,0-.46-.21-.46-.46V2.69c0-.26.21-.46.46-.46Z"/>
  <path class="cls-4" d="m2.11,4.84h9.75c.08,0,.13.05.13.13v.73c0,.08-.05.13-.13.13H2.11c-.08,0-.13-.05-.13-.13v-.73c0-.06.05-.13.13-.13Z"/>
  <path class="cls-4" d="m2.11,7h9.75c.08,0,.13.05.13.13v.73c0,.08-.05.13-.13.13H2.11c-.08,0-.13-.05-.13-.13v-.73c0-.06.05-.13.13-.13Z"/>
  <path class="cls-4" d="m2.11,9.17h9.75c.08,0,.13.05.13.13v.73c0,.08-.05.13-.13.13H2.11c-.08,0-.13-.05-.13-.13v-.73c0-.08.05-.13.13-.13Z"/>
  <path class="cls-2" d="m9.37,8.95c-.05-.05-.05-.13,0-.18l1.74-1.74c.05-.05.13-.05.18,0l3.32,3.32c.4.52.42,1.22.07,1.7-.43.57-1.33.72-1.99.23l-3.32-3.32Z"/>
  <path class="cls-3" d="m8.27,6.05c0-.08.05-.13.13-.13h5.16c.08,0,.13.05.13.13v1.81c0,.07-.04.12-.1.13l-2.6.55c-.05.01-.09.05-.1.1l-.55,2.6c-.01.07-.07.1-.13.1h-1.81c-.08,0-.13-.05-.13-.13v-5.16Z"/>
</svg>