<svg width="85" height="85" viewBox="0 0 85 85" fill="none" xmlns="http://www.w3.org/2000/svg">
<g clip-path="url(#clip0_709_5567)">
<path fill-rule="evenodd" clip-rule="evenodd" d="M3.06907 24.2422L21.2207 42.3934C21.2577 42.4303 21.2968 42.4648 21.3376 42.4965C21.2979 42.5271 21.2598 42.5601 21.2236 42.5955L3.06896 60.7498C2.83191 60.9872 2.67131 61.2906 2.60767 61.6199C2.54405 61.9499 2.58034 62.2909 2.7119 62.6001C2.84344 62.9088 3.06429 63.1712 3.34607 63.354C3.62785 63.5362 3.95771 63.6307 4.29341 63.6244L20.3358 63.3476C20.5057 63.3444 20.6744 63.3752 20.832 63.439C20.9896 63.5027 21.1327 63.5973 21.2528 63.7173C21.3729 63.8374 21.4676 63.9808 21.5312 64.1381C21.5947 64.2959 21.6259 64.4643 21.6228 64.6343L21.3129 80.703C21.3056 81.0403 21.3993 81.3713 21.5821 81.6545C21.7649 81.9376 22.0284 82.1591 22.3386 82.2914C22.6487 82.4232 22.9913 82.4588 23.322 82.394C23.6527 82.3291 23.9563 82.1666 24.1938 81.9275L42.3662 63.7556C42.4052 63.7163 42.4413 63.6748 42.4744 63.6313C42.5052 63.6716 42.5386 63.7099 42.5744 63.7465L60.7292 81.901C60.9667 82.1379 61.2701 82.2983 61.5994 82.3621C61.9294 82.4258 62.2704 82.3892 62.5791 82.258C62.8883 82.1262 63.1507 81.9052 63.3335 81.6236C63.5157 81.3421 63.6103 81.0122 63.6039 80.6764L63.3266 64.6343C63.3234 64.4643 63.3547 64.2959 63.4185 64.1381C63.4817 63.9808 63.5768 63.8374 63.6969 63.7173C63.8169 63.5973 63.9598 63.5027 64.1176 63.439C64.2749 63.3752 64.4438 63.3444 64.6138 63.3476L80.6829 63.6573C81.0197 63.6647 81.3512 63.5707 81.6344 63.388C81.9176 63.2052 82.1391 62.9417 82.2709 62.6315C82.4026 62.3217 82.4387 61.9791 82.3739 61.6481C82.3091 61.3177 82.1465 61.0138 81.9075 60.7763L63.7351 42.6044C63.6947 42.5648 63.6528 42.5281 63.6081 42.4945C63.6528 42.4608 63.6947 42.4241 63.7351 42.3844L81.9075 24.2123C82.1455 23.9746 82.3075 23.671 82.3713 23.3405C82.4356 23.01 82.3994 22.668 82.2671 22.3583C82.1354 22.0487 81.9133 21.7857 81.6307 21.6032C81.3475 21.4208 81.0165 21.3272 80.6803 21.3346L64.6106 21.6444C64.4412 21.6476 64.2722 21.6164 64.1144 21.5529C63.9572 21.4893 63.8137 21.3946 63.6937 21.2745C63.5736 21.1544 63.479 21.0113 63.4153 20.8537C63.3521 20.6961 63.3207 20.5274 63.3239 20.3575L63.6039 4.31246C63.6103 3.97645 63.5157 3.64622 63.3329 3.36429C63.1497 3.08236 62.8867 2.86151 62.5775 2.73019C62.2678 2.59892 61.9262 2.56311 61.5962 2.62739C61.2663 2.69173 60.9635 2.85317 60.726 3.09107L42.5744 21.2423C42.5377 21.2791 42.5036 21.3178 42.472 21.3584C42.4387 21.3146 42.4024 21.2728 42.3633 21.2334L24.1908 3.06132C23.9531 2.823 23.6494 2.66139 23.3189 2.59727C22.9884 2.53315 22.6464 2.56943 22.3367 2.7015C22.0271 2.83357 21.7641 3.05531 21.5816 3.33821C21.3992 3.6211 21.3056 3.95212 21.313 4.28866L21.6228 20.3575C21.626 20.5274 21.5948 20.6962 21.5312 20.8537C21.4677 21.0113 21.373 21.1544 21.2529 21.2745C21.1327 21.3947 20.9896 21.4893 20.832 21.5529C20.6745 21.6165 20.5057 21.6476 20.3359 21.6445L4.29049 21.3644C3.95442 21.3583 3.62424 21.4527 3.34224 21.6356C3.0603 21.8185 2.83946 22.0816 2.70818 22.391C2.57685 22.7004 2.54104 23.0419 2.60535 23.3718C2.66966 23.7017 2.83117 24.0048 3.06907 24.2422ZM41.6172 61.4165C41.9032 61.7023 42.3671 61.7023 42.6531 61.4165L61.3954 42.6746C61.6818 42.3885 61.6818 41.9247 61.3954 41.6386L42.6532 22.8967C42.3671 22.6106 41.9032 22.6106 41.6172 22.8967L22.8748 41.6386C22.5888 41.9247 22.5888 42.3885 22.8748 42.6746L41.6172 61.4165Z" fill="#FBC01A"/>
<path fill-rule="evenodd" clip-rule="evenodd" d="M57.4552 83.2707V57.6012C57.4552 57.5487 57.452 57.4966 57.4456 57.4456C57.4956 57.452 57.5455 57.4557 57.596 57.4562H83.2709C83.6066 57.4557 83.9344 57.3547 84.2122 57.1667C84.4906 56.9786 84.7063 56.7119 84.8317 56.4006C84.9571 56.0888 84.9863 55.7472 84.9162 55.4189C84.846 55.0906 84.6792 54.7904 84.4375 54.5577L72.8979 43.4101C72.7758 43.2922 72.6785 43.1508 72.6121 42.9945C72.5457 42.8381 72.5112 42.67 72.5112 42.5001C72.5112 42.3302 72.5457 42.1621 72.6121 42.0057C72.6785 41.8494 72.7758 41.708 72.8979 41.5901L84.48 30.4468C84.7233 30.2138 84.8912 29.9132 84.9624 29.5837C85.0331 29.2543 85.0038 28.9111 84.8774 28.5987C84.7515 28.2861 84.5347 28.0186 84.2548 27.8306C83.9753 27.6426 83.6454 27.5428 83.3086 27.544H57.6087C57.5535 27.5442 57.4988 27.5481 57.4446 27.5554C57.451 27.5052 57.4547 27.4543 57.4552 27.4031V1.72924C57.4547 1.39351 57.3543 1.06558 57.1662 0.78749C56.9781 0.509412 56.7109 0.293857 56.3996 0.168466C56.0883 0.0430808 55.7461 0.0135751 55.4178 0.083732C55.0895 0.153889 54.7899 0.320516 54.5566 0.562234L43.409 12.1016C43.2911 12.2239 43.1497 12.3212 42.9933 12.3877C42.837 12.4541 42.6688 12.4884 42.4989 12.4884C42.329 12.4884 42.1609 12.4541 42.0045 12.3877C41.8482 12.3212 41.7068 12.2239 41.5889 12.1016L30.4453 0.520111C30.2123 0.276634 29.9117 0.108605 29.5823 0.0377151C29.2528 -0.0331802 28.9097 -0.00367453 28.5972 0.122418C28.2847 0.248505 28.0171 0.465393 27.8291 0.745059C27.6411 1.02473 27.5413 1.35434 27.5425 1.69132V27.3905C27.5428 27.4468 27.5468 27.5027 27.5544 27.5579C27.4992 27.5503 27.4432 27.5462 27.3869 27.546H1.68713C1.35051 27.5457 1.02148 27.6461 0.742454 27.8344C0.46343 28.0227 0.247201 28.2903 0.121637 28.6026C-0.00393233 28.915 -0.0330881 29.2577 0.0379311 29.5868C0.108961 29.9158 0.276898 30.216 0.520116 30.4488L12.1018 41.5921C12.2242 41.71 12.3215 41.8514 12.3879 42.0077C12.4544 42.1641 12.4887 42.3322 12.4887 42.5021C12.4887 42.672 12.4544 42.8401 12.3879 42.9965C12.3215 43.1528 12.2242 43.2942 12.1018 43.4121L0.558032 54.5598C0.316042 54.7931 0.149321 55.0932 0.0792951 55.4221C0.00926405 55.7504 0.0391266 56.0925 0.165041 56.4043C0.290961 56.7162 0.507174 56.9829 0.785912 57.1704C1.06465 57.3585 1.39317 57.4583 1.72927 57.4583H27.3996C27.4515 57.4583 27.503 57.4552 27.554 57.4488C27.5467 57.503 27.5428 57.5582 27.5425 57.614V83.3127C27.5421 83.6495 27.6426 83.9783 27.8309 84.2578C28.0193 84.5367 28.2868 84.7529 28.5991 84.8783C28.9115 85.0042 29.2542 85.0329 29.5833 84.9622C29.9124 84.891 30.2126 84.7232 30.4453 84.4798L41.5889 72.8986C41.7068 72.7759 41.8482 72.6787 42.0045 72.6123C42.1609 72.5458 42.329 72.5118 42.4989 72.5118C42.6688 72.5118 42.837 72.5458 42.9934 72.6123C43.1497 72.6787 43.2911 72.7759 43.409 72.8986L54.5566 84.4421C54.7899 84.6839 55.0906 84.8507 55.4189 84.9208C55.7477 84.9909 56.0899 84.9612 56.4017 84.8347C56.713 84.7088 56.9803 84.4926 57.1678 84.2142C57.3553 83.9353 57.4557 83.607 57.4552 83.2707ZM56.4846 29.7276C56.4846 29.323 56.1568 28.9951 55.752 28.9951H29.2463C28.8417 28.9951 28.5138 29.323 28.5138 29.7276V56.2327C28.5138 56.637 28.8417 56.9653 29.2463 56.9653H55.752C56.1568 56.9653 56.4846 56.637 56.4846 56.2327V29.7276Z" fill="#0CC4E9"/>
<path d="M56.9154 27.5938H27.5693V58.3982H56.9154V27.5938Z" fill="#0CC4E9"/>
<path fill-rule="evenodd" clip-rule="evenodd" d="M65.2665 53.0411L54.7757 42.5507C54.7544 42.5294 54.7316 42.5095 54.7082 42.4911C54.731 42.4735 54.7528 42.4544 54.7741 42.4339L65.2665 31.9417C65.4036 31.8042 65.496 31.6291 65.5332 31.4385C65.5699 31.248 65.5486 31.0509 65.4726 30.8723C65.3967 30.6938 65.2692 30.5421 65.1061 30.4366C64.9435 30.3311 64.7528 30.2766 64.5589 30.2802L55.2867 30.4403C55.189 30.4421 55.0912 30.4241 55.0004 30.3874C54.909 30.3506 54.8267 30.2959 54.7571 30.2265C54.6875 30.157 54.6328 30.0743 54.5961 29.9833C54.5594 29.8922 54.5414 29.7947 54.543 29.6965L54.722 20.4095C54.7263 20.2148 54.6721 20.0232 54.5669 19.8596C54.4612 19.696 54.3087 19.5679 54.1297 19.4917C53.9501 19.4155 53.7525 19.3948 53.5612 19.4323C53.3699 19.4697 53.1946 19.5636 53.057 19.7018L42.5544 30.2044C42.532 30.2271 42.5112 30.251 42.4921 30.2761C42.4743 30.2529 42.4551 30.2307 42.4345 30.2096L31.9419 19.7174C31.8046 19.5804 31.6294 19.4875 31.4388 19.4508C31.2483 19.414 31.0511 19.435 30.8726 19.511C30.6941 19.587 30.5423 19.7146 30.4368 19.8775C30.3313 20.0403 30.2769 20.231 30.2804 20.425L30.4406 29.6966C30.4424 29.7947 30.4244 29.8923 30.3876 29.9833C30.3509 30.0744 30.2961 30.1571 30.2267 30.2265C30.1573 30.296 30.0746 30.3507 29.9836 30.3874C29.8925 30.4242 29.795 30.4422 29.6968 30.4404L20.4095 30.2613C20.2147 30.257 20.0232 30.3112 19.8597 30.4168C19.696 30.5225 19.5678 30.6748 19.4916 30.8541C19.4155 31.0333 19.3948 31.2312 19.4323 31.4224C19.4697 31.6135 19.5636 31.789 19.7019 31.9262L30.2047 42.4288C30.2278 42.4517 30.2523 42.473 30.278 42.4924C30.2524 42.5118 30.228 42.5329 30.205 42.5558L19.7021 53.0586C19.5644 53.1957 19.471 53.3715 19.4339 53.5622C19.3969 53.7535 19.4179 53.9511 19.4941 54.1301C19.5705 54.3092 19.6987 54.4611 19.8622 54.5663C20.0257 54.672 20.217 54.7257 20.4115 54.7214L29.6988 54.5424C29.7969 54.5408 29.8945 54.5589 29.9855 54.5955C30.0766 54.6322 30.1593 54.6869 30.2287 54.7565C30.2982 54.8255 30.3529 54.9084 30.3896 54.9998C30.4264 55.0906 30.4444 55.1884 30.4426 55.2861L30.2807 64.5596C30.2771 64.7541 30.3317 64.9448 30.4375 65.1074C30.5432 65.2705 30.6952 65.398 30.874 65.4739C31.0528 65.5499 31.2502 65.5706 31.4409 65.5334C31.6316 65.4962 31.8067 65.4033 31.944 65.2657L42.4348 54.7751C42.4558 54.7538 42.4754 54.7315 42.4936 54.7081C42.5127 54.7336 42.5336 54.7575 42.5561 54.7804L53.0592 65.2827C53.1962 65.4208 53.3721 65.5138 53.5628 65.551C53.7541 65.5881 53.9517 65.5669 54.1307 65.4909C54.3097 65.4144 54.4617 65.2864 54.5669 65.1228C54.6726 64.9591 54.7263 64.7679 54.722 64.5735L54.543 55.2867C54.5414 55.1884 54.5594 55.0906 54.5961 54.9998C54.6328 54.9084 54.6875 54.8261 54.7571 54.7565C54.8261 54.6869 54.909 54.6322 55.0004 54.5955C55.0912 54.5589 55.189 54.5408 55.2867 54.5424L64.5605 54.7044C64.7544 54.7081 64.9456 54.6534 65.1082 54.5477C65.2713 54.442 65.3988 54.29 65.4748 54.111C65.5507 53.9325 65.5715 53.7349 65.5343 53.5442C65.4971 53.3535 65.4036 53.1787 65.2665 53.0411ZM43.2059 31.7749C42.9199 31.4888 42.456 31.4888 42.17 31.7749L31.775 42.1696C31.4889 42.4557 31.4889 42.9194 31.775 43.2055L42.17 53.6005C42.456 53.8863 42.9199 53.8863 43.2059 53.6005L53.601 43.2055C53.8869 42.9194 53.8869 42.4557 53.601 42.1696L43.2059 31.7749Z" fill="#FBC01A"/>
<path d="M30.6816 42.6781L42.4909 30.8691L54.2997 42.6779L42.4907 54.4866L30.6816 42.6781Z" fill="#FBC01A"/>
<path d="M42.2495 34.5391L44.2631 36.8043L47.2237 36.1552L47.5213 39.1714L50.2979 40.3864L48.7657 43.0015L50.2979 45.6164L47.5213 46.8314L47.2237 49.8476L44.2631 49.1985L42.2495 51.4637L40.2359 49.1985L37.2754 49.8476L36.9779 46.8314L34.2012 45.6164L35.7334 43.0015L34.2012 40.3864L36.9779 39.1714L37.2754 36.1552L40.2359 36.8043L42.2495 34.5391Z" fill="white"/>
</g>
<defs>
<clipPath id="clip0_709_5567">
<rect width="85" height="85" fill="white"/>
</clipPath>
</defs>
</svg>
