<svg width="111" height="111" viewBox="0 0 111 111" fill="none" xmlns="http://www.w3.org/2000/svg">
<g clip-path="url(#clip0_709_5951)">
<path d="M27.7021 64.8844L55.0129 37.6807L82.3237 64.8844L55.0129 92.0877L27.7021 64.8844Z" fill="#24E2AB"/>
<path d="M36.0967 18.8404L55.0113 0L73.9258 18.8404L55.0113 37.6808L36.0967 18.8404Z" fill="#24E2AB"/>
<path d="M85.7446 14.2964C86.3093 13.734 87.2673 14.2092 87.1577 14.9968L83.8077 39.006C83.7314 39.551 84.1996 40.0172 84.747 39.9415L108.851 36.6045C109.642 36.4951 110.118 37.4499 109.553 38.0121L86.344 61.1308C86.0186 61.4546 85.4921 61.4546 85.1667 61.1308L62.5348 38.5877C62.2097 38.2639 62.2097 37.7389 62.5348 37.415L85.7446 14.2964Z" fill="#FBC01A"/>
<path d="M30.5116 110.749C29.9883 111.271 29.0933 110.903 29.0906 110.166L29.0145 89.3511C29.0129 88.8953 28.6425 88.5262 28.1851 88.5248L7.28806 88.4492C6.54792 88.4464 6.17913 87.555 6.70248 87.0333L23.8768 69.9266C24.2019 69.6026 24.729 69.6026 25.0541 69.9266L47.686 92.4701C48.0111 92.7933 48.0111 93.3185 47.686 93.6425L30.5116 110.749Z" fill="#FBC01A"/>
<path d="M0.904754 38.0121C0.340209 37.4498 0.817191 36.4951 1.60798 36.6046L25.7117 39.9414C26.2587 40.0172 26.7269 39.5509 26.6508 39.006L23.3007 14.9968C23.1909 14.2091 24.1494 13.734 24.7139 14.2964L47.9236 37.415C48.2487 37.7388 48.2487 38.2638 47.9236 38.5877L25.2917 61.1308C24.9666 61.4546 24.4395 61.4546 24.1144 61.1308L0.904754 38.0121Z" fill="#FBC01A"/>
<path d="M103.315 87.0075C103.838 87.5285 103.47 88.4199 102.73 88.4227L81.8135 88.5129C81.3563 88.515 80.9866 88.8834 80.9845 89.3384L80.8943 110.173C80.8915 110.91 79.9966 111.277 79.4735 110.756L62.2975 93.6472C61.9724 93.3232 61.9724 92.7981 62.2975 92.4748L84.9624 69.8987C85.287 69.5754 85.8143 69.5754 86.1396 69.8987L103.315 87.0075Z" fill="#FBC01A"/>
</g>
<defs>
<clipPath id="clip0_709_5951">
<rect width="111" height="111" fill="white"/>
</clipPath>
</defs>
</svg>
