<svg width="111" height="111" viewBox="0 0 111 111" fill="none" xmlns="http://www.w3.org/2000/svg">
<path d="M85.4546 21.4719C85.4546 21.4674 85.4535 21.4629 85.4515 21.4589L75.3831 0.929726C74.9793 0.106331 73.9843 -0.233811 73.1608 0.170032L53.2367 9.94075C52.8417 10.1345 52.3859 10.1635 51.9695 10.0216L30.9651 2.86185C30.0971 2.56597 29.1535 3.02958 28.8575 3.89739L21.6933 24.898C21.551 25.3152 21.2486 25.6586 20.8528 25.8527L0.929737 35.623C0.106356 36.0267 -0.233784 37.0214 0.169987 37.8447L9.93894 57.7632C10.1327 58.1583 10.1617 58.6143 10.0194 59.0308L2.84195 80.0458C2.54546 80.9139 3.00923 81.8579 3.87763 82.1539L24.8794 89.3127C25.2968 89.455 25.6404 89.7574 25.8346 90.1532L35.6028 110.07C36.0066 110.894 37.0017 111.234 37.8252 110.83L57.7489 101.059C58.1441 100.866 58.6001 100.837 59.0167 100.979L80.0345 108.151C80.9026 108.448 81.8466 107.984 82.1427 107.116L89.3067 86.116C89.449 85.6989 89.7514 85.3554 90.1472 85.1613L110.07 75.3911C110.894 74.9873 111.234 73.9927 110.83 73.1694L101.061 53.2506C100.867 52.8556 100.838 52.3999 100.98 51.9836L108.145 30.982C108.441 30.114 107.977 29.1704 107.109 28.8744L85.4747 21.5C85.4627 21.4959 85.4546 21.4846 85.4546 21.4719Z" fill="#FBC01A"/>
<path fill-rule="evenodd" clip-rule="evenodd" d="M85.4874 33.8197C86.1484 33.737 86.6283 34.4336 86.3154 35.0217L60.7169 83.1457C57.9868 88.1911 54.3079 82.5421 50.2513 78.4855L25.1019 53.3358C24.6166 52.8505 24.9044 52.0193 25.5858 51.9379L33.526 50.99C33.9029 50.945 34.2 50.6479 34.245 50.271L35.193 42.3309C35.2744 41.6494 36.1055 41.3617 36.5908 41.847L53.6843 58.9406C54.0733 59.3296 54.7271 59.2343 54.9888 58.7505L71.9655 27.3767C72.2918 26.7736 73.1696 26.8115 73.4428 27.4405L76.4463 34.3559C76.5917 34.6907 76.9404 34.8895 77.3026 34.8442L85.4874 33.8197Z" fill="white"/>
</svg>
