<svg width="111" height="111" viewBox="0 0 111 111" fill="none" xmlns="http://www.w3.org/2000/svg">
<g clip-path="url(#clip0_443_3449)">
<path fill-rule="evenodd" clip-rule="evenodd" d="M57.72 106.207C57.72 106.467 58.2637 106.653 58.7251 106.511L98.8265 93.3544C99.5106 93.1315 99.8957 92.8308 99.9 92.517V68.1967C99.901 67.8781 99.6074 67.5667 99.0552 67.3027C98.5041 67.0387 97.72 66.8341 96.8061 66.7152C95.8911 66.5963 94.8868 66.5688 93.9228 66.636C92.96 66.7032 92.0801 66.8621 91.3992 67.0923L58.7621 78.0524C58.1932 78.2431 57.72 78.5193 57.72 78.8486V106.207Z" fill="#24E2AB"/>
<path fill-rule="evenodd" clip-rule="evenodd" d="M98.833 74.2384C99.0803 74.3188 99.8931 73.7414 99.9002 73.2602L99.9002 31.5485C99.8991 30.8311 98.7903 29.9698 98.7903 29.9698L76.7229 22.6939C76.4203 22.5944 76.0337 22.7764 75.6124 23.2181C75.1914 23.6589 74.7551 24.3388 74.3604 25.1683C73.9653 25.9989 73.6295 26.9423 73.3963 27.8768C73.1635 28.8102 73.0434 29.6933 73.0524 30.4099L73.415 64.735C73.421 65.3332 73.5378 65.8672 73.8509 65.969L98.833 74.2384Z" fill="#24E2AB"/>
<path fill-rule="evenodd" clip-rule="evenodd" d="M11.3148 74.7796C11.0676 74.8607 10.793 74.19 10.7847 73.7085L10.7847 32.0477C10.7847 30.4185 13.0047 29.3085 13.0047 29.3085L33.3116 23.1464C33.6142 23.046 34.0015 23.2272 34.4242 23.6682C34.8465 24.1082 35.2848 24.7875 35.6818 25.6166C36.0792 26.4467 36.4176 27.3899 36.6532 28.3244C36.8886 29.2579 37.0109 30.1413 37.0037 30.8584L36.726 65.2069C36.7214 65.8055 36.6059 66.3401 36.2928 66.4428L11.3148 74.7796Z" fill="#FBC01A"/>
<path fill-rule="evenodd" clip-rule="evenodd" d="M53.2801 106.381C53.2801 106.517 52.9786 106.608 52.7334 106.533L12.1856 93.3689C11.4941 93.1464 11.1043 92.8455 11.1001 92.5311V68.1976C11.099 67.8788 11.3965 67.5673 11.9542 67.3031C12.5118 67.0389 13.3042 66.8342 14.2292 66.7153C15.154 66.5963 16.1692 66.5688 17.1436 66.636C18.118 66.7033 19.0071 66.8623 19.6963 67.0926L52.6961 78.0587C53.0322 78.1702 53.2801 78.3395 53.2801 78.532V106.381Z" fill="#FBC01A"/>
<path d="M67.1308 29.5891C61.2108 36.6254 50.7076 37.5304 43.6713 31.6106C36.635 25.6906 35.7301 15.1876 41.6499 8.1513C47.5699 1.11505 58.0729 0.210049 65.1088 6.12987C72.1451 12.0498 73.0506 22.5528 67.1308 29.5891Z" fill="#24E2AB"/>
</g>
<defs>
<clipPath id="clip0_443_3449">
<rect width="111" height="111" fill="white"/>
</clipPath>
</defs>
</svg>
