<svg width="135" height="135" viewBox="0 0 135 135" fill="none" xmlns="http://www.w3.org/2000/svg">
<path d="M102.433 67.7897C102.433 87.4616 86.4862 103.409 66.8144 103.409C47.1425 103.409 31.1953 87.4616 31.1953 67.7897C31.1953 48.1178 47.1425 32.1707 66.8144 32.1707C86.4862 32.1707 102.433 48.1178 102.433 67.7897Z" fill="#0CC4E9"/>
<path d="M40.1563 45.3042L33.3179 12.4446C32.5057 8.5417 37.3036 5.99657 40.0793 8.85786L63.3533 32.849C63.8513 33.3623 64.2015 34.0004 64.3671 34.696L72.5268 68.9719C73.4643 72.9099 68.6027 75.5748 65.7871 72.6662L41.1918 47.2588C40.6686 46.7184 40.3096 46.0406 40.1563 45.3042Z" fill="#FBC01A"/>
<path d="M62.9032 103.944L41.4299 124.257C38.8795 126.67 34.754 124.25 35.6161 120.846L42.845 92.3105C42.9997 91.7 43.3162 91.1426 43.7611 90.6969L65.6855 68.7385C68.2044 66.2157 72.4491 68.6286 71.5699 72.0837L63.89 102.265C63.7266 102.907 63.3845 103.489 62.9032 103.944Z" fill="#FBC01A"/>
<circle cx="67.7902" cy="67.7898" r="9.27071" fill="white"/>
<path d="M0.285824 68.19C-0.0952751 67.8089 -0.0952742 67.1911 0.285825 66.81L12.2968 54.799C12.6779 54.4179 13.2958 54.4179 13.6769 54.799L25.6878 66.81C26.0689 67.1911 26.0689 67.8089 25.6878 68.19L13.6769 80.201C13.2958 80.5821 12.6779 80.5821 12.2968 80.201L0.285824 68.19Z" fill="#FBC01A"/>
<path d="M54.7989 13.6769C54.4178 13.2958 54.4178 12.6779 54.7989 12.2968L66.8099 0.285824C67.191 -0.0952751 67.8088 -0.0952742 68.1899 0.285825L80.2009 12.2968C80.582 12.6779 80.582 13.2958 80.2009 13.6769L68.1899 25.6878C67.8088 26.0689 67.191 26.0689 66.8099 25.6878L54.7989 13.6769Z" fill="#FBC01A"/>
<path d="M54.7989 122.703C54.4178 122.322 54.4178 121.704 54.7989 121.323L66.8099 109.312C67.191 108.931 67.8088 108.931 68.1899 109.312L80.2009 121.323C80.582 121.704 80.582 122.322 80.2009 122.703L68.1899 134.714C67.8088 135.095 67.191 135.095 66.8099 134.714L54.7989 122.703Z" fill="#FBC01A"/>
<path d="M109.312 68.19C108.931 67.8089 108.931 67.1911 109.312 66.81L121.323 54.799C121.704 54.4179 122.322 54.4179 122.703 54.799L134.714 66.81C135.095 67.1911 135.095 67.8089 134.714 68.19L122.703 80.201C122.322 80.5821 121.704 80.5821 121.323 80.201L109.312 68.19Z" fill="#FBC01A"/>
</svg>
