<svg width="111" height="111" viewBox="0 0 111 111" fill="none" xmlns="http://www.w3.org/2000/svg">
<path d="M7.2062 31.4952C4.7304 31.0004 3.11624 34.0169 4.90151 35.8021L20.6175 51.5181C21.614 52.5147 21.614 54.1305 20.6174 55.127L0.747447 74.9972C-0.24915 75.9936 -0.24915 77.6094 0.747454 78.6057L30.183 108.041C31.1796 109.038 32.7954 109.038 33.792 108.041L53.662 88.1716C54.6586 87.1752 56.2744 87.1752 57.271 88.1716L77.1413 108.041C78.1376 109.038 79.7534 109.038 80.7498 108.041L110.185 78.6057C111.182 77.6094 111.182 75.9936 110.185 74.9972L90.3157 55.1271C89.3186 54.1305 89.3186 52.5147 90.3157 51.5181L105.978 35.8557C107.768 34.0658 106.141 31.0429 103.661 31.5512L74.4155 37.5471C72.6269 37.9139 71.0425 36.3377 71.4006 34.547L77.2939 5.06229C77.7886 2.5865 74.7723 0.972334 72.9872 2.75761L57.271 18.4735C56.2743 19.4702 54.6585 19.4702 53.662 18.4735L37.9996 2.81117C36.2097 1.02128 33.1868 2.6485 33.6951 5.12821L39.691 34.3734C40.0578 36.1624 38.4816 37.7463 36.6909 37.3884L7.2062 31.4952Z" fill="#FF5C00"/>
<path d="M36.5718 60.7177C35.6961 59.8477 35.6961 58.4371 36.5718 57.5671L51.1368 43.0968C52.0125 42.2268 53.4322 42.2268 54.308 43.0968L68.873 57.5671C69.7484 58.4371 69.7484 59.8477 68.873 60.7177L54.308 75.1881C53.4322 76.0583 52.0125 76.0583 51.1368 75.1881L36.5718 60.7177Z" fill="#FBC01A"/>
</svg>
