<?xml version="1.0" encoding="UTF-8"?>
<svg id="_Шар_1" data-name="Шар 1" xmlns="http://www.w3.org/2000/svg" viewBox="0 0 15 15">
  <defs>
    <style>
      .cls-1 {
        fill: #00c6ed;
      }

      .cls-2 {
        fill: #fff;
      }

      .cls-3 {
        fill: #ffbe00;
      }
    </style>
  </defs>
  <path class="cls-3" d="m12.34,3.1v5.32c0,.08-.09.13-.16.09-.38-.23-.83-.36-1.3-.36-1.48-.02-2.7,1.24-2.64,2.72.01.32.09.63.21.92.03.07-.02.15-.1.15H3.02c-.57,0-1.04-.46-1.04-1.04V3.1c0-.57.46-1.04,1.04-1.04h8.28c.57,0,1.04.46,1.04,1.04Z"/>
  <path class="cls-1" d="m13.01,10.86c0,1.14-.93,2.07-2.07,2.07-.81,0-1.51-.46-1.85-1.14-.14-.28-.22-.6-.22-.93,0-1.14.93-2.07,2.07-2.07.44,0,.85.14,1.18.37.54.37.89,1,.89,1.7Z"/>
  <rect class="cls-2" x="10.77" y="9.42" width=".34" height="2.03" rx=".17" ry=".17"/>
  <rect class="cls-2" x="11.32" y="10.63" width=".34" height="1.3" rx=".17" ry=".17" transform="translate(.21 22.77) rotate(-90)"/>
  <rect class="cls-2" x="2.83" y="2.98" width="1.8" height="1.8" rx=".43" ry=".43"/>
  <rect class="cls-2" x="5.16" y="2.98" width="1.8" height="1.8" rx=".43" ry=".43"/>
  <rect class="cls-2" x="7.51" y="2.98" width="1.8" height="1.8" rx=".43" ry=".43"/>
  <rect class="cls-2" x="9.86" y="2.98" width="1.8" height="1.8" rx=".43" ry=".43"/>
  <rect class="cls-2" x="2.81" y="5.8" width="1.8" height="1.8" rx=".43" ry=".43"/>
  <rect class="cls-2" x="5.16" y="5.8" width="1.8" height="1.8" rx=".43" ry=".43"/>
  <rect class="cls-2" x="7.51" y="5.81" width="1.8" height="1.8" rx=".43" ry=".43"/>
  <rect class="cls-2" x="2.84" y="8.63" width="1.8" height="1.8" rx=".43" ry=".43"/>
  <rect class="cls-2" x="5.16" y="8.63" width="1.8" height="1.8" rx=".43" ry=".43"/>
  <rect class="cls-2" x="9.86" y="5.82" width="1.8" height="1.8" rx=".43" ry=".43"/>
</svg>