<svg width="111" height="111" viewBox="0 0 111 111" fill="none" xmlns="http://www.w3.org/2000/svg">
<g clip-path="url(#clip0_709_5963)">
<path fill-rule="evenodd" clip-rule="evenodd" d="M56.3392 12.4371C55.7058 11.8973 54.774 11.8973 54.1405 12.4371L42.2503 22.5699C41.9788 22.8013 41.6413 22.9411 41.2858 22.9694L25.7132 24.2122C24.8834 24.2783 24.2246 24.9372 24.1584 25.7668L22.9157 41.3395C22.8874 41.695 22.7475 42.0325 22.5162 42.304L12.3834 54.1942C11.8436 54.8278 11.8436 55.7595 12.3834 56.3929L22.5162 68.2832C22.7475 68.5546 22.8874 68.8922 22.9157 69.2477L24.1584 84.8207C24.2246 85.6497 24.8834 86.3087 25.7132 86.3753L41.2858 87.6178C41.6413 87.6463 41.9788 87.7857 42.2503 88.0174L54.1405 98.1504C54.774 98.6901 55.7058 98.6901 56.3392 98.1504L68.2295 88.0174C68.5009 87.7857 68.8385 87.6463 69.194 87.6178L84.7663 86.3753C85.5961 86.3087 86.2551 85.6497 86.321 84.8207L87.5642 69.2477C87.5927 68.8922 87.7321 68.5546 87.9638 68.2832L98.096 56.3929C98.6365 55.7595 98.6365 54.8278 98.096 54.1942L87.9638 42.304C87.7321 42.0325 87.5927 41.695 87.5642 41.3395L86.321 25.7668C86.2551 24.9372 85.5961 24.2783 84.7663 24.2122L69.194 22.9694C68.8385 22.9411 68.5009 22.8013 68.2295 22.5699L56.3392 12.4371ZM28.5699 54.0951C27.908 54.757 27.908 55.8302 28.5699 56.4921L53.6206 81.5427C54.2825 82.2045 55.3556 82.2045 56.0175 81.5427L81.0679 56.4921C81.7298 55.8302 81.7298 54.757 81.0679 54.0952L56.0175 29.0445C55.3556 28.3826 54.2825 28.3826 53.6206 29.0445L28.5699 54.0951Z" fill="#FBC01A"/>
<path d="M69.1999 20.413L59.2565 11.4166C58.8282 11.0291 58.9045 10.3362 59.4067 10.0512L76.9209 0.110795C77.3808 -0.150314 77.965 0.0692191 78.1391 0.568683L85.2403 20.9252C85.4443 21.5091 84.9739 22.1075 84.3586 22.0479L69.6865 20.628C69.5054 20.6105 69.3349 20.5351 69.1999 20.413Z" fill="#FF5C00"/>
<path d="M39.8091 20.7229L26.4167 21.3925C25.8399 21.4214 25.4039 20.8775 25.5574 20.3208L30.9128 0.907662C31.0535 0.39773 31.6218 0.13988 32.0981 0.369854L51.5137 9.74287C52.0706 10.0117 52.1613 10.7671 51.684 11.1602L40.3055 20.5308C40.165 20.6465 39.9909 20.7138 39.8091 20.7229Z" fill="#FF5C00"/>
<path d="M20.413 41.2752L11.4166 51.2186C11.0291 51.6468 10.3362 51.5706 10.0512 51.0683L0.110795 33.5543C-0.150314 33.0943 0.0692191 32.5101 0.568683 32.3359L20.9252 25.2347C21.5091 25.031 22.1075 25.501 22.0479 26.1165L20.628 40.7882C20.6105 40.9695 20.5351 41.1402 20.413 41.2752Z" fill="#FF5C00"/>
<path d="M20.7219 70.2346L21.3916 83.6267C21.4204 84.2039 20.8765 84.6396 20.3198 84.4863L0.906686 79.1305C0.396754 78.9904 0.138903 78.4215 0.368878 77.9456L9.74189 58.5299C10.0107 57.973 10.7661 57.8823 11.1592 58.3596L20.5298 69.7379C20.6455 69.8787 20.7129 70.0528 20.7219 70.2346Z" fill="#FF5C00"/>
<path d="M90.3698 39.8091L89.7003 26.4167C89.6712 25.8399 90.2151 25.4039 90.7715 25.5574L110.185 30.9128C110.695 31.0535 110.953 31.6218 110.723 32.0981L101.35 51.5137C101.081 52.0706 100.326 52.1613 99.9325 51.684L90.562 40.3055C90.4461 40.165 90.3788 39.9909 90.3698 39.8091Z" fill="#FF5C00"/>
<path d="M90.5866 69.1999L99.5831 59.2565C99.9702 58.8282 100.663 58.9045 100.948 59.4067L110.888 76.9209C111.15 77.3808 110.93 77.965 110.431 78.1391L90.0739 85.2403C89.4904 85.4443 88.8917 84.9739 88.9514 84.3586L90.3715 69.6865C90.3888 69.5054 90.4645 69.3349 90.5866 69.1999Z" fill="#FF5C00"/>
<path d="M70.2343 90.3679L83.6271 89.6984C84.2036 89.6692 84.64 90.2131 84.486 90.7702L79.1309 110.183C78.9901 110.693 78.4219 110.951 77.9453 110.721L58.5299 101.348C57.9731 101.079 57.8823 100.324 58.3596 99.9305L69.7382 90.56C69.8784 90.4449 70.0525 90.3769 70.2343 90.3679Z" fill="#FF5C00"/>
<path d="M41.2761 90.5875L51.2195 99.5841C51.6478 99.9712 51.5715 100.664 51.0693 100.949L33.5553 110.889C33.0952 111.151 32.511 110.931 32.3368 110.432L25.2357 90.0748C25.0321 89.4914 25.502 88.8927 26.1175 88.9524L40.7892 90.3725C40.9704 90.3898 41.1411 90.4654 41.2761 90.5875Z" fill="#FF5C00"/>
<path d="M42.4826 55.8358C42.1516 55.5049 42.1516 54.9683 42.4826 54.6374L54.6433 42.4767C54.9742 42.1458 55.5108 42.1458 55.8417 42.4767L68.0024 54.6374C68.3333 54.9683 68.3333 55.5049 68.0024 55.8358L55.8417 67.9965C55.5108 68.3274 54.9742 68.3274 54.6433 67.9965L42.4826 55.8358Z" fill="#FF5C00"/>
</g>
<defs>
<clipPath id="clip0_709_5963">
<rect width="111" height="111" fill="white"/>
</clipPath>
</defs>
</svg>
