<?xml version="1.0" encoding="UTF-8"?>
<svg id="_Шар_1" data-name="Шар 1" xmlns="http://www.w3.org/2000/svg" viewBox="0 0 15 15">
  <defs>
    <style>
      .cls-1 {
        fill: #ffbe00;
        fill-rule: evenodd;
      }
    </style>
  </defs>
  <path class="cls-1" d="m8.16,2.28l1.25,2.54c.11.22.31.37.55.4l2.8.41c.6.09.84.82.41,1.25l-2.02,1.97c-.17.17-.25.41-.21.65l.48,2.79c.1.6-.52,1.05-1.06.77l-2.5-1.32c-.21-.11-.47-.11-.68,0l-2.5,1.32c-.54.28-1.16-.17-1.06-.77l.48-2.79c.04-.24-.04-.48-.21-.65l-2.02-1.97c-.43-.42-.19-1.16.41-1.25l2.8-.41c.24-.03.44-.18.55-.4l1.25-2.54c.27-.54,1.04-.54,1.31,0Z"/>
</svg>