<?xml version="1.0" encoding="UTF-8"?>
<svg id="_Шар_1" data-name="Шар 1" xmlns="http://www.w3.org/2000/svg" viewBox="0 0 15 15">
  <defs>
    <style>
      .cls-1 {
        fill: #fa0078;
      }

      .cls-2, .cls-3 {
        fill: #ffbe00;
      }

      .cls-3 {
        fill-rule: evenodd;
      }
    </style>
  </defs>
  <g>
    <path class="cls-1" d="m6.34,5.82c-.74.87-2.05.98-2.92.26-.87-.74-.98-2.04-.26-2.91.74-.87,2.05-.98,2.92-.26.88.73.99,2.04.26,2.91Z"/>
    <path class="cls-1" d="m.85,12.08c-.36-2.87,1.89-5.14,4.04-5.08,2.09.06,4.16,2.34,3.76,5.12"/>
  </g>
  <path class="cls-2" d="m5.86,8.61s.03.04.03.06v2.67c0,.06-.08.09-.12.05l-.96-.94s-.07-.03-.1,0l-.96.94s-.12.01-.12-.05v-2.67s0-.04.03-.06l1.06-.88s.06-.02.09,0l1.05.88Z"/>
  <path class="cls-3" d="m14.19,2.98v3.21l-1.86,2.58-1.14,1.58-.43.6-1.14,1.58s-.08.05-.12,0l-1.14-1.58-2.98-4.13c-.05-.07-.02-.2.06-.2h2.28s.04.01.06.03l1.78,2.47.32-.44,1.26-1.74,2.92-4.05c.05-.07.14-.02.14.08Z"/>
</svg>