<svg width="112" height="111" viewBox="0 0 112 111" fill="none" xmlns="http://www.w3.org/2000/svg">
<path d="M82.782 82.5876C82.782 83.0417 82.4139 83.4099 81.9598 83.4099L64.0629 83.4099C63.6286 83.4099 63.2692 83.0721 63.2422 82.6387L61.9918 62.5409C61.9608 62.0425 62.3774 61.6318 62.8752 61.67L82.0226 63.1379C82.4511 63.1708 82.782 63.528 82.782 63.9577L82.782 82.5876Z" fill="#FBC01A"/>
<path d="M48.2732 82.6518C48.2397 83.0797 47.8827 83.4098 47.4535 83.4098L28.8223 83.4098C28.3682 83.4098 28.0001 83.0417 28.0001 82.5876L28.0001 63.9564C28.0001 63.5272 28.3302 63.1702 28.7581 63.1367L48.9738 61.5521C49.4775 61.5126 49.8972 61.9324 49.8578 62.4361L48.2732 82.6518Z" fill="#FBC01A"/>
<path d="M83.2321 47.4734C83.2321 47.8942 82.9144 48.2471 82.4959 48.2911L62.7131 50.3723C62.1981 50.4265 61.7618 49.9967 61.8082 49.4809L63.673 28.7486C63.7112 28.3247 64.0664 28 64.4919 28L82.4099 28C82.864 28 83.2321 28.3681 83.2321 28.8222L83.2321 47.4734Z" fill="#FBC01A"/>
<path d="M50.6059 49.467C50.6639 49.9869 50.2279 50.4281 49.7073 50.3762L28.7407 48.2879C28.3203 48.246 28 47.8922 28 47.4697L28 28.8226C28 28.3685 28.3681 28.0004 28.8222 28.0004L47.478 28.0004C47.8969 28.0004 48.2488 28.3152 48.2952 28.7315L50.6059 49.467Z" fill="#FBC01A"/>
<rect x="55.1378" y="111" width="27.7019" height="28.7279" rx="0.822222" transform="rotate(-135 55.1378 111)" fill="#FF5C00"/>
<rect x="20.3138" y="76.1765" width="28.7279" height="28.7279" rx="0.822222" transform="rotate(-135 20.3138 76.1765)" fill="#FF5C00"/>
<path d="M91.2692 74.8696C90.9481 75.1907 90.4275 75.1907 90.1064 74.8696L71.6809 56.4442C71.3598 56.1231 71.3598 55.6025 71.6809 55.2814L90.8319 36.1304C91.153 35.8093 91.6736 35.8093 91.9947 36.1304L110.42 54.5559C110.741 54.877 110.741 55.3976 110.42 55.7187L91.2692 74.8696Z" fill="#FF5C00"/>
<rect x="55.8638" y="40.6274" width="28.7279" height="28.7279" rx="0.822222" transform="rotate(-135 55.8638 40.6274)" fill="#FF5C00"/>
<rect x="47" y="65.7986" width="18.7986" height="18.7986" rx="0.822222" transform="rotate(-90 47 65.7986)" fill="#FF5C00"/>
</svg>
