<svg width="111" height="111" viewBox="0 0 111 111" fill="none" xmlns="http://www.w3.org/2000/svg">
<g clip-path="url(#clip0_443_3459)">
<path d="M86.1579 22.0035L76.4536 2.21652C75.8482 0.98109 74.3556 0.470739 73.1196 1.07662L53.3329 10.7806L32.4581 3.65385C31.1556 3.20917 29.7392 3.90487 29.295 5.20756L22.1815 26.068L2.3795 35.7857C1.14446 36.3918 0.634428 37.8842 1.24019 39.1194L10.9445 58.9071L3.83066 79.768C3.38654 81.0706 4.08229 82.4868 5.38465 82.9303L26.2459 90.0441L35.9499 109.831C36.5558 111.067 38.0485 111.577 39.2839 110.971L59.0709 101.268L79.946 108.394C81.2479 108.839 82.6648 108.143 83.1091 106.84L90.2221 85.9799L110.008 76.2763C111.245 75.6701 111.755 74.1769 111.149 72.9415L101.431 53.1409L108.558 32.2653C109.003 30.963 108.308 29.547 107.005 29.1024L86.1299 21.9754L86.1579 22.0035ZM87.3113 30.4981V81.5779C87.3113 84.6436 84.8076 87.1473 81.742 87.1473H30.662C27.596 87.1473 25.0927 84.6436 25.0927 81.5779L25.0786 30.484C25.0786 27.4181 27.582 24.9147 30.6479 24.9147H81.7279C84.7936 24.9147 87.2973 27.4181 87.2973 30.484L87.3113 30.4981Z" fill="#0CC4E9"/>
<path d="M41.9846 29.1284C42.9576 28.1554 44.5351 28.1554 45.5081 29.1284L59.0146 42.6351C59.9877 43.608 59.9877 45.1855 59.0146 46.1585L45.5081 59.6651C44.5351 60.6381 42.9576 60.6381 41.9846 59.6651L28.478 46.1585C27.5051 45.1855 27.5051 43.608 28.478 42.635L41.9846 29.1284Z" fill="#FBC01A"/>
<path d="M41.9917 52.3874C42.9647 51.4145 44.5422 51.4145 45.5152 52.3874L59.0218 65.894C59.9947 66.867 59.9947 68.4445 59.0218 69.4175L45.5152 82.9242C44.5422 83.8968 42.9647 83.8968 41.9917 82.9242L28.4851 69.4175C27.5121 68.4445 27.5121 66.867 28.4851 65.894L41.9917 52.3874Z" fill="#FBC01A"/>
<path d="M55.0495 46.1585C54.0766 45.1855 54.0766 43.608 55.0495 42.6351L68.5561 29.1284C69.5292 28.1554 71.1067 28.1554 72.0793 29.1284L85.5865 42.635C86.5591 43.608 86.5591 45.1855 85.5865 46.1585L72.0793 59.6651C71.1067 60.6381 69.5292 60.6381 68.5561 59.6651L55.0495 46.1585Z" fill="#FBC01A"/>
<path d="M55.0544 69.4197C54.0815 68.4468 54.0815 66.8692 55.0544 65.8963L68.5611 52.3897C69.534 51.4167 71.1117 51.4167 72.0843 52.3897L85.5914 65.8963C86.564 66.8692 86.564 68.4468 85.5914 69.4197L72.0843 82.9262C71.1117 83.8996 69.534 83.8996 68.5611 82.9262L55.0544 69.4197Z" fill="#FBC01A"/>
</g>
<defs>
<clipPath id="clip0_443_3459">
<rect width="111" height="111" fill="white"/>
</clipPath>
</defs>
</svg>
