<?xml version="1.0" encoding="UTF-8"?>
<svg id="_Шар_1" data-name="Шар 1" xmlns="http://www.w3.org/2000/svg" viewBox="0 0 15 15">
  <defs>
    <style>
      .cls-1 {
        fill: #ff4c00;
      }
    </style>
  </defs>
  <path class="cls-1" d="m9.31,2.45c0,1-.81,1.81-1.8,1.81s-1.8-.81-1.8-1.81.8-1.81,1.8-1.81c.99,0,1.8.82,1.8,1.81Z"/>
  <path class="cls-1" d="m8.52,5.85c1.03-1.03,2.68-1.03,3.71,0,1.03,1.04,1.03,2.72,0,3.75l-4.73,4.74s-.05.03-.08,0l-1.77-1.84-1.82-1.84s-.03-.05,0-.08l4.69-4.74Z"/>
  <path class="cls-1" d="m2.76,9.61c-1.03-1.04-1.03-2.71,0-3.75s2.7-1.04,3.73,0l2.91,2.93c.1.1.1.26.01.38l-1.5,1.76c-.04.05-.07.1-.07.17l-.13,2.87c-.01.23-.3.35-.47.18l-4.48-4.54Z"/>
</svg>