<?xml version="1.0" encoding="UTF-8"?>
<svg id="_Шар_1" data-name="Шар 1" xmlns="http://www.w3.org/2000/svg" viewBox="0 0 15 15">
  <defs>
    <style>
      .cls-1 {
        fill: #ff4c00;
      }

      .cls-2 {
        fill: #ffbe00;
      }
    </style>
  </defs>
  <g>
    <path class="cls-1" d="m5.25,5.35c-.61.72-1.7.82-2.42.21-.72-.61-.82-1.69-.21-2.41.61-.72,1.7-.82,2.42-.21.73.6.82,1.69.21,2.41Z"/>
    <path class="cls-1" d="m.7,10.54c-.3-2.38,1.57-4.27,3.35-4.21,1.73.05,3.45,1.94,3.12,4.24"/>
  </g>
  <g>
    <path class="cls-1" d="m12.38,5.35c-.61.72-1.7.82-2.42.21-.72-.61-.82-1.69-.21-2.41.61-.72,1.7-.82,2.42-.21.73.6.82,1.69.21,2.41Z"/>
    <path class="cls-1" d="m7.82,10.54c-.3-2.38,1.57-4.27,3.35-4.21,1.73.05,3.45,1.94,3.12,4.24"/>
  </g>
  <g>
    <path class="cls-2" d="m8.81,7.24c-.61.72-1.7.82-2.42.21-.72-.61-.82-1.69-.21-2.41.61-.72,1.7-.82,2.42-.21.73.6.82,1.69.21,2.41Z"/>
    <path class="cls-2" d="m4.26,12.43c-.3-2.38,1.57-4.27,3.35-4.21,1.73.05,3.45,1.94,3.12,4.24"/>
  </g>
</svg>