<?xml version="1.0" encoding="UTF-8"?>
<svg id="_Шар_1" data-name="Шар 1" xmlns="http://www.w3.org/2000/svg" viewBox="0 0 15 15">
  <defs>
    <style>
      .cls-1, .cls-2 {
        fill: #00c6ed;
      }

      .cls-3 {
        fill: #ffbe00;
      }

      .cls-2 {
        fill-rule: evenodd;
      }
    </style>
  </defs>
  <path class="cls-3" d="m4.71,10.13c-.29.35-.82.39-1.16.1-.35-.29-.39-.81-.1-1.16.29-.35.82-.39,1.16-.1.35.29.4.81.1,1.16Z"/>
  <path class="cls-3" d="m9.04,10.13c-.29.35-.82.39-1.16.1-.35-.29-.39-.81-.1-1.16.29-.35.82-.39,1.16-.1.35.29.4.81.1,1.16Z"/>
  <path class="cls-3" d="m3.56,8.45h5.63c.26,0,.47-.21.47-.47v-3.53c0-.26-.21-.47-.47-.47H2.56c-.31,0-.53.3-.45.59.33,1.18.67,2.36,1,3.53.06.2.24.34.45.34Z"/>
  <rect class="cls-3" x="9.77" y="2.88" width="3.14" height=".9" rx=".45" ry=".45"/>
  <rect class="cls-3" x="7.82" y="3.72" width="3.14" height=".9" rx=".45" ry=".45" transform="translate(.08 8.52) rotate(-48.94)"/>
  <path class="cls-1" d="m6.35,8.77s-.05-.12,0-.17l1.62-1.62s.12-.05.17,0l3.07,3.07c.37.48.39,1.13.06,1.57-.4.53-1.23.66-1.85.21l-3.07-3.07Z"/>
  <path class="cls-2" d="m5.32,6.08c0-.07.05-.12.12-.12h4.79c.07,0,.12.05.12.12v1.68c0,.06-.04.11-.1.12l-2.41.51s-.08.05-.1.1l-.51,2.41c-.01.06-.06.1-.12.1h-1.68c-.07,0-.12-.05-.12-.12v-4.79Z"/>
</svg>