<svg width="135" height="135" viewBox="0 0 135 135" fill="none" xmlns="http://www.w3.org/2000/svg">
<path d="M32.1935 67.6652L2.03154 97.8272C1.63771 98.2222 1.37081 98.7258 1.26512 99.2735C1.15942 99.8212 1.21972 100.388 1.43829 100.901C1.65686 101.414 2.02375 101.851 2.49189 102.154C2.96002 102.457 3.50807 102.614 4.06577 102.603L30.7185 102.143C31.0007 102.138 31.2811 102.19 31.5429 102.295C31.8046 102.401 32.0424 102.558 32.242 102.758C32.4416 102.957 32.5989 103.195 32.7045 103.457C32.8101 103.719 32.8619 103.999 32.8567 104.281L32.342 130.979C32.3296 131.538 32.4854 132.089 32.7891 132.559C33.0929 133.03 33.5307 133.398 34.0459 133.617C34.5612 133.836 35.1303 133.895 35.6797 133.788C36.2291 133.68 36.7336 133.41 37.1281 133.013L67.3197 102.821C67.7076 102.43 67.9262 101.902 67.9285 101.351L68.176 68.9323C68.1627 68.3827 67.9344 67.8603 67.5402 67.4772C67.146 67.0941 66.6172 66.8808 66.0675 66.8832L33.6536 67.0663C33.1075 67.0685 32.5838 67.2834 32.1935 67.6652Z" fill="#FBC01A"/>
<path d="M67.6663 102.806L97.8282 132.968C98.2232 133.362 98.7268 133.629 99.2745 133.735C99.8222 133.84 100.389 133.78 100.902 133.562C101.415 133.343 101.852 132.976 102.155 132.508C102.458 132.04 102.615 131.492 102.604 130.934L102.144 104.281C102.139 103.999 102.191 103.719 102.296 103.457C102.402 103.195 102.559 102.957 102.759 102.758C102.958 102.558 103.196 102.401 103.458 102.295C103.72 102.19 104 102.138 104.282 102.143L130.98 102.658C131.539 102.67 132.09 102.514 132.56 102.211C133.031 101.907 133.399 101.469 133.618 100.954C133.837 100.439 133.896 99.8695 133.789 99.3201C133.681 98.7707 133.411 98.2662 133.014 97.8717L102.822 67.6801C102.431 67.2922 101.903 67.0736 101.352 67.0713L68.9333 66.8239C68.3838 66.8371 67.8613 67.0654 67.4782 67.4596C67.0951 67.8539 66.8818 68.3826 66.8843 68.9323L67.0674 101.346C67.0696 101.892 67.2844 102.416 67.6663 102.806Z" fill="#0CC4E9"/>
<path d="M32.1896 67.3296L2.03264 37.1726C1.6374 36.7782 1.3691 36.2746 1.26226 35.7265C1.15542 35.1785 1.21491 34.611 1.43307 34.0969C1.65123 33.5829 2.01812 33.1459 2.48656 32.842C2.95501 32.5381 3.50362 32.3812 4.06192 32.3915L30.7196 32.8567C31.0018 32.8619 31.2822 32.8101 31.544 32.7045C31.8057 32.5989 32.0435 32.4416 32.2431 32.242C32.4427 32.0424 32.6 31.8047 32.7056 31.5429C32.8112 31.2811 32.863 31.0008 32.8578 30.7186L32.343 4.02123C32.3307 3.46209 32.4862 2.91208 32.7893 2.44208C33.0924 1.97208 33.5294 1.60362 34.0438 1.38421C34.5582 1.1648 35.1266 1.10449 35.6756 1.21105C36.2247 1.3176 36.7292 1.58614 37.1242 1.98205L67.3159 32.1737C67.7037 32.5648 67.9224 33.0928 67.9246 33.6437L68.1721 66.0625C68.1588 66.6121 67.9306 67.1345 67.5363 67.5176C67.1421 67.9008 66.6134 68.114 66.0636 68.1116L33.6646 67.9433C33.1113 67.9411 32.5812 67.7205 32.1896 67.3296Z" fill="#0CC4E9"/>
<path d="M67.6662 32.1885L97.8232 2.03151C98.2176 1.63627 98.7212 1.36797 99.2693 1.26113C99.8173 1.1543 100.385 1.21378 100.899 1.43195C101.413 1.65011 101.85 2.01699 102.154 2.48544C102.458 2.95388 102.615 3.50249 102.604 4.06079L102.139 30.7185C102.134 31.0007 102.186 31.2811 102.291 31.5428C102.397 31.8046 102.554 32.0424 102.754 32.242C102.953 32.4416 103.191 32.5989 103.453 32.7045C103.715 32.8101 103.995 32.8619 104.277 32.8567L130.975 32.3419C131.534 32.3296 132.084 32.485 132.554 32.7882C133.024 33.0913 133.392 33.5282 133.612 34.0427C133.831 34.5571 133.891 35.1255 133.785 35.6745C133.678 36.2235 133.41 36.7281 133.014 37.1231L102.822 67.3147C102.431 67.7026 101.903 67.9213 101.352 67.9235L68.9332 68.171C68.3837 68.1577 67.8613 67.9294 67.4781 67.5352C67.095 67.141 66.8818 66.6122 66.8842 66.0625L67.0524 33.6634C67.0547 33.1101 67.2753 32.5801 67.6662 32.1885Z" fill="#FBC01A"/>
<circle cx="66.9302" cy="68.0958" r="7.30213" fill="white"/>
</svg>
