<svg width="111" height="111" viewBox="0 0 111 111" fill="none" xmlns="http://www.w3.org/2000/svg">
<g clip-path="url(#clip0_709_5979)">
<path d="M83.1406 65.8324L21.9026 30.6171C20.5647 29.8477 20.7648 27.8643 22.2299 27.3733L39.2043 21.6845C40.0622 21.397 40.5716 20.5182 40.3927 19.6345L36.8517 2.14815C36.5461 0.638898 38.1705 -0.525435 39.5085 0.24394L100.746 35.4593C101.604 35.9526 101.898 37.0462 101.402 37.9016L85.5922 65.1768C85.096 66.0323 83.9984 66.3258 83.1406 65.8324Z" fill="#24E2AB"/>
<path d="M52.9006 56.216C54.0616 55.5484 54.0616 53.8801 52.9006 53.2124L21.4103 35.1036C20.8806 34.799 20.2292 34.7933 19.6943 35.0885L7.89701 41.5982C7.03897 42.0916 6.74541 43.185 7.24132 44.0406L15.1437 57.6735C15.465 58.2279 15.465 58.9114 15.1437 59.4658L7.24111 73.0989C6.74521 73.9543 7.03877 75.0483 7.8968 75.5416L69.1347 110.757C70.4724 111.526 72.0969 110.362 71.7916 108.853L68.2505 91.3664C68.0715 90.4826 68.5809 89.6036 69.4388 89.3164L86.4135 83.6278C87.8783 83.1366 88.0783 81.1532 86.7403 80.3839L51.5037 60.1205C50.3066 59.4321 50.3066 57.7077 51.5037 57.0193L52.9006 56.216Z" fill="#FF5C00"/>
<path d="M92.7132 78.3189C92.1647 78.6679 91.4665 78.6838 90.9027 78.3598L58.686 59.8331C57.4888 59.1447 57.4888 57.4204 58.686 56.732L86.6852 40.6307C86.7925 40.569 86.9054 40.5157 87.0267 40.4905C87.7654 40.3372 88.55 40.6617 88.948 41.3482L104.758 68.6234C105.254 69.4786 104.961 70.5727 104.102 71.0659L92.7132 78.3189Z" fill="#24E2AB"/>
<path d="M92.1521 2.76321L72.9267 9.74545C71.5462 10.2469 71.3706 12.1199 72.6347 12.8664L90.3277 23.3155C91.4308 23.9674 92.8399 23.2478 92.9521 21.9752L94.4845 4.54377C94.596 3.27935 93.35 2.32821 92.1521 2.76321Z" fill="#FF5C00"/>
<path d="M29.0256 108.636L44.4715 103.125C45.855 102.632 46.0408 100.76 44.7812 100.006L30.6441 91.5483C29.5441 90.8907 28.1312 91.6024 28.012 92.874L26.7032 106.842C26.5848 108.106 27.8253 109.064 29.0256 108.636Z" fill="#24E2AB"/>
</g>
<defs>
<clipPath id="clip0_709_5979">
<rect width="111" height="111" fill="white"/>
</clipPath>
</defs>
</svg>
