<?xml version="1.0" encoding="UTF-8"?>
<svg id="_Шар_1" data-name="Шар 1" xmlns="http://www.w3.org/2000/svg" viewBox="0 0 15 15">
  <defs>
    <style>
      .cls-1 {
        fill: #fa0078;
      }

      .cls-2 {
        fill: #fff;
      }

      .cls-3 {
        fill: #ffbe00;
      }
    </style>
  </defs>
  <path class="cls-3" d="m.85,1.85s.05-.07.11-.07h10.57c.06,0,.11.03.11.07v7.15s-.04.07-.11.07h-7.18s-.04,0-.06.01l-3.26,1.59c-.07.04-.17,0-.17-.06V1.85h0Z"/>
  <path class="cls-2" d="m2.22,2.98h8.05c.06,0,.11.04.11.11v.61c0,.06-.04.11-.11.11H2.22c-.06,0-.11-.04-.11-.11v-.61c0-.05.04-.11.11-.11Z"/>
  <path class="cls-2" d="m2.22,4.76h8.05c.06,0,.11.04.11.11v.61c0,.06-.04.11-.11.11H2.22c-.06,0-.11-.04-.11-.11v-.61c0-.05.04-.11.11-.11Z"/>
  <path class="cls-2" d="m2.22,6.55h8.05c.06,0,.11.04.11.11v.61c0,.06-.04.11-.11.11H2.22c-.06,0-.11-.04-.11-.11v-.61c0-.06.04-.11.11-.11Z"/>
  <path class="cls-1" d="m3.37,4.37s.05-.07.11-.07h10.57c.06,0,.11.03.11.07v7.15s-.04.07-.11.07h-7.18s-.04,0-.06.01l-3.26,1.59c-.07.04-.17,0-.17-.06V4.37h0Z"/>
  <path class="cls-2" d="m4.73,5.49h8.05c.06,0,.11.04.11.11v.61c0,.06-.04.11-.11.11H4.73c-.06,0-.11-.04-.11-.11v-.61c0-.05.04-.11.11-.11Z"/>
  <path class="cls-2" d="m4.73,7.28h8.05c.06,0,.11.04.11.11v.61c0,.06-.04.11-.11.11H4.73c-.06,0-.11-.04-.11-.11v-.61c0-.05.04-.11.11-.11Z"/>
  <path class="cls-2" d="m4.73,9.06h8.05c.06,0,.11.04.11.11v.61c0,.06-.04.11-.11.11H4.73c-.06,0-.11-.04-.11-.11v-.61c0-.06.04-.11.11-.11Z"/>
</svg>