<?xml version="1.0" encoding="UTF-8"?>
<svg id="_Шар_1" data-name="Шар 1" xmlns="http://www.w3.org/2000/svg" viewBox="0 0 15 15">
  <defs>
    <style>
      .cls-1 {
        fill: #00e6a6;
      }

      .cls-2 {
        fill: #ff4c00;
      }

      .cls-3 {
        fill: #fff;
      }
    </style>
  </defs>
  <path class="cls-1" d="m8.44,2.51h5.31c.24,0,.44.2.44.44v7.26c0,1.26-1.03,2.29-2.29,2.29h-3.46c-.24,0-.44-.2-.44-.44V2.95c0-.24.2-.44.44-.44Z" transform="translate(22.18 15) rotate(-180)"/>
  <path class="cls-1" d="m1.25,2.51h3.46c1.26,0,2.29,1.03,2.29,2.29v7.26c0,.24-.2.44-.44.44H1.25c-.24,0-.44-.2-.44-.44V2.95c0-.24.2-.44.44-.44Z"/>
  <rect class="cls-3" x="9.25" y="4.67" width="4.11" height=".78" rx=".39" ry=".39"/>
  <rect class="cls-3" x="9.25" y="6.24" width="4.11" height=".78" rx=".39" ry=".39"/>
  <rect class="cls-3" x="9.25" y="7.81" width="4.11" height=".78" rx=".39" ry=".39"/>
  <path class="cls-2" d="m8.93,7.27c-.63.74-1.75.84-2.49.22-.74-.63-.84-1.74-.22-2.48.63-.74,1.75-.84,2.49-.22.75.62.85,1.74.22,2.48Z"/>
  <path class="cls-2" d="m3.96,12.49c-.27-2.39,1.64-4.29,3.52-4.21,1.79.08,3.48,1.95,3.21,4.21"/>
</svg>