<svg width="111" height="111" viewBox="0 0 111 111" fill="none" xmlns="http://www.w3.org/2000/svg">
<g clip-path="url(#clip0_805_302)">
<path d="M3.89471 110.426C1.78317 111.397 -0.396829 109.217 0.574258 107.105L23.8725 56.4451C24.1795 55.7777 24.1778 55.0091 23.8679 54.343L0.242797 3.5687C-0.742332 1.45148 1.45148 -0.742334 3.5687 0.242797L54.343 23.8678C55.0091 24.1778 55.7777 24.1795 56.4452 23.8725L107.106 0.574257C109.217 -0.39683 111.397 1.78318 110.426 3.89472L87.1275 54.5549C86.8205 55.2223 86.8226 55.9909 87.1324 56.657L110.757 107.431C111.743 109.548 109.549 111.742 107.432 110.757L56.657 87.132C55.991 86.8222 55.2224 86.8208 54.5549 87.1278L3.89471 110.426Z" fill="#FBC01A"/>
<path d="M53.9347 10.3679C54.5964 9.38779 56.0394 9.38779 56.7011 10.3679L74.0819 36.1104C74.2016 36.2875 74.3544 36.44 74.5311 36.5596L100.274 53.9405C101.254 54.6022 101.254 56.0452 100.274 56.7069L74.5311 74.0875C74.3544 74.2072 74.2016 74.36 74.0819 74.5375L56.7011 100.28C56.0394 101.259 54.5964 101.259 53.9347 100.28L36.5537 74.5375C36.4342 74.36 36.2816 74.2072 36.1045 74.0875L10.362 56.7069C9.38194 56.0452 9.38194 54.6022 10.362 53.9405L36.1045 36.5596C36.2816 36.44 36.4342 36.2875 36.5537 36.1104L53.9347 10.3679Z" fill="#FF5C00"/>
<path d="M55.0324 35.9824C55.361 35.6387 55.91 35.6387 56.2386 35.9824L62.7671 42.8094C62.8771 42.9245 63.0177 43.0057 63.1723 43.0434L72.3491 45.2838C72.8109 45.3965 73.0855 45.8719 72.9518 46.3284L70.3037 55.3957C70.2593 55.5485 70.2593 55.7109 70.3037 55.8636L72.9518 64.931C73.0855 65.3875 72.8109 65.8629 72.3491 65.9756L63.1723 68.216C63.0177 68.2537 62.8771 68.3349 62.7671 68.4499L56.2386 75.2772C55.91 75.6208 55.361 75.6208 55.0324 75.2772L48.5038 68.4499C48.3939 68.3349 48.2532 68.2537 48.0986 68.216L38.922 65.9756C38.46 65.8629 38.1856 65.3875 38.3189 64.931L40.967 55.8636C41.0116 55.7109 41.0116 55.5485 40.967 55.3957L38.3189 46.3284C38.1856 45.8719 38.46 45.3965 38.922 45.2838L48.0986 43.0434C48.2532 43.0057 48.3939 42.9245 48.5038 42.8094L55.0324 35.9824Z" fill="white"/>
</g>
<defs>
<clipPath id="clip0_805_302">
<rect width="111" height="111" fill="white"/>
</clipPath>
</defs>
</svg>
