<svg width="85" height="85" viewBox="0 0 85 85" fill="none" xmlns="http://www.w3.org/2000/svg">
<path d="M20.27 42.6041L1.27911 61.5949C1.03113 61.8437 0.86309 62.1607 0.79654 62.5056C0.729989 62.8504 0.767959 63.2073 0.905576 63.5304C1.04319 63.8535 1.2742 64.1282 1.56895 64.3191C1.8637 64.5101 2.20877 64.6087 2.55991 64.6022L19.3413 64.3124C19.519 64.3091 19.6955 64.3417 19.8603 64.4082C20.0251 64.4747 20.1748 64.5737 20.3005 64.6994C20.4262 64.8251 20.5252 64.9748 20.5917 65.1396C20.6582 65.3044 20.6908 65.4809 20.6875 65.6586L20.3634 82.468C20.3557 82.8205 20.4537 83.1671 20.645 83.4633C20.8362 83.7594 21.1119 83.9914 21.4363 84.1293C21.7607 84.2672 22.119 84.3046 22.465 84.2368C22.8109 84.169 23.1286 83.999 23.3769 83.7489L42.3865 64.7393C42.6307 64.493 42.7684 64.1606 42.7698 63.8138L42.9256 43.4019C42.9172 43.0559 42.7735 42.7269 42.5253 42.4857C42.2771 42.2445 41.9441 42.1102 41.598 42.1117L21.1893 42.227C20.8455 42.2284 20.5157 42.3637 20.27 42.6041Z" fill="#0CC4E9"/>
<path d="M42.6044 64.73L61.5953 83.7209C61.844 83.9689 62.1611 84.1369 62.5059 84.2035C62.8508 84.27 63.2076 84.232 63.5307 84.0944C63.8539 83.9568 64.1285 83.7258 64.3195 83.4311C64.5104 83.1363 64.609 82.7912 64.6025 82.4401L64.3127 65.6587C64.3094 65.481 64.342 65.3045 64.4085 65.1397C64.475 64.9749 64.5741 64.8252 64.6997 64.6995C64.8254 64.5738 64.9751 64.4748 65.1399 64.4083C65.3047 64.3418 65.4813 64.3092 65.659 64.3125L82.4684 64.6366C82.8208 64.6443 83.1675 64.5463 83.4636 64.355C83.7597 64.1638 83.9917 63.8881 84.1296 63.5637C84.2675 63.2393 84.3049 62.881 84.2371 62.535C84.1693 62.1891 83.9994 61.8714 83.7492 61.6231L64.7396 42.6135C64.4934 42.3693 64.161 42.2316 63.8141 42.2302L43.4022 42.0744C43.0562 42.0828 42.7273 42.2265 42.486 42.4747C42.2448 42.7229 42.1105 43.0559 42.1121 43.402L42.2274 63.8107C42.2287 64.1545 42.364 64.4843 42.6044 64.73Z" fill="#0CC4E9"/>
<path d="M20.2674 42.3927L1.27971 23.405C1.03085 23.1567 0.861924 22.8396 0.794657 22.4945C0.727389 22.1494 0.764845 21.7921 0.902205 21.4685C1.03957 21.1448 1.27057 20.8697 1.56551 20.6783C1.86046 20.487 2.20588 20.3882 2.5574 20.3946L19.3419 20.6876C19.5196 20.6909 19.6961 20.6583 19.8609 20.5918C20.0257 20.5253 20.1755 20.4262 20.3011 20.3006C20.4268 20.1749 20.5258 20.0252 20.5923 19.8604C20.6588 19.6956 20.6914 19.519 20.6881 19.3413L20.364 2.53192C20.3563 2.17987 20.4541 1.83356 20.645 1.53764C20.8359 1.24171 21.111 1.00972 21.4349 0.871575C21.7588 0.733428 22.1166 0.695454 22.4623 0.762544C22.808 0.829634 23.1257 0.998711 23.3744 1.24799L42.3839 20.2575C42.6282 20.5038 42.7658 20.8362 42.7673 21.1831L42.9231 41.595C42.9147 41.941 42.771 42.2699 42.5228 42.5111C42.2746 42.7524 41.9416 42.8866 41.5955 42.8851L21.1961 42.7792C20.8477 42.7777 20.514 42.6389 20.2674 42.3927Z" fill="#0CC4E9"/>
<path d="M42.6045 20.2668L61.5922 1.2791C61.8406 1.03024 62.1577 0.861314 62.5027 0.794046C62.8478 0.726778 63.2051 0.764235 63.5288 0.901595C63.8524 1.03896 64.1276 1.26996 64.3189 1.5649C64.5103 1.85985 64.6091 2.20527 64.6026 2.55679L64.3097 19.3413C64.3064 19.519 64.339 19.6955 64.4055 19.8603C64.472 20.0251 64.571 20.1748 64.6967 20.3005C64.8224 20.4262 64.9721 20.5252 65.1369 20.5917C65.3017 20.6582 65.4782 20.6908 65.6559 20.6875L82.4653 20.3634C82.8174 20.3557 83.1637 20.4535 83.4596 20.6444C83.7555 20.8353 83.9875 21.1104 84.1257 21.4343C84.2638 21.7582 84.3018 22.116 84.2347 22.4617C84.1676 22.8074 83.9985 23.1251 83.7493 23.3738L64.7397 42.3833C64.4934 42.6276 64.161 42.7652 63.8142 42.7666L43.4023 42.9225C43.0563 42.9141 42.7273 42.7704 42.4861 42.5222C42.2449 42.2739 42.1106 41.941 42.1121 41.5949L42.2181 21.1955C42.2195 20.8471 42.3584 20.5134 42.6045 20.2668Z" fill="#0CC4E9"/>
<circle cx="42.1411" cy="42.8752" r="4.59764" fill="#DAF9FF"/>
</svg>
