<?xml version="1.0" encoding="UTF-8"?>
<svg id="_Шар_1" data-name="Шар 1" xmlns="http://www.w3.org/2000/svg" viewBox="0 0 15 15">
  <defs>
    <style>
      .cls-1 {
        fill: #ffbe00;
      }

      .cls-2 {
        fill: #00c6ed;
        fill-rule: evenodd;
      }
    </style>
  </defs>
  <path class="cls-2" d="m7.32,4.51s-.09-.03-.13,0l-1.68,1.67c-.59.41-1.38.35-1.89-.13-.53-.5-.62-1.34-.2-1.96l2.67-2.67c.59-.59,1.56-.61,2.17-.05l3.07,2.77c.62.57.69,1.52.15,2.16l-2.43,2.9s-.02.04-.02.06v1.53c-.03.8-.7,1.44-1.49,1.43-.79,0-1.44-.64-1.47-1.43v-2.07c0-.33.11-.67.31-.94l.03-.04,1.89-2.25s.03-.09,0-.13l-.96-.86Z"/>
  <circle class="cls-1" cx="7.56" cy="12.52" r="1.5"/>
</svg>