<?xml version="1.0" encoding="UTF-8"?>
<svg id="_Шар_1" data-name="Шар 1" xmlns="http://www.w3.org/2000/svg" viewBox="0 0 15 15">
  <defs>
    <style>
      .cls-1 {
        fill: #fa0078;
      }

      .cls-2 {
        fill: #00e6a6;
      }

      .cls-3 {
        fill: #fff;
      }
    </style>
  </defs>
  <path class="cls-1" d="m8.32,1.45h5.61c.26,0,.46.21.46.46v7.66c0,1.33-1.08,2.41-2.41,2.41h-3.65c-.26,0-.46-.21-.46-.46V1.92c0-.26.21-.46.46-.46Z" transform="translate(22.24 13.44) rotate(-180)"/>
  <path class="cls-1" d="m1.08,1.45h3.65c1.33,0,2.41,1.08,2.41,2.41v7.66c0,.26-.21.46-.46.46H1.08c-.26,0-.46-.21-.46-.46V1.92c0-.26.21-.46.46-.46Z"/>
  <path class="cls-3" d="m2.66,4.07h9.74c.08,0,.13.05.13.13v.73c0,.08-.05.13-.13.13H2.66c-.08,0-.13-.05-.13-.13v-.73c0-.06.05-.13.13-.13Z"/>
  <path class="cls-3" d="m2.66,6.23h9.74c.08,0,.13.05.13.13v.73c0,.08-.05.13-.13.13H2.66c-.08,0-.13-.05-.13-.13v-.73c0-.06.05-.13.13-.13Z"/>
  <g>
    <path class="cls-2" d="m8.79,7.88c-.66.78-1.84.88-2.63.23-.78-.66-.88-1.83-.23-2.62.66-.78,1.84-.88,2.63-.23.79.65.89,1.83.23,2.62Z"/>
    <path class="cls-2" d="m3.63,13.51c-.33-2.58,1.71-4.63,3.64-4.57,1.88.06,3.74,2.11,3.38,4.6"/>
  </g>
</svg>