<?xml version="1.0" encoding="UTF-8"?>
<svg id="_Шар_1" data-name="Шар 1" xmlns="http://www.w3.org/2000/svg" viewBox="0 0 15 15">
  <defs>
    <style>
      .cls-1 {
        fill: #00e6a6;
      }

      .cls-2 {
        fill: #ff4c00;
      }

      .cls-3 {
        fill: #ffbe00;
      }
    </style>
  </defs>
  <path class="cls-3" d="m10.67,5.65l-2.93,2.99c-.12.12-.29.12-.41,0l-2.99-2.93c-.12-.12-.12-.29,0-.41l2.93-2.99c.12-.12.29-.12.41,0l2.99,2.93c.12.12.12.31,0,.41Z"/>
  <path class="cls-1" d="m7.72,6.91l-2.93,2.99c-.12.12-.29.12-.41,0l-2.99-2.93c-.12-.12-.12-.29,0-.41l2.93-2.99c.12-.12.29-.12.41,0l2.99,2.93c.12.12.12.31,0,.41Z"/>
  <path class="cls-1" d="m13.64,6.91l-2.93,2.99c-.12.12-.29.12-.41,0l-2.99-2.93c-.12-.12-.12-.29,0-.41l2.93-2.99c.12-.12.29-.12.41,0l2.99,2.93c.12.12.12.31,0,.41Z"/>
  <path class="cls-2" d="m13.83,6.09c.18,0,.31.13.3.31-.06,1.64-.74,3.22-1.89,4.4-1.23,1.26-2.91,1.97-4.67,1.99s-3.45-.66-4.71-1.89c-1.18-1.16-1.89-2.72-1.98-4.36-.02-.16.13-.31.29-.31l12.66-.13Z"/>
</svg>