<?xml version="1.0" encoding="UTF-8"?>
<svg id="_Шар_1" data-name="Шар 1" xmlns="http://www.w3.org/2000/svg" viewBox="0 0 15 15">
  <defs>
    <style>
      .cls-1 {
        fill: #fa0078;
      }

      .cls-2 {
        fill: #00c6ed;
      }

      .cls-3 {
        fill: #fff;
      }
    </style>
  </defs>
  <path class="cls-2" d="m8.32,2.24h5.6c.26,0,.46.21.46.46v7.65c0,1.33-1.08,2.41-2.41,2.41h-3.65c-.26,0-.46-.21-.46-.46V2.7c0-.26.21-.46.46-.46Z" transform="translate(22.23 15) rotate(-180)"/>
  <path class="cls-1" d="m1.09,2.24h3.65c1.33,0,2.41,1.08,2.41,2.41v7.65c0,.26-.21.46-.46.46H1.09c-.26,0-.46-.21-.46-.46V2.7c0-.26.21-.46.46-.46Z"/>
  <path class="cls-3" d="m2.67,4.85h9.72c.08,0,.13.05.13.13v.73c0,.08-.05.13-.13.13H2.67c-.08,0-.13-.05-.13-.13v-.73c0-.06.05-.13.13-.13Z"/>
  <path class="cls-3" d="m2.67,7.01h9.72c.08,0,.13.05.13.13v.73c0,.08-.05.13-.13.13H2.67c-.08,0-.13-.05-.13-.13v-.73c0-.06.05-.13.13-.13Z"/>
  <path class="cls-3" d="m2.67,9.16h9.72c.08,0,.13.05.13.13v.73c0,.08-.05.13-.13.13H2.67c-.08,0-.13-.05-.13-.13v-.73c0-.08.05-.13.13-.13Z"/>
</svg>