<svg width="160" height="161" viewBox="0 0 160 161" fill="none" xmlns="http://www.w3.org/2000/svg">
<path d="M144.416 75.8421L154.591 46.0824C155.226 44.2244 154.235 42.2031 152.377 41.5679L122.617 31.3929L108.744 3.13631C107.878 1.37319 105.747 0.645982 103.984 1.51226L75.7553 15.3844L45.9665 5.20831C44.1088 4.57363 42.088 5.56496 41.4528 7.42268L31.2778 37.1831L3.04777 51.0559C1.28539 51.9219 0.558792 54.0529 1.42487 55.8151L15.2976 84.0451L5.12267 113.805C4.48737 115.663 5.47864 117.684 7.33674 118.319L37.0963 128.494L50.9698 156.751C51.8353 158.514 53.9665 159.241 55.7295 158.375L83.9583 144.503L113.717 154.677C115.575 155.313 117.597 154.321 118.232 152.462L128.407 122.676L156.665 108.802C158.428 107.936 159.155 105.806 158.29 104.043L144.416 75.7854V75.8421ZM137.008 85.5779L85.4625 137.123C82.3688 140.217 77.3163 140.217 74.2225 137.123L22.6774 85.5779C19.5835 82.4838 19.5835 77.4316 22.6774 74.3376L74.2225 22.7642C77.3163 19.6704 82.3688 19.6704 85.4625 22.7642L137.008 74.3094C140.102 77.4031 140.102 82.4556 137.008 85.5494V85.5779Z" fill="#FBC01A"/>
<path d="M99.5684 79.9572C99.5684 69.0577 90.7411 60.2302 79.8416 60.2302C68.9424 60.2302 60.1149 69.0577 60.1149 79.9572C60.1149 90.8565 68.9424 99.684 79.8416 99.684C90.7411 99.684 99.5684 90.8565 99.5684 79.9572Z" fill="#FF5C00"/>
</svg>
