<svg width="111" height="111" viewBox="0 0 111 111" fill="none" xmlns="http://www.w3.org/2000/svg">
<rect width="21.9725" height="21.9725" rx="0.822222" transform="matrix(-0.707556 0.706657 -0.707556 -0.706657 70.8675 55.8595)" fill="#FF5C00"/>
<circle r="10.0188" transform="matrix(-0.707556 -0.706657 0.707556 -0.706657 56.03 95.5067)" fill="#FF5C00"/>
<circle r="10.0188" transform="matrix(-0.707556 -0.706657 0.707556 -0.706657 17.041 56.5676)" fill="#FF5C00"/>
<circle r="10.0188" transform="matrix(-0.707556 -0.706657 0.707556 -0.706657 56.0291 17.6293)" fill="#FF5C00"/>
<circle r="10.0188" transform="matrix(-0.707556 -0.706657 0.707556 -0.706657 95.0188 56.5675)" fill="#FF5C00"/>
<path d="M91.7609 32.215L71.3324 43.2512C68.9061 44.562 66.2672 41.8893 67.6137 39.4847L78.9033 19.3227C79.1449 18.8914 79.4984 18.5331 79.9268 18.2857L101.032 6.09415C103.457 4.69343 106.188 7.38458 104.818 9.82493L92.8515 31.1423C92.5969 31.5957 92.2188 31.9677 91.7609 32.215Z" fill="#FBC01A"/>
<path d="M32.1147 19.2145L43.1649 39.617C44.4774 42.0403 41.8013 44.6758 39.3936 43.3311L19.206 32.0558C18.7741 31.8145 18.4154 31.4614 18.1677 31.0336L5.96063 9.95501C4.55813 7.53323 7.2527 4.80585 9.69615 6.17401L31.0406 18.1253C31.4946 18.3796 31.8671 18.7572 32.1147 19.2145Z" fill="#FBC01A"/>
<path d="M30.0876 93.8096L9.65909 104.846C7.23271 106.157 4.59388 103.484 5.94033 101.079L17.23 80.9173C17.4715 80.486 17.8251 80.1277 18.2534 79.8803L39.3588 67.6888C41.7837 66.288 44.5145 68.9792 43.1446 71.4195L31.1781 92.7369C30.9236 93.1903 30.5455 93.5623 30.0876 93.8096Z" fill="#FBC01A"/>
<path d="M93.7878 80.8091L104.838 101.212C106.151 103.635 103.474 106.27 101.067 104.926L80.8791 93.6504C80.4472 93.4092 80.0885 93.0561 79.8407 92.6283L67.6337 71.5497C66.2312 69.1279 68.9258 66.4005 71.3692 67.7687L92.7137 79.72C93.1677 79.9742 93.5402 80.3519 93.7878 80.8091Z" fill="#FBC01A"/>
</svg>
