<svg width="135" height="135" viewBox="0 0 135 135" fill="none" xmlns="http://www.w3.org/2000/svg">
<path d="M79.757 84.946C80.3171 84.946 80.7712 85.4 80.7712 85.9602V129.217C80.7712 129.776 80.3171 130.231 79.757 130.231H1.01606C0.169737 130.231 -0.304289 129.255 0.218692 128.59L16.2324 108.214C16.5215 107.847 16.5215 107.329 16.2324 106.961L0.218692 86.5863C-0.304289 85.9214 0.169737 84.946 1.01606 84.946H79.757Z" fill="#FBC01A"/>
<path d="M130.399 79.7568C130.399 80.317 129.945 80.771 129.384 80.771H86.128C85.5677 80.771 85.1138 80.317 85.1138 79.7568V1.01608C85.1138 0.169736 86.0892 -0.30429 86.7549 0.218691L107.129 16.2324C107.497 16.5215 108.015 16.5215 108.383 16.2324L128.757 0.218691C129.423 -0.304281 130.399 0.169736 130.399 1.01608V79.7568Z" fill="#FBC01A"/>
<path d="M22.2808 23.2861C22.2808 22.726 22.7348 22.272 23.295 22.272H79.7639C80.324 22.272 80.7781 22.726 80.7781 23.2861V79.7555C80.7781 80.3149 80.324 80.7689 79.7639 80.7689H23.295C22.7348 80.7689 22.2808 80.3149 22.2808 79.7555V23.2861Z" fill="#0CC4E9"/>
<path d="M85.1243 127.296V88.2935C85.1243 87.173 86.0322 86.2651 87.1527 86.2651H126.155C127.962 86.2651 128.867 88.4496 127.589 89.7279L88.5871 128.73C87.3096 130.007 85.1243 129.103 85.1243 127.296Z" fill="#0CC4E9"/>
<path d="M99.9035 114.007C99.1112 113.215 99.1112 111.931 99.9035 111.138L109.997 101.044C110.79 100.252 112.074 100.252 112.866 101.044L133.265 121.442C134.057 122.235 134.057 123.519 133.265 124.311L123.17 134.406C122.378 135.198 121.094 135.198 120.302 134.406L99.9035 114.007Z" fill="#0CC4E9"/>
</svg>
