<?xml version="1.0" encoding="UTF-8"?>
<svg id="_Шар_1" data-name="Шар 1" xmlns="http://www.w3.org/2000/svg" viewBox="0 0 15 15">
  <defs>
    <style>
      .cls-1 {
        fill: #00e6a6;
      }

      .cls-2 {
        fill: #ffbe00;
      }
    </style>
  </defs>
  <path class="cls-1" d="m5.8,4.61l5.93-1.88c.09-.03.16-.03.24,0,.08.02.14.08.19.14.06.07.08.13.09.21s-.01.16-.05.23l-1.88,3.43s-.04.07-.04.11,0,.07.01.12c.01.04.03.07.06.1.02.03.06.05.09.07l3.46,1.73c.07.04.14.09.17.16.03.07.05.15.05.23,0,.09-.05.16-.09.23-.05.06-.11.11-.2.14l-5.93,1.88c-.07.02-.15.01-.23-.03l-4.18-2.16c-.07-.04-.13-.1-.14-.19-.01-.08-.01-.15.03-.23l2.24-4.19s.1-.09.17-.11Z"/>
  <path class="cls-2" d="m8.11,5.01s0,0,0,0l-.74-1.77c-.03-.07-.11-.1-.18-.07l-1.72.73s-.07.02-.1,0l-1.72-.7c-.07-.03-.15,0-.18.08l-.7,1.72s-.04.06-.07.08l-1.72.73c-.07.03-.1.11-.07.18l.73,1.71s.02.07,0,.1l-.7,1.73c-.03.07,0,.15.07.18l1.73.7s.06.04.07.07l.73,1.71c.03.07.11.1.18.07l1.71-.73s.08-.02.11,0l1.72.7c.07.03.15,0,.18-.08l.7-1.72s.04-.06.07-.08l1.72-.73c.07-.03.1-.11.07-.18l-.73-1.71s-.02-.07,0-.1l.7-1.72c.03-.07,0-.15-.07-.18l-1.78-.72h0Z"/>
</svg>