<svg width="111" height="111" viewBox="0 0 111 111" fill="none" xmlns="http://www.w3.org/2000/svg">
<path d="M87.4943 78.969C69.8905 96.7226 41.3499 96.7226 23.7464 78.969C23.7278 78.9506 23.7278 78.9198 23.7464 78.9006L77.9826 24.2029C78.625 23.5552 79.725 23.9304 79.8454 24.8383L83.2084 50.1627C83.2741 50.6571 83.6599 51.046 84.1497 51.1122L109.935 54.5948C110.559 54.6791 110.817 55.4481 110.372 55.897L87.4943 78.969Z" fill="#24E2AB"/>
<path d="M86.8658 78.1529C87.294 78.5846 87.294 79.2851 86.8658 79.7174L77.4492 89.2133C65.4561 101.309 46.0108 101.309 34.0173 89.2133L1.46314 56.3823C0.820903 55.7346 1.19289 54.6253 2.09313 54.5037L27.2038 51.1122C27.6941 51.046 28.0797 50.6571 28.1454 50.1627L31.5082 24.8383C31.6288 23.9304 32.7287 23.5552 33.3709 24.203L86.8658 78.1529Z" fill="#24E2AB"/>
<path d="M65.2754 23.236C65.2754 28.4713 61.0672 32.7154 55.876 32.7154C50.6848 32.7154 46.4766 28.4713 46.4766 23.236C46.4766 18.0006 50.6848 13.7566 55.876 13.7566C61.0672 13.7566 65.2754 18.0006 65.2754 23.236Z" fill="#FF5C00"/>
<path d="M61.2365 41.0963C66.6183 35.6687 75.3437 35.6687 80.7255 41.0963C86.1202 46.5369 86.1059 55.3622 80.6933 60.7844L55.8736 85.6477C55.7599 85.7612 55.576 85.7599 55.4638 85.6443L46.1275 76.0218L36.5595 66.3959C36.4464 66.2824 36.4463 66.0977 36.5592 65.9834L61.2365 41.0963Z" fill="#FF5C00"/>
<path d="M31.0119 60.801C25.621 55.3644 25.621 46.5497 31.0119 41.1129C36.4028 35.6762 45.1431 35.6762 50.5339 41.1129L65.7997 56.5086C66.3292 57.0426 66.3614 57.8977 65.8736 58.4706L58.0414 67.6711C57.8332 67.9153 57.7121 68.2232 57.6974 68.5454L57.0112 83.603C56.9541 84.8562 55.448 85.4452 54.5681 84.558L31.0119 60.801Z" fill="#FF5C00"/>
</svg>
