<svg width="111" height="111" viewBox="0 0 111 111" fill="none" xmlns="http://www.w3.org/2000/svg">
<g clip-path="url(#clip0_635_4821)">
<path d="M5.26687 89.9576C10.6998 89.9576 16.1812 91.2306 21.0824 93.6081C25.4049 95.7214 30.137 96.8267 34.8693 96.8267H76.1578C80.8899 96.8267 85.6233 95.7228 89.8725 93.6564C94.846 91.2071 100.327 89.9576 105.76 89.9576C108.054 89.9576 110.058 88.6136 111 86.668H0C0.965841 88.6129 2.97092 89.9576 5.26465 89.9576H5.26687Z" fill="#FF5C00"/>
<path d="M5.26687 74.6395C10.6998 74.6395 16.1812 75.889 21.0824 78.29C25.4049 80.4033 30.137 81.5086 34.8693 81.5086H76.1578C80.8899 81.5086 85.6233 80.404 89.8725 78.3383C94.846 75.889 100.327 74.6395 105.76 74.6395C108.054 74.6395 110.058 73.2955 111 71.3499L0 71.3505C0.965841 73.319 2.97092 74.6395 5.26465 74.6395H5.26687Z" fill="#FF5C00"/>
<path d="M5.26687 59.342C10.6998 59.342 16.1812 60.5909 21.0824 62.9924C25.4049 65.1299 30.137 66.2107 34.8693 66.2107H76.1578C80.8899 66.2107 85.6233 65.1301 89.8725 63.0406C94.846 60.591 100.327 59.342 105.76 59.342C108.054 59.342 110.058 57.9976 111 56.052H0C0.965841 57.9967 2.97092 59.342 5.26465 59.342H5.26687Z" fill="#FF5C00"/>
<path fill-rule="evenodd" clip-rule="evenodd" d="M75.5183 54.5087H65.9465C65.154 49.4624 60.7643 45.6015 55.4679 45.6015C50.1715 45.6015 45.7819 49.4624 44.9893 54.5087H35.0752L13.2001 40.1563C11.8292 39.2569 12.4696 37.1352 14.1119 37.1352H34.3513C35.2658 37.1352 36.0071 36.398 36.0071 35.4886V15.3601C36.0071 13.7268 38.1404 13.09 39.0448 14.4534L53.8186 36.7243C54.471 37.7079 55.9208 37.7115 56.5782 36.7312L71.5529 14.3977C72.4617 13.0424 74.5866 13.6822 74.5866 15.3113V35.4886C74.5866 36.398 75.3276 37.1352 76.2419 37.1352H96.4814C98.1242 37.1352 98.7645 39.2569 97.3937 40.1563L75.5183 54.5087Z" fill="#0CC4E9"/>
</g>
<defs>
<clipPath id="clip0_635_4821">
<rect width="111" height="111" fill="white"/>
</clipPath>
</defs>
</svg>
