<?xml version="1.0" encoding="UTF-8"?>
<svg id="_Шар_1" data-name="Шар 1" xmlns="http://www.w3.org/2000/svg" viewBox="0 0 15 15">
  <defs>
    <style>
      .cls-1 {
        fill: #fa0078;
      }

      .cls-2 {
        fill: #fff;
      }

      .cls-3 {
        fill: #ffbe00;
        fill-rule: evenodd;
      }
    </style>
  </defs>
  <rect class="cls-1" x=".98" y="1.17" width="11.23" height="12.67" rx="1.65" ry="1.65"/>
  <rect class="cls-2" x="8.24" y="10" width="2.93" height="2.93" rx=".41" ry=".41"/>
  <path class="cls-2" d="m2.4,3.67h8.38c.07,0,.11.04.11.11v.63c0,.07-.04.11-.11.11H2.4c-.07,0-.11-.04-.11-.11v-.63c0-.07.04-.11.11-.11Z"/>
  <path class="cls-2" d="m2.4,5.63h8.38c.07,0,.11.04.11.11v.63c0,.07-.04.11-.11.11H2.4c-.07,0-.11-.04-.11-.11v-.63c0-.07.04-.11.11-.11Z"/>
  <path class="cls-3" d="m14.02,6.65v2.27l-1.32,1.82-.81,1.12-.31.42-.81,1.12s-.06.03-.08,0l-.81-1.12-2.11-2.92s-.01-.14.04-.14h1.61s.03,0,.04.02l1.26,1.75.22-.31.89-1.23,2.07-2.86c.04-.05.1-.02.1.06Z"/>
</svg>