<?xml version="1.0" encoding="UTF-8"?>
<svg id="_Шар_1" data-name="Шар 1" xmlns="http://www.w3.org/2000/svg" viewBox="0 0 15 15">
  <defs>
    <style>
      .cls-1 {
        fill: #ff4c00;
      }

      .cls-2 {
        fill: #fff;
      }

      .cls-3 {
        fill: #ffbe00;
      }
    </style>
  </defs>
  <path class="cls-1" d="m8.32,2.22h5.61c.26,0,.46.21.46.46v7.67c0,1.33-1.08,2.42-2.42,2.42h-3.66c-.26,0-.46-.21-.46-.46V2.69c0-.26.21-.46.46-.46Z" transform="translate(22.25 15) rotate(-180)"/>
  <path class="cls-1" d="m1.07,2.22h3.66c1.33,0,2.42,1.08,2.42,2.42v7.67c0,.26-.21.46-.46.46H1.07c-.26,0-.46-.21-.46-.46V2.69c0-.26.21-.46.46-.46Z"/>
  <path class="cls-2" d="m2.65,4.84h9.76c.08,0,.13.05.13.13v.73c0,.08-.05.13-.13.13H2.65c-.08,0-.13-.05-.13-.13v-.73c0-.06.05-.13.13-.13Z"/>
  <path class="cls-2" d="m2.65,7h9.76c.08,0,.13.05.13.13v.73c0,.08-.05.13-.13.13H2.65c-.08,0-.13-.05-.13-.13v-.73c0-.06.05-.13.13-.13Z"/>
  <path class="cls-2" d="m2.65,9.17h9.76c.08,0,.13.05.13.13v.73c0,.08-.05.13-.13.13H2.65c-.08,0-.13-.05-.13-.13v-.73c0-.08.05-.13.13-.13Z"/>
  <path class="cls-3" d="m10.03,5.45s0,0,0,0l-.7-1.66c-.03-.07-.1-.1-.17-.07l-1.61.68s-.07.02-.1,0l-1.62-.66c-.07-.03-.14,0-.17.07l-.66,1.62s-.04.06-.07.07l-1.61.68c-.07.03-.1.1-.07.17l.68,1.61s.02.07,0,.1l-.66,1.62c-.03.07,0,.14.07.17l1.62.66s.06.04.07.07l.68,1.61c.03.07.1.1.17.07l1.61-.68s.07-.02.1,0l1.62.66c.07.03.14,0,.17-.07l.66-1.62s.04-.06.07-.07l1.61-.68c.07-.03.1-.1.07-.17l-.68-1.61s-.02-.07,0-.1l.66-1.62c.03-.07,0-.14-.07-.17l-1.67-.68h0Z"/>
</svg>