<svg width="111" height="111" viewBox="0 0 111 111" fill="none" xmlns="http://www.w3.org/2000/svg">
<path d="M72.9441 73.6725C73.8897 73.6725 74.6603 74.4396 74.6175 75.3843C74.1976 84.6613 70.3761 93.4713 63.8671 100.067C56.959 107.067 47.5895 111 37.82 111C28.0504 111 18.6809 107.067 11.7728 100.067C5.26379 93.4713 1.44228 84.6613 1.02236 75.3843C0.979602 74.4396 1.7502 73.6725 2.69578 73.6725H72.9441Z" fill="#FF5C00"/>
<path d="M37.3281 72.9427C37.3281 73.8883 36.561 74.659 35.6164 74.6156C26.3393 74.1901 17.5293 70.3176 10.9336 63.7219C3.93332 56.7216 0.000618296 47.2273 0.000617981 37.3274C0.000617666 27.4276 3.93332 17.9332 10.9336 10.9329C17.5293 4.3372 26.3393 0.464731 35.6164 0.0392163C36.5609 -0.00410964 37.3281 0.766536 37.3281 1.71212L37.3281 72.9427Z" fill="#FBC01A"/>
<path d="M38.0579 36.8363C37.1124 36.8363 36.3417 36.0692 36.3856 35.1246C36.8107 25.9778 40.6313 17.2927 47.1349 10.7891C54.0431 3.88095 63.4125 -1.16501e-07 73.1821 0C82.9517 1.16501e-07 92.3212 3.88095 99.2293 10.7891C105.733 17.2927 109.554 25.9778 109.979 35.1246C110.023 36.0692 109.252 36.8363 108.306 36.8363H38.0579Z" fill="#FF5C00"/>
<path d="M74.1643 38.0573C74.1643 37.1117 74.9314 36.3409 75.876 36.3854C85.0227 36.8162 93.7079 40.6877 100.212 47.2781C107.12 54.2783 111.001 63.7727 111.001 73.6726C111.001 83.5724 107.12 93.0668 100.212 100.067C93.7079 106.657 85.0227 110.529 75.876 110.96C74.9314 111.004 74.1643 110.233 74.1643 109.288L74.1643 38.0573Z" fill="#FBC01A"/>
<path fill-rule="evenodd" clip-rule="evenodd" d="M55.9912 42.8865C49.8388 42.8865 44.8512 47.874 44.8512 54.0265C44.8512 60.179 49.8388 65.1665 55.9912 65.1665C62.1437 65.1665 67.1312 60.179 67.1312 54.0265C67.1312 47.874 62.1437 42.8865 55.9912 42.8865ZM55.9912 81.5309C71.1815 81.5309 83.4957 69.2168 83.4957 54.0265C83.4957 38.8362 71.1815 26.5221 55.9912 26.5221C40.8009 26.5221 28.4868 38.8362 28.4868 54.0265C28.4868 69.2168 40.8009 81.5309 55.9912 81.5309Z" fill="white"/>
<rect x="37.3275" y="55.0088" width="26.5221" height="26.5221" rx="1.64444" transform="rotate(-45 37.3275 55.0088)" fill="#FF5C00"/>
</svg>
