<?xml version="1.0" encoding="UTF-8"?>
<svg id="_Шар_1" data-name="Шар 1" xmlns="http://www.w3.org/2000/svg" viewBox="0 0 15 15">
  <defs>
    <style>
      .cls-1 {
        fill: #ff4c00;
      }

      .cls-2 {
        fill: #ffbe00;
      }

      .cls-3 {
        fill: #fa0078;
        fill-rule: evenodd;
      }
    </style>
  </defs>
  <path class="cls-3" d="m7.84.9l.52,1.05c.04.09.13.15.23.17l1.16.17c.25.04.35.34.17.52l-.84.82c-.07.07-.1.17-.09.27l.2,1.15c.04.25-.22.44-.44.32l-1.03-.54c-.09-.05-.19-.05-.28,0l-1.03.54c-.22.12-.48-.07-.44-.32l.2-1.15c.02-.1-.02-.2-.09-.27l-.84-.82c-.18-.17-.08-.48.17-.52l1.16-.17c.1-.01.18-.08.23-.17l.52-1.05c.11-.22.43-.22.54,0Z"/>
  <path class="cls-1" d="m5.54,7.12c-.61.72-1.7.82-2.43.21-.72-.61-.82-1.7-.21-2.42.61-.72,1.7-.82,2.43-.21.73.61.83,1.7.21,2.42Z"/>
  <path class="cls-1" d="m.76,12.33c-.3-2.39,1.58-4.28,3.36-4.23,1.74.05,3.46,1.95,3.13,4.26"/>
  <path class="cls-1" d="m12.52,7.12c-.61.72-1.7.82-2.43.21-.72-.61-.82-1.7-.21-2.42.61-.72,1.7-.82,2.43-.21.73.61.83,1.7.21,2.42Z"/>
  <path class="cls-1" d="m7.74,12.33c-.3-2.39,1.58-4.28,3.36-4.23,1.74.05,3.46,1.95,3.13,4.26"/>
  <g>
    <path class="cls-2" d="m8.89,9.02c-.61.72-1.7.82-2.43.21-.72-.61-.82-1.7-.21-2.42.61-.72,1.7-.82,2.43-.21.73.61.83,1.7.21,2.42Z"/>
    <path class="cls-2" d="m4.32,14.23c-.3-2.39,1.58-4.28,3.36-4.23,1.74.05,3.46,1.95,3.13,4.26"/>
  </g>
</svg>