<?xml version="1.0" encoding="UTF-8"?>
<svg id="_Шар_1" data-name="Шар 1" xmlns="http://www.w3.org/2000/svg" viewBox="0 0 15 15">
  <defs>
    <style>
      .cls-1 {
        fill: #00c6ed;
      }

      .cls-2 {
        fill: #ff4c00;
      }

      .cls-3 {
        fill: #ffbe00;
      }
    </style>
  </defs>
  <rect class="cls-1" x=".53" y="2.21" width="13.94" height="9.55" rx="1.39" ry="1.39"/>
  <g>
    <g>
      <path class="cls-2" d="m5.67,6.73c-.52.61-1.45.69-2.06.18-.61-.52-.69-1.44-.18-2.05.52-.61,1.45-.69,2.06-.18.62.51.7,1.44.18,2.05Z"/>
      <path class="cls-2" d="m1.79,11.15c-.26-2.03,1.34-3.63,2.85-3.59,1.47.05,2.94,1.65,2.66,3.61"/>
    </g>
    <g>
      <path class="cls-2" d="m11.74,6.73c-.52.61-1.45.69-2.06.18-.61-.52-.69-1.44-.18-2.05.52-.61,1.45-.69,2.06-.18.62.51.7,1.44.18,2.05Z"/>
      <path class="cls-2" d="m7.86,11.15c-.26-2.03,1.34-3.63,2.85-3.59,1.47.05,2.94,1.65,2.66,3.61"/>
    </g>
    <g>
      <path class="cls-3" d="m8.71,8.34c-.52.61-1.45.69-2.06.18-.61-.52-.69-1.44-.18-2.05.52-.61,1.45-.69,2.06-.18.62.51.7,1.44.18,2.05Z"/>
      <path class="cls-3" d="m4.83,12.76c-.26-2.03,1.34-3.63,2.85-3.59,1.47.05,2.94,1.65,2.66,3.61"/>
    </g>
  </g>
</svg>