<?xml version="1.0" encoding="UTF-8"?>
<svg id="_Шар_1" data-name="Шар 1" xmlns="http://www.w3.org/2000/svg" viewBox="0 0 15 15">
  <defs>
    <style>
      .cls-1 {
        fill: #00e6a6;
      }

      .cls-2 {
        fill: #ff4c00;
      }

      .cls-3 {
        fill: #ffbe00;
        fill-rule: evenodd;
      }
    </style>
  </defs>
  <path class="cls-1" d="m8.43,2.89h5.3c.24,0,.44.2.44.44v7.24c0,1.26-1.02,2.28-2.28,2.28h-3.45c-.24,0-.44-.2-.44-.44V3.33c0-.24.2-.44.44-.44Z" transform="translate(22.16 15.75) rotate(-180)"/>
  <path class="cls-1" d="m1.27,2.89h3.45c1.26,0,2.28,1.02,2.28,2.28v7.24c0,.24-.2.44-.44.44H1.27c-.24,0-.44-.2-.44-.44V3.33c0-.24.2-.44.44-.44Z"/>
  <path class="cls-2" d="m12.73,11.19c-.63.74-1.74.84-2.48.22-.74-.63-.84-1.73-.22-2.47.63-.74,1.74-.84,2.48-.22.75.62.84,1.73.22,2.47Z"/>
  <path class="cls-3" d="m12.01,2.26v3.27l-1.9,2.63-1.17,1.62-.44.61-1.16,1.61s-.09.05-.12,0l-1.16-1.61-3.04-4.21c-.05-.07-.02-.2.06-.2h2.33s.04.01.06.03l1.82,2.52.32-.45,1.28-1.78,2.98-4.13c.05-.07.14-.02.14.08Z"/>
</svg>