<?xml version="1.0" encoding="UTF-8"?>
<svg id="_Шар_1" data-name="Шар 1" xmlns="http://www.w3.org/2000/svg" viewBox="0 0 15 15">
  <defs>
    <style>
      .cls-1 {
        fill: #00e6a6;
      }

      .cls-2 {
        fill: #fa0078;
        fill-rule: evenodd;
      }
    </style>
  </defs>
  <path class="cls-1" d="m10.83,13.71h-6.66c-1.26,0-2.28-1.02-2.28-2.28v-6.66c0-1.26,1.02-2.28,2.28-2.28h6.66c1.26,0,2.28,1.02,2.28,2.28v6.66c0,1.26-1.02,2.28-2.28,2.28ZM4.17,3.87c-.5,0-.91.41-.91.91v6.66c0,.5.41.91.91.91h6.66c.5,0,.91-.41.91-.91v-6.66c0-.5-.41-.91-.91-.91h-6.66Z"/>
  <path class="cls-2" d="m13.11,1.42v3.83l-2.22,3.08-1.36,1.89-.52.72-1.36,1.89c-.04.05-.1.05-.14,0l-1.36-1.89-3.55-4.93c-.06-.08-.02-.23.07-.23h2.72s.05.01.07.04l2.13,2.95.38-.52,1.5-2.08,3.48-4.83c.06-.08.17-.03.17.09Z"/>
</svg>