<svg width="64" height="64" viewBox="0 0 64 64" fill="none" xmlns="http://www.w3.org/2000/svg">
<path d="M59.4475 37.8391L54.3932 32.7848C54.1435 32.535 54.1411 32.1308 54.3879 31.8782L59.4467 26.7019C59.5679 26.5778 59.7343 26.5078 59.9081 26.5078H62.9641C63.32 26.5078 63.6089 26.7965 63.6089 27.1526V30.0808C63.6089 30.2518 63.541 30.4158 63.4198 30.5367L62.0785 31.8781C61.8268 32.1299 61.8268 32.5382 62.0785 32.79L63.4198 34.1314C63.541 34.2524 63.6089 34.4164 63.6089 34.5874V37.383C63.6089 37.7394 63.32 38.0278 62.9641 38.0278H59.9036C59.7323 38.0278 59.5687 37.9599 59.4475 37.8391Z" fill="#E61777"/>
<path d="M38.0038 4.79949L32.9496 9.85372C32.6998 10.1035 32.2956 10.1058 32.043 9.85893L26.8667 4.80034C26.7426 4.67902 26.6726 4.51276 26.6726 4.33919V1.28298C26.6726 0.926873 26.9613 0.638184 27.3174 0.638184H30.2455C30.4165 0.638184 30.5805 0.70612 30.7015 0.827043L32.0429 2.16847C32.2947 2.42026 32.703 2.42026 32.9548 2.16847L34.2962 0.827043C34.4171 0.70612 34.5812 0.638184 34.7521 0.638184H37.5479C37.904 0.638184 38.1927 0.926873 38.1927 1.28298V4.34356C38.1927 4.51454 38.1247 4.67857 38.0038 4.79949Z" fill="#E61777"/>
<path d="M4.96011 26.7018L10.0144 31.756C10.2641 32.0058 10.2664 32.41 10.0196 32.6627L4.961 37.839C4.83968 37.9631 4.67342 38.033 4.49981 38.033H1.44364C1.08752 38.033 0.798828 37.7445 0.798828 37.3881V34.4601C0.798828 34.2891 0.866764 34.1251 0.987688 34.0041L2.3291 32.6627C2.58091 32.4109 2.58092 32.0026 2.3291 31.7508L0.987688 30.4094C0.86676 30.2885 0.798828 30.1245 0.798828 29.9535V27.1578C0.798828 26.8016 1.08752 26.5129 1.44363 26.5129H4.50418C4.6752 26.5129 4.83919 26.5809 4.96011 26.7018Z" fill="#E61777"/>
<path d="M26.8625 59.2878L31.9167 54.2335C32.1665 53.9838 32.5707 53.9814 32.8233 54.2283L37.9995 59.287C38.1237 59.4082 38.1937 59.5747 38.1937 59.748V62.8044C38.1937 63.1604 37.905 63.4492 37.5489 63.4492H34.6208C34.4497 63.4492 34.2857 63.381 34.1648 63.2602L32.8234 61.9188C32.5716 61.6671 32.1633 61.6671 31.9115 61.9188L30.5701 63.2602C30.4492 63.381 30.2851 63.4492 30.1141 63.4492H27.3184C26.9623 63.4492 26.6736 63.1604 26.6736 62.8044V59.7436C26.6736 59.5727 26.7415 59.4086 26.8625 59.2878Z" fill="#E61777"/>
<path d="M45.0111 19.388C44.9772 19.5296 44.8863 19.6485 44.7776 19.7451L32.5712 30.5703C32.535 30.6024 32.4804 30.6024 32.4441 30.5703L20.0769 19.6022C19.9355 19.4768 19.8253 19.3128 19.8154 19.1241C19.8141 19.0995 19.8135 19.0749 19.8135 19.0502V12.3552C19.8135 11.575 20.4459 10.9426 21.226 10.9426H27.6405C28.0151 10.9426 28.3744 11.0915 28.6393 11.3563L31.5778 14.2949C32.1294 14.8465 33.0238 14.8465 33.5754 14.2949L36.514 11.3563C36.7788 11.0915 37.1381 10.9426 37.5128 10.9426H43.6371C44.4172 10.9426 45.0495 11.575 45.0495 12.3552V19.0597C45.0495 19.1712 45.0366 19.2813 45.0111 19.388Z" fill="#24E2AB"/>
<path d="M45.6118 44.8855C45.4154 44.8815 45.2433 44.7683 45.1132 44.6213L34.28 32.4062C34.2478 32.3699 34.2478 32.3154 34.28 32.2791L45.3496 19.7974C45.4272 19.7097 45.5342 19.6497 45.6514 19.6497H52.3464C53.1266 19.6497 53.7589 20.2821 53.7589 21.0622V27.4766C53.7589 27.8512 53.6102 28.2105 53.3452 28.4754L50.4067 31.4139C49.8552 31.9656 49.8552 32.8599 50.4067 33.4116L53.3452 36.3501C53.6102 36.615 53.7589 36.9743 53.7589 37.3489V43.4734C53.7589 44.2532 53.1266 44.8859 52.3464 44.8859H45.6421C45.632 44.8859 45.6219 44.8859 45.6118 44.8855Z" fill="#24E2AB"/>
<path d="M19.8162 45.4798C19.8162 45.3663 19.874 45.2624 19.959 45.1869L32.4442 34.1142C32.4805 34.082 32.5351 34.082 32.5713 34.1142L44.7886 44.9489C44.9329 45.077 45.0444 45.2451 45.0512 45.4378C45.052 45.4552 45.0524 45.4721 45.0524 45.4891V52.1841C45.0524 52.9643 44.4198 53.5966 43.64 53.5966H37.2253C36.8507 53.5966 36.4914 53.4479 36.2265 53.1829L33.288 50.2444C32.7364 49.6929 31.842 49.6929 31.2904 50.2444L28.3518 53.1829C28.087 53.4479 27.7277 53.5966 27.3531 53.5966H21.2287C20.4486 53.5966 19.8162 52.9643 19.8162 52.1841V45.4798Z" fill="#24E2AB"/>
<path d="M19.2917 19.6561C19.4816 19.6652 19.6469 19.7758 19.773 19.918L30.7357 32.2792C30.7679 32.3155 30.7679 32.3701 30.7357 32.4063L19.906 44.6173C19.8107 44.7248 19.6936 44.8149 19.5542 44.8493C19.4441 44.8767 19.3303 44.8909 19.215 44.8909H12.52C11.7398 44.8909 11.1074 44.2582 11.1074 43.478V37.0637C11.1074 36.6891 11.2563 36.3298 11.5212 36.0649L14.4597 33.1264C15.0113 32.5748 15.0113 31.6804 14.4597 31.1288L11.5211 28.1903C11.2563 27.9253 11.1074 27.566 11.1074 27.1914V21.067C11.1074 20.287 11.7398 19.6545 12.52 19.6545H19.2245C19.2469 19.6545 19.2694 19.6551 19.2917 19.6561Z" fill="#24E2AB"/>
</svg>
