<svg width="35" height="35" viewBox="0 0 35 35" fill="none" xmlns="http://www.w3.org/2000/svg">
<g clip-path="url(#clip0_443_3181)">
<path d="M26.4402 26.0044C26.4402 26.1494 26.3227 26.2669 26.1777 26.2669H20.4644C20.3258 26.2669 20.211 26.159 20.2025 26.0208L19.8033 19.6049C19.7934 19.4458 19.9264 19.3147 20.0853 19.3268L26.1978 19.7955C26.3345 19.8059 26.4402 19.92 26.4402 20.0572V26.0044Z" fill="#FBC01A"/>
<path d="M15.3971 26.025C15.3864 26.1615 15.2725 26.2669 15.1355 26.2669H9.18777C9.04281 26.2669 8.92529 26.1494 8.92529 26.0044V20.0568C8.92529 19.9198 9.03066 19.8058 9.16725 19.7951L15.6208 19.2893C15.7816 19.2767 15.9156 19.4107 15.903 19.5715L15.3971 26.025Z" fill="#FBC01A"/>
<path d="M26.4404 14.7381C26.4404 14.8724 26.3389 14.985 26.2055 14.9991L19.8901 15.6635C19.7256 15.6808 19.5864 15.5436 19.6012 15.3789L20.1965 8.76045C20.2087 8.62515 20.3221 8.52148 20.4579 8.52148H26.1779C26.323 8.52148 26.4404 8.639 26.4404 8.78396V14.7381Z" fill="#FBC01A"/>
<path d="M16.1419 15.3743C16.1603 15.5403 16.0212 15.6812 15.855 15.6646L9.16176 14.9979C9.02754 14.9846 8.92529 14.8716 8.92529 14.7367V8.78396C8.92529 8.639 9.04281 8.52148 9.18777 8.52148H15.1433C15.277 8.52148 15.3894 8.622 15.4042 8.75489L16.1419 15.3743Z" fill="#FBC01A"/>
<path d="M17.7558 34.8463C17.5508 35.0513 17.2184 35.0513 17.0134 34.8463L11.5026 29.3356C11.2976 29.1306 11.2976 28.7981 11.5026 28.5932L17.245 22.8507C17.4501 22.6458 17.7824 22.6458 17.9874 22.8507L23.4982 28.3615C23.7032 28.5665 23.7032 28.899 23.4982 29.1039L17.7558 34.8463Z" fill="#FF5C00"/>
<path d="M6.63858 23.7292C6.43357 23.9344 6.10118 23.9344 5.89617 23.7292L0.153758 17.9868C-0.0512522 17.7818 -0.0512529 17.4494 0.153757 17.2444L5.89617 11.502C6.10118 11.297 6.43357 11.297 6.63858 11.502L12.381 17.2444C12.586 17.4494 12.586 17.7818 12.381 17.9868L6.63858 23.7292Z" fill="#FF5C00"/>
<path d="M29.1044 23.4977C28.8995 23.7027 28.5672 23.7027 28.362 23.4977L22.8512 17.9868C22.6463 17.7818 22.6463 17.4494 22.8512 17.2444L28.5936 11.502C28.7986 11.297 29.1311 11.297 29.3361 11.502L34.8468 17.0128C35.0518 17.2178 35.0518 17.5502 34.8468 17.7552L29.1044 23.4977Z" fill="#FF5C00"/>
<path d="M17.9875 12.381C17.7824 12.586 17.4501 12.586 17.245 12.381L11.5026 6.63858C11.2976 6.43357 11.2976 6.10118 11.5026 5.89617L17.245 0.153758C17.4501 -0.0512522 17.7824 -0.0512529 17.9875 0.153757L23.7299 5.89617C23.9349 6.10118 23.9349 6.43357 23.7299 6.63858L17.9875 12.381Z" fill="#FF5C00"/>
<path d="M15.0474 20.7864C14.9024 20.7864 14.7849 20.6689 14.7849 20.5239V15.0478C14.7849 14.9028 14.9024 14.7853 15.0474 14.7853H20.5236C20.6685 14.7853 20.7861 14.9028 20.7861 15.0478V20.5239C20.7861 20.6689 20.6685 20.7864 20.5236 20.7864H15.0474Z" fill="#FF5C00"/>
</g>
<defs>
<clipPath id="clip0_443_3181">
<rect width="35" height="35" fill="white"/>
</clipPath>
</defs>
</svg>
