<svg width="66" height="56" viewBox="0 0 66 56" fill="none" xmlns="http://www.w3.org/2000/svg">
<path fill-rule="evenodd" clip-rule="evenodd" d="M46.4998 28.2333C46.5661 28.1531 46.6457 28.0805 46.7386 28.0186L61.4474 18.2247C62.3403 17.6304 61.9189 16.2409 60.8458 16.2409H47.5568C46.958 16.2409 46.4724 15.7561 46.4724 15.1581V1.92117C46.4724 0.847079 45.0749 0.428312 44.4826 1.32487L34.8059 15.9708C34.3786 16.6176 33.429 16.6199 32.9984 15.9752L23.1899 1.28827C22.5946 0.39696 21.2031 0.817748 21.2031 1.88905V15.1581C21.2031 15.7561 20.7175 16.2409 20.1186 16.2409H6.82963C5.75672 16.2409 5.33532 17.6304 6.22797 18.2247L20.937 28.0186C21.0299 28.0805 21.1094 28.1531 21.1755 28.2333H26.8275C27.0842 26.544 28.3353 26.891 30.111 27.3834C31.1641 27.6754 32.4017 28.0186 33.7258 28.0186C35.0499 28.0186 36.2875 27.6754 37.3406 27.3834C39.1163 26.891 40.3674 26.544 40.6241 28.2333H46.4998Z" fill="#FBC01A"/>
<path d="M33.6318 40.586L18.273 55.0172C18.0721 55.2067 17.819 55.3312 17.5463 55.3756C17.2736 55.4201 16.9937 55.3817 16.7425 55.2657C16.4913 55.1502 16.2804 54.9619 16.1369 54.7259C15.9933 54.4896 15.9237 54.2161 15.9368 53.9405L16.554 40.7771C16.5607 40.6377 16.5391 40.4983 16.4907 40.3674C16.4422 40.2365 16.3678 40.1165 16.272 40.0147C16.1761 39.9129 16.0607 39.8317 15.9328 39.7755C15.8048 39.719 15.6668 39.6891 15.5271 39.6875L2.31033 39.5271C2.0335 39.5246 1.76362 39.439 1.53547 39.2822C1.30733 39.1251 1.13137 38.9033 1.03028 38.6459C0.929185 38.3881 0.907595 38.1065 0.968285 37.8371C1.02898 37.5672 1.16917 37.3223 1.37079 37.1333L16.7473 22.6853C16.9464 22.4997 17.2108 22.3999 17.4834 22.4074L33.5273 22.7886C33.799 22.8037 34.0541 22.9246 34.238 23.1253C34.4218 23.326 34.5196 23.5906 34.5105 23.8621L33.9569 39.8669C33.9478 40.1404 33.8309 40.3985 33.6318 40.586Z" fill="#24E2AB"/>
<path d="M50.7489 23.0954L65.2015 38.4311C65.391 38.6319 65.5159 38.8844 65.5603 39.1567C65.6048 39.429 65.5664 39.7086 65.4504 39.9595C65.3345 40.2104 65.1462 40.4209 64.9098 40.5643C64.6731 40.7073 64.3992 40.7772 64.1232 40.7639L50.94 40.1478C50.8002 40.1409 50.6608 40.1627 50.5295 40.2108C50.3986 40.2593 50.2782 40.3336 50.1764 40.4294C50.0746 40.5251 49.993 40.6403 49.9368 40.7679C49.8803 40.8956 49.8504 41.0334 49.8487 41.1732L49.6879 54.3701C49.6855 54.6465 49.5999 54.9159 49.4427 55.1438C49.2855 55.3717 49.0633 55.547 48.8056 55.648C48.5474 55.749 48.2654 55.7705 47.9955 55.7099C47.7252 55.6492 47.48 55.5095 47.2905 55.3083L32.821 39.9546C32.6351 39.7559 32.5352 39.4916 32.5426 39.2197L32.9244 23.1999C32.9396 22.9286 33.0606 22.6738 33.2617 22.4902C33.4627 22.3066 33.7277 22.209 33.9996 22.2181L50.0285 22.7708C50.3021 22.78 50.561 22.8966 50.7489 23.0954Z" fill="#24E2AB"/>
<path d="M16.6277 22.798L33.8965 6.57212C34.2643 6.22648 34.8431 6.24409 35.1893 6.61139L51.4396 23.8542L33.5047 40.7058L16.6277 22.798Z" fill="#24E2AB"/>
</svg>
