<svg width="20" height="21" viewBox="0 0 20 21" fill="none" xmlns="http://www.w3.org/2000/svg">
<g clip-path="url(#clip0_2724_5771)">
<path d="M15.2443 10.5716C15.2443 13.4393 12.9196 15.7641 10.0519 15.7641C7.18413 15.7641 4.85938 13.4393 4.85938 10.5716C4.85938 7.7039 7.18413 5.37915 10.0519 5.37915C12.9196 5.37915 15.2443 7.7039 15.2443 10.5716Z" fill="#0CC4E9"/>
<path d="M6.16645 7.29338L5.16956 2.50317C5.05116 1.93422 5.75059 1.56319 6.15524 1.98031L9.54808 5.4777C9.62066 5.55252 9.67172 5.64553 9.69586 5.74694L10.8854 10.7436C11.022 11.3177 10.3133 11.7062 9.90286 11.2822L6.31741 7.57832C6.24114 7.49954 6.18879 7.40073 6.16645 7.29338Z" fill="#FBC01A"/>
<path d="M9.48115 15.8421L6.35082 18.8033C5.97902 19.155 5.37761 18.8022 5.5033 18.306L6.55711 14.1462C6.57965 14.0571 6.62579 13.9759 6.69066 13.9109L9.88675 10.7099C10.254 10.3421 10.8727 10.6939 10.7446 11.1975L9.625 15.5972C9.60119 15.6908 9.55131 15.7757 9.48115 15.8421Z" fill="#FBC01A"/>
<path d="M10.1952 11.9234C10.9416 11.9234 11.5467 11.3183 11.5467 10.5719C11.5467 9.82553 10.9416 9.22046 10.1952 9.22046C9.44882 9.22046 8.84375 9.82553 8.84375 10.5719C8.84375 11.3183 9.44882 11.9234 10.1952 11.9234Z" fill="white"/>
<path d="M0.354168 10.6305C0.298611 10.575 0.298611 10.4849 0.354168 10.4293L2.1051 8.67839C2.16066 8.62283 2.25073 8.62283 2.30629 8.67839L4.05722 10.4293C4.11278 10.4849 4.11278 10.575 4.05722 10.6305L2.30629 12.3815C2.25073 12.437 2.16066 12.437 2.1051 12.3815L0.354168 10.6305Z" fill="#FBC01A"/>
<path d="M8.30144 2.68373C8.24588 2.62817 8.24588 2.53809 8.30144 2.48255L10.0524 0.731608C10.1079 0.676053 10.198 0.676053 10.2536 0.731608L12.0045 2.48255C12.06 2.53809 12.06 2.62817 12.0045 2.68373L10.2536 4.43466C10.198 4.49022 10.1079 4.49022 10.0524 4.43466L8.30144 2.68373Z" fill="#FBC01A"/>
<path d="M8.30144 18.5773C8.24588 18.5217 8.24588 18.4317 8.30144 18.3761L10.0524 16.6252C10.1079 16.5696 10.198 16.5696 10.2536 16.6252L12.0045 18.3761C12.06 18.4317 12.06 18.5217 12.0045 18.5773L10.2536 20.3282C10.198 20.3837 10.1079 20.3837 10.0524 20.3282L8.30144 18.5773Z" fill="#FBC01A"/>
<path d="M16.2487 10.6305C16.1931 10.575 16.1931 10.4849 16.2487 10.4293L17.9996 8.67839C18.0552 8.62283 18.1453 8.62283 18.2009 8.67839L19.9518 10.4293C20.0074 10.4849 20.0074 10.575 19.9518 10.6305L18.2009 12.3815C18.1453 12.437 18.0552 12.437 17.9996 12.3815L16.2487 10.6305Z" fill="#FBC01A"/>
</g>
<defs>
<clipPath id="clip0_2724_5771">
<rect width="20" height="20" fill="white" transform="translate(0 0.5)"/>
</clipPath>
</defs>
</svg>
