<svg width="50" height="50" viewBox="0 0 50 50" fill="none" xmlns="http://www.w3.org/2000/svg">
<g clip-path="url(#clip0_1202_13750)">
<path fill-rule="evenodd" clip-rule="evenodd" d="M25 50C38.8072 50 50 38.8072 50 25C50 11.1929 38.8072 6.78526e-06 25 4.37114e-06C11.1929 1.95702e-06 1.33018e-05 11.1928 1.08876e-05 25C8.47353e-06 38.8072 11.1929 50 25 50ZM32.6923 23.0769L19.6154 9.61539C18.4198 8.38462 17.0659 9.359 16.5385 10C15.6154 11.2308 16.1539 12.3077 16.5385 12.6923L28.4616 25L16.9231 36.9231C15.3846 38.4615 16.1539 39.8077 16.9231 40.3846C18.1539 41.3077 19.4872 40.7692 20 40.3846L32.6923 27.3077C35 25.3846 33.4616 23.8462 32.6923 23.0769Z" fill="#E61777"/>
<path d="M32.6923 23.0769L19.6154 9.61539C18.4198 8.38462 17.0659 9.359 16.5385 10C15.6154 11.2308 16.1539 12.3077 16.5385 12.6923L28.4616 25L16.9231 36.9231C15.3846 38.4615 16.1539 39.8077 16.9231 40.3846C18.1539 41.3077 19.4872 40.7692 20 40.3846L32.6923 27.3077C35 25.3846 33.4616 23.8462 32.6923 23.0769Z" fill="white"/>
</g>
<defs>
<clipPath id="clip0_1202_13750">
<rect width="50" height="50" fill="white"/>
</clipPath>
</defs>
</svg>
