<svg width="486" height="17" viewBox="0 0 486 17" fill="none" xmlns="http://www.w3.org/2000/svg">
<path d="M412.2 0.199219C407.7 0.199219 404 3.89922 404 8.39922C404 12.8992 407.7 16.5992 412.2 16.5992C416.7 16.5992 420.4 12.8992 420.4 8.39922C420.3 3.89922 416.7 0.199219 412.2 0.199219ZM412.2 15.2992C408.4 15.2992 405.4 12.1992 405.4 8.39922C405.4 4.59922 408.5 1.49922 412.2 1.49922C416 1.49922 419 4.59922 419 8.39922C419 12.1992 415.9 15.2992 412.2 15.2992Z" fill="#040706"/>
<path d="M379.1 0.199219C374.6 0.199219 370.9 3.89922 370.9 8.39922C370.9 12.8992 374.6 16.5992 379.1 16.5992C382 16.5992 384.5 15.0992 385.9 12.8992V16.6992H387.2V8.39922C387.3 3.89922 383.6 0.199219 379.1 0.199219ZM379.1 15.2992C375.3 15.2992 372.3 12.1992 372.3 8.39922C372.3 4.59922 375.4 1.49922 379.1 1.49922C382.9 1.49922 385.9 4.59922 385.9 8.39922C386 12.1992 382.9 15.2992 379.1 15.2992Z" fill="#040706"/>
<path d="M430.6 0.199219C426.1 0.199219 422.4 3.89922 422.4 8.39922V16.6992H423.8V8.39922C423.8 4.59922 426.8 1.49922 430.6 1.49922C434.4 1.49922 437.4 4.59922 437.4 8.39922V16.6992H438.8V8.39922C438.8 3.89922 435.1 0.199219 430.6 0.199219Z" fill="#040706"/>
<path d="M400.4 13.6992C399.2 14.6992 397.7 15.2992 396 15.2992C394.4 15.2992 392.9 14.6992 391.7 13.7992L396.1 9.39922L397 8.49922L401.3 4.19922L402.3 3.19922C402 2.89922 401.7 2.49922 401.4 2.19922C400 0.999219 398.1 0.199219 396.1 0.199219C394.1 0.199219 392.2 0.89922 390.8 2.09922C390.5 2.39922 390.1 2.69922 389.9 2.99922L390.9 3.99922C391.2 3.69922 391.5 3.29922 391.8 3.09922C393 2.09922 394.5 1.59922 396.1 1.59922C397.7 1.59922 399.3 2.19922 400.5 3.19922L396.2 7.49922L395.3 8.39922L390.9 12.7992L389.9 13.7992C390.2 14.0992 390.5 14.4992 390.9 14.6992C392.3 15.8992 394.1 16.5992 396.2 16.5992C398.2 16.5992 400.1 15.8992 401.5 14.5992C401.8 14.2992 402.2 13.9992 402.4 13.6992L401.4 12.6992C401 13.0992 400.7 13.3992 400.4 13.6992Z" fill="#040706"/>
<path d="M453.4 13.7996C452.2 14.7996 450.7 15.2996 449.1 15.2996C447.5 15.2996 446 14.7996 444.9 13.7996L449.1 9.49961L450 8.59961L454.4 4.09961L455.4 3.09961C455.1 2.79961 454.8 2.39961 454.5 2.09961C453.1 0.899609 451.2 0.0996094 449.2 0.0996094C447.1 0.0996094 445.2 0.899608 443.8 2.19961C443.5 2.49961 443.1 2.79961 442.9 3.19961C441.7 4.59961 441 6.39961 441 8.39961C441 10.4996 441.8 12.2996 443 13.7996C443.3 14.0996 443.6 14.4996 444 14.6996C445.4 15.8996 447.2 16.5996 449.2 16.5996C451.2 16.5996 453 15.8996 454.5 14.6996C454.8 14.3996 455.2 14.0996 455.5 13.7996L454.5 12.8996C454 13.1996 453.7 13.4996 453.4 13.7996ZM442.2 8.49961C442.2 6.89961 442.7 5.39961 443.7 4.19961C444 3.89961 444.3 3.49961 444.6 3.19961C445.8 2.19961 447.3 1.49961 449 1.49961C450.7 1.49961 452.2 2.09961 453.4 3.09961L449 7.59961L448.1 8.49961L443.9 12.7996C442.9 11.6996 442.2 10.1996 442.2 8.49961Z" fill="#040706"/>
<path d="M459.4 13.6992C460.6 14.6992 462.1 15.2992 463.8 15.2992C465.4 15.2992 466.9 14.6992 468.1 13.7992L463.8 9.39922L462.9 8.49922L458.6 4.19922L457.6 3.19922C457.9 2.89922 458.2 2.49922 458.5 2.19922C459.9 0.999219 461.8 0.199219 463.8 0.199219C465.8 0.199219 467.7 0.89922 469.1 2.09922C469.4 2.39922 469.8 2.69922 470 2.99922L469 3.99922C468.7 3.69922 468.4 3.29922 468.1 3.09922C466.9 2.09922 465.4 1.59922 463.8 1.59922C462.2 1.59922 460.6 2.19922 459.4 3.19922L463.7 7.49922L464.6 8.39922L469 12.7992L470 13.7992C469.7 14.0992 469.4 14.4992 469 14.6992C467.6 15.8992 465.8 16.5992 463.7 16.5992C461.7 16.5992 459.8 15.8992 458.4 14.5992C458.1 14.2992 457.7 13.9992 457.5 13.6992L458.5 12.6992C458.7 13.0992 459.1 13.3992 459.4 13.6992Z" fill="#040706"/>
<path d="M360.9 0H0V17H360.9V0Z" fill="url(#paint0_linear_1203_302)"/>
<defs>
<linearGradient id="paint0_linear_1203_302" x1="180.914" y1="22.2252" x2="179.996" y2="-6.9338" gradientUnits="userSpaceOnUse">
<stop stop-color="#211A3F"/>
<stop offset="1" stop-color="#564C81"/>
</linearGradient>
</defs>
</svg>
