<svg width="486" height="7" viewBox="0 0 486 7" fill="none" xmlns="http://www.w3.org/2000/svg">
<path d="M486 0H269.622V6H486V0Z" fill="url(#paint0_linear_1203_303)"/>
<path d="M0.700577 0.298828V5.29883H3.70305V5.89886H0V0.298828H0.700577Z" fill="#040706"/>
<path d="M11.9102 0.298828L14.112 5.89886H13.3114L12.7109 4.19885H10.3089L9.70839 5.89886H9.00781L11.2096 0.298828H11.9102ZM12.4106 3.59888L11.5099 0.99884L10.6091 3.59888H12.4106Z" fill="#040706"/>
<path d="M23.8196 5.89886L22.6186 1.19885L21.3175 5.89886H20.617L19.2158 0.298828H19.9164L21.0173 4.99884L22.2183 0.298828H23.019L24.2199 4.99884L25.3208 0.298828H26.0214L24.6203 5.89886H23.8196Z" fill="#040706"/>
<path d="M42.9355 0.298828V0.898865H39.933V2.69885H42.5351V3.39886H39.933V5.89886H39.2324V0.298828H42.9355Z" fill="#040706"/>
<path d="M49.5404 0.298828H48.8398V5.89886H49.5404V0.298828Z" fill="#040706"/>
<path d="M58.648 0.299194C59.1484 0.299194 59.5488 0.399219 59.849 0.699219C60.1493 0.999219 60.2494 1.29922 60.2494 1.69922C60.2494 1.99922 60.1493 2.29924 60.0492 2.59924C59.9491 2.79924 59.6489 2.99924 59.3486 3.09924C59.5488 3.09924 59.6489 3.19919 59.7489 3.29919C59.849 3.39919 59.9491 3.49924 59.9491 3.59924C60.0492 3.69924 60.0492 3.79923 60.0492 3.89923C60.0492 3.99923 60.1493 4.09919 60.1493 4.29919C60.1493 4.39919 60.1493 4.59922 60.1493 4.69922C60.1493 4.79922 60.1493 4.99924 60.1493 5.09924C60.1493 5.19924 60.1493 5.39921 60.2494 5.49921C60.2494 5.59921 60.3494 5.69919 60.4495 5.79919H59.6489C59.5488 5.69919 59.5488 5.69924 59.5488 5.59924C59.5488 5.49924 59.5488 5.39919 59.5488 5.29919C59.5488 5.19919 59.5488 5.09923 59.5488 4.89923C59.5488 4.79923 59.5488 4.59921 59.5488 4.49921C59.5488 4.39921 59.5488 4.19924 59.4487 4.09924C59.3486 3.99924 59.3486 3.89919 59.3486 3.79919C59.2485 3.69919 59.1484 3.59924 59.0484 3.59924C58.9483 3.49924 58.8482 3.49921 58.648 3.49921H56.7465V5.89923H56.0459V0.199219H58.648V0.299194ZM58.7481 2.79919C58.9483 2.79919 59.0484 2.69922 59.1484 2.69922C59.2485 2.59922 59.3486 2.49923 59.4487 2.39923C59.5488 2.29923 59.5488 2.09923 59.5488 1.89923C59.5488 1.59923 59.4487 1.39922 59.3486 1.19922C59.1484 0.999219 58.9483 0.899231 58.648 0.899231H56.7465V2.89923H58.3478C58.4479 2.79923 58.648 2.79919 58.7481 2.79919Z" fill="#040706"/>
<path d="M67.5555 0.298828L69.357 5.09888L71.1585 0.298828H72.1593V5.89886H71.4587V1.19885L69.6572 5.89886H69.0567L67.2553 1.19885V5.89886H66.5547V0.298828H67.5555Z" fill="#040706"/>
<path d="M87.8726 0.199219L85.5707 6.09924H85.0703L87.3722 0.199219H87.8726Z" fill="#040706"/>
<path d="M101.584 0.298828L104.486 4.89886V0.298828H105.187V5.89886H104.386L101.484 1.39886V5.89886H100.783V0.298828H101.584Z" fill="#040706"/>
<path d="M111.492 1.99884C111.592 1.69884 111.792 1.39888 111.992 1.09888C112.193 0.798877 112.493 0.59884 112.793 0.49884C113.093 0.29884 113.494 0.298828 113.894 0.298828C114.294 0.298828 114.695 0.39884 114.995 0.49884C115.295 0.69884 115.595 0.898877 115.796 1.09888C115.996 1.39888 116.196 1.69884 116.296 1.99884C116.396 2.29884 116.496 2.69888 116.496 3.09888C116.496 3.49888 116.396 3.79885 116.296 4.19885C116.196 4.49885 115.996 4.79888 115.796 5.09888C115.595 5.39888 115.295 5.59885 114.995 5.69885C114.695 5.89885 114.294 5.89886 113.894 5.89886C113.494 5.89886 113.093 5.79885 112.793 5.69885C112.493 5.49885 112.193 5.29888 111.992 5.09888C111.792 4.79888 111.592 4.49885 111.492 4.19885C111.392 3.89885 111.292 3.49888 111.292 3.09888C111.192 2.69888 111.392 2.29884 111.492 1.99884ZM112.093 3.89886C112.193 4.19886 112.293 4.39888 112.393 4.59888C112.593 4.79888 112.693 4.99888 112.993 5.09888C113.193 5.19888 113.494 5.29883 113.894 5.29883C114.194 5.29883 114.495 5.19888 114.795 5.09888C115.095 4.99888 115.195 4.79888 115.395 4.59888C115.595 4.39888 115.696 4.09886 115.696 3.89886C115.796 3.59886 115.796 3.39888 115.796 3.09888C115.796 2.79888 115.796 2.59883 115.696 2.29883C115.595 1.99883 115.495 1.79888 115.395 1.59888C115.195 1.39888 115.095 1.19888 114.795 1.09888C114.495 0.998877 114.294 0.898865 113.894 0.898865C113.594 0.898865 113.294 0.998877 112.993 1.09888C112.793 1.19888 112.593 1.39888 112.393 1.59888C112.193 1.79888 112.093 2.09883 112.093 2.29883C111.993 2.59883 111.992 2.79888 111.992 3.09888C111.992 3.39888 112.093 3.69886 112.093 3.89886Z" fill="#040706"/>
<path d="M130.707 0.298828V5.29883H133.71V5.89886H130.007V0.298828H130.707Z" fill="#040706"/>
<path d="M140.215 0.298828H139.515V5.89886H140.215V0.298828Z" fill="#040706"/>
<path d="M147.621 0.298828L149.422 5.09888L151.224 0.298828H152.225V5.89886H151.524V1.19885L149.723 5.89886H149.122L147.321 1.19885V5.89886H146.62V0.298828H147.621Z" fill="#040706"/>
<path d="M159.331 0.298828H158.631V5.89886H159.331V0.298828Z" fill="#040706"/>
<path d="M165.136 0.898865V0.298828H169.539V0.898865H167.638V5.89886H166.937V0.898865H165.136Z" fill="#040706"/>
<path d="M178.147 1.09961C177.946 0.899609 177.646 0.799561 177.246 0.799561C177.046 0.799561 176.946 0.799561 176.845 0.799561C176.745 0.799561 176.545 0.899573 176.445 0.999573C176.345 1.09957 176.245 1.19956 176.145 1.29956C176.045 1.39956 176.045 1.59958 176.045 1.69958C176.045 1.89959 176.045 1.99961 176.145 2.09961C176.245 2.19961 176.345 2.2996 176.545 2.3996C176.745 2.4996 176.946 2.49961 177.146 2.59961C177.346 2.59961 177.546 2.69958 177.746 2.69958C177.946 2.79958 178.146 2.7996 178.347 2.8996C178.547 2.9996 178.747 3.09959 178.947 3.19958C179.147 3.29958 179.247 3.49961 179.347 3.59961C179.448 3.79961 179.448 3.99956 179.448 4.29956C179.448 4.59956 179.347 4.79957 179.247 4.99957C179.147 5.19957 178.947 5.39957 178.747 5.49957C178.547 5.59957 178.347 5.69956 178.046 5.79956C177.746 5.89956 177.546 5.8996 177.346 5.8996C177.046 5.8996 176.745 5.89956 176.445 5.79956C176.145 5.69956 175.945 5.59957 175.745 5.49957C175.544 5.29957 175.344 5.0996 175.244 4.8996C175.144 4.6996 175.044 4.39957 175.044 3.99957H175.745C175.745 4.19957 175.745 4.39961 175.845 4.59961C175.945 4.79961 176.045 4.89957 176.145 4.99957C176.245 5.09957 176.445 5.19958 176.645 5.19958C176.845 5.29958 177.046 5.29956 177.246 5.29956C177.446 5.29956 177.546 5.29956 177.746 5.29956C177.946 5.29956 178.046 5.19961 178.147 5.09961C178.247 4.99961 178.347 4.89956 178.447 4.79956C178.547 4.69956 178.547 4.49956 178.547 4.29956C178.547 4.09956 178.447 3.99956 178.447 3.79956C178.347 3.69956 178.247 3.59957 178.046 3.49957C177.846 3.39957 177.646 3.39956 177.446 3.29956C177.246 3.19956 177.046 3.19958 176.845 3.19958C176.645 3.19958 176.445 3.09957 176.245 2.99957C176.045 2.89957 175.845 2.89959 175.644 2.69958C175.444 2.59959 175.344 2.49956 175.244 2.29956C175.144 2.09956 175.144 1.89959 175.144 1.69958C175.144 1.39959 175.244 1.19957 175.344 0.999573C175.444 0.799573 175.644 0.599573 175.745 0.499573C175.945 0.399573 176.145 0.299585 176.345 0.199585C176.545 0.099585 176.845 0.0996094 177.046 0.0996094C177.346 0.0996094 177.546 0.099585 177.846 0.199585C178.046 0.299585 178.247 0.399573 178.447 0.499573C178.647 0.599573 178.747 0.799573 178.847 0.999573C178.947 1.19957 179.047 1.49956 179.047 1.79956H178.347C178.447 1.49956 178.347 1.19961 178.147 1.09961Z" fill="#040706"/>
<path d="M195.661 1.09961C195.461 0.899609 195.161 0.799561 194.76 0.799561C194.56 0.799561 194.46 0.799561 194.36 0.799561C194.26 0.799561 194.06 0.899573 193.96 0.999573C193.86 1.09957 193.76 1.19956 193.66 1.29956C193.559 1.39956 193.559 1.59958 193.559 1.69958C193.559 1.89959 193.559 1.99961 193.66 2.09961C193.76 2.19961 193.86 2.2996 194.06 2.3996C194.26 2.4996 194.46 2.49961 194.66 2.59961C194.86 2.59961 195.061 2.69958 195.261 2.69958C195.461 2.79958 195.661 2.7996 195.861 2.8996C196.061 2.9996 196.262 3.09959 196.462 3.19958C196.662 3.29958 196.762 3.49961 196.862 3.59961C196.962 3.79961 196.962 3.99956 196.962 4.29956C196.962 4.59956 196.862 4.79957 196.762 4.99957C196.662 5.19957 196.462 5.39957 196.262 5.49957C196.061 5.59957 195.861 5.69956 195.561 5.79956C195.261 5.89956 195.061 5.8996 194.86 5.8996C194.56 5.8996 194.26 5.89956 193.96 5.79956C193.66 5.69956 193.459 5.59957 193.259 5.49957C193.059 5.29957 192.859 5.0996 192.759 4.8996C192.659 4.6996 192.559 4.39957 192.559 3.99957H193.259C193.259 4.19957 193.259 4.39961 193.359 4.59961C193.459 4.79961 193.559 4.89957 193.66 4.99957C193.76 5.09957 193.96 5.19958 194.16 5.19958C194.36 5.29958 194.56 5.29956 194.76 5.29956C194.961 5.29956 195.061 5.29956 195.261 5.29956C195.461 5.29956 195.561 5.19961 195.661 5.09961C195.761 4.99961 195.861 4.89956 195.961 4.79956C196.061 4.69956 196.061 4.49956 196.061 4.29956C196.061 4.09956 195.961 3.99956 195.961 3.79956C195.861 3.69956 195.761 3.59957 195.561 3.49957C195.361 3.39957 195.161 3.39956 194.961 3.29956C194.76 3.19956 194.56 3.19958 194.36 3.19958C194.16 3.19958 193.96 3.09957 193.76 2.99957C193.559 2.89957 193.359 2.89959 193.159 2.69958C192.959 2.59959 192.859 2.49956 192.759 2.29956C192.659 2.09956 192.659 1.89959 192.659 1.69958C192.659 1.39959 192.759 1.19957 192.859 0.999573C192.959 0.799573 193.159 0.599573 193.259 0.499573C193.459 0.399573 193.66 0.299585 193.86 0.199585C194.06 0.099585 194.36 0.0996094 194.56 0.0996094C194.86 0.0996094 195.061 0.099585 195.361 0.199585C195.561 0.299585 195.761 0.399573 195.961 0.499573C196.162 0.599573 196.262 0.799573 196.362 0.999573C196.462 1.19957 196.562 1.49956 196.562 1.79956H195.861C196.061 1.49956 195.861 1.19961 195.661 1.09961Z" fill="#040706"/>
<path d="M206.97 5.39923C206.57 5.69923 206.069 5.89923 205.269 5.89923C204.568 5.89923 204.068 5.69923 203.567 5.39923C203.167 5.09923 202.967 4.49922 202.967 3.69922V0.199219H203.667V3.79919C203.667 4.29919 203.767 4.69923 204.068 4.89923C204.368 5.19923 204.668 5.29919 205.169 5.29919C205.669 5.29919 205.969 5.19923 206.27 4.89923C206.57 4.59923 206.67 4.29919 206.67 3.79919V0.199219H207.37V3.79919C207.571 4.59919 207.37 5.09923 206.97 5.39923Z" fill="#040706"/>
<path d="M216.278 0.299194C216.778 0.299194 217.279 0.399219 217.479 0.699219C217.779 0.999219 217.879 1.39923 217.879 1.89923C217.879 2.39923 217.779 2.79924 217.479 3.09924C217.179 3.39924 216.778 3.49921 216.278 3.49921H214.577V5.79919H213.876V0.199219H216.278V0.299194ZM216.078 2.99921C216.478 2.99921 216.778 2.89922 216.979 2.69922C217.179 2.49922 217.279 2.29921 217.279 1.99921C217.279 1.69921 217.179 1.39919 216.979 1.29919C216.778 1.09919 216.478 0.999207 216.078 0.999207H214.677V3.09924H216.078V2.99921Z" fill="#040706"/>
<path d="M226.486 0.299194C226.987 0.299194 227.487 0.399219 227.687 0.699219C227.988 0.999219 228.088 1.39923 228.088 1.89923C228.088 2.39923 227.988 2.79924 227.687 3.09924C227.387 3.39924 226.987 3.49921 226.486 3.49921H224.685V5.79919H223.984V0.199219H226.486V0.299194ZM226.186 2.99921C226.586 2.99921 226.887 2.89922 227.087 2.69922C227.287 2.49922 227.387 2.29921 227.387 1.99921C227.387 1.69921 227.287 1.39919 227.087 1.29919C226.887 1.09919 226.586 0.999207 226.186 0.999207H224.785V3.09924H226.186V2.99921Z" fill="#040706"/>
<path d="M234.093 1.99884C234.193 1.69884 234.393 1.39888 234.593 1.09888C234.793 0.798877 235.094 0.59884 235.394 0.49884C235.694 0.29884 236.094 0.298828 236.495 0.298828C236.895 0.298828 237.295 0.39884 237.596 0.49884C237.896 0.69884 238.196 0.898877 238.396 1.09888C238.596 1.39888 238.797 1.69884 238.897 1.99884C238.997 2.29884 239.097 2.69888 239.097 3.09888C239.097 3.49888 238.997 3.79885 238.897 4.19885C238.797 4.49885 238.596 4.79888 238.396 5.09888C238.196 5.39888 237.896 5.59885 237.596 5.69885C237.295 5.89885 236.895 5.89886 236.495 5.89886C236.094 5.89886 235.694 5.79885 235.394 5.69885C235.094 5.49885 234.793 5.29888 234.593 5.09888C234.393 4.79888 234.193 4.49885 234.093 4.19885C233.993 3.89885 233.893 3.49888 233.893 3.09888C233.893 2.69888 233.893 2.29884 234.093 1.99884ZM234.793 3.89886C234.893 4.19886 234.993 4.39888 235.094 4.59888C235.294 4.79888 235.394 4.99888 235.694 5.09888C235.894 5.19888 236.194 5.29883 236.595 5.29883C236.895 5.29883 237.195 5.19888 237.496 5.09888C237.796 4.99888 237.896 4.79888 238.096 4.59888C238.296 4.39888 238.396 4.09886 238.396 3.89886C238.496 3.59886 238.496 3.39888 238.496 3.09888C238.496 2.79888 238.496 2.59883 238.396 2.29883C238.296 1.99883 238.196 1.79888 238.096 1.59888C237.896 1.39888 237.796 1.19888 237.496 1.09888C237.195 0.998877 236.995 0.898865 236.595 0.898865C236.295 0.898865 235.994 0.998877 235.694 1.09888C235.494 1.19888 235.294 1.39888 235.094 1.59888C234.893 1.79888 234.793 2.09883 234.793 2.29883C234.693 2.59883 234.693 2.79888 234.693 3.09888C234.693 3.39888 234.693 3.69886 234.793 3.89886Z" fill="#040706"/>
<path d="M247.905 0.299194C248.405 0.299194 248.806 0.399219 249.106 0.699219C249.406 0.999219 249.506 1.29922 249.506 1.69922C249.506 1.99922 249.406 2.29924 249.306 2.59924C249.206 2.79924 248.906 2.99924 248.605 3.09924C248.806 3.09924 248.906 3.19919 249.006 3.29919C249.106 3.39919 249.206 3.49924 249.206 3.59924C249.306 3.69924 249.306 3.79923 249.306 3.89923C249.306 3.99923 249.406 4.09919 249.406 4.29919C249.406 4.39919 249.406 4.59922 249.406 4.69922C249.406 4.79922 249.406 4.99924 249.406 5.09924C249.406 5.19924 249.406 5.39921 249.506 5.49921C249.506 5.59921 249.606 5.69919 249.706 5.79919H248.906C248.806 5.69919 248.806 5.69924 248.806 5.59924C248.806 5.49924 248.806 5.39919 248.806 5.29919C248.806 5.19919 248.806 5.09923 248.806 4.89923C248.806 4.79923 248.806 4.59921 248.806 4.49921C248.806 4.39921 248.806 4.19924 248.706 4.09924C248.605 3.99924 248.605 3.89919 248.605 3.79919C248.505 3.69919 248.405 3.59924 248.305 3.59924C248.205 3.49924 248.105 3.49921 247.905 3.49921H246.003V5.89923H245.303V0.199219H247.905V0.299194ZM248.105 2.79919C248.305 2.79919 248.405 2.69922 248.505 2.69922C248.605 2.59922 248.706 2.49923 248.806 2.39923C248.906 2.29923 248.906 2.09923 248.906 1.89923C248.906 1.59923 248.806 1.39922 248.706 1.19922C248.505 0.999219 248.305 0.899231 248.005 0.899231H246.103V2.89923H247.705C247.805 2.79923 247.905 2.79919 248.105 2.79919Z" fill="#040706"/>
<path d="M255.01 0.898865V0.298828H259.513V0.898865H257.612V5.89886H256.811V0.898865H255.01Z" fill="#040706"/>
<defs>
<linearGradient id="paint0_linear_1203_303" x1="377.949" y1="-2.15036" x2="377.709" y2="8.86735" gradientUnits="userSpaceOnUse">
<stop stop-color="#211A3F"/>
<stop offset="1" stop-color="#564C81"/>
</linearGradient>
</defs>
</svg>
