<svg width="99" height="17" viewBox="0 0 99 17" fill="none" xmlns="http://www.w3.org/2000/svg">
<path d="M40.8046 0C36.3301 0 32.6971 3.64149 32.6971 8.12628C32.6971 12.6111 36.3301 16.2526 40.8046 16.2526C45.279 16.2526 48.9121 12.6111 48.9121 8.12628C48.9121 3.64149 45.279 0 40.8046 0ZM40.8046 14.911C37.0568 14.911 34.0356 11.8444 34.0356 8.12628C34.0356 4.36979 37.095 1.3416 40.8046 1.3416C44.5524 1.3416 47.5736 4.40812 47.5736 8.12628C47.5736 11.8828 44.5524 14.911 40.8046 14.911Z" fill="white"/>
<path d="M8.10753 0C3.63309 0 0 3.64149 0 8.12628C0 12.6111 3.63309 16.2526 8.10753 16.2526C10.9375 16.2526 13.4616 14.796 14.8766 12.5727V16.3676H16.1768V8.12628C16.2151 3.64149 12.582 0 8.10753 0ZM8.10753 14.911C4.35971 14.911 1.33851 11.8444 1.33851 8.12628C1.33851 4.36979 4.39795 1.3416 8.10753 1.3416C11.8554 1.3416 14.8766 4.40812 14.8766 8.12628C14.9148 11.8828 11.8554 14.911 8.10753 14.911Z" fill="white"/>
<path d="M59.0847 0C54.6103 0 50.9772 3.64149 50.9772 8.12628V16.3676H52.354V8.12628C52.354 4.36979 55.3369 1.3416 59.0847 1.3416C62.8326 1.3416 65.8155 4.40812 65.8155 8.12628V16.3676H67.1923V8.12628C67.1923 3.64149 63.5592 0 59.0847 0Z" fill="white"/>
<path d="M29.1413 13.3394C27.9557 14.336 26.4642 14.911 24.8198 14.911C23.2136 14.911 21.7221 14.336 20.5748 13.416L24.8963 9.08457L25.8141 8.16461L30.0973 3.87149L31.0534 2.9132C30.7857 2.56821 30.4798 2.26156 30.1356 1.95491C28.7206 0.728301 26.8849 0 24.858 0C22.8694 0 21.0337 0.728299 19.657 1.91658C19.3128 2.1849 19.0068 2.52988 18.7391 2.83653L19.6952 3.79482C19.9629 3.44983 20.3071 3.14318 20.613 2.87486C21.7986 1.91658 23.2518 1.3416 24.8963 1.3416C26.5407 1.3416 28.0704 1.95491 29.256 2.9132L24.9728 7.20633L24.0549 8.12628L19.7335 12.4577L18.7774 13.416C19.0833 13.761 19.3893 14.0677 19.7335 14.336C21.1484 15.5243 22.9459 16.2142 24.9345 16.2142C26.9614 16.2142 28.7971 15.4859 30.2121 14.2593C30.5562 13.991 30.8622 13.646 31.1299 13.3394L30.1738 12.3811C29.7914 12.7644 29.4854 13.071 29.1413 13.3394Z" fill="white"/>
<path d="M81.6107 13.416C80.4634 14.3743 78.972 14.911 77.3657 14.911C75.7595 14.911 74.3063 14.3743 73.159 13.4544L77.3657 9.19956L78.2836 8.27961L82.6433 3.87149L83.5994 2.9132C83.3317 2.56821 83.0257 2.26156 82.6815 1.95491C81.2665 0.728301 79.4309 0 77.404 0C75.3389 0 73.4649 0.766631 72.05 2.03157C71.7058 2.33822 71.3998 2.64488 71.1321 2.98986C69.9848 4.40813 69.2964 6.17137 69.2964 8.12628C69.2964 10.1962 70.0613 12.0361 71.3233 13.4927C71.6293 13.8377 71.9352 14.1443 72.2794 14.4127C73.6944 15.5626 75.4536 16.2526 77.4422 16.2526C79.4309 16.2526 81.2283 15.5243 82.6433 14.3743C82.9875 14.106 83.2934 13.7993 83.5994 13.4544L82.6433 12.5344C82.2609 12.8411 81.9549 13.1477 81.6107 13.416ZM70.5967 8.12628C70.5967 6.55469 71.1321 5.05976 72.05 3.90981C72.3177 3.56483 72.6236 3.25818 72.9678 2.95153C74.1533 1.91657 75.683 1.30327 77.3657 1.30327C79.0102 1.30327 80.5399 1.91658 81.7255 2.87486L77.3657 7.28299L76.4479 8.20294L72.2412 12.4577C71.2086 11.3461 70.5967 9.81287 70.5967 8.12628Z" fill="white"/>
<path d="M87.5758 13.3394C88.7614 14.336 90.2529 14.911 91.8973 14.911C93.5035 14.911 94.995 14.336 96.1423 13.416L91.8591 9.08457L90.9412 8.16461L86.658 3.87149L85.7019 2.9132C85.9696 2.56821 86.2756 2.26156 86.6198 1.95491C88.0348 0.728301 89.8704 0 91.8973 0C93.886 0 95.7216 0.728299 97.0984 1.91658C97.4426 2.1849 97.7485 2.52988 98.0162 2.83653L97.0601 3.79482C96.7924 3.44983 96.4482 3.14318 96.1423 2.87486C94.9568 1.91658 93.5035 1.3416 91.8591 1.3416C90.2146 1.3416 88.6849 1.95491 87.4994 2.9132L91.7826 7.20633L92.7004 8.12628L97.0219 12.4577L97.978 13.416C97.672 13.761 97.3661 14.0677 97.0219 14.336C95.6069 15.5243 93.8095 16.2142 91.8208 16.2142C89.7939 16.2142 87.9583 15.4859 86.5433 14.2593C86.1991 13.991 85.8932 13.646 85.6255 13.3394L86.5815 12.3811C86.9257 12.7644 87.2699 13.071 87.5758 13.3394Z" fill="white"/>
</svg>
