<svg width="32" height="18" viewBox="0 0 32 18" fill="none" xmlns="http://www.w3.org/2000/svg">
<path d="M30.625 10.125H1.375C1.07663 10.125 0.790483 10.0065 0.579505 9.7955C0.368526 9.58452 0.25 9.29837 0.25 9C0.25 8.70163 0.368526 8.41548 0.579505 8.2045C0.790483 7.99353 1.07663 7.875 1.375 7.875H30.625C30.9234 7.875 31.2095 7.99353 31.4205 8.2045C31.6315 8.41548 31.75 8.70163 31.75 9C31.75 9.29837 31.6315 9.58452 31.4205 9.7955C31.2095 10.0065 30.9234 10.125 30.625 10.125ZM31.75 16.875C31.75 16.5766 31.6315 16.2905 31.4205 16.0795C31.2095 15.8685 30.9234 15.75 30.625 15.75H16H1.375C1.07663 15.75 0.790483 15.8685 0.579505 16.0795C0.368526 16.2905 0.25 16.5766 0.25 16.875C0.25 17.1734 0.368526 17.4595 0.579505 17.6705C0.790483 17.8815 1.07663 18 1.375 18H30.625C30.9234 18 31.2095 17.8815 31.4205 17.6705C31.6315 17.4595 31.75 17.1734 31.75 16.875ZM31.75 1.125C31.75 0.826631 31.6315 0.540483 31.4205 0.329505C31.2095 0.118527 30.9234 0 30.625 0H1.375C1.07663 0 0.790483 0.118527 0.579505 0.329505C0.368526 0.540483 0.25 0.826631 0.25 1.125C0.25 1.42337 0.368526 1.70952 0.579505 1.92049C0.790483 2.13147 1.07663 2.25 1.375 2.25H30.625C30.9234 2.25 31.2095 2.13147 31.4205 1.92049C31.6315 1.70952 31.75 1.42337 31.75 1.125Z" fill="#FF5C00"/>
</svg>
