<svg width="30" height="30" viewBox="0 0 30 30" fill="none" xmlns="http://www.w3.org/2000/svg">
<path d="M15 0C6.72958 0 0 6.72958 0 15C0 23.2704 6.72958 30 15 30C23.2704 30 30 23.2704 30 15C30 6.72958 23.2704 0 15 0ZM20.5238 18.7573C21.0114 19.2448 21.0114 20.0363 20.5238 20.5257C20.2798 20.7692 19.9594 20.8914 19.6408 20.8914C19.3217 20.8914 19.0013 20.7692 18.7573 20.5257L15 16.7683L11.2427 20.5257C10.9987 20.7692 10.6783 20.8914 10.3592 20.8914C10.0388 20.8914 9.72015 20.7692 9.47617 20.5257C8.98865 20.0381 8.98865 19.2467 9.47617 18.7573L13.2317 15L9.47433 11.2427C8.98682 10.7552 8.98682 9.96368 9.47433 9.47433C9.96185 8.98499 10.7533 8.98682 11.2427 9.47433L15 13.2317L18.7573 9.47433C19.2448 8.98682 20.0363 8.98682 20.5257 9.47433C21.015 9.96185 21.0132 10.7533 20.5257 11.2427L16.7683 15L20.5238 18.7573Z" fill="#FBC01A"/>
</svg>
