<svg width="70" height="70" viewBox="0 0 70 70" fill="none" xmlns="http://www.w3.org/2000/svg">
<path d="M8.19959 17.8536C8.01257 17.6666 8.01257 17.3634 8.19959 17.1764L19.5754 5.80064C19.7624 5.61366 20.0656 5.61366 20.2525 5.80064L63.596 49.144C63.7831 49.3311 63.7831 49.6345 63.596 49.8216L52.2204 61.1972C52.0333 61.3843 51.7303 61.3843 51.5432 61.1972L8.19959 17.8536Z" fill="#FBC01A"/>
<path d="M20.2526 61.1972C20.0656 61.3843 19.7624 61.3843 19.5754 61.1972L8.19959 49.8216C8.01257 49.6346 8.01257 49.3311 8.19959 49.1441L51.5432 5.80067C51.7303 5.61365 52.0333 5.61365 52.2204 5.80067L63.596 17.1764C63.7831 17.3634 63.7831 17.6666 63.596 17.8536L20.2526 61.1972Z" fill="#FBC01A"/>
<path d="M19.4692 6.05032C19.3986 5.56 19.9624 5.23444 20.3517 5.54076L29.9867 13.1218C30.2747 13.3483 30.6996 13.2345 30.8356 12.8943L35.3893 1.51147C35.5733 1.05152 36.2244 1.05151 36.4084 1.51147L40.9619 12.8943C41.098 13.2345 41.523 13.3483 41.8111 13.1218L51.4458 5.54076C51.8353 5.23444 52.3993 5.56 52.3286 6.05032L50.5808 18.185C50.5283 18.5476 50.8394 18.8586 51.2022 18.8064L63.3365 17.0586C63.827 16.9879 64.1527 17.5518 63.8464 17.9411L56.2654 27.5761C56.0387 27.8641 56.1526 28.2889 56.4928 28.425L67.8757 32.9786C68.3355 33.1626 68.3355 33.8137 67.8757 33.9977L56.4928 38.5514C56.1526 38.6875 56.0387 39.1123 56.2654 39.4003L63.8464 49.0354C64.1527 49.4245 63.827 49.9885 63.3365 49.9178L51.2022 48.17C50.8394 48.1179 50.5283 48.4286 50.5808 48.7914L52.3286 60.9262C52.3993 61.4163 51.8353 61.7419 51.4458 61.4357L41.8111 53.8546C41.523 53.6279 41.098 53.7419 40.9619 54.0821L36.4084 65.465C36.2244 65.9247 35.5733 65.9247 35.3893 65.465L30.8356 54.0821C30.6996 53.7419 30.2747 53.6279 29.9867 53.8546L20.3517 61.4357C19.9624 61.7419 19.3986 61.4163 19.4692 60.9262L21.2171 48.7914C21.2693 48.4286 20.9583 48.1179 20.5956 48.17L8.46095 49.9178C7.97063 49.9885 7.64507 49.4245 7.9514 49.0354L15.5324 39.4003C15.759 39.1123 15.6452 38.6875 15.305 38.5514L3.92212 33.9977C3.46216 33.8137 3.46216 33.1626 3.92211 32.9786L15.3049 28.425C15.6452 28.2889 15.759 27.8641 15.5324 27.5761L7.9514 17.9411C7.64507 17.5518 7.97063 16.9879 8.46095 17.0586L20.5956 18.8064C20.9583 18.8586 21.2693 18.5476 21.2171 18.185L19.4692 6.05032Z" fill="#FF5C00"/>
<path d="M24.0685 27.0297C23.8815 26.8427 23.8815 26.5396 24.0685 26.3525L28.7632 21.6578C28.9502 21.4708 29.2534 21.4708 29.4404 21.6578L47.7321 39.9496C47.9192 40.1366 47.9192 40.4398 47.7321 40.6268L43.0374 45.3214C42.8503 45.5084 42.5473 45.5084 42.3603 45.3214L24.0685 27.0297Z" fill="white"/>
<path d="M29.4404 45.3217C29.2534 45.5084 28.9502 45.5084 28.7632 45.3217L24.0685 40.6268C23.8815 40.4398 23.8815 40.1366 24.0685 39.9496L42.3603 21.6578C42.5473 21.4708 42.8503 21.4708 43.0374 21.6578L47.7321 26.3525C47.9192 26.5396 47.9192 26.8427 47.7321 27.0297L29.4404 45.3217Z" fill="white"/>
</svg>
