<svg width="66" height="65" viewBox="0 0 66 65" fill="none" xmlns="http://www.w3.org/2000/svg">
<path d="M32.6276 0.932861L16.4614 17.041L32.6276 33.1492L48.7938 17.041L32.6276 0.932861Z" fill="#FF5C00"/>
<path d="M65.1561 33.1358L52.563 20.5879L39.9699 33.1358L52.563 45.6836L65.1561 33.1358Z" fill="#FBC01A"/>
<path d="M25.7007 33.1358L13.1077 20.5879L0.514587 33.1358L13.1077 45.6836L25.7007 33.1358Z" fill="#FBC01A"/>
<path d="M32.6288 33.1374L16.8875 48.8223L32.6288 64.5071L48.3702 48.8223L32.6288 33.1374Z" fill="#FF5C00"/>
<path d="M54.4468 38.6649C53.3572 39.5509 51.7791 39.5509 50.6899 38.6649C50.319 38.3634 49.8766 38.1558 49.4075 38.0645L49.3033 38.0443C47.968 37.7846 47.0161 36.5919 47.0525 35.2321C47.0654 34.7564 46.9547 34.2837 46.7313 33.8636C46.0885 32.6539 46.4323 31.1555 47.5381 30.3471L47.5765 30.3191C47.9599 30.039 48.2674 29.6628 48.4677 29.2325C49.0479 27.9853 50.4357 27.3118 51.771 27.6421L51.853 27.6625C52.3229 27.7786 52.8138 27.7786 53.2833 27.6625L53.3657 27.6421C54.701 27.3118 56.0888 27.9853 56.669 29.2325C56.8694 29.6628 57.1768 30.039 57.5598 30.3191L57.5982 30.3471C58.7044 31.1555 59.0482 32.6539 58.405 33.8636C58.182 34.2837 58.0713 34.7564 58.0838 35.2321C58.1206 36.5919 57.1687 37.7846 55.8335 38.0443L55.7292 38.0645C55.2597 38.1558 54.8177 38.3634 54.4468 38.6649Z" fill="#FF5C00"/>
<path d="M14.9836 38.7204C13.8942 39.6065 12.316 39.6065 11.2266 38.7204C10.8557 38.4186 10.4135 38.2112 9.94423 38.12L9.83995 38.0997C8.50462 37.84 7.55283 36.6474 7.58939 35.2875C7.60216 34.8118 7.49158 34.3392 7.26824 33.919C6.62528 32.7093 6.9691 31.2109 8.07507 30.4025L8.11341 30.3745C8.49658 30.0944 8.8042 29.7182 9.00444 29.2879C9.58465 28.0407 10.9724 27.3673 12.3077 27.6975L12.3899 27.7179C12.8596 27.8341 13.3506 27.8341 13.8203 27.7179L13.9025 27.6975C15.2378 27.3673 16.6256 28.0407 17.2058 29.2879C17.406 29.7182 17.7136 30.0944 18.0968 30.3745L18.1351 30.4025C19.2411 31.2109 19.5849 32.7093 18.942 33.919C18.7186 34.3392 18.608 34.8118 18.6208 35.2875C18.6574 36.6474 17.7056 37.84 16.3703 38.0997L16.266 38.12C15.7967 38.2112 15.3546 38.4186 14.9836 38.7204Z" fill="#FF5C00"/>
<path d="M30.5187 10.4006C31.8587 9.27778 33.8132 9.27778 35.1532 10.4006C35.6151 10.7876 36.1704 11.0534 36.7613 11.1717C38.4697 11.514 39.6947 13.0387 39.6493 14.7804C39.6336 15.3825 39.7701 15.9791 40.046 16.5144C40.8456 18.0639 40.4076 19.967 39.0149 21.0159C38.5339 21.3781 38.1505 21.857 37.9027 22.4058C37.1848 23.9956 35.42 24.84 33.7296 24.4092C33.1449 24.2602 32.527 24.2602 31.9423 24.4092C30.252 24.84 28.4871 23.9956 27.7693 22.4058C27.5214 21.857 27.138 21.3781 26.657 21.0159C25.2642 19.967 24.8264 18.0639 25.6257 16.5144C25.9018 15.9791 26.0383 15.3825 26.0226 14.7804C25.9772 13.0387 27.2022 11.514 28.9106 11.1717C29.5015 11.0534 30.0568 10.7876 30.5187 10.4006Z" fill="white"/>
<path d="M30.5187 41.9803C31.8587 40.8575 33.8132 40.8575 35.1532 41.9803C35.6151 42.3673 36.1704 42.6332 36.7613 42.7515C38.4697 43.0937 39.6947 44.6185 39.6493 46.3603C39.6336 46.9622 39.7701 47.559 40.046 48.0943C40.8456 49.6437 40.4076 51.5467 39.0149 52.5959C38.5339 52.9579 38.1505 53.4371 37.9027 53.9857C37.1848 55.5756 35.42 56.42 33.7296 55.9889C33.1449 55.8402 32.527 55.8402 31.9423 55.9889C30.252 56.42 28.4871 55.5756 27.7693 53.9857C27.5214 53.4371 27.138 52.9579 26.657 52.5959C25.2642 51.5467 24.8264 49.6437 25.6257 48.0943C25.9018 47.559 26.0383 46.9622 26.0226 46.3603C25.9772 44.6185 27.2022 43.0937 28.9106 42.7515C29.5015 42.6332 30.0568 42.3673 30.5187 41.9803Z" fill="white"/>
</svg>
