<svg width="66" height="65" viewBox="0 0 66 65" fill="none" xmlns="http://www.w3.org/2000/svg">
<path d="M1.03153 64.3249L18.9495 60.9049C19.3357 60.8314 19.6482 60.513 19.7496 60.09L24.4678 40.4097C24.6571 39.6201 24.0509 38.8767 23.3299 39.0143L5.41194 42.4343C5.0257 42.5082 4.71323 42.8266 4.61182 43.2496L-0.106321 62.9298C-0.295637 63.7193 0.310508 64.4627 1.03153 64.3249Z" fill="#FBC01A"/>
<path d="M40.8961 25.5812L58.8144 22.1611C59.2006 22.0874 59.513 21.7691 59.6144 21.3461L64.3325 1.66583C64.522 0.876157 63.9156 0.132827 63.1948 0.270453L45.2769 3.69057C44.8906 3.76429 44.5779 4.08258 44.4765 4.50559L39.7584 24.1859C39.5691 24.9755 40.1753 25.7189 40.8961 25.5812Z" fill="#FBC01A"/>
<path fill-rule="evenodd" clip-rule="evenodd" d="M33.8707 1.46019C33.4444 1.08 32.7999 1.08 32.3736 1.46019L23.854 9.05724C23.6643 9.22644 23.4226 9.32635 23.1685 9.34062L11.7614 9.98067C11.1905 10.0127 10.7348 10.4674 10.7027 11.0371L10.0614 22.421C10.0471 22.6746 9.947 22.9158 9.77743 23.1052L2.16487 31.6073C1.78391 32.0328 1.78391 32.676 2.16487 33.1015L9.77743 41.6035C9.947 41.793 10.0471 42.0342 10.0614 42.2879L10.7027 53.6716C10.7348 54.2413 11.1905 54.6962 11.7614 54.7281L23.1685 55.3681C23.4226 55.3822 23.6643 55.4824 23.854 55.6517L32.3736 63.2485C32.7999 63.6287 33.4444 63.6287 33.8707 63.2485L42.3901 55.6517C42.58 55.4824 42.8216 55.3822 43.0757 55.3681L54.4829 54.7281C55.0538 54.6962 55.5095 54.2413 55.5414 53.6716L56.183 42.2879C56.1971 42.0342 56.2973 41.793 56.467 41.6035L64.0796 33.1015C64.4602 32.676 64.4602 32.0328 64.0796 31.6073L56.467 23.1052C56.2973 22.9158 56.1971 22.6746 56.183 22.421L55.5414 11.0371C55.5095 10.4674 55.0538 10.0127 54.4829 9.98067L43.0757 9.34062C42.8216 9.32635 42.58 9.22644 42.3901 9.05724L33.8707 1.46019ZM33.708 42.875C39.2068 42.875 43.6644 38.2956 43.6644 32.6466C43.6644 26.9977 39.2068 22.4183 33.708 22.4183C28.2092 22.4183 23.7516 26.9977 23.7516 32.6466C23.7516 38.2956 28.2092 42.875 33.708 42.875Z" fill="#0CC4E9"/>
<path d="M33.8019 31.8573L28.0322 6.44031C27.9353 6.01322 27.598 5.68156 27.1687 5.59106L1.54665 0.189971C0.745139 0.0210154 0.0377512 0.737355 0.218744 1.53467L5.98848 26.9517C6.08545 27.3787 6.42268 27.7104 6.85199 27.8009L32.474 33.202C33.2755 33.3709 33.9829 32.6546 33.8019 31.8573Z" fill="#FBC01A"/>
<path d="M65.8065 63.2044L60.0366 37.7875C59.9397 37.3604 59.6023 37.0287 59.1732 36.9382L33.551 31.5371C32.7495 31.3682 32.0421 32.0845 32.2231 32.8818L37.9929 58.2988C38.0898 58.7259 38.4271 59.0576 38.8564 59.1481L64.4784 64.549C65.28 64.7183 65.9875 64.002 65.8065 63.2044Z" fill="#FBC01A"/>
</svg>
