<svg width="66" height="66" viewBox="0 0 66 66" fill="none" xmlns="http://www.w3.org/2000/svg">
<g clip-path="url(#clip0_2_705)">
<path d="M57.8366 29.6997H38.301C37.3355 29.6997 36.5498 28.923 36.5388 27.9576L36.3114 8.17704C36.3059 7.70264 36.492 7.24609 36.8274 6.9106L42.7339 1.00399C43.4219 0.315728 44.5378 0.315729 45.2263 1.00399L50.885 6.66309C51.2155 6.99362 51.4013 7.44188 51.4013 7.9093V13.0943C51.4013 14.0677 52.1904 14.8567 53.1637 14.8567H58.3485C58.8159 14.8567 59.264 15.0424 59.5945 15.3729L64.9974 20.7761C65.6859 21.4644 65.6859 22.5803 64.9974 23.2685L59.083 29.1835C58.7521 29.514 58.304 29.6997 57.8366 29.6997Z" fill="#E61777"/>
<path d="M8.54777 35.9197H28.0834C29.0488 35.9197 29.8345 36.6964 29.8457 37.6618L30.073 57.4423C30.0785 57.9166 29.8924 58.3731 29.5569 58.7089L23.6505 64.6153C22.9623 65.3037 21.8464 65.3037 21.1582 64.6153L15.4993 58.9561C15.1688 58.6257 14.9831 58.1776 14.9831 57.7101V52.5249C14.9831 51.5517 14.1941 50.7626 13.2208 50.7626H8.03596C7.56855 50.7626 7.12028 50.5772 6.7898 50.2467L1.38678 44.8433C0.698548 44.1548 0.698545 43.0393 1.38678 42.3509L7.30161 36.4359C7.6321 36.1054 8.08036 35.9197 8.54777 35.9197Z" fill="#E61777"/>
<path d="M30.0835 8.16523V27.7016C30.0835 28.667 29.3067 29.4527 28.3414 29.4638L8.56156 29.6912C8.08716 29.6967 7.63061 29.5106 7.29516 29.1751L1.38873 23.2685C0.700499 22.5802 0.7005 21.4644 1.38874 20.7761L7.04765 15.117C7.37814 14.7865 7.8264 14.6008 8.29382 14.6008H13.4787C14.4519 14.6008 15.241 13.8117 15.241 12.8384V7.65337C15.241 7.18596 15.4266 6.7377 15.7572 6.40717L21.1601 1.00399C21.8484 0.31573 22.9643 0.315727 23.6525 1.00399L29.5673 6.91902C29.8978 7.24951 30.0835 7.69781 30.0835 8.16523Z" fill="#E61777"/>
<path d="M36.3013 57.4534V37.9173C36.3013 36.9518 37.078 36.1661 38.0434 36.155L57.823 35.9276C58.2978 35.9222 58.7543 36.1082 59.0896 36.4437L64.996 42.3503C65.6841 43.0384 65.6841 44.1543 64.996 44.8427L59.3373 50.5019C59.0064 50.8323 58.5583 51.0182 58.0909 51.0182H52.9061C51.9328 51.0182 51.1437 51.8072 51.1437 52.7805V57.9653C51.1437 58.4328 50.9579 58.8813 50.6274 59.2117L45.2244 64.6147C44.5364 65.3032 43.4205 65.3032 42.7324 64.6147L36.8174 58.6998C36.487 58.3694 36.3013 57.9209 36.3013 57.4534Z" fill="#E61777"/>
</g>
<defs>
<clipPath id="clip0_2_705">
<rect width="64.6434" height="64.6434" fill="white" transform="translate(0.870605 0.487793)"/>
</clipPath>
</defs>
</svg>
