<svg width="65" height="40" viewBox="0 0 65 40" fill="none" xmlns="http://www.w3.org/2000/svg">
<path d="M28.0252 28.5002L1.15454 1.78589C0.499567 1.13473 0.960708 0.0168457 1.88428 0.0168457H55.811C56.1855 0.0168457 56.5309 0.219179 56.714 0.545911L64.5528 14.5357C64.979 15.2966 64.3306 16.2115 63.4712 16.0612L43.7501 12.6118C43.3898 12.5488 43.0229 12.6806 42.7853 12.9585L29.5415 28.4392C29.15 28.8965 28.4522 28.9248 28.0252 28.5002Z" fill="#FBC01A"/>
<path d="M0.0422363 1.26001L28.0353 34.0926C28.47 34.6025 29.2674 34.571 29.6608 34.0288L43.8636 14.443C44.1024 14.1136 44.5121 13.9547 44.9108 14.0369L56.9171 16.5144V38.6799C56.9171 39.2516 56.4537 39.715 55.882 39.715H1.07728C0.505644 39.715 0.0422363 39.2516 0.0422363 38.6799V1.26001Z" fill="#0CC4E9"/>
</svg>
