<svg width="70" height="70" viewBox="0 0 70 70" fill="none" xmlns="http://www.w3.org/2000/svg">
<path d="M3.18335 35.1372C2.9952 34.9491 2.9952 34.644 3.18335 34.4559L35.0232 2.61597C35.2114 2.42782 35.5165 2.42782 35.7046 2.61597L67.5447 34.4559C67.7325 34.644 67.7325 34.9491 67.5447 35.1372L35.7046 66.9772C35.5165 67.1651 35.2114 67.1651 35.0232 66.9772L3.18335 35.1372Z" fill="#E61777"/>
<path d="M61.9212 34.5184C61.9212 49.339 49.9065 61.3538 35.0858 61.3538C20.2651 61.3538 8.25049 49.339 8.25049 34.5184C8.25049 19.6977 20.2651 7.68311 35.0858 7.68311C49.9065 7.68311 61.9212 19.6977 61.9212 34.5184Z" fill="white"/>
<path fill-rule="evenodd" clip-rule="evenodd" d="M35.0858 56.5359C47.2456 56.5359 57.1033 46.6782 57.1033 34.5184C57.1033 22.3586 47.2456 12.5011 35.0858 12.5011C22.9259 12.5011 13.0684 22.3586 13.0684 34.5184C13.0684 46.6782 22.9259 56.5359 35.0858 56.5359ZM35.0858 61.3538C49.9065 61.3538 61.9212 49.339 61.9212 34.5184C61.9212 19.6977 49.9065 7.68311 35.0858 7.68311C20.2651 7.68311 8.25049 19.6977 8.25049 34.5184C8.25049 49.339 20.2651 61.3538 35.0858 61.3538Z" fill="#FBC01A"/>
<path d="M44.259 17.9715L30.7338 31.5871C30.511 31.8114 30.5609 32.1858 30.8347 32.3439L39.3313 37.2494C39.6051 37.4075 39.9544 37.2635 40.0372 36.9584L45.0658 18.4373C45.1955 17.96 44.6076 17.6206 44.259 17.9715Z" fill="#FBC01A"/>
<path d="M25.9069 51.6222L39.4323 38.0067C39.6551 37.7824 39.6054 37.4077 39.3316 37.2496L30.835 32.3441C30.5612 32.186 30.2117 32.3303 30.1289 32.6353L25.1001 51.1564C24.9705 51.6339 25.5583 51.9733 25.9069 51.6222Z" fill="#E61777"/>
<path d="M35.0869 41.9995C39.1961 41.9995 42.5273 38.6683 42.5273 34.5591C42.5273 30.4498 39.1961 27.1187 35.0869 27.1187C30.9777 27.1187 27.6465 30.4498 27.6465 34.5591C27.6465 38.6683 30.9777 41.9995 35.0869 41.9995Z" fill="#E61777"/>
<path d="M35.0842 37.9302C36.9475 37.9302 38.458 36.4197 38.458 34.5564C38.458 32.6931 36.9475 31.1826 35.0842 31.1826C33.2209 31.1826 31.7104 32.6931 31.7104 34.5564C31.7104 36.4197 33.2209 37.9302 35.0842 37.9302Z" fill="white"/>
</svg>
