<svg width="65" height="65" viewBox="0 0 65 65" fill="none" xmlns="http://www.w3.org/2000/svg">
<path d="M58.5067 31.1027L62.6176 19.0792C62.8746 18.3285 62.4738 17.5119 61.7231 17.2552L49.6998 13.1443L44.0945 1.72806C43.745 1.01571 42.8836 0.721905 42.1717 1.0719L30.7665 6.67654L18.7313 2.56518C17.9806 2.30876 17.1642 2.70927 16.9076 3.45984L12.7966 15.4837L1.39117 21.0886C0.679131 21.4385 0.385567 22.2993 0.735476 23.0114L6.34035 34.4169L2.22946 46.4404C1.97279 47.1911 2.37329 48.0076 3.12399 48.2646L15.1475 52.3751L20.7526 63.7915C21.1023 64.5038 21.9634 64.7975 22.6756 64.4477L34.0807 58.8431L46.1036 62.9536C46.8547 63.2106 47.6713 62.8098 47.9278 62.0591L52.0391 50.0245L63.4559 44.4191C64.1678 44.0692 64.462 43.2087 64.1121 42.4964L58.5067 31.0798V31.1027ZM55.5137 35.0361L34.6884 55.8614C33.4385 57.1115 31.3972 57.1115 30.1472 55.8614L9.32194 35.0361C8.07194 33.7861 8.07194 31.7449 9.32194 30.4949L30.1472 9.65813C31.3972 8.40817 33.4385 8.40817 34.6884 9.65813L55.5137 30.4835C56.7637 31.7334 56.7637 33.7747 55.5137 35.0247V35.0361Z" fill="#FBC01A"/>
<path d="M40.3905 32.7664C40.3905 28.3628 36.8241 24.7964 32.4205 24.7964C28.0169 24.7964 24.4504 28.3628 24.4504 32.7664C24.4504 37.17 28.0169 40.7365 32.4205 40.7365C36.8241 40.7365 40.3905 37.17 40.3905 32.7664Z" fill="#0CC4E9"/>
</svg>
