<svg width="70" height="66" viewBox="0 0 70 66" fill="none" xmlns="http://www.w3.org/2000/svg">
<g clip-path="url(#clip0_2_965)">
<path d="M11.901 56.8616C10.8166 56.8616 9.9375 55.9828 9.9375 54.898V11.6501C9.9375 10.5656 10.8166 9.68652 11.901 9.68652H54.5878C55.6721 9.68652 56.5513 10.5656 56.5513 11.6501V54.898C56.5513 55.9828 55.6721 56.8616 54.5878 56.8616H11.901Z" fill="#24E2AB"/>
<path d="M34.7817 65.0196C34.0149 65.786 32.7716 65.786 32.0048 65.0196L1.48502 34.4997C0.718209 33.7328 0.718208 32.4896 1.48502 31.7228L31.6815 1.52628C32.4483 0.759469 33.6916 0.759467 34.4584 1.52628L64.9781 32.046C65.745 32.8129 65.745 34.0561 64.9781 34.8229L34.7817 65.0196Z" fill="#FBC01A"/>
<path d="M27.4089 20.1019L19.2179 28.2929C16.0623 31.4485 16.0623 36.5647 19.2179 39.7203L27.4089 47.9113C30.5645 51.0669 35.6807 51.0669 38.8363 47.9113L47.0273 39.7203C50.1829 36.5647 50.1829 31.4485 47.0273 28.2929L38.8363 20.1019C35.6807 16.9463 30.5645 16.9463 27.4089 20.1019Z" fill="white"/>
<path d="M22.3156 34.2076C21.9827 33.835 21.9827 33.2719 22.3156 32.8993L24.6123 30.329C24.7605 30.1631 24.848 29.9519 24.8605 29.7299L25.0539 26.2884C25.082 25.7895 25.4802 25.3913 25.9791 25.3633L29.4206 25.1698C29.6426 25.1573 29.8538 25.0698 30.0196 24.9216L32.5899 22.6249C32.9625 22.292 33.5257 22.292 33.8983 22.6249L36.4686 24.9216C36.6344 25.0698 36.8456 25.1573 37.0676 25.1698L40.5092 25.3633C41.008 25.3913 41.4061 25.7895 41.4344 26.2884L41.6279 29.7299C41.6404 29.9519 41.7277 30.1631 41.876 30.329L44.1724 32.8993C44.5053 33.2719 44.5053 33.835 44.1724 34.2076L41.876 36.7779C41.7277 36.9438 41.6404 37.155 41.6279 37.377L41.4344 40.8185C41.4061 41.3174 41.008 41.7156 40.5092 41.7435L37.0677 41.937C36.8456 41.9495 36.6344 42.0372 36.4686 42.1851L33.8983 44.4819C33.5257 44.8148 32.9625 44.8148 32.5899 44.4819L30.0196 42.1851C29.8538 42.0372 29.6426 41.9495 29.4206 41.937L25.9791 41.7435C25.4802 41.7156 25.082 41.3174 25.0539 40.8185L24.8605 37.377C24.848 37.155 24.7605 36.9438 24.6123 36.7779L22.3156 34.2076Z" fill="#24E2AB"/>
</g>
<defs>
<clipPath id="clip0_2_965">
<rect width="68.6836" height="64.6434" fill="white" transform="translate(0.9021 0.951172)"/>
</clipPath>
</defs>
</svg>
