<svg width="65" height="65" viewBox="0 0 65 65" fill="none" xmlns="http://www.w3.org/2000/svg">
<path d="M49.6137 12.9009C49.6137 12.8983 49.6129 12.8957 49.6117 12.8934L43.8055 1.05237C43.5728 0.577443 42.9987 0.381255 42.524 0.614185L31.0341 6.24982C30.8062 6.36157 30.5434 6.37834 30.3033 6.29645L18.1904 2.1668C17.6898 1.99614 17.1456 2.26354 16.9749 2.76409L12.8434 14.877C12.7614 15.1176 12.587 15.3158 12.3588 15.4277L0.869415 21.0631C0.394585 21.296 0.198432 21.8697 0.431282 22.3445L6.06489 33.8333C6.17664 34.0613 6.19337 34.3242 6.11131 34.5645L1.97217 46.6857C1.80118 47.1862 2.06863 47.7309 2.56943 47.9018L14.6808 52.0309C14.9216 52.1129 15.1197 52.2874 15.2317 52.5157L20.8649 64.0036C21.0977 64.4783 21.6716 64.6747 22.1465 64.4416L33.6362 58.8063C33.8641 58.6944 34.1271 58.6778 34.3673 58.7598L46.4878 62.8966C46.9884 63.0675 47.533 62.8004 47.7039 62.2995L51.8351 50.1869C51.9171 49.9465 52.0916 49.7481 52.3199 49.6362L63.809 44.0009C64.2842 43.7682 64.4801 43.1945 64.2474 42.7194L58.6137 31.2305C58.5018 31.0027 58.4852 30.7398 58.5669 30.4997L62.6988 18.3862C62.8697 17.8855 62.6018 17.3413 62.1012 17.1706L49.6251 12.9171C49.6182 12.9148 49.6137 12.9083 49.6137 12.9009ZM50.2784 17.7971L50.2759 47.2638C50.2759 49.0326 48.8316 50.4766 47.0628 50.477L17.5963 50.4794C15.8277 50.4794 14.3837 49.0354 14.3838 47.2666L14.3863 17.8002C14.3865 16.0316 15.8307 14.5873 17.5994 14.5872L47.066 14.5847C48.8348 14.5845 50.2788 16.0285 50.2784 17.7971Z" fill="#FBC01A"/>
<path d="M31.3887 13.9837C31.3874 13.9824 31.3858 13.9814 31.3841 13.9808L22.7763 11.0373C22.2758 10.8662 21.7314 11.1332 21.5603 11.6337L18.7445 19.8708C18.6624 20.1109 18.4884 20.3086 18.2607 20.4205L10.4483 24.2603C9.97366 24.4936 9.77799 25.0675 10.0112 25.5421L13.85 33.3553C13.9622 33.5835 13.979 33.8469 13.8967 34.0874L11.0811 42.324C10.9101 42.8245 11.177 43.3687 11.6775 43.5401L19.9129 46.3561C20.1531 46.4381 20.3509 46.6122 20.4627 46.8401L24.302 54.6615C24.5352 55.1363 25.1093 55.3322 25.5841 55.0987L33.3952 51.2597C33.6234 51.1474 33.8868 51.1308 34.1275 51.2128L42.3618 54.0288C42.8624 54.2001 43.407 53.9331 43.5779 53.4325L46.394 45.1957C46.476 44.9553 46.6501 44.7578 46.878 44.6459L54.6978 40.8056C55.1725 40.5725 55.3685 39.9986 55.135 39.5238L51.2964 31.7109C51.1844 31.4827 51.1675 31.2194 51.2499 30.9788L54.0655 22.7423C54.2364 22.2418 53.9694 21.6975 53.4692 21.5264L45.2332 18.7101C44.9932 18.628 44.7957 18.4539 44.6838 18.2262L40.8447 10.4126C40.6112 9.93779 40.0374 9.74204 39.5627 9.97537L31.4027 13.986C31.398 13.9883 31.3924 13.9874 31.3887 13.9837ZM34.1838 16.1105L48.993 30.9222C49.8819 31.8113 49.8819 33.2631 48.993 34.1521L34.1838 48.964C33.295 49.8529 31.8434 49.8529 30.9545 48.964L16.1454 34.1521C15.2565 33.2631 15.2565 31.8113 16.1454 30.9222L30.9545 16.1105C31.8434 15.2215 33.295 15.2215 34.1838 16.1105Z" fill="#0CC4E9"/>
</svg>
