<svg width="49" height="65" viewBox="0 0 49 65" fill="none" xmlns="http://www.w3.org/2000/svg">
<path d="M4.53955 7.17298V25.4544C4.53955 25.7627 4.78944 26.0126 5.09771 26.0126H44.0117C44.3199 26.0126 44.57 25.7627 44.57 25.4544V7.17298C44.57 6.71207 44.0428 6.44974 43.6751 6.72767L24.8913 20.9243C24.6922 21.0748 24.4173 21.0748 24.2182 20.9243L5.4343 6.72767C5.06656 6.44974 4.53955 6.71207 4.53955 7.17298Z" fill="#0CC4E9"/>
<path d="M6.19515 30.9574C6.22695 30.6751 6.46572 30.4617 6.74979 30.4617H42.3455C42.6348 30.4617 42.8764 30.6831 42.9015 30.9716L44.9769 54.8786C45.0052 55.2046 44.7482 55.485 44.421 55.485H4.05606C3.72303 55.485 3.46409 55.1953 3.50138 54.8645L6.19515 30.9574Z" fill="#0CC4E9"/>
<path d="M4.04241 60.1586C4.14734 60.0519 4.2908 59.9917 4.44053 59.9917H45.2396C45.4332 59.9917 45.6129 60.0919 45.7148 60.2567L48.0068 63.9721C48.2363 64.3438 47.9688 64.8234 47.5316 64.8234H0.789275C0.294309 64.8234 0.044261 64.227 0.391153 63.8739L4.04241 60.1586Z" fill="#0CC4E9"/>
<path d="M23.6203 0.492026L15.9823 7.86781C15.4821 8.35078 15.5404 9.16848 16.1038 9.57569L23.7689 15.1153C24.1522 15.3923 24.6684 15.3978 25.0574 15.129L32.6917 9.85414C33.2654 9.45763 33.3394 8.6378 32.8453 8.14521L25.1841 0.504623C24.7533 0.0750235 24.0579 0.0694198 23.6203 0.492026Z" fill="#FF5C00"/>
<path d="M7.82454 48.24C7.38856 47.804 7.38856 47.0974 7.82454 46.6615L23.6157 30.8702C24.0517 30.4342 24.7585 30.4342 25.1945 30.8702L40.9856 46.6615C41.4216 47.0974 41.4216 47.804 40.9856 48.24L25.1945 64.0312C24.7585 64.4675 24.0517 64.4675 23.6157 64.0312L7.82454 48.24Z" fill="#FF5C00"/>
</svg>
