<svg width="70" height="66" viewBox="0 0 70 66" fill="none" xmlns="http://www.w3.org/2000/svg">
<g clip-path="url(#clip0_2_1226)">
<path d="M57.7891 31.7092C57.7912 31.7074 57.7924 31.7052 57.7932 31.7028L61.8605 19.8091C62.0314 19.3086 61.7647 18.7642 61.2641 18.5931L49.7394 14.6534C49.4994 14.5714 49.3015 14.3974 49.1896 14.1697L43.8173 3.23932C43.5842 2.76468 43.0105 2.569 42.5357 2.80222L31.6041 8.17327C31.3759 8.28539 31.1125 8.3022 30.872 8.21994L19.348 4.28055C18.8476 4.10948 18.3032 4.37645 18.1321 4.87687L14.1919 16.3993C14.1097 16.6395 13.9356 16.8372 13.7077 16.9491L2.76537 22.3206C2.29042 22.5538 2.09453 23.1279 2.32791 23.6027L7.69951 34.5317C7.81167 34.7599 7.82848 35.0234 7.74618 35.264L3.80629 46.7856C3.63514 47.2858 3.90216 47.8304 4.40268 48.0017L15.927 51.9409C16.1672 52.0234 16.365 52.1975 16.4769 52.425L21.8494 63.3659C22.0825 63.8406 22.6565 64.0365 23.1313 63.803L34.0626 58.4324C34.2908 58.32 34.5541 58.3035 34.7947 58.3855L46.3186 62.3251C46.8192 62.496 47.3634 62.2289 47.5347 61.7288L51.4747 50.2061C51.5571 49.9661 51.7308 49.7681 51.9587 49.6566L62.8907 44.2852C63.3654 44.052 63.5614 43.4779 63.3279 43.0032L57.7863 31.7279C57.7831 31.7216 57.7843 31.7141 57.7891 31.7092ZM54.9279 35.4696L35.0005 55.3937C33.8045 56.5896 31.8512 56.5896 30.6551 55.3937L10.7278 35.4696C9.53167 34.2738 9.53167 32.3208 10.7278 31.125L30.6551 11.2009C31.8512 10.0051 33.8045 10.0051 35.0005 11.2009L54.9279 31.125C56.1242 32.3208 56.1242 34.2738 54.9279 35.4696Z" fill="#FBC01A"/>
<path d="M54.2884 20.4476C54.2896 20.4482 54.2913 20.4471 54.2913 20.4457L52.4562 8.01145C52.379 7.4882 51.8922 7.12664 51.369 7.20381L39.3208 8.98114C39.07 9.01814 38.8147 8.95415 38.611 8.80325L28.8127 1.54466C28.3879 1.22996 27.7884 1.31902 27.4735 1.74362L20.2146 11.5291C20.0633 11.733 19.8372 11.8685 19.586 11.9058L7.53835 13.6929C7.01514 13.7705 6.65391 14.2576 6.73156 14.7808L8.51883 26.8254C8.55616 27.0771 8.49184 27.3332 8.34001 27.5374L1.07302 37.3106C0.757131 37.7355 0.845855 38.336 1.27109 38.6513L11.0563 45.9077C11.2606 46.0592 11.3962 46.2854 11.4333 46.5372L13.2107 58.5818C13.2879 59.105 13.7747 59.4666 14.2979 59.3895L26.3459 57.6122C26.5969 57.575 26.8523 57.6392 27.0561 57.7903L36.8432 65.0478C37.268 65.3629 37.8677 65.274 38.1828 64.8494L45.4412 55.0644C45.5927 54.8604 45.8189 54.7246 46.0698 54.6875L58.1177 52.9005C58.6409 52.8229 59.0021 52.3357 58.9246 51.8125L57.1372 39.7673C57.1 39.5159 57.1638 39.2602 57.3153 39.0561L64.5736 29.2714C64.8887 28.8466 64.7998 28.2467 64.3748 27.9316L54.2864 20.4507C54.2848 20.4494 54.2864 20.4466 54.2884 20.4476ZM53.4687 25.112L44.8877 51.9478C44.3717 53.5606 42.6381 54.4604 41.0248 53.9449L14.1845 45.3651C12.5714 44.8496 11.6716 43.1159 12.1873 41.503L20.7684 14.6672C21.2842 13.0544 23.0179 12.1548 24.631 12.6705L51.4716 21.2501C53.0844 21.7657 53.9846 23.4992 53.4687 25.112Z" fill="#0CC4E9"/>
</g>
<defs>
<clipPath id="clip0_2_1226">
<rect width="68.6836" height="64.6434" fill="white" transform="translate(0.398438 0.975586)"/>
</clipPath>
</defs>
</svg>
