<svg width="65" height="66" viewBox="0 0 65 66" fill="none" xmlns="http://www.w3.org/2000/svg">
<g clip-path="url(#clip0_2_787)">
<path d="M40.9895 32.5135C41.1846 32.7088 41.1846 33.0255 40.9895 33.2208L32.2452 41.9651C32.0499 42.1602 31.7332 42.1602 31.5379 41.9651L22.7937 33.2208C22.5984 33.0255 22.5984 32.7088 22.7937 32.5135L31.5379 23.7693C31.7332 23.574 32.0499 23.574 32.2452 23.7693L40.9895 32.5135Z" fill="#FF5C00"/>
<path d="M36.6314 52.6903C34.2512 50.3102 30.3923 50.3102 28.0122 52.6903C25.632 55.0705 25.632 58.9294 28.0122 61.3095C30.3923 63.6897 34.2513 63.6897 36.6314 61.3095C39.0115 58.9294 39.0115 55.0705 36.6314 52.6903Z" fill="#FF5C00"/>
<path d="M12.9265 28.9855C10.5464 26.6054 6.68747 26.6054 4.30734 28.9855C1.92721 31.3656 1.92721 35.2246 4.30734 37.6047C6.68747 39.9848 10.5464 39.9848 12.9265 37.6047C15.3067 35.2246 15.3067 31.3656 12.9265 28.9855Z" fill="#FF5C00"/>
<path d="M36.6314 5.28482C34.2513 2.90469 30.3923 2.90469 28.0122 5.28482C25.632 7.66495 25.632 11.5239 28.0122 13.904C30.3923 16.2841 34.2513 16.2841 36.6314 13.904C39.0115 11.5239 39.0115 7.66494 36.6314 5.28482Z" fill="#FF5C00"/>
<path d="M60.336 28.9855C57.9558 26.6054 54.0969 26.6054 51.7168 28.9855C49.3366 31.3656 49.3366 35.2246 51.7168 37.6047C54.0969 39.9848 57.9558 39.9848 60.336 37.6047C62.7161 35.2246 62.7161 31.3656 60.336 28.9855Z" fill="#FF5C00"/>
<path d="M54.0454 18.4753L41.6262 25.1932C40.151 25.9911 38.5467 24.3642 39.3653 22.9005L46.2288 10.6276C46.3755 10.365 46.5904 10.1469 46.851 9.99633L59.6819 2.5752C61.1558 1.72257 62.8159 3.36071 61.9832 4.84618L54.7084 17.8223C54.5537 18.0984 54.3238 18.3248 54.0454 18.4753Z" fill="#FBC01A"/>
<path d="M17.7839 10.562L24.5018 22.9813C25.2997 24.4564 23.6728 26.0606 22.2091 25.2421L9.9362 18.3786C9.67362 18.2318 9.45557 18.0169 9.30491 17.7564L1.8838 4.92563C1.03116 3.45146 2.6693 1.79127 4.15478 2.62408L17.1309 9.899C17.4069 10.0538 17.6334 10.2836 17.7839 10.562Z" fill="#FBC01A"/>
<path d="M16.5512 55.9685L4.13192 62.6866C2.65684 63.4845 1.05259 61.8575 1.87114 60.3938L8.73456 48.1208C8.88143 47.8586 9.09636 47.6405 9.35676 47.4898L22.1876 40.0686C23.6618 39.216 25.3219 40.8541 24.4891 42.3397L17.2142 55.3156C17.0595 55.5916 16.8296 55.8182 16.5512 55.9685Z" fill="#FBC01A"/>
<path d="M55.2769 48.0552L61.9946 60.4748C62.7925 61.9499 61.1655 63.5539 59.7022 62.7353L47.4292 55.8722C47.1666 55.7251 46.9484 55.5102 46.7977 55.25L39.3767 42.4191C38.5241 40.9448 40.1622 39.2847 41.6477 40.1175L54.624 47.3922C54.9 47.5474 55.1262 47.7768 55.2769 48.0552Z" fill="#FBC01A"/>
</g>
<defs>
<clipPath id="clip0_2_787">
<rect width="64.6434" height="64.6434" fill="white" transform="translate(0 0.975586)"/>
</clipPath>
</defs>
</svg>
