<svg width="65" height="66" viewBox="0 0 65 66" fill="none" xmlns="http://www.w3.org/2000/svg">
<path d="M38.482 41.407C38.7502 41.407 38.9676 41.6243 38.9676 41.8926V62.6052C38.9676 62.873 38.7502 63.0908 38.482 63.0908H0.778273C0.373024 63.0908 0.146044 62.6237 0.396465 62.305L8.06437 52.5487C8.20278 52.3725 8.20278 52.1248 8.06437 51.9487L0.396465 42.1924C0.146044 41.874 0.373023 41.407 0.778269 41.407H38.482Z" fill="#FBC01A"/>
<path d="M62.7307 38.9221C62.7307 39.1903 62.5133 39.4077 62.245 39.4077H41.5325C41.2642 39.4077 41.0469 39.1903 41.0469 38.9221V1.21847C41.0469 0.813209 41.5139 0.58623 41.8327 0.83665L51.5886 8.50454C51.7647 8.64296 52.0128 8.64296 52.189 8.50454L61.9449 0.83665C62.2636 0.586234 62.7307 0.813209 62.7307 1.21847V38.9221Z" fill="#FBC01A"/>
<path d="M10.9604 11.8821C10.9604 11.6139 11.1779 11.3965 11.4461 11.3965H38.4852C38.7535 11.3965 38.9709 11.6139 38.9709 11.8821V38.9215C38.9709 39.1893 38.7535 39.4067 38.4852 39.4067H11.4461C11.1779 39.4067 10.9604 39.1893 10.9604 38.9215V11.8821Z" fill="#0CC4E9"/>
<path d="M41.052 61.6853V43.0098C41.052 42.4733 41.4867 42.0386 42.0233 42.0386H60.6987C61.5641 42.0386 61.9973 43.0846 61.3856 43.6967L42.7101 62.3721C42.0984 62.9838 41.052 62.5507 41.052 61.6853Z" fill="#0CC4E9"/>
<path d="M48.1288 55.3222C47.7494 54.9428 47.7494 54.3279 48.1288 53.9485L52.9621 49.1148C53.3415 48.7358 53.9564 48.7358 54.3357 49.1148L64.1034 58.8824C64.4827 59.2618 64.4827 59.8767 64.1034 60.2561L59.2696 65.0898C58.8903 65.4692 58.2754 65.4692 57.8964 65.0898L48.1288 55.3222Z" fill="#0CC4E9"/>
</svg>
