<svg width="70" height="65" viewBox="0 0 70 65" fill="none" xmlns="http://www.w3.org/2000/svg">
<g clip-path="url(#clip0_2_699)">
<path d="M11.2583 32.3322L1.49713 51.9399C1.25493 52.4268 0.516848 52.2555 0.516848 51.7129L0.516846 12.4971C0.516846 11.9544 1.25493 11.7833 1.49713 12.2698L11.2583 31.8777C11.3296 32.0209 11.3296 32.189 11.2583 32.3322Z" fill="#0CC4E9"/>
<path d="M32.3751 10.7016L12.6205 1.01304C12.1303 0.772634 12.3027 0.0400391 12.8494 0.0400391H52.3589C52.9055 0.0400391 53.0781 0.772634 52.588 1.01304L32.8331 10.7016C32.6888 10.7724 32.5195 10.7724 32.3751 10.7016Z" fill="#0CC4E9"/>
<path d="M54.4191 31.8777L64.1803 12.2698C64.4223 11.7833 65.1604 11.9544 65.1604 12.4971V51.7129C65.1604 52.2555 64.4223 52.4268 64.1803 51.9399L54.4191 32.3322C54.3476 32.189 54.3476 32.0209 54.4191 31.8777Z" fill="#0CC4E9"/>
<path d="M32.8331 54.0218L52.588 63.7106C53.0781 63.951 52.9055 64.6835 52.3589 64.6835H12.8494C12.3027 64.6835 12.1303 63.951 12.6205 63.7106L32.3751 54.0218C32.5195 53.9511 32.6888 53.9511 32.8331 54.0218Z" fill="#0CC4E9"/>
<path fill-rule="evenodd" clip-rule="evenodd" d="M2.71052 1.12858C1.83158 0.721853 0.922496 1.63095 1.33948 2.49963L15.4617 31.9198C15.5956 32.1989 15.5956 32.5231 15.4617 32.8022L1.33949 62.2223C0.922501 63.0909 1.83158 64 2.71052 63.5935L33.0392 49.559C33.3217 49.4281 33.6485 49.431 33.9288 49.5659L62.9504 63.5701C63.8179 63.9887 64.7398 63.1051 64.3475 62.2304L51.1425 32.778C51.0233 32.5125 51.0233 32.2095 51.1425 31.944L64.3475 2.49155C64.7398 1.61693 63.8179 0.733121 62.9504 1.15182L33.9288 15.1559C33.6485 15.2912 33.3217 15.2938 33.0392 15.1631L2.71052 1.12858ZM22.2766 31.6354C21.8726 32.0361 21.8726 32.6858 22.2766 33.0865L32.5862 43.3145C32.9901 43.7149 33.645 43.7149 34.0489 43.3145L44.3586 33.0865C44.7626 32.6858 44.7626 32.0361 44.3586 31.6354L34.0489 21.4076C33.645 21.0069 32.9901 21.0069 32.5862 21.4076L22.2766 31.6354Z" fill="#FBC01A"/>
</g>
<defs>
<clipPath id="clip0_2_699">
<rect width="68.6836" height="64.6434" fill="white" transform="translate(0.414551 0.0400391)"/>
</clipPath>
</defs>
</svg>
