<svg width="65" height="49" viewBox="0 0 65 49" fill="none" xmlns="http://www.w3.org/2000/svg">
<path d="M3.14541 44.6881C6.30942 44.6881 9.50159 45.4335 12.3559 46.8258C14.8733 48.0633 17.6291 48.7105 20.3851 48.7105H44.4304C47.1862 48.7105 49.9428 48.0641 52.4175 46.854C55.3139 45.4198 58.5061 44.6881 61.6699 44.6881C63.0056 44.6881 64.1729 43.9011 64.7215 42.7617H0.078125C0.640605 43.9007 1.80831 44.6881 3.14412 44.6881H3.14541Z" fill="#FF5C00"/>
<path d="M3.14541 35.7181C6.30942 35.7181 9.50159 36.4498 12.3559 37.8558C14.8733 39.0933 17.6291 39.7406 20.3851 39.7406H44.4304C47.1862 39.7406 49.9428 39.0937 52.4175 37.8841C55.3139 36.4498 58.5061 35.7181 61.6699 35.7181C63.0056 35.7181 64.1729 34.9311 64.7215 33.7917L0.078125 33.7922C0.640605 34.9448 1.80831 35.7181 3.14412 35.7181H3.14541Z" fill="#FF5C00"/>
<path d="M3.14541 26.7601C6.30942 26.7601 9.50159 27.4914 12.3559 28.8977C14.8733 30.1494 17.6291 30.7823 20.3851 30.7823H44.4304C47.1862 30.7823 49.9428 30.1495 52.4175 28.9259C55.3139 27.4915 58.5061 26.7601 61.6699 26.7601C63.0056 26.7601 64.1729 25.9728 64.7215 24.8335H0.078125C0.640605 25.9723 1.80831 26.7601 3.14412 26.7601H3.14541Z" fill="#FF5C00"/>
<path fill-rule="evenodd" clip-rule="evenodd" d="M44.0576 23.9297H38.4832C38.0216 20.9747 35.4652 18.7138 32.3807 18.7138C29.2962 18.7138 26.7398 20.9747 26.2783 23.9297H20.5046L7.76512 15.5252C6.96674 14.9985 7.33965 13.756 8.29609 13.756H20.083C20.6155 13.756 21.0473 13.3243 21.0473 12.7918V1.00489C21.0473 0.0484473 22.2897 -0.324464 22.8164 0.473882L31.4202 13.5154C31.8002 14.0914 32.6445 14.0935 33.0273 13.5194L41.7482 0.441318C42.2774 -0.352382 43.515 0.0223077 43.515 0.976282V12.7918C43.515 13.3243 43.9464 13.756 44.479 13.756H56.2659C57.2226 13.756 57.5955 14.9985 56.7971 15.5252L44.0576 23.9297Z" fill="#0CC4E9"/>
</svg>
