<svg width="65" height="65" viewBox="0 0 65 65" fill="none" xmlns="http://www.w3.org/2000/svg">
<path d="M49.4983 13.15L43.903 1.74133C43.5539 1.02901 42.6934 0.734752 41.9807 1.08409L30.5721 6.67917L18.5362 2.57006C17.7852 2.31367 16.9686 2.71479 16.7125 3.46589L12.611 15.4935L1.19362 21.0965C0.481527 21.446 0.187455 22.3065 0.536725 23.0187L6.13198 34.4278L2.03033 46.4557C1.77426 47.2068 2.17541 48.0233 2.92632 48.279L14.9544 52.3806L20.5495 63.7894C20.8989 64.5017 21.7595 64.7962 22.4718 64.4467L33.8806 58.8519L45.9166 62.9607C46.6673 63.2173 47.4843 62.8161 47.7404 62.065L51.8416 50.0373L63.25 44.4424C63.9627 44.093 64.2568 43.232 63.9073 42.5197L58.3043 31.1031L62.4136 19.0667C62.6702 18.3159 62.2694 17.4995 61.5183 17.2431L49.4821 13.1338L49.4983 13.15ZM50.1633 18.0478V47.4993C50.1633 49.2669 48.7197 50.7104 46.9522 50.7104H17.5006C15.7329 50.7104 14.2895 49.2669 14.2895 47.4993L14.2814 18.0397C14.2814 16.272 15.7248 14.8286 17.4925 14.8286H46.9441C48.7117 14.8286 50.1552 16.272 50.1552 18.0397L50.1633 18.0478Z" fill="#0CC4E9"/>
<path d="M24.0289 17.2581C24.5899 16.6972 25.4994 16.6972 26.0604 17.2581L33.848 25.0458C34.409 25.6068 34.409 26.5163 33.848 27.0773L26.0604 34.8649C25.4994 35.4259 24.5899 35.4259 24.0289 34.8649L16.2413 27.0773C15.6803 26.5163 15.6803 25.6068 16.2413 25.0457L24.0289 17.2581Z" fill="#FBC01A"/>
<path d="M24.0331 30.6688C24.594 30.1078 25.5036 30.1078 26.0646 30.6688L33.8522 38.4564C34.4132 39.0174 34.4132 39.9269 33.8522 40.4879L26.0646 48.2756C25.5036 48.8364 24.594 48.8364 24.0331 48.2756L16.2455 40.4879C15.6845 39.9269 15.6845 39.0174 16.2455 38.4564L24.0331 30.6688Z" fill="#FBC01A"/>
<path d="M31.5621 27.0773C31.0011 26.5163 31.0011 25.6068 31.5621 25.0458L39.3497 17.2581C39.9107 16.6972 40.8203 16.6972 41.3811 17.2581L49.169 25.0457C49.7297 25.6068 49.7297 26.5163 49.169 27.0773L41.3811 34.8649C40.8203 35.4259 39.9107 35.4259 39.3497 34.8649L31.5621 27.0773Z" fill="#FBC01A"/>
<path d="M31.5648 40.4892C31.0038 39.9282 31.0038 39.0186 31.5648 38.4576L39.3524 30.67C39.9134 30.109 40.823 30.109 41.3838 30.67L49.1717 38.4576C49.7325 39.0186 49.7325 39.9282 49.1717 40.4892L41.3838 48.2767C40.823 48.8379 39.9134 48.8379 39.3524 48.2767L31.5648 40.4892Z" fill="#FBC01A"/>
</svg>
