<svg width="60" height="66" viewBox="0 0 60 66" fill="none" xmlns="http://www.w3.org/2000/svg">
<path d="M0.325363 36.1578C0.027034 35.8595 0.229852 35.349 0.65157 35.3368L13.5609 34.9621C13.8156 34.9547 14.0204 34.75 14.0278 34.4952L14.4024 21.5859C14.4147 21.1642 14.9251 20.9614 15.2235 21.2597L44.3258 50.3621C44.5136 50.55 44.5136 50.8546 44.3258 51.0425L30.1079 65.26C29.9201 65.4478 29.6155 65.4478 29.4276 65.26L0.325363 36.1578Z" fill="#FBC01A"/>
<path d="M30.1188 65.2601C29.931 65.448 29.6264 65.448 29.4385 65.2601L15.2207 51.0422C15.0329 50.8543 15.0329 50.5497 15.2207 50.3618L44.5432 21.0396C44.8365 20.7462 45.3387 20.937 45.3633 21.3513L46.1091 33.9198C46.1237 34.163 46.3176 34.357 46.5608 34.3715L59.1295 35.1174C59.5437 35.1419 59.7344 35.6443 59.441 35.9377L30.1188 65.2601Z" fill="#FBC01A"/>
<path d="M6.83545 20.7624C6.83545 20.4968 7.05083 20.2814 7.31652 20.2814H16.5689C16.8346 20.2814 17.0499 20.4968 17.0499 20.7624V51.1995C17.0499 51.465 16.8346 51.6807 16.5689 51.6807H7.31652C7.05083 51.6807 6.83545 51.465 6.83545 51.1995V20.7624Z" fill="#0CC4E9"/>
<path d="M25.0293 20.7624C25.0293 20.4968 25.2447 20.2814 25.5104 20.2814H34.7625C35.0284 20.2814 35.2437 20.4968 35.2437 20.7624V51.1995C35.2437 51.465 35.0284 51.6807 34.7625 51.6807H25.5104C25.2447 51.6807 25.0293 51.465 25.0293 51.1995V20.7624Z" fill="#0CC4E9"/>
<path d="M43.2231 20.7624C43.2231 20.4968 43.4385 20.2814 43.7039 20.2814H52.9564C53.2219 20.2814 53.4376 20.4968 53.4376 20.7624V51.1995C53.4376 51.465 53.2219 51.6807 52.9564 51.6807H43.7039C43.4385 51.6807 43.2231 51.465 43.2231 51.1995V20.7624Z" fill="#0CC4E9"/>
<path d="M29.5973 0.839763L8.40904 15.2795C8.01783 15.5461 8.20651 16.158 8.67994 16.158H51.0567C51.5302 16.158 51.7189 15.5461 51.3278 15.2795L30.1391 0.839759C29.9756 0.728378 29.7607 0.728383 29.5973 0.839763Z" fill="#0CC4E9"/>
</svg>
