<svg width="64" height="63" viewBox="0 0 64 63" fill="none" xmlns="http://www.w3.org/2000/svg">
<path d="M58.7007 32.272L52.3014 39.4334C52.1572 39.5954 52.0715 39.801 52.0594 40.018L51.5188 49.6353L62.4827 45.1628C63.2205 44.8618 63.5724 44.0182 63.2673 43.2825L58.7007 32.272Z" fill="#FBC01A"/>
<path d="M50.1495 51.0181L40.5168 51.5595C40.3002 51.572 40.0942 51.6572 39.9326 51.8019L32.8831 58.101L43.7324 62.603C44.4629 62.9064 45.3012 62.5618 45.6075 61.8325L50.1495 51.0181Z" fill="#FBC01A"/>
<path d="M30.6938 58.1323L23.6092 51.8021C23.4474 51.6575 23.2414 51.5722 23.0248 51.5597L13.5984 51.03L18.0461 61.754C18.3488 62.4836 19.1844 62.8323 19.9161 62.5333L30.6938 58.1323Z" fill="#FBC01A"/>
<path d="M12.012 49.4455L11.4819 40.0177C11.4698 39.8008 11.3844 39.5951 11.2399 39.4331L4.96521 32.4109L0.474651 43.0955C0.166274 43.8292 0.513235 44.6737 1.24835 44.9787L12.012 49.4455Z" fill="#FBC01A"/>
<path d="M58.814 30.3984L63.314 19.6914C63.6227 18.9576 63.2756 18.1131 62.5403 17.808L51.5376 13.2419L52.0596 22.5258C52.0717 22.7423 52.1574 22.9484 52.3016 23.1101L58.814 30.3984Z" fill="#FBC01A"/>
<path d="M50.0921 11.5211L45.742 1.03231C45.4394 0.302301 44.6039 -0.0460373 43.8722 0.252728L33.1118 4.6467L39.9318 10.7407C40.0934 10.8852 40.2995 10.9705 40.516 10.9827L50.0921 11.5211Z" fill="#FBC01A"/>
<path d="M30.5509 4.53854L20.0447 0.181715C19.3143 -0.121163 18.4765 0.223144 18.1701 0.952074L13.7346 11.5055L23.025 10.9831C23.2416 10.971 23.4476 10.8856 23.6094 10.7411L30.5509 4.53854Z" fill="#FBC01A"/>
<path d="M12.0037 13.2437L1.30619 17.6119C0.56867 17.9131 0.217075 18.7569 0.522535 19.4926L4.94775 30.1515L11.2398 23.1098C11.3843 22.9481 11.4697 22.7421 11.4818 22.5255L12.0037 13.2437Z" fill="#FBC01A"/>
<path d="M45.5203 31.3349C45.5203 38.8956 39.3912 45.0249 31.8305 45.0249C24.2698 45.0249 18.1406 38.8956 18.1406 31.3349C18.1406 23.7742 24.2698 17.645 31.8305 17.645C39.3912 17.645 45.5203 23.7742 45.5203 31.3349Z" fill="#24E2AB"/>
</svg>
