<svg width="70" height="69" viewBox="0 0 70 69" fill="none" xmlns="http://www.w3.org/2000/svg">
<g clip-path="url(#clip0_2_693)">
<path fill-rule="evenodd" clip-rule="evenodd" d="M35.6782 8.61059C36.0565 8.23352 36.6684 8.23352 37.0467 8.61059L44.9697 16.5075C45.3479 16.8845 45.9596 16.8845 46.3381 16.5075L47.7647 15.0854C48.1449 14.7065 48.1449 14.0909 47.7647 13.712L37.0467 3.02899C36.6684 2.65196 36.0565 2.65196 35.6782 3.02899L24.9601 13.712C24.58 14.0909 24.58 14.7065 24.9601 15.0854L26.3868 16.5075C26.7651 16.8845 27.377 16.8845 27.7553 16.5075L35.6782 8.61059ZM63.2282 33.522C63.6016 33.8996 63.6016 34.5073 63.2282 34.885L55.3543 42.8538C54.9814 43.2312 54.9814 43.8388 55.3543 44.2166L56.7704 45.6497C57.1497 46.0335 57.7695 46.0335 58.1493 45.6497L68.786 34.885C69.1589 34.5073 69.1589 33.8996 68.786 33.522L58.1493 22.7573C57.7695 22.3734 57.1497 22.3734 56.7704 22.7573L55.3543 24.1902C54.9814 24.5679 54.9814 25.1756 55.3543 25.5532L63.2282 33.522ZM10.2597 33.522C9.88652 33.8997 9.88652 34.5073 10.2597 34.885L18.1337 42.8538C18.5069 43.2312 18.5069 43.8388 18.1337 44.2166L16.7179 45.6497C16.3384 46.0335 15.7184 46.0335 15.339 45.6497L4.70224 34.885C4.32907 34.5073 4.32907 33.8997 4.70224 33.522L15.339 22.7574C15.7184 22.3734 16.3384 22.3734 16.7179 22.7574L18.1337 24.1903C18.5069 24.568 18.5069 25.1756 18.1337 25.5533L10.2597 33.522ZM35.6776 56.5202C36.0554 56.8996 36.6679 56.8996 37.0456 56.5202L43.5548 49.9828C43.9326 49.6034 43.9326 48.9885 43.5548 48.6087L39.0086 44.0429C37.4944 45.3697 35.2286 45.3697 33.7144 44.0433L29.1684 48.6087C28.7907 48.9885 28.7907 49.6034 29.1684 49.9828L35.6776 56.5202ZM26.8527 31.2411L26.7542 31.3401C25.1798 32.9213 25.1798 35.485 26.7542 37.0662L26.8531 37.1655L22.6091 41.428C22.2313 41.8074 21.6188 41.8074 21.2411 41.428L14.7319 34.8905C14.3541 34.511 14.3541 33.8959 14.7319 33.5165L21.2411 26.979C21.6188 26.5996 22.2313 26.5996 22.6091 26.979L26.8527 31.2411ZM33.1647 24.9018L29.1684 20.8881C28.7907 20.5087 28.7907 19.8936 29.1684 19.5141L35.6776 12.9767C36.0554 12.5973 36.6679 12.5973 37.0456 12.9767L43.5548 19.5141C43.9326 19.8936 43.9326 20.5087 43.5548 20.8881L39.5582 24.902L39.212 24.5543C37.6376 22.9731 35.085 22.9731 33.5107 24.5543L33.1647 24.9018ZM45.8711 31.2423L50.1157 26.979C50.4935 26.5996 51.106 26.5996 51.4838 26.979L57.9929 33.5165C58.3707 33.8959 58.3707 34.511 57.9929 34.8905L51.4838 41.428C51.106 41.8074 50.4935 41.8074 50.1157 41.428L45.8707 37.1644L45.9685 37.0662C47.5429 35.485 47.5429 32.9213 45.9685 31.3401L45.8711 31.2423ZM35.6784 61.5253C36.0567 61.9022 36.6687 61.9022 37.047 61.5253L44.9697 53.6283C45.3483 53.2513 45.96 53.2513 46.3381 53.6283L47.7651 55.0504C48.1453 55.4294 48.1453 56.0451 47.7651 56.4237L37.047 67.1068C36.6687 67.4838 36.0567 67.4838 35.6784 67.1068L24.9604 56.4237C24.5802 56.0451 24.5802 55.4294 24.9604 55.0504L26.3871 53.6283C26.7654 53.2513 27.3773 53.2513 27.7556 53.6283L35.6784 61.5253Z" fill="#0CC4E9"/>
<path d="M61.5462 46.3367C61.8738 46.666 61.5971 47.2252 61.1381 47.1613L47.9981 45.338C47.6806 45.2939 47.4091 45.5666 47.4531 45.8858L49.2684 59.0824C49.3318 59.5438 48.775 59.8217 48.447 59.4924L35.7728 46.763C35.5839 46.5731 35.5839 46.2656 35.7728 46.0761L48.1876 33.6071C48.3767 33.4174 48.6829 33.4174 48.8716 33.6071L61.5462 46.3367Z" fill="#E61777"/>
<path d="M48.446 8.91463C48.7741 8.58531 49.3308 8.86328 49.2674 9.32459L47.4521 22.5212C47.4081 22.8402 47.6796 23.113 47.9971 23.0689L61.1367 21.2458C61.5961 21.182 61.8728 21.7411 61.5452 22.0704L48.8706 34.7999C48.682 34.9896 48.3757 34.9896 48.1866 34.7999L35.7718 22.331C35.5829 22.1413 35.5829 21.8338 35.7718 21.644L48.446 8.91463Z" fill="#E61777"/>
<path d="M24.2849 59.4924C23.957 59.8216 23.4003 59.5437 23.4638 59.0823L25.2791 45.8858C25.3229 45.567 25.0513 45.2939 24.7338 45.3379L11.5942 47.1612C11.1349 47.2251 10.8581 46.6659 11.186 46.3366L23.8604 33.6071C24.0493 33.4174 24.3555 33.4174 24.5444 33.6071L36.9593 46.076C37.1482 46.2655 37.1482 46.5734 36.9593 46.7629L24.2849 59.4924Z" fill="#E61777"/>
<path d="M11.186 22.0704C10.8581 21.7411 11.1349 21.182 11.5942 21.2458L24.7338 23.0689C25.0513 23.113 25.3229 22.8402 25.2791 22.5212L23.4638 9.32457C23.4003 8.86326 23.957 8.58534 24.2849 8.91461L36.9593 21.6441C37.1482 21.8338 37.1482 22.1413 36.9593 22.331L24.5444 34.7999C24.3555 34.9896 24.0493 34.9896 23.8604 34.7999L11.186 22.0704Z" fill="#E61777"/>
</g>
<defs>
<clipPath id="clip0_2_693">
<rect width="68.6836" height="68.6836" fill="white" transform="translate(0.389893)"/>
</clipPath>
</defs>
</svg>
