<svg width="65" height="55" viewBox="0 0 65 55" fill="none" xmlns="http://www.w3.org/2000/svg">
<path d="M16.105 38.4058L32.1816 22.3291L48.2582 38.4058L32.1816 54.4822L16.105 38.4058Z" fill="#24E2AB"/>
<path d="M21.0476 11.1947L32.1818 0.0605469L43.3159 11.1947L32.1817 22.3289L21.0476 11.1947Z" fill="#24E2AB"/>
<path d="M50.476 8.4105C50.7761 8.11007 51.2864 8.36391 51.2278 8.78474L49.2279 23.1739C49.1875 23.4651 49.4368 23.7142 49.7277 23.6737L64.1169 21.6739C64.5379 21.6154 64.7916 22.1254 64.4914 22.4259L50.6966 36.2209C50.5232 36.3938 50.2428 36.3938 50.0699 36.2209L36.681 22.8319C36.508 22.6589 36.508 22.3784 36.681 22.2054L50.476 8.4105Z" fill="#FBC01A"/>
<path d="M0.233014 22.4259C-0.0674196 22.1254 0.186413 21.6154 0.607245 21.6739L14.9965 23.6737C15.2876 23.7142 15.5367 23.4651 15.4962 23.1739L13.4964 8.78474C13.4379 8.36391 13.948 8.11007 14.2484 8.4105L28.0433 22.2054C28.2163 22.3784 28.2163 22.6589 28.0433 22.8319L14.6544 36.2209C14.4814 36.3938 14.2009 36.3938 14.0279 36.2209L0.233014 22.4259Z" fill="#FBC01A"/>
</svg>
