<svg width="45" height="66" viewBox="0 0 45 66" fill="none" xmlns="http://www.w3.org/2000/svg">
<path fill-rule="evenodd" clip-rule="evenodd" d="M20.8159 19.0788C20.626 18.9076 20.3353 18.915 20.1545 19.0958L11.4918 27.7586C11.1891 28.0612 10.6718 27.8469 10.6718 27.419V18.2078C10.6718 17.9426 10.4567 17.7275 10.1915 17.7275H0.980301C0.552402 17.7275 0.338069 17.2101 0.640681 16.9075L14.4934 3.0548C17.5825 -0.0342306 22.546 -0.106392 25.7226 2.83836L41.6222 17.1805C44.8572 20.0984 45.2043 25.0525 42.4081 28.3931L29.8083 43.4451C29.736 43.5315 29.6963 43.6406 29.6963 43.7533V51.6645C29.6963 52.0875 29.1892 52.304 28.8838 52.0115L22.3556 45.7597C22.1699 45.5819 21.877 45.5819 21.6912 45.7597L15.1631 52.0115C14.8577 52.304 14.3506 52.0875 14.3506 51.6645V40.945C14.3506 39.1992 14.9146 37.5003 15.9587 36.1012L16.0869 35.9294L25.8612 24.2528C26.027 24.0547 26.0064 23.7609 25.8146 23.5878L20.8159 19.0788Z" fill="#0CC4E9"/>
<path d="M14.3465 57.8127C14.1589 57.6252 14.1589 57.321 14.3465 57.1335L21.7202 49.7597C21.9077 49.5723 22.2118 49.5723 22.3994 49.7597L29.7731 57.1335C29.9607 57.321 29.9607 57.6252 29.7731 57.8127L22.3994 65.1865C22.2118 65.3739 21.9077 65.3739 21.7202 65.1865L14.3465 57.8127Z" fill="#FBC01A"/>
</svg>
