<svg width="66" height="70" viewBox="0 0 66 70" fill="none" xmlns="http://www.w3.org/2000/svg">
<g clip-path="url(#clip0_2_842)">
<path fill-rule="evenodd" clip-rule="evenodd" d="M47.7678 66.6028C47.7678 67.8371 46.1671 68.3219 45.4822 67.2949L34.1979 50.3729C33.7026 49.6303 32.6101 49.6327 32.1184 50.3782L20.9858 67.2529C20.3043 68.286 18.6967 67.8036 18.6967 66.5657V51.3143C18.6967 50.6254 18.1381 50.0667 17.449 50.0667H2.1606C0.926233 50.0667 0.441431 48.4659 1.4684 47.7811L18.3905 36.4967C19.1333 36.0014 19.1306 34.9089 18.3854 34.4173L1.51057 23.2846C0.477554 22.6031 0.960071 20.9955 2.19763 20.9955H17.449C18.1381 20.9955 18.6967 20.4369 18.6967 19.7478V4.49645C18.6967 3.25889 20.3043 2.77638 20.9858 3.80939L32.1184 20.6842C32.6101 21.4294 33.7026 21.4321 34.1979 20.6893L45.4822 3.76723C46.1671 2.74026 47.7678 3.22506 47.7678 4.45943V19.7478C47.7678 20.4369 48.3266 20.9955 49.0158 20.9955H64.2672C65.5047 20.9955 65.9871 22.6031 64.954 23.2846L48.0793 34.4173C47.3339 34.9089 47.3314 36.0014 48.074 36.4968L64.9961 47.7811C66.0231 48.4659 65.5383 50.0667 64.304 50.0667H49.0158C48.3266 50.0667 47.7678 50.6254 47.7678 51.3143V66.6028ZM33.3613 43.3947C37.7753 43.3947 41.3536 39.8166 41.3536 35.4026C41.3536 30.9887 37.7753 27.4104 33.3613 27.4104C28.9474 27.4104 25.3691 30.9887 25.3691 35.4026C25.3691 39.8166 28.9474 43.3947 33.3613 43.3947Z" fill="#0CC4E9"/>
<path d="M33.3198 44.086C37.9964 44.086 41.7874 40.2949 41.7874 35.6184C41.7874 30.9419 37.9964 27.1509 33.3198 27.1509C28.6433 27.1509 24.8523 30.9419 24.8523 35.6184C24.8523 40.2949 28.6433 44.086 33.3198 44.086Z" fill="#FBC01A"/>
</g>
<defs>
<clipPath id="clip0_2_842">
<rect width="64.6434" height="68.6836" fill="white" transform="translate(0.910645 0.463379)"/>
</clipPath>
</defs>
</svg>
