<svg width="65" height="66" viewBox="0 0 65 66" fill="none" xmlns="http://www.w3.org/2000/svg">
<path fill-rule="evenodd" clip-rule="evenodd" d="M33.1196 7.70651C32.7507 7.3921 32.2081 7.3921 31.8392 7.70651L24.9146 13.6076C24.7565 13.7423 24.56 13.8237 24.3529 13.8402L15.2838 14.564C14.8006 14.6025 14.417 14.9862 14.3784 15.4694L13.6547 24.5385C13.6382 24.7455 13.5567 24.942 13.422 25.1001L7.52093 32.0247C7.20656 32.3936 7.20656 32.9362 7.52093 33.3052L13.422 40.2297C13.5567 40.3878 13.6382 40.5844 13.6547 40.7914L14.3784 49.8607C14.417 50.3435 14.8006 50.7273 15.2838 50.7661L24.3529 51.4897C24.56 51.5063 24.7565 51.5875 24.9146 51.7224L31.8392 57.6235C32.2081 57.9379 32.7507 57.9379 33.1196 57.6235L40.0442 51.7224C40.2023 51.5875 40.3988 51.5063 40.6059 51.4897L49.6748 50.7661C50.158 50.7273 50.5418 50.3435 50.5802 49.8607L51.3042 40.7914C51.3208 40.5844 51.402 40.3878 51.5369 40.2297L57.4376 33.3052C57.7524 32.9362 57.7524 32.3936 57.4376 32.0247L51.5369 25.1001C51.402 24.942 51.3208 24.7455 51.3042 24.5384L50.5802 15.4694C50.5418 14.9862 50.158 14.6025 49.6748 14.564L40.6059 13.8402C40.3988 13.8237 40.2023 13.7423 40.0442 13.6076L33.1196 7.70651ZM16.9475 31.967C16.562 32.3524 16.562 32.9774 16.9475 33.3629L31.5363 47.9517C31.9218 48.3371 32.5468 48.3371 32.9322 47.9517L47.521 33.3629C47.9064 32.9774 47.9064 32.3524 47.521 31.967L32.9322 17.3782C32.5468 16.9927 31.9218 16.9927 31.5363 17.3782L16.9475 31.967Z" fill="#FBC01A"/>
<path d="M40.6095 12.3513L34.8187 7.11207C34.5693 6.88642 34.6137 6.48289 34.9062 6.31692L45.106 0.527903C45.3738 0.37584 45.714 0.50369 45.8154 0.794564L49.951 12.6497C50.0698 12.9897 49.7958 13.3382 49.4375 13.3035L40.8928 12.4766C40.7874 12.4664 40.6881 12.4224 40.6095 12.3513Z" fill="#FF5C00"/>
<path d="M23.4932 12.5315L15.6938 12.9215C15.3579 12.9383 15.1039 12.6216 15.1934 12.2974L18.3122 0.991681C18.3941 0.69471 18.7251 0.544546 19.0025 0.678476L30.3096 6.13706C30.6339 6.29362 30.6867 6.73356 30.4088 6.96248L23.7823 12.4196C23.7004 12.487 23.599 12.5263 23.4932 12.5315Z" fill="#FF5C00"/>
<path d="M12.1975 24.5012L6.95826 30.2919C6.73261 30.5413 6.32908 30.4969 6.16311 30.2044L0.374094 20.0048C0.222032 19.7369 0.349882 19.3966 0.640756 19.2952L12.4959 15.1597C12.8359 15.041 13.1843 15.3148 13.1497 15.6732L12.3228 24.2176C12.3126 24.3231 12.2686 24.4226 12.1975 24.5012Z" fill="#FF5C00"/>
<path d="M12.3777 41.366L12.7677 49.1652C12.7845 49.5014 12.4677 49.7551 12.1436 49.6658L0.837872 46.5468C0.540902 46.4652 0.390737 46.1339 0.524668 45.8567L5.98325 34.5495C6.13981 34.2252 6.57975 34.1724 6.80867 34.4504L12.2658 41.0767C12.3332 41.1588 12.3724 41.2602 12.3777 41.366Z" fill="#FF5C00"/>
<path d="M52.9386 23.6472L52.5487 15.8478C52.5318 15.512 52.8485 15.258 53.1726 15.3474L64.4783 18.4662C64.7752 18.5482 64.9255 18.8792 64.7918 19.1566L59.3331 30.4636C59.1763 30.788 58.7367 30.8408 58.5077 30.5628L53.0505 23.9363C52.9831 23.8545 52.9439 23.7531 52.9386 23.6472Z" fill="#FF5C00"/>
<path d="M53.0648 40.7633L58.3041 34.9725C58.5296 34.7231 58.9332 34.7675 59.0992 35.06L64.8881 45.2598C65.0404 45.5276 64.9123 45.8678 64.6214 45.9692L52.7662 50.1048C52.4264 50.2236 52.0778 49.9496 52.1125 49.5913L52.9395 41.0466C52.9496 40.9412 52.9937 40.8419 53.0648 40.7633Z" fill="#FF5C00"/>
<path d="M41.212 53.0915L49.0117 52.7016C49.3474 52.6846 49.6015 53.0014 49.5118 53.3258L46.3932 64.6315C46.3112 64.9285 45.9803 65.0788 45.7027 64.9446L34.3957 59.4859C34.0714 59.3295 34.0186 58.8896 34.2966 58.6605L40.9232 53.2034C41.0048 53.1363 41.1062 53.0967 41.212 53.0915Z" fill="#FF5C00"/>
<path d="M24.3474 53.2188L30.1381 58.4582C30.3875 58.6836 30.3431 59.0872 30.0506 59.2533L19.8509 65.0421C19.583 65.1944 19.2428 65.0663 19.1414 64.7755L15.0058 52.9203C14.8873 52.5805 15.1609 52.2318 15.5194 52.2666L24.0638 53.0936C24.1693 53.1037 24.2687 53.1477 24.3474 53.2188Z" fill="#FF5C00"/>
<path d="M25.0503 32.9804C24.8576 32.7877 24.8576 32.4752 25.0503 32.2825L32.1324 25.2004C32.3251 25.0077 32.6376 25.0077 32.8303 25.2004L39.9124 32.2825C40.1051 32.4752 40.1051 32.7877 39.9124 32.9804L32.8303 40.0625C32.6376 40.2552 32.3251 40.2552 32.1324 40.0625L25.0503 32.9804Z" fill="#FF5C00"/>
</svg>
