<svg width="64" height="65" viewBox="0 0 64 65" fill="none" xmlns="http://www.w3.org/2000/svg">
<path d="M6.71362 15.7433C6.71362 15.4392 6.96016 15.1926 7.2643 15.1926H58.6155C58.9197 15.1926 59.1662 15.4392 59.1662 15.7433V64.3117C59.1662 64.6159 58.9197 64.8624 58.6155 64.8624H7.2643C6.96016 64.8624 6.71362 64.6159 6.71362 64.3117V15.7433Z" fill="#FBC01A"/>
<path d="M62.8527 41.3376C63.1945 41.6794 62.9622 42.2636 62.4794 42.2777L49.0651 42.6668C48.7734 42.6753 48.539 42.91 48.5305 43.2013L48.1411 56.616C48.1273 57.0989 47.5427 57.3308 47.2013 56.9894L16.7336 26.5216C16.5185 26.3065 16.5185 25.9578 16.7336 25.7428L31.6063 10.87C31.8214 10.655 32.1701 10.655 32.3851 10.87L62.8527 41.3376Z" fill="#E61777"/>
<path d="M31.5964 10.87C31.8115 10.655 32.1602 10.655 32.3752 10.87L47.2482 25.7428C47.4631 25.9578 47.4631 26.3065 47.2482 26.5216L16.5461 57.2234C16.2102 57.5592 15.6352 57.341 15.607 56.8667L14.8318 43.8035C14.8152 43.5251 14.5931 43.3029 14.3147 43.2863L1.25138 42.511C0.777173 42.4827 0.558686 41.9078 0.894593 41.5717L31.5964 10.87Z" fill="#E61777"/>
<path d="M11.639 24.1C11.5671 17.4718 11.4788 5.78073 11.6001 3.1234C11.6136 2.82826 11.8726 2.65619 12.1584 2.73073L32.5254 8.04163C32.7679 8.10486 32.9371 8.32388 32.9371 8.57453V18.8269C32.9371 19.0775 32.7679 19.2965 32.5254 19.3598L12.3285 24.6264C11.982 24.7167 11.6429 24.4581 11.639 24.1Z" fill="#E61777"/>
<path d="M54.2341 3.30103C54.306 9.92924 54.3945 21.6204 54.2729 24.2777C54.2596 24.5728 54.0006 24.7449 53.7146 24.6703L33.3478 19.3595C33.1052 19.2962 32.9365 19.0772 32.9365 18.8265V8.57419C32.9365 8.32354 33.1052 8.10456 33.3478 8.04129L53.5449 2.77471C53.8911 2.68437 54.2305 2.94303 54.2341 3.30103Z" fill="#E61777"/>
<path d="M32.349 0.608805C32.5641 0.393745 32.9128 0.393745 33.1279 0.608805L42.6455 10.1265C42.8605 10.3416 42.8605 10.6903 42.6455 10.9054L33.1971 20.3538C32.982 20.5689 32.6333 20.5689 32.4182 20.3538L22.9006 10.8361C22.6855 10.6211 22.6855 10.2723 22.9006 10.0573L32.349 0.608805Z" fill="#FBC01A"/>
</svg>
