<svg width="66" height="42" viewBox="0 0 66 42" fill="none" xmlns="http://www.w3.org/2000/svg">
<path d="M1.96904 15.249C1.4112 15.249 0.958985 14.7967 0.958985 14.2389L0.958984 3.72709C0.958984 3.16926 1.4112 2.71704 1.96904 2.71704H12.5859C13.1438 2.71704 13.596 3.16926 13.596 3.72709V14.2389C13.596 14.7967 13.1438 15.249 12.5859 15.249H1.96904Z" fill="#FBC01A"/>
<path d="M53.9747 15.249C53.4171 15.249 52.9646 14.7967 52.9646 14.2389V3.72709C52.9646 3.16926 53.4171 2.71704 53.9747 2.71704H64.5915C65.1495 2.71704 65.6016 3.16926 65.6016 3.72709V14.2389C65.6016 14.7967 65.1495 15.249 64.5915 15.249H53.9747Z" fill="#FBC01A"/>
<path d="M32.9646 20.3699L46.4623 7.77404C46.6388 7.60896 46.861 7.50008 47.1006 7.46145C47.3406 7.42279 47.5867 7.45616 47.8073 7.5572C48.0279 7.65825 48.2133 7.82236 48.3394 8.02849C48.4658 8.23463 48.5268 8.47332 48.5151 8.71396L47.9729 20.2033C47.9668 20.325 47.9858 20.4466 48.0287 20.5609C48.0711 20.6752 48.1365 20.7798 48.2206 20.8686C48.305 20.9574 48.4064 21.0284 48.5187 21.0775C48.6315 21.1267 48.7527 21.1528 48.8755 21.1543L60.4903 21.2943C60.7339 21.2965 60.9711 21.371 61.1715 21.5081C61.3719 21.6452 61.5266 21.8386 61.6155 22.0635C61.7044 22.2883 61.7234 22.5342 61.67 22.7695C61.6167 23.0048 61.4935 23.2187 61.3161 23.3837L47.8032 35.9941C47.6279 36.1561 47.3956 36.243 47.156 36.2365L33.0565 35.904C32.8177 35.8907 32.5935 35.7852 32.4319 35.6099C32.2703 35.4349 32.1844 35.2038 32.1924 34.9671L32.6789 20.9976C32.6869 20.7591 32.7896 20.5335 32.9646 20.3699Z" fill="#24E2AB"/>
<path d="M17.9212 35.6357L5.21969 22.2505C5.05319 22.0754 4.94341 21.8549 4.90444 21.6172C4.86548 21.3795 4.8991 21.1355 5.00099 20.9166C5.10289 20.6978 5.26841 20.5139 5.47624 20.3888C5.68411 20.2637 5.92483 20.203 6.16744 20.2145L17.7532 20.7524C17.8758 20.7582 17.9985 20.7394 18.1137 20.6972C18.229 20.655 18.3345 20.5901 18.4241 20.5066C18.5136 20.423 18.5852 20.3225 18.6347 20.211C18.6843 20.0994 18.7106 19.9792 18.7122 19.8574L18.8533 8.3389C18.8556 8.09761 18.9307 7.86243 19.0689 7.66358C19.2071 7.46476 19.4022 7.31139 19.6289 7.22331C19.8556 7.1352 20.1036 7.11637 20.3409 7.1693C20.5781 7.22218 20.7939 7.34436 20.9602 7.52007L33.6763 20.9208C33.8396 21.0944 33.9275 21.3248 33.921 21.5624L33.5854 35.5448C33.5721 35.7815 33.4658 36.0037 33.2891 36.1641C33.1124 36.3241 32.8796 36.4094 32.6406 36.4017L18.5542 35.9193C18.3136 35.9112 18.0861 35.8094 17.9212 35.6357Z" fill="#24E2AB"/>
<path d="M47.9022 35.897C39.2019 44.0162 25.5004 43.6074 17.3091 34.9751L33.0705 20.2666L47.9022 35.897Z" fill="#24E2AB"/>
<path d="M38.0819 10.6237C35.9434 13.1443 32.1493 13.4685 29.6076 11.3478C27.0659 9.22714 26.7389 5.46465 28.8774 2.94405C31.0159 0.423441 34.8099 0.0992132 37.3516 2.21992C39.8934 4.34059 40.2203 8.10307 38.0819 10.6237Z" fill="#24E2AB"/>
</svg>
