<svg width="65" height="51" viewBox="0 0 65 51" fill="none" xmlns="http://www.w3.org/2000/svg">
<path d="M51.2721 38.7632C40.8754 49.2483 24.0195 49.2483 13.623 38.7632C13.612 38.7523 13.612 38.7341 13.623 38.7228L45.6546 6.41866C46.0339 6.03613 46.6836 6.2577 46.7547 6.79391L48.7409 21.7503C48.7797 22.0423 49.0075 22.272 49.2968 22.3111L64.5256 24.3679C64.8941 24.4177 65.0464 24.8718 64.7833 25.137L51.2721 38.7632Z" fill="#24E2AB"/>
<path d="M50.9009 38.2812C51.1539 38.5361 51.1539 38.9498 50.9009 39.2052L45.3396 44.8134C38.2565 51.9569 26.7722 51.9569 19.689 44.8134L0.462694 25.4235C0.0833913 25.041 0.303086 24.3859 0.834761 24.3141L15.665 22.3111C15.9545 22.272 16.1823 22.0423 16.221 21.7503L18.2071 6.7939C18.2783 6.25768 18.9279 6.03612 19.3072 6.41869L50.9009 38.2812Z" fill="#24E2AB"/>
<path d="M38.1491 5.8475C38.1491 8.93943 35.6638 11.446 32.5979 11.446C29.532 11.446 27.0466 8.93943 27.0466 5.8475C27.0466 2.75553 29.532 0.249023 32.5979 0.249023C35.6638 0.249023 38.1491 2.75553 38.1491 5.8475Z" fill="#FF5C00"/>
<path d="M35.7643 16.3956C38.9428 13.1901 44.096 13.1901 47.2744 16.3956C50.4605 19.6087 50.452 24.8209 47.2554 28.0232L32.5971 42.7073C32.5299 42.7744 32.4213 42.7736 32.3551 42.7053L26.8411 37.0223L21.1903 31.3374C21.1235 31.2703 21.1234 31.1612 21.1901 31.0937L35.7643 16.3956Z" fill="#FF5C00"/>
<path d="M17.9135 28.0332C14.7297 24.8223 14.7297 19.6164 17.9135 16.4055C21.0973 13.1946 26.2593 13.1946 29.4431 16.4055L38.459 25.4981C38.7716 25.8134 38.7907 26.3184 38.5026 26.6568L33.877 32.0906C33.754 32.2348 33.6825 32.4166 33.6738 32.6069L33.2685 41.4998C33.2348 42.24 32.3453 42.5878 31.8256 42.0638L17.9135 28.0332Z" fill="#FF5C00"/>
</svg>
