<svg width="70" height="69" viewBox="0 0 70 69" fill="none" xmlns="http://www.w3.org/2000/svg">
<path fill-rule="evenodd" clip-rule="evenodd" d="M4.81603 21.1244L18.6202 34.9286C18.6483 34.9567 18.6781 34.9829 18.7091 35.007C18.6789 35.0303 18.6499 35.0554 18.6224 35.0823L4.81594 48.8888C4.63567 49.0694 4.51353 49.3001 4.46513 49.5506C4.41675 49.8015 4.44435 50.0609 4.5444 50.296C4.64444 50.5307 4.81239 50.7303 5.02668 50.8693C5.24097 51.0079 5.49183 51.0798 5.74713 51.075L17.9472 50.8645C18.0764 50.862 18.2048 50.8855 18.3246 50.9339C18.4444 50.9824 18.5533 51.0543 18.6446 51.1457C18.736 51.237 18.808 51.3461 18.8563 51.4656C18.9046 51.5856 18.9284 51.7137 18.926 51.843L18.6903 64.0634C18.6847 64.32 18.756 64.5717 18.8951 64.787C19.0341 65.0024 19.2345 65.1708 19.4704 65.2714C19.7062 65.3716 19.9667 65.3987 20.2182 65.3494C20.4697 65.3001 20.7006 65.1765 20.8812 64.9947L34.7012 51.1747C34.7308 51.1448 34.7583 51.1133 34.7835 51.0802C34.8069 51.1109 34.8323 51.14 34.8595 51.1679L48.6661 64.9745C48.8467 65.1547 49.0774 65.2767 49.3279 65.3252C49.5788 65.3737 49.8382 65.3458 50.0729 65.246C50.3081 65.1458 50.5076 64.9777 50.6466 64.7636C50.7852 64.5495 50.8571 64.2986 50.8523 64.0432L50.6414 51.843C50.639 51.7137 50.6628 51.5856 50.7113 51.4656C50.7593 51.3461 50.8317 51.237 50.923 51.1457C51.0143 51.0543 51.123 50.9824 51.243 50.9339C51.3626 50.8855 51.491 50.862 51.6203 50.8645L63.8407 51.1C64.0969 51.1057 64.349 51.0341 64.5643 50.8952C64.7797 50.7562 64.9482 50.5558 65.0484 50.3198C65.1486 50.0843 65.176 49.8237 65.1267 49.572C65.0774 49.3207 64.9538 49.0896 64.772 48.909L50.9521 35.0891C50.9214 35.059 50.8894 35.031 50.8555 35.0055C50.8894 34.9798 50.9214 34.9519 50.9521 34.9217L64.772 21.1017C64.953 20.9209 65.0762 20.69 65.1247 20.4386C65.1736 20.1873 65.1461 19.9272 65.0455 19.6917C64.9453 19.4562 64.7765 19.2562 64.5615 19.1175C64.3462 18.9787 64.0945 18.9076 63.8387 18.9132L51.6179 19.1488C51.489 19.1512 51.3605 19.1275 51.2405 19.0792C51.121 19.0308 51.0119 18.9588 50.9206 18.8674C50.8292 18.7761 50.7573 18.6673 50.7088 18.5474C50.6608 18.4276 50.6369 18.2993 50.6394 18.1701L50.8523 5.96767C50.8571 5.71212 50.7852 5.46098 50.6462 5.24657C50.5068 5.03215 50.3069 4.8642 50.0717 4.76433C49.8362 4.6645 49.5764 4.63726 49.3255 4.68615C49.0746 4.73508 48.8443 4.85786 48.6637 5.03878L34.8596 18.843C34.8316 18.8709 34.8057 18.9004 34.7816 18.9312C34.7563 18.898 34.7287 18.8662 34.699 18.8362L20.879 5.01616C20.6981 4.83491 20.4672 4.71201 20.2159 4.66324C19.9645 4.61448 19.7044 4.64207 19.4689 4.74251C19.2334 4.84295 19.0334 5.01159 18.8947 5.22673C18.7559 5.44187 18.6848 5.69362 18.6904 5.94957L18.926 18.1701C18.9284 18.2993 18.9047 18.4276 18.8564 18.5475C18.808 18.6673 18.736 18.7761 18.6447 18.8674C18.5533 18.9588 18.4445 19.0308 18.3246 19.0792C18.2048 19.1275 18.0765 19.1512 17.9473 19.1489L5.74491 18.9359C5.48933 18.9312 5.23823 19.003 5.02377 19.1421C4.80936 19.2812 4.64141 19.4813 4.54157 19.7165C4.4417 19.9518 4.41447 20.2116 4.46338 20.4625C4.51228 20.7133 4.6351 20.9439 4.81603 21.1244ZM34.1316 49.3958C34.3491 49.6132 34.7019 49.6132 34.9194 49.3958L49.1728 35.1424C49.3905 34.9249 49.3905 34.5721 49.1728 34.3546L34.9194 20.1012C34.7019 19.8836 34.3491 19.8836 34.1316 20.1012L19.8781 34.3546C19.6606 34.5721 19.6606 34.9249 19.8781 35.1424L34.1316 49.3958Z" fill="#FBC01A"/>
<path fill-rule="evenodd" clip-rule="evenodd" d="M46.1769 66.019V46.4971C46.1769 46.4571 46.1745 46.4175 46.1696 46.3787C46.2076 46.3836 46.2456 46.3864 46.284 46.3868H65.8095C66.0648 46.3864 66.3141 46.3096 66.5254 46.1666C66.7371 46.0236 66.9012 45.8208 66.9965 45.584C67.0919 45.3469 67.1141 45.0871 67.0607 44.8374C67.0074 44.5877 66.8805 44.3594 66.6967 44.1825L57.921 35.7046C57.8281 35.6149 57.7541 35.5074 57.7036 35.3885C57.6531 35.2696 57.6269 35.1417 57.6269 35.0125C57.6269 34.8833 57.6531 34.7555 57.7036 34.6366C57.7541 34.5176 57.8281 34.4101 57.921 34.3204L66.729 25.8459C66.9141 25.6687 67.0418 25.4401 67.0959 25.1895C67.1496 24.939 67.1274 24.678 67.0312 24.4404C66.9355 24.2027 66.7707 23.9992 66.5577 23.8563C66.3452 23.7133 66.0943 23.6374 65.8382 23.6383H46.2937C46.2516 23.6385 46.21 23.6414 46.1688 23.647C46.1737 23.6088 46.1765 23.5701 46.1769 23.5311V4.0059C46.1765 3.75057 46.1001 3.50118 45.9571 3.28969C45.8141 3.07821 45.6109 2.91428 45.3741 2.81892C45.1373 2.72356 44.8772 2.70112 44.6275 2.75447C44.3778 2.80783 44.1499 2.93455 43.9726 3.11838L35.4949 11.8942C35.4052 11.9872 35.2977 12.0612 35.1788 12.1117C35.0599 12.1623 34.932 12.1883 34.8028 12.1883C34.6736 12.1883 34.5457 12.1623 34.4268 12.1117C34.3079 12.0612 34.2004 11.9872 34.1107 11.8942L25.6361 3.08635C25.4589 2.90118 25.2303 2.77339 24.9798 2.71948C24.7292 2.66556 24.4682 2.688 24.2306 2.7839C23.993 2.87979 23.7895 3.04473 23.6465 3.25742C23.5035 3.47011 23.4276 3.72079 23.4285 3.97706V23.5215C23.4287 23.5644 23.4318 23.6069 23.4375 23.6488C23.3956 23.6431 23.353 23.64 23.3102 23.6398H3.76572C3.50972 23.6395 3.25949 23.7159 3.0473 23.8591C2.8351 24.0024 2.67066 24.2059 2.57517 24.4434C2.47968 24.6809 2.4575 24.9416 2.51151 25.1918C2.56553 25.4421 2.69325 25.6704 2.87821 25.8474L11.686 34.322C11.7791 34.4117 11.853 34.5192 11.9036 34.6381C11.9541 34.757 11.9802 34.8849 11.9802 35.0141C11.9802 35.1433 11.9541 35.2711 11.9036 35.39C11.853 35.509 11.7791 35.6165 11.686 35.7062L2.90704 44.1841C2.72301 44.3615 2.59622 44.5897 2.54297 44.8398C2.48971 45.0895 2.51242 45.3497 2.60818 45.5869C2.70394 45.824 2.86837 46.0268 3.08035 46.1694C3.29232 46.3125 3.54216 46.3884 3.79776 46.3884H23.3198C23.3593 46.3884 23.3985 46.386 23.4373 46.3812C23.4317 46.4224 23.4287 46.4644 23.4285 46.5068V66.0509C23.4282 66.3071 23.5047 66.5572 23.6479 66.7697C23.7911 66.9818 23.9946 67.1462 24.2321 67.2416C24.4696 67.3373 24.7303 67.3591 24.9805 67.3054C25.2308 67.2513 25.4591 67.1236 25.6361 66.9386L34.1107 58.1309C34.2004 58.0376 34.3079 57.9636 34.4268 57.9131C34.5457 57.8626 34.6736 57.8368 34.8028 57.8368C34.932 57.8368 35.0599 57.8626 35.1788 57.9131C35.2977 57.9636 35.4052 58.0376 35.4949 58.1309L43.9726 66.9099C44.1499 67.0937 44.3786 67.2206 44.6283 67.2739C44.8784 67.3272 45.1386 67.3046 45.3757 67.2084C45.6125 67.1127 45.8157 66.9482 45.9583 66.7365C46.1009 66.5244 46.1773 66.2747 46.1769 66.019ZM45.4387 25.2989C45.4387 24.9912 45.1895 24.7418 44.8816 24.7418H24.7242C24.4166 24.7418 24.1672 24.9912 24.1672 25.2989V45.4564C24.1672 45.7638 24.4166 46.0135 24.7242 46.0135H44.8816C45.1895 46.0135 45.4387 45.7638 45.4387 45.4564V25.2989Z" fill="#0CC4E9"/>
<path d="M45.7664 23.6771H23.449V47.1042H45.7664V23.6771Z" fill="#0CC4E9"/>
<path fill-rule="evenodd" clip-rule="evenodd" d="M52.1172 43.0286L44.139 35.0506C44.1229 35.0344 44.1055 35.0193 44.0877 35.0053C44.1051 34.9919 44.1217 34.9773 44.1378 34.9618L52.1172 26.9823C52.2215 26.8778 52.2918 26.7446 52.3201 26.5997C52.3479 26.4548 52.3318 26.3049 52.274 26.1691C52.2162 26.0333 52.1193 25.9179 51.9952 25.8377C51.8716 25.7575 51.7266 25.716 51.5791 25.7188L44.5277 25.8405C44.4534 25.8419 44.379 25.8282 44.3099 25.8003C44.2405 25.7723 44.1778 25.7307 44.1249 25.6779C44.072 25.6251 44.0304 25.5622 44.0025 25.4929C43.9746 25.4237 43.9609 25.3495 43.9621 25.2749L44.0982 18.212C44.1015 18.0639 44.0603 17.9182 43.9803 17.7938C43.8999 17.6694 43.7839 17.5719 43.6478 17.514C43.5112 17.456 43.3609 17.4403 43.2155 17.4688C43.07 17.4973 42.9367 17.5687 42.832 17.6738L34.8449 25.6611C34.8278 25.6784 34.812 25.6966 34.7975 25.7156C34.784 25.698 34.7694 25.6811 34.7537 25.6651L26.7742 17.6856C26.6697 17.5814 26.5365 17.5108 26.3916 17.4829C26.2467 17.4549 26.0967 17.4709 25.961 17.5287C25.8252 17.5865 25.7098 17.6835 25.6296 17.8074C25.5493 17.9312 25.5079 18.0763 25.5106 18.2238L25.6324 25.2749C25.6338 25.3496 25.6201 25.4237 25.5921 25.493C25.5642 25.5622 25.5226 25.6251 25.4698 25.6779C25.417 25.7308 25.3541 25.7724 25.2848 25.8003C25.2156 25.8282 25.1414 25.8419 25.0668 25.8406L18.0039 25.7044C17.8557 25.7011 17.7101 25.7423 17.5857 25.8227C17.4613 25.903 17.3638 26.0189 17.3058 26.1552C17.2479 26.2915 17.2322 26.442 17.2607 26.5874C17.2891 26.7327 17.3606 26.8662 17.4657 26.9706L25.453 34.9579C25.4706 34.9753 25.4892 34.9915 25.5087 35.0063C25.4893 35.021 25.4707 35.0371 25.4532 35.0545L17.4659 43.042C17.3611 43.1462 17.2901 43.2799 17.2619 43.425C17.2338 43.5704 17.2497 43.7207 17.3077 43.8569C17.3658 43.993 17.4633 44.1086 17.5876 44.1886C17.712 44.269 17.8574 44.3098 18.0054 44.3065L25.0683 44.1704C25.1429 44.1692 25.2171 44.1829 25.2863 44.2108C25.3556 44.2387 25.4185 44.2803 25.4713 44.3332C25.5241 44.3857 25.5657 44.4488 25.5937 44.5183C25.6216 44.5873 25.6353 44.6617 25.6339 44.736L25.5108 51.7886C25.5081 51.9365 25.5496 52.0815 25.63 52.2052C25.7104 52.3292 25.8261 52.4262 25.962 52.4839C26.098 52.5417 26.2481 52.5575 26.3932 52.5292C26.5382 52.5009 26.6714 52.4302 26.7757 52.3256L34.7539 44.3474C34.7699 44.3312 34.7848 44.3142 34.7986 44.2964C34.8132 44.3158 34.8291 44.334 34.8462 44.3514L42.8337 52.3385C42.9379 52.4435 43.0716 52.5142 43.2167 52.5425C43.3621 52.5708 43.5124 52.5546 43.6486 52.4969C43.7847 52.4387 43.9003 52.3413 43.9803 52.2169C44.0607 52.0924 44.1015 51.947 44.0982 51.7991L43.9621 44.7364C43.9609 44.6617 43.9746 44.5873 44.0025 44.5183C44.0304 44.4488 44.072 44.3861 44.1249 44.3332C44.1774 44.2803 44.2405 44.2387 44.3099 44.2108C44.379 44.1829 44.4534 44.1692 44.5277 44.1704L51.5803 44.2936C51.7278 44.2964 51.8732 44.2548 51.9968 44.1744C52.1209 44.094 52.2178 43.9785 52.2756 43.8423C52.3334 43.7066 52.3492 43.5563 52.3209 43.4112C52.2926 43.2662 52.2215 43.1333 52.1172 43.0286ZM35.3404 26.8555C35.1228 26.6379 34.77 26.6379 34.5525 26.8555L26.6472 34.7607C26.4296 34.9783 26.4296 35.331 26.6472 35.5486L34.5525 43.4541C34.77 43.6714 35.1228 43.6714 35.3404 43.4541L43.2458 35.5486C43.4631 35.331 43.4631 34.9783 43.2458 34.7607L35.3404 26.8555Z" fill="#FBC01A"/>
<path d="M25.8164 35.1474L34.7972 26.1665L43.7778 35.1472L34.7971 44.1278L25.8164 35.1474Z" fill="#FBC01A"/>
<path d="M34.6122 28.9561L36.1435 30.6788L38.395 30.1852L38.6213 32.479L40.7329 33.403L39.5676 35.3918L40.7329 37.3805L38.6213 38.3045L38.395 40.5984L36.1435 40.1047L34.6122 41.8274L33.0809 40.1047L30.8294 40.5984L30.6031 38.3045L28.4915 37.3805L29.6567 35.3918L28.4915 33.403L30.6031 32.479L30.8294 30.1852L33.0809 30.6788L34.6122 28.9561Z" fill="white"/>
</svg>
