<svg width="70" height="66" viewBox="0 0 70 66" fill="none" xmlns="http://www.w3.org/2000/svg">
<path d="M1.57944 34.0524C1.04579 33.6704 1.04579 32.877 1.57944 32.495L19.1999 19.8816C19.2853 19.8205 19.3601 19.7458 19.4212 19.6604L32.0346 2.03989C32.4166 1.50623 33.21 1.50623 33.592 2.03989L46.2053 19.6604C46.2663 19.7458 46.341 19.8205 46.4267 19.8816L64.0472 32.495C64.5806 32.877 64.5806 33.6704 64.0472 34.0524L46.4267 46.6657C46.341 46.7267 46.2663 46.8015 46.2053 46.8871L33.592 64.5077C33.21 65.041 32.4166 65.041 32.0346 64.5077L19.4212 46.8871C19.3601 46.8015 19.2853 46.7267 19.1999 46.6657L1.57944 34.0524Z" fill="#0CC4E9"/>
<path d="M21.892 54.6099C21.2166 55.121 20.2593 54.5683 20.3639 53.7279L22.4819 36.7203C22.5127 36.4729 22.4458 36.2232 22.2954 36.0243L11.9574 22.3543C11.4467 21.679 11.9994 20.7217 12.8396 20.8263L29.8472 22.9443C30.0946 22.9752 30.3443 22.9082 30.5432 22.7578L44.2129 12.4198C44.8885 11.9091 45.8456 12.4618 45.741 13.302L43.6231 30.3096C43.5924 30.557 43.6594 30.8067 43.8097 31.0056L54.1478 44.6754C54.6585 45.3509 54.1058 46.3081 53.2654 46.2034L36.2579 44.0855C36.0105 44.0548 35.7608 44.1215 35.5619 44.2722L21.892 54.6099Z" fill="#FBC01A"/>
<path d="M32.8157 39.7368C36.3858 39.7368 39.28 36.8426 39.28 33.2724C39.28 29.7023 36.3858 26.8081 32.8157 26.8081C29.2455 26.8081 26.3513 29.7023 26.3513 33.2724C26.3513 36.8426 29.2455 39.7368 32.8157 39.7368Z" fill="white"/>
</svg>
