<svg width="57" height="65" viewBox="0 0 57 65" fill="none" xmlns="http://www.w3.org/2000/svg">
<path d="M13.1026 12.7597L13.478 0.910629C13.4828 0.755489 13.5339 0.605197 13.6248 0.479062C13.7158 0.352927 13.8423 0.256717 13.9883 0.202789C14.1343 0.14886 14.293 0.139676 14.444 0.176422C14.595 0.213168 14.7315 0.294166 14.8358 0.409001L19.823 5.88745C19.8758 5.94551 19.9397 5.9923 20.0111 6.0251C20.0824 6.05787 20.1597 6.07593 20.2383 6.07823C20.3168 6.08049 20.3951 6.06696 20.4684 6.03839C20.5417 6.00983 20.6085 5.9668 20.6648 5.91194L25.9883 0.715875C26.0996 0.606741 26.2408 0.533262 26.3941 0.504903C26.5473 0.476549 26.7054 0.494617 26.8481 0.55678C26.9907 0.618942 27.1113 0.722351 27.1943 0.853678C27.2773 0.985005 27.319 1.13823 27.3139 1.29361L26.938 13.1563C26.9325 13.3093 26.867 13.4542 26.7555 13.5597L20.2192 19.793C20.105 19.8951 19.9554 19.9486 19.8025 19.942C19.6495 19.9353 19.5054 19.8691 19.4011 19.7575L13.2591 13.1749C13.1541 13.0626 13.0978 12.9134 13.1026 12.7597Z" fill="#FBC01A"/>
<path d="M13.2438 26.5249L1.39564 26.1803C1.24054 26.1759 1.09036 26.1252 0.964472 26.0346C0.838579 25.944 0.742664 25.8176 0.689131 25.6718C0.635598 25.526 0.626831 25.3673 0.663961 25.2162C0.70109 25.0651 0.78246 24.9284 0.897566 24.8238L6.38898 19.8223C6.44716 19.7694 6.49415 19.7053 6.52711 19.6339C6.56008 19.5625 6.57834 19.4851 6.58085 19.4065C6.58335 19.328 6.56998 19.2497 6.54162 19.1765C6.51322 19.1033 6.47039 19.0366 6.41568 18.9804L1.23343 13.6704C1.12459 13.5595 1.0515 13.4184 1.02354 13.2652C0.995581 13.1121 1.01405 12.9539 1.07659 12.8111C1.13913 12.6683 1.24284 12.5474 1.37439 12.4641C1.50594 12.3807 1.65927 12.3387 1.81461 12.3434L13.6763 12.6884C13.8293 12.6935 13.9741 12.7587 14.0793 12.8698L20.2956 19.39C20.3975 19.5039 20.4506 19.6534 20.4435 19.8063C20.4365 19.9593 20.3699 20.1036 20.258 20.2082L13.6594 26.3673C13.5469 26.4726 13.3975 26.5292 13.2438 26.5249Z" fill="#FBC01A"/>
<path d="M26.9406 13.064C26.6985 20.7056 20.308 26.7202 12.667 26.498L13.1054 12.6616L26.9406 13.064Z" fill="#FBC01A"/>
<path d="M12.8564 13.2451C12.8564 12.7048 13.2944 12.2668 13.8347 12.2668H33.1887C33.4151 12.2668 33.6345 12.3454 33.8095 12.4891L45.9037 22.4185C46.13 22.6043 46.2613 22.8817 46.2613 23.1746V55.0233C46.2613 55.5635 45.8233 56.0015 45.2828 56.0015H13.8347C13.2944 56.0015 12.8564 55.5635 12.8564 55.0233V13.2451Z" fill="#0CC4E9"/>
<path d="M33.0655 22.3549L33.211 12.9666C33.2174 12.5581 33.6921 12.3369 34.0089 12.5948L45.7652 22.1658C46.1248 22.4588 45.9127 23.0414 45.4489 23.0342L33.547 22.8516C33.2769 22.8474 33.0613 22.6251 33.0655 22.3549Z" fill="#FBC01A"/>
<path d="M39.1522 56.379L30.6107 64.3956C30.499 64.5006 30.3583 64.5701 30.2066 64.5948C30.0549 64.6194 29.8993 64.598 29.7596 64.5337C29.6199 64.4695 29.5026 64.3649 29.4228 64.2336C29.343 64.1027 29.3042 63.9507 29.3115 63.7976L29.6547 56.4848C29.6585 56.4077 29.6465 56.3301 29.6196 56.2574C29.5926 56.1847 29.5512 56.118 29.4979 56.0614C29.4446 56.0053 29.3805 55.96 29.3093 55.9285C29.2381 55.8974 29.1614 55.8808 29.0837 55.8796L21.7336 55.7907C21.5797 55.7891 21.4296 55.7418 21.3027 55.6546C21.1758 55.5673 21.0779 55.4441 21.0217 55.3011C20.9655 55.158 20.9535 55.0017 20.9872 54.8518C21.021 54.7019 21.099 54.5657 21.2111 54.4607L29.7623 46.4348C29.873 46.3318 30.0201 46.2764 30.1717 46.2805L39.094 46.4922C39.2452 46.5007 39.387 46.5677 39.4892 46.6793C39.5914 46.7908 39.6459 46.9378 39.6407 47.0885L39.3328 55.9794C39.3276 56.1313 39.2629 56.2747 39.1522 56.379Z" fill="#0CC4E9"/>
<path d="M48.6718 46.6628L56.7094 55.1815C56.8149 55.2931 56.8844 55.4337 56.909 55.5848C56.9337 55.7363 56.9123 55.8914 56.848 56.0308C56.7834 56.1698 56.6787 56.2869 56.547 56.3665C56.4157 56.4461 56.2634 56.4849 56.1099 56.4776L48.7781 56.135C48.7005 56.1314 48.623 56.1435 48.5502 56.1702C48.4771 56.1972 48.4104 56.2385 48.3539 56.2918C48.2969 56.3447 48.2517 56.409 48.2206 56.4797C48.189 56.5508 48.1725 56.6271 48.1713 56.7047L48.082 64.0357C48.0808 64.1892 48.0331 64.3391 47.9458 64.4655C47.8582 64.592 47.7349 64.6898 47.5911 64.7459C47.4477 64.8017 47.2909 64.8138 47.1406 64.7803C46.9907 64.7463 46.8542 64.6688 46.7487 64.5569L38.7018 56.028C38.5988 55.9177 38.543 55.771 38.5471 55.6195L38.7596 46.7205C38.7681 46.5698 38.8351 46.4284 38.9471 46.3262C39.059 46.2244 39.206 46.1703 39.3575 46.1751L48.2715 46.4822C48.4238 46.4874 48.5676 46.5521 48.6718 46.6628Z" fill="#0CC4E9"/>
<path d="M29.6958 46.4973C35.2043 41.3274 43.8718 41.59 49.0554 47.0843L39.0813 56.4455L29.6958 46.4973Z" fill="#0CC4E9"/>
</svg>
