<svg width="65" height="66" viewBox="0 0 65 66" fill="none" xmlns="http://www.w3.org/2000/svg">
<g clip-path="url(#clip0_2_822)">
<path fill-rule="evenodd" clip-rule="evenodd" d="M0.734673 18.5215L15.433 33.2142C15.4628 33.2441 15.4943 33.2718 15.5273 33.2975C15.495 33.3223 15.464 33.3491 15.4345 33.3779L0.733791 48.0731C0.541837 48.2654 0.411756 48.5111 0.36024 48.7777C0.308725 49.0448 0.338115 49.3207 0.444644 49.5708C0.551173 49.8209 0.729993 50.0334 0.958156 50.1813C1.18632 50.3288 1.45344 50.4051 1.72526 50.4003L14.7156 50.1761C14.8532 50.1732 14.9898 50.1987 15.1174 50.25C15.245 50.3017 15.3609 50.3781 15.4582 50.4754C15.5554 50.5728 15.6321 50.6884 15.6836 50.816C15.7351 50.9437 15.7603 51.0803 15.7578 51.2176L15.5069 64.2251C15.5009 64.4978 15.5768 64.7657 15.7248 64.9951C15.8729 65.2242 16.0862 65.4036 16.3374 65.5103C16.5885 65.6169 16.8659 65.646 17.1337 65.5935C17.4014 65.541 17.6474 65.4097 17.8396 65.2161L32.5548 50.5061C32.5866 50.4742 32.6161 50.4403 32.6431 50.4047C32.6682 50.4375 32.6953 50.4686 32.7245 50.4985L47.4251 65.1939C47.6178 65.3854 47.863 65.5155 48.1301 65.5672C48.3971 65.6185 48.6735 65.5895 48.9236 65.4828C49.1737 65.3761 49.3862 65.1976 49.534 64.9693C49.6819 64.7414 49.7583 64.4744 49.753 64.2024L49.5288 51.2172C49.5264 51.0794 49.5514 50.9429 49.6027 50.8156C49.6544 50.688 49.7312 50.572 49.8282 50.475C49.9255 50.3777 50.0415 50.3009 50.1692 50.2496C50.2968 50.1983 50.4334 50.1728 50.5708 50.1752L63.5831 50.4261C63.8558 50.4322 64.1241 50.3563 64.3535 50.2084C64.5826 50.0605 64.762 49.8472 64.8691 49.5959C64.9757 49.345 65.0048 49.0678 64.9523 48.8C64.8998 48.5325 64.7681 48.2864 64.5745 48.0941L49.8593 33.3846C49.827 33.3525 49.7926 33.3227 49.7563 33.2954C49.7922 33.2683 49.8266 33.2386 49.8589 33.2066L64.5741 18.4969C64.7668 18.3044 64.8978 18.0586 64.9499 17.7911C65.0016 17.5236 64.9725 17.2467 64.8654 16.9961C64.7584 16.7454 64.579 16.5325 64.3499 16.3849C64.1208 16.2372 63.8525 16.1614 63.5802 16.1674L50.5679 16.4182C50.4306 16.4207 50.294 16.3955 50.1663 16.3441C50.0387 16.2926 49.9227 16.216 49.8253 16.1187C49.7284 16.0215 49.6516 15.9057 49.5999 15.7781C49.5486 15.6506 49.5235 15.514 49.526 15.3765L49.7526 2.38856C49.7575 2.11655 49.6811 1.84926 49.5332 1.62103C49.385 1.3928 49.172 1.21405 48.9215 1.10776C48.6711 1.00147 48.3943 0.972486 48.1272 1.02454C47.8602 1.07659 47.6145 1.20731 47.4222 1.39988L32.724 16.0927C32.6943 16.1225 32.6666 16.1539 32.641 16.1867C32.6141 16.1514 32.5848 16.1177 32.5533 16.0859L17.8381 1.37621C17.6456 1.18332 17.3996 1.05249 17.132 1.00057C16.8645 0.948659 16.5874 0.978043 16.3367 1.08494C16.086 1.19184 15.873 1.37136 15.7252 1.60034C15.5775 1.82933 15.5018 2.09731 15.5078 2.36973L15.7587 15.377C15.7612 15.5144 15.736 15.651 15.6845 15.7786C15.633 15.9061 15.5563 16.022 15.4591 16.1192C15.3618 16.2164 15.2459 16.2931 15.1183 16.3445C14.9907 16.396 14.8541 16.4212 14.7165 16.4187L1.72373 16.192C1.45162 16.187 1.18423 16.2635 0.95591 16.4115C0.727596 16.5596 0.548778 16.7725 0.442448 17.0229C0.336118 17.2734 0.307123 17.5499 0.359195 17.8169C0.411267 18.0839 0.542033 18.3293 0.734673 18.5215ZM29.5122 46.1758C31.0903 47.7531 33.6489 47.7531 35.227 46.1758L45.5278 35.8788C47.1059 34.3013 47.1059 31.7436 45.5278 30.1661L35.227 19.8692C33.6489 18.2917 31.0903 18.2917 29.5122 19.8692L19.2115 30.1661C17.6334 31.7436 17.6334 34.3013 19.2115 35.8788L29.5122 46.1758Z" fill="#0CC4E9"/>
<path d="M38.3008 38.4436C38.3008 38.708 38.0865 38.9224 37.822 38.9224H26.9163C26.6519 38.9224 26.4375 38.708 26.4375 38.4436V27.5423C26.4375 27.2779 26.6519 27.0635 26.9163 27.0635H37.822C38.0865 27.0635 38.3008 27.2779 38.3008 27.5423V38.4436Z" fill="#0CC4E9"/>
</g>
<defs>
<clipPath id="clip0_2_822">
<rect width="64.6434" height="64.6434" fill="white" transform="translate(0.333984 0.975586)"/>
</clipPath>
</defs>
</svg>
