<svg width="70" height="70" viewBox="0 0 70 70" fill="none" xmlns="http://www.w3.org/2000/svg">
<path d="M35.3424 1.32737C35.6979 1.08033 36.1803 1.08033 36.5358 1.32737L44.6476 6.96371C44.8218 7.08448 45.0314 7.1494 45.2464 7.149L55.2871 7.13078C55.7275 7.12997 56.1174 7.40006 56.2527 7.79895L59.3374 16.9006C59.4033 17.0956 59.533 17.2655 59.7075 17.3856L67.8417 22.9925C68.1984 23.2382 68.3475 23.6752 68.2105 24.0736L65.0895 33.164C65.0228 33.3588 65.0228 33.5688 65.0895 33.7636L68.2105 42.8537C68.3475 43.2525 68.1984 43.6893 67.8417 43.9349L59.7075 49.5419C59.533 49.6619 59.4033 49.832 59.3374 50.0271L56.2527 59.1285C56.1174 59.5277 55.7275 59.7976 55.2871 59.7968L45.2464 59.7786C45.0314 59.7782 44.8218 59.8432 44.6476 59.9636L36.5358 65.6001C36.1803 65.8474 35.6979 65.8474 35.3424 65.6001L27.2304 59.9636C27.0566 59.8432 26.8469 59.7782 26.6318 59.7786L16.591 59.7968C16.1509 59.7976 15.7606 59.5277 15.6255 59.1285L12.5409 50.0271C12.4748 49.832 12.3452 49.6619 12.1709 49.5419L4.03645 43.9349C3.67992 43.6893 3.53087 43.2525 3.66766 42.8537L6.78863 33.7636C6.8555 33.5688 6.8555 33.3588 6.78863 33.164L3.66766 24.0736C3.53087 23.6752 3.67992 23.2382 4.03645 22.9925L12.1709 17.3856C12.3452 17.2655 12.4748 17.0956 12.5409 16.9006L15.6255 7.79895C15.7606 7.40006 16.1509 7.12997 16.591 7.13078L26.6318 7.149C26.8469 7.1494 27.0566 7.08448 27.2304 6.96371L35.3424 1.32737Z" fill="#24E2AB"/>
<path fill-rule="evenodd" clip-rule="evenodd" d="M47.3472 37.6065C47.4971 37.8245 47.4418 38.1226 47.2236 38.2722L37.5291 44.9297C36.5732 45.5862 35.3117 45.5862 34.3558 44.9297L24.6614 38.2722C24.4434 38.1225 24.3881 37.8244 24.5378 37.6065L26.835 34.2613C26.9847 34.0433 27.2828 33.988 27.5008 34.1377L35.6714 39.7487C35.8347 39.8609 36.0502 39.8609 36.2135 39.7487L44.3845 34.1376C44.6023 33.9879 44.9005 34.0433 45.0504 34.2613L47.3472 37.6065Z" fill="white"/>
<path d="M40.7514 26.6349C40.4869 26.6349 40.2703 26.42 40.2949 26.1567C40.3426 25.6464 40.4666 25.1453 40.6634 24.6701C40.9214 24.0472 41.2996 23.4812 41.7763 23.0045C42.253 22.5278 42.8191 22.1496 43.4421 21.8915C44.0647 21.6335 44.7325 21.5007 45.4068 21.5007C46.0807 21.5007 46.7486 21.6335 47.3716 21.8915C47.9942 22.1496 48.5602 22.5278 49.037 23.0045C49.5137 23.4812 49.8919 24.0472 50.15 24.6701C50.3468 25.1453 50.4708 25.6464 50.5185 26.1567C50.5432 26.42 50.3266 26.6349 50.062 26.6349H40.7514Z" fill="white"/>
<path d="M21.823 26.6349C21.5585 26.6349 21.3418 26.42 21.3664 26.1567C21.4142 25.6464 21.5381 25.1453 21.7349 24.6701C21.9929 24.0472 22.3711 23.4812 22.8479 23.0045C23.3246 22.5278 23.8906 22.1496 24.5135 21.8915C25.1364 21.6335 25.804 21.5007 26.4782 21.5007C27.1525 21.5007 27.8201 21.6335 28.443 21.8915C29.0659 22.1496 29.6319 22.5278 30.1086 23.0045C30.5854 23.4812 30.9635 24.0472 31.2216 24.6701C31.4184 25.1453 31.5423 25.6464 31.59 26.1567C31.6147 26.42 31.398 26.6349 31.1335 26.6349H21.823Z" fill="white"/>
</svg>
