<svg width="66" height="70" viewBox="0 0 66 70" fill="none" xmlns="http://www.w3.org/2000/svg">
<path d="M16.1995 35.6362L1.75677 50.079C1.56818 50.2681 1.44038 50.5093 1.38977 50.7715C1.33916 51.0337 1.36803 51.3052 1.47269 51.5508C1.57735 51.7965 1.75303 52.0054 1.9772 52.1508C2.20135 52.2959 2.46379 52.371 2.73083 52.3658L15.4932 52.1456C15.6284 52.1431 15.7626 52.1678 15.888 52.2183C16.0133 52.2688 16.1272 52.3443 16.2228 52.4397C16.3183 52.5354 16.3936 52.6494 16.4442 52.7746C16.4948 52.8999 16.5195 53.0344 16.5171 53.1694L16.2706 65.953C16.2647 66.2213 16.3393 66.4847 16.4847 66.7101C16.6302 66.9352 16.8398 67.1117 17.0865 67.2164C17.3332 67.3214 17.6058 67.3497 17.8689 67.2984C18.1319 67.2467 18.3735 67.1174 18.5624 66.9271L33.0193 52.4704C33.2051 52.2829 33.3098 52.03 33.3108 51.7662L33.4293 36.2429C33.423 35.9798 33.3137 35.7296 33.1249 35.5461C32.9361 35.3627 32.6829 35.2606 32.4197 35.2617L16.8986 35.3494C16.6372 35.3505 16.3864 35.4533 16.1995 35.6362Z" fill="#0CC4E9"/>
<path d="M33.1838 52.4601L47.6266 66.9026C47.8156 67.0913 48.0568 67.219 48.3191 67.2699C48.5813 67.3204 48.8528 67.2917 49.0984 67.1871C49.3441 67.082 49.5529 66.9067 49.6984 66.6825C49.8434 66.4582 49.9186 66.1956 49.9137 65.9285L49.6931 53.1663C49.6907 53.0314 49.7154 52.8968 49.7659 52.7716C49.8168 52.6464 49.8919 52.5324 49.9877 52.4367C50.083 52.3413 50.1969 52.2658 50.3222 52.2153C50.4474 52.1648 50.582 52.1401 50.7169 52.1425L63.5005 52.389C63.7688 52.3951 64.0322 52.3203 64.2577 52.1749C64.4827 52.0294 64.6593 51.8197 64.7639 51.5729C64.869 51.3264 64.8977 51.0537 64.8459 50.7907C64.7942 50.5277 64.6649 50.2861 64.4746 50.0974L50.018 35.6402C49.8305 35.4545 49.5776 35.3498 49.3142 35.3487L33.7905 35.2302C33.5274 35.2366 33.2772 35.3459 33.0938 35.5347C32.9103 35.7235 32.8082 35.9766 32.8093 36.2399L32.897 51.7607C32.8981 52.0225 33.0009 52.273 33.1838 52.4601Z" fill="#FBC01A"/>
<path d="M16.1946 35.475L1.75425 21.0347C1.56499 20.8458 1.43652 20.6047 1.38537 20.3422C1.3342 20.0798 1.36269 19.808 1.46716 19.5619C1.57162 19.3158 1.7473 19.1065 1.97161 18.961C2.19592 18.8155 2.45862 18.7403 2.72595 18.7453L15.4907 18.968C15.6259 18.9705 15.7601 18.9457 15.8854 18.8952C16.0108 18.8446 16.1247 18.7693 16.2202 18.6737C16.3158 18.5781 16.3911 18.4643 16.4417 18.3389C16.4922 18.2136 16.5171 18.0793 16.5145 17.9442L16.2681 5.16045C16.2622 4.89275 16.3366 4.62936 16.4817 4.40431C16.6269 4.17925 16.8361 4.00282 17.0825 3.89776C17.3288 3.7927 17.601 3.76382 17.8639 3.81484C18.1268 3.86586 18.3684 3.99445 18.5575 4.18403L33.0144 18.641C33.2002 18.8283 33.3049 19.0811 33.3059 19.3449L33.4244 34.8683C33.4181 35.1315 33.3088 35.3816 33.12 35.565C32.9313 35.7485 32.6781 35.8507 32.4148 35.8495L16.9009 35.7689C16.6359 35.7678 16.3821 35.6622 16.1946 35.475Z" fill="#FBC01A"/>
<path d="M33.1799 18.647L47.6202 4.20664C47.8093 4.01738 48.0501 3.88891 48.3127 3.83776C48.5753 3.7866 48.8468 3.81508 49.0928 3.91955C49.3393 4.02401 49.5486 4.19969 49.694 4.424C49.8395 4.64832 49.9146 4.91102 49.9098 5.17836L49.6868 17.9431C49.6843 18.0783 49.709 18.2125 49.7599 18.3378C49.8104 18.4632 49.8855 18.577 49.9813 18.6726C50.0766 18.7682 50.1906 18.8435 50.3158 18.8941C50.4415 18.9446 50.5756 18.9695 50.7106 18.9669L63.4946 18.7205C63.762 18.7146 64.0255 18.789 64.2505 18.9341C64.4755 19.0793 64.6521 19.2885 64.7571 19.5349C64.8622 19.7812 64.8913 20.0534 64.84 20.3163C64.7891 20.5792 64.6606 20.8207 64.4707 21.0099L50.014 35.4668C49.8266 35.6526 49.5736 35.7573 49.3102 35.7583L33.7866 35.8768C33.5235 35.8705 33.2733 35.7612 33.0899 35.5724C32.9064 35.3837 32.8043 35.1305 32.8054 34.8672L32.886 19.3533C32.8871 19.0883 32.9927 18.8345 33.1799 18.647Z" fill="#0CC4E9"/>
<path d="M32.8278 39.3368C34.7589 39.3368 36.3244 37.7714 36.3244 35.8403C36.3244 33.9092 34.7589 32.3438 32.8278 32.3438C30.8968 32.3438 29.3313 33.9092 29.3313 35.8403C29.3313 37.7714 30.8968 39.3368 32.8278 39.3368Z" fill="white"/>
</svg>
