<svg width="66" height="66" viewBox="0 0 66 66" fill="none" xmlns="http://www.w3.org/2000/svg">
<g clip-path="url(#clip0_2_687)">
<path fill-rule="evenodd" clip-rule="evenodd" d="M63.545 18.8779H46.7413V2.03548C46.7417 1.72667 46.648 1.42484 46.4727 1.16888C46.2973 0.91292 46.048 0.714561 45.7571 0.599372C45.4662 0.484182 45.1471 0.45744 44.8404 0.522592C44.5338 0.587744 44.2542 0.741804 44.0376 0.964917L33.6573 11.5894C33.5475 11.7016 33.4158 11.7908 33.2701 11.8518C33.1245 11.9128 32.9678 11.9442 32.8096 11.9442C32.6513 11.9442 32.4947 11.9128 32.3491 11.8518C32.2034 11.7908 32.0717 11.7016 31.9619 11.5894L21.5778 0.9997C21.3606 0.777711 21.0809 0.624771 20.7747 0.56053C20.4685 0.496289 20.1498 0.523683 19.8595 0.639191C19.5693 0.7547 19.3207 0.953047 19.1457 1.20874C18.9708 1.46444 18.8775 1.76581 18.8779 2.07413V18.8776H2.03548C1.72667 18.8773 1.42484 18.9727 1.16888 19.1516C0.91292 19.3306 0.714561 19.5848 0.599372 19.8815C0.484182 20.1783 0.45744 20.504 0.522592 20.8166C0.587744 21.1292 0.741804 21.4145 0.964917 21.6356L11.5894 32.2234C11.7016 32.3354 11.7909 32.4697 11.8518 32.6183C11.9128 32.7668 11.9442 32.9266 11.9442 33.088C11.9442 33.2494 11.9128 33.4092 11.8518 33.5578C11.7909 33.7063 11.7016 33.8406 11.5894 33.9527L0.9997 44.5443C0.777712 44.7661 0.624771 45.0513 0.560531 45.3636C0.49629 45.6759 0.523684 46.0012 0.639193 46.2969C0.754701 46.593 0.953047 46.8468 1.20874 47.025C1.46444 47.2035 1.76581 47.2989 2.07413 47.2985H18.8776V63.5833C18.8772 63.8924 18.9708 64.1942 19.1462 64.45C19.3216 64.7061 19.5709 64.9045 19.8618 65.0196C20.1527 65.1348 20.472 65.1615 20.7785 65.0964C21.0851 65.0314 21.3647 64.877 21.5815 64.654L31.9617 54.0295C32.0715 53.9171 32.2032 53.8283 32.3488 53.7673C32.4945 53.7062 32.6511 53.6747 32.8093 53.6747C32.9676 53.6747 33.1242 53.7062 33.2699 53.7673C33.4155 53.8283 33.5472 53.9171 33.657 54.0295L44.0413 64.6193C44.2582 64.8411 44.5382 64.9942 44.844 65.0584C45.1503 65.1227 45.4691 65.0952 45.7596 64.9796C46.0496 64.8641 46.2981 64.6657 46.4731 64.4104C46.648 64.1546 46.7413 63.8532 46.7409 63.545V47.2985H63.5833C63.8924 47.2989 64.1942 47.2035 64.45 47.0245C64.7061 46.8456 64.9045 46.5914 65.0196 46.2949C65.1348 45.9979 65.1615 45.6723 65.0964 45.3596C65.0314 45.0469 64.877 44.7616 64.654 44.5406L54.0295 33.9529C53.9171 33.8409 53.8283 33.7065 53.7673 33.558C53.7062 33.4094 53.6747 33.2497 53.6747 33.0882C53.6747 32.9268 53.7062 32.767 53.7673 32.6185C53.8283 32.4699 53.9171 32.3356 54.0295 32.2236L64.6193 21.6319C64.8411 21.4103 64.9942 21.1249 65.0584 20.8126C65.1227 20.5003 65.0952 20.1752 64.9796 19.8791C64.8641 19.5831 64.6657 19.3295 64.4104 19.1511C64.1546 18.9727 63.8532 18.8775 63.545 18.8779ZM30.3024 30.3018C28.9175 31.6867 28.9175 33.9322 30.3024 35.3172C31.6874 36.7022 33.9329 36.7022 35.3179 35.3172C36.7029 33.9322 36.7029 31.6867 35.3179 30.3018C33.9329 28.9168 31.6874 28.9168 30.3024 30.3018Z" fill="#0CC4E9"/>
<path d="M14.729 23.7225V14.8983C14.729 14.6338 14.9434 14.4194 15.2078 14.4194H24.0321C24.1591 14.4194 24.2809 14.4699 24.3707 14.5597L32.7803 22.9693C32.9673 23.1563 32.9673 23.4595 32.7803 23.6465L23.956 32.4708C23.7691 32.6578 23.4659 32.6578 23.2789 32.4708L14.8692 24.0612C14.7795 23.9713 14.729 23.8496 14.729 23.7225Z" fill="#F2B705"/>
<path d="M23.7264 51.1994H14.9022C14.6377 51.1994 14.4233 50.9849 14.4233 50.7206V41.8964C14.4233 41.7692 14.4738 41.6476 14.5636 41.5579L22.9732 33.1481C23.1602 32.9611 23.4634 32.9611 23.6504 33.1481L32.4747 41.9724C32.6617 42.1594 32.6617 42.4625 32.4747 42.6495L24.0651 51.0592C23.9752 51.1489 23.8534 51.1994 23.7264 51.1994Z" fill="#F2B705"/>
<path d="M51.2033 41.8964V50.7206C51.2033 50.9848 50.9888 51.1994 50.7246 51.1994H41.9003C41.7731 51.1994 41.6515 51.1489 41.5618 51.0592L33.152 42.6495C32.965 42.4624 32.965 42.1594 33.152 41.9724L41.9763 33.148C42.1634 32.9611 42.4664 32.9611 42.6534 33.148L51.0631 41.5578C51.1528 41.6475 51.2033 41.7691 51.2033 41.8964Z" fill="#F2B705"/>
<path d="M41.9003 14.4194H50.7246C50.9888 14.4194 51.2033 14.6338 51.2033 14.8983V23.7225C51.2033 23.8496 51.1528 23.9713 51.0631 24.0612L42.6534 32.4708C42.4664 32.6578 42.1634 32.6578 41.9763 32.4708L33.152 23.6465C32.965 23.4595 32.965 23.1563 33.152 22.9693L41.5618 14.5597C41.6515 14.4699 41.7731 14.4194 41.9003 14.4194Z" fill="#F2B705"/>
</g>
<defs>
<clipPath id="clip0_2_687">
<rect width="64.6434" height="64.6434" fill="white" transform="translate(0.487793 0.487793)"/>
</clipPath>
</defs>
</svg>
