<svg width="70" height="65" viewBox="0 0 70 65" fill="none" xmlns="http://www.w3.org/2000/svg">
<g clip-path="url(#clip0_2_662)">
<path d="M43.5094 42.9448C44.0601 42.9448 44.5086 43.3913 44.4839 43.9415C44.2395 49.3441 42.0137 54.4748 38.2231 58.3162C34.2 62.3928 28.7435 64.6832 23.054 64.6832C17.3644 64.6832 11.9079 62.3928 7.88475 58.3162C4.09413 54.4748 1.86859 49.3441 1.62404 43.9415C1.59913 43.3913 2.04791 42.9448 2.59859 42.9448H43.5094Z" fill="#FF5C00"/>
<path d="M22.7673 42.5199C22.7673 43.0706 22.3206 43.5191 21.7704 43.494C16.3677 43.2463 11.237 40.9911 7.39585 37.1498C3.31911 33.0731 1.02881 27.5438 1.02881 21.7784C1.02881 16.013 3.3191 10.4837 7.39585 6.40699C11.237 2.56581 16.3677 0.31059 21.7704 0.062782C22.3206 0.0375501 22.7673 0.486354 22.7673 1.03703V42.5199Z" fill="#FBC01A"/>
<path d="M23.975 21.4524C23.4243 21.4524 22.9755 21.0057 23.001 20.4556C23.2486 15.1288 25.4736 10.0708 29.2611 6.28325C33.2843 2.26016 38.7408 -6.78472e-08 44.4304 0C50.1199 6.78472e-08 55.5766 2.26016 59.5994 6.28325C63.3871 10.0708 65.612 15.1288 65.8597 20.4556C65.8852 21.0057 65.4363 21.4524 64.8856 21.4524H23.975Z" fill="#FF5C00"/>
<path d="M44.2209 22.2032C44.2209 21.6526 44.6674 21.2037 45.2177 21.2296C50.5443 21.4805 55.6022 23.7352 59.3899 27.5732C63.4132 31.6499 65.6732 37.1792 65.6732 42.9447C65.6732 48.7101 63.4132 54.2391 59.3899 58.3161C55.6022 62.1539 50.5443 64.4088 45.2177 64.6597C44.6674 64.6855 44.2209 64.2366 44.2209 63.686V22.2032Z" fill="#FBC01A"/>
<path fill-rule="evenodd" clip-rule="evenodd" d="M33.3498 25.8753C29.7668 25.8753 26.8622 28.7799 26.8622 32.3629C26.8622 35.946 29.7668 38.8506 33.3498 38.8506C36.9329 38.8506 39.8375 35.946 39.8375 32.3629C39.8375 28.7799 36.9329 25.8753 33.3498 25.8753ZM33.3498 48.3806C42.1961 48.3806 49.3679 41.2092 49.3679 32.3629C49.3679 23.5165 42.1961 16.3451 33.3498 16.3451C24.5034 16.3451 17.332 23.5165 17.332 32.3629C17.332 41.2092 24.5034 48.3806 33.3498 48.3806Z" fill="white"/>
<path d="M23.1047 33.0396C22.7307 32.6656 22.7307 32.0592 23.1047 31.6852L32.6721 22.1178C33.0461 21.7438 33.6525 21.7438 34.0265 22.1178L43.594 31.6852C43.9678 32.0592 43.9678 32.6656 43.594 33.0396L34.0265 42.6071C33.6525 42.9808 33.0461 42.9808 32.6721 42.6071L23.1047 33.0396Z" fill="#FF5C00"/>
</g>
<defs>
<clipPath id="clip0_2_662">
<rect width="68.6836" height="64.6434" fill="white" transform="translate(0.926758 0.0400391)"/>
</clipPath>
</defs>
</svg>
