<svg width="70" height="66" viewBox="0 0 70 66" fill="none" xmlns="http://www.w3.org/2000/svg">
<g clip-path="url(#clip0_2_894)">
<path d="M12.5421 37.1335C12.2776 37.1335 12.0632 36.9191 12.0632 36.6547V28.5885C12.0632 28.324 12.2776 28.1096 12.5421 28.1096H53.7008C53.9655 28.1096 54.1796 28.324 54.1796 28.5885V36.6547C54.1796 36.9191 53.9655 37.1335 53.7008 37.1335H12.5421Z" fill="#FBC01A"/>
<path d="M37.6336 53.1987C37.6336 53.4633 37.4193 53.6775 37.1548 53.6775H29.0875C28.8231 53.6775 28.6087 53.4633 28.6087 53.1987L28.6086 12.045C28.6086 11.7805 28.8231 11.5662 29.0875 11.5662H37.1548C37.4193 11.5662 37.6336 11.7805 37.6336 12.045V53.1987Z" fill="#FBC01A"/>
<path fill-rule="evenodd" clip-rule="evenodd" d="M51.5777 0.773748L40.6405 11.7094C40.4988 11.8514 40.4208 12.0457 40.4237 12.25L40.5716 23.8362L53.3614 11.0478L53.3566 1.55478C53.357 1.34869 53.2952 1.14507 53.18 0.970077C53.0645 0.795087 52.9008 0.656714 52.7093 0.572748C52.5182 0.488783 52.3081 0.463053 52.1065 0.498869C51.9049 0.534685 51.7207 0.630416 51.5777 0.773748ZM55.0478 12.1978L42.2302 25.0137L53.3178 25.1282C53.521 25.131 53.7145 25.0538 53.8567 24.9131L64.8061 13.9649C64.95 13.8217 65.0457 13.6371 65.0813 13.4351C65.1172 13.2331 65.091 13.0228 65.0065 12.8314C64.9221 12.64 64.7831 12.4762 64.6077 12.3611C64.432 12.2461 64.228 12.185 64.0215 12.1859L55.0478 12.1978Z" fill="#0CC4E9"/>
<path fill-rule="evenodd" clip-rule="evenodd" d="M12.1909 54.5226L12.1958 64.0167C12.1957 64.2228 12.2572 64.4264 12.3726 64.6013C12.4879 64.7767 12.6518 64.9149 12.843 64.9989C13.0343 65.0829 13.2443 65.1084 13.446 65.0728C13.6476 65.0369 13.8319 64.9411 13.9749 64.7977L24.9119 53.8621C25.0537 53.7203 25.1316 53.5259 25.1288 53.3215L24.9809 41.7346L12.1909 54.5226ZM23.3213 40.5579L12.2347 40.4434C12.0312 40.4406 11.8378 40.5178 11.6959 40.6585L0.746261 51.6068C0.60267 51.7498 0.506845 51.9345 0.471136 52.1365C0.435427 52.3385 0.461468 52.549 0.545908 52.7401C0.630347 52.9316 0.769316 53.0952 0.9449 53.2104C1.12048 53.3255 1.32463 53.3865 1.53104 53.3857L10.5038 53.374L23.3213 40.5579Z" fill="#0CC4E9"/>
<path fill-rule="evenodd" clip-rule="evenodd" d="M0.761576 13.9811L11.6986 24.9167C11.8406 25.0585 12.0349 25.1365 12.2392 25.1336L23.8277 24.9857L11.0378 12.1974L1.5427 12.2021C1.33659 12.202 1.13294 12.2636 0.957928 12.3789C0.782918 12.4943 0.644528 12.6581 0.560552 12.8493C0.476576 13.0406 0.450843 13.2505 0.486664 13.4522C0.522484 13.6539 0.618227 13.838 0.761576 13.9811ZM12.187 10.5105L25.0045 23.3264L25.119 12.241C25.1218 12.0377 25.0446 11.8442 24.9039 11.7023L13.9543 0.754038C13.8111 0.610464 13.6265 0.514652 13.4245 0.478946C13.2224 0.443241 13.0121 0.46928 12.8207 0.55371C12.6292 0.638139 12.4654 0.777091 12.3504 0.952652C12.2353 1.12821 12.1743 1.33234 12.1751 1.53872L12.187 10.5105Z" fill="#0CC4E9"/>
<path fill-rule="evenodd" clip-rule="evenodd" d="M54.5148 53.3718L64.0077 53.367C64.2138 53.367 64.4174 53.3052 64.5927 53.19C64.7677 53.0749 64.9059 52.9109 64.9899 52.7198C65.0739 52.5283 65.0998 52.3186 65.0638 52.117C65.0279 51.9149 64.9321 51.7311 64.7891 51.5881L53.8518 40.6522C53.71 40.5105 53.5157 40.4325 53.3113 40.4354L41.7247 40.5833L54.5148 53.3718ZM53.3634 55.0566L40.546 42.2407L40.4315 53.3278C40.4286 53.5314 40.5059 53.725 40.6466 53.8668L51.5962 64.8149C51.7392 64.9584 51.9239 65.0545 52.1259 65.0901C52.3279 65.1256 52.5384 65.0998 52.7299 65.0153C52.9214 64.9309 53.085 64.7919 53.2002 64.6162C53.3153 64.4408 53.3763 64.2368 53.3755 64.0303L53.3634 55.0566Z" fill="#0CC4E9"/>
</g>
<defs>
<clipPath id="clip0_2_894">
<rect width="68.6836" height="64.6434" fill="white" transform="translate(0.44751 0.463379)"/>
</clipPath>
</defs>
</svg>
