<svg width="70" height="66" viewBox="0 0 70 66" fill="none" xmlns="http://www.w3.org/2000/svg">
<g clip-path="url(#clip0_2_970)">
<path d="M46.7751 59.2125L45.485 60.4262C37.8384 67.6222 25.8063 67.2566 18.6107 59.6097L17.3967 58.3196L32.5323 44.0767L46.7751 59.2125Z" fill="#24E2AB"/>
<path d="M32.4253 44.1782L45.3869 31.9812C45.5566 31.8213 45.7699 31.7159 46.0002 31.6785C46.2305 31.6411 46.4665 31.6733 46.6786 31.7712C46.8907 31.8691 47.0684 32.028 47.1897 32.2276C47.3109 32.4272 47.3698 32.6583 47.3585 32.8913L46.8377 44.017C46.8321 44.135 46.8503 44.2525 46.8911 44.3632C46.9319 44.4739 46.9949 44.5753 47.0757 44.6614C47.1565 44.7471 47.2539 44.8161 47.3618 44.8634C47.47 44.9111 47.5864 44.9365 47.7044 44.9378L58.8582 45.0735C59.0917 45.0755 59.3196 45.1478 59.5123 45.2804C59.7046 45.4133 59.8533 45.6008 59.9385 45.8181C60.0238 46.0359 60.042 46.2743 59.9907 46.5021C59.9397 46.73 59.8214 46.9369 59.6513 47.0968L46.6745 59.308C46.5064 59.4647 46.2834 59.5492 46.0531 59.5427L32.5136 59.2207C32.2843 59.2078 32.069 59.1056 31.9138 58.9359C31.7587 58.7662 31.6761 58.5428 31.6839 58.3133L32.151 44.7862C32.1587 44.5551 32.2573 44.3366 32.4253 44.1782Z" fill="#24E2AB"/>
<path d="M17.9796 58.9609L5.78244 45.9995C5.62256 45.8298 5.51716 45.6165 5.47974 45.3862C5.44233 45.1559 5.47461 44.92 5.57247 44.7079C5.67032 44.4958 5.82926 44.318 6.02885 44.1968C6.22843 44.0756 6.45961 44.0166 6.69261 44.0279L17.8183 44.5487C17.936 44.5543 18.0538 44.5362 18.1645 44.4954C18.2752 44.4545 18.3766 44.3915 18.4625 44.3107C18.5485 44.2299 18.6173 44.1325 18.6648 44.0247C18.7124 43.9164 18.7377 43.8 18.7392 43.6821L18.8747 32.5282C18.8769 32.2946 18.949 32.0668 19.0818 31.8743C19.2145 31.6817 19.4018 31.5333 19.6195 31.4479C19.8372 31.3627 20.0753 31.3444 20.3032 31.3956C20.5311 31.4468 20.7382 31.5651 20.898 31.7353L33.1092 44.7119C33.266 44.88 33.3504 45.103 33.3441 45.3333L33.0219 58.8728C33.0091 59.1019 32.9069 59.3173 32.7373 59.4724C32.5677 59.6276 32.344 59.7104 32.1145 59.7027L18.5874 59.2352C18.3564 59.2276 18.138 59.129 17.9796 58.9609Z" fill="#24E2AB"/>
<path d="M37.2577 34.7416C35.2042 37.1824 31.5608 37.4963 29.1199 35.4428C26.6791 33.3892 26.3652 29.7458 28.4188 27.305C30.4723 24.8642 34.1157 24.5503 36.5565 26.6038C38.9973 28.6573 39.3112 32.3007 37.2577 34.7416Z" fill="#24E2AB"/>
<path d="M21.9101 12.6354C21.7197 12.445 21.7197 12.1363 21.9101 11.9459L32.5648 1.29122C32.7552 1.10084 33.0639 1.10084 33.2543 1.29122L43.9091 11.9459C44.0994 12.1363 44.0994 12.445 43.9091 12.6354L33.2543 23.2901C33.0639 23.4805 32.7552 23.4805 32.5648 23.2901L21.9101 12.6354Z" fill="#FBC01A"/>
</g>
<defs>
<clipPath id="clip0_2_970">
<rect width="68.6836" height="64.6434" fill="white" transform="translate(0.414551 0.951172)"/>
</clipPath>
</defs>
</svg>
