<svg width="69" height="69" viewBox="0 0 69 69" fill="none" xmlns="http://www.w3.org/2000/svg">
<path fill-rule="evenodd" clip-rule="evenodd" d="M34.0183 26.22C34.1191 26.188 34.2124 26.1445 34.2942 26.0906L45.2755 18.3781C45.4625 18.2474 45.5684 18.0712 45.5696 17.8873V3.63073C45.5696 3.444 45.4892 3.26147 45.3381 3.10669C45.187 2.9519 44.9724 2.83196 44.722 2.7623C44.4715 2.69264 44.1967 2.67647 43.9329 2.71587C43.6687 2.75526 43.4279 2.84843 43.2412 2.98335L34.3043 9.40811C34.2218 9.46734 34.125 9.51598 34.0183 9.5519V26.22Z" fill="#0CC4E9"/>
<path fill-rule="evenodd" clip-rule="evenodd" d="M32.3137 26.173C32.2612 26.1495 32.2116 26.1225 32.1657 26.0922L21.1837 18.3792C20.9963 18.2485 20.8908 18.0723 20.8896 17.8883V3.6308C20.8894 3.44405 20.9699 3.26151 21.1209 3.10671C21.272 2.95192 21.4866 2.83196 21.7371 2.7623C21.9876 2.69264 22.2626 2.67647 22.5265 2.71587C22.7904 2.75527 23.0312 2.84844 23.2179 2.98337L32.1555 9.40859C32.2037 9.44314 32.2567 9.47408 32.3137 9.50103V26.173Z" fill="#0CC4E9"/>
<path fill-rule="evenodd" clip-rule="evenodd" d="M32.4395 43.7854C32.3387 43.8173 32.2454 43.861 32.1636 43.9147L21.1824 51.6274C20.9951 51.7579 20.8895 51.9341 20.8884 52.1183V66.3746C20.8881 66.5613 20.9687 66.7439 21.1197 66.8986C21.2707 67.0534 21.4853 67.1734 21.7358 67.2433C21.9863 67.3128 22.2612 67.3289 22.5251 67.2893C22.789 67.2501 23.0298 67.1568 23.2164 67.0219L32.1535 60.5971C32.236 60.5381 32.3328 60.4892 32.4395 60.4533V43.7854Z" fill="#0CC4E9"/>
<path fill-rule="evenodd" clip-rule="evenodd" d="M34.1445 43.8328C34.1971 43.8562 34.2466 43.8833 34.2926 43.9136L45.2746 51.6267C45.4617 51.7572 45.5675 51.9338 45.5687 52.1176V66.3751C45.5687 66.5618 45.4884 66.7444 45.3372 66.8991C45.1861 67.0539 44.9716 67.1739 44.7211 67.2438C44.4706 67.3132 44.1955 67.3294 43.9317 67.2898C43.6678 67.2506 43.427 67.1573 43.2404 67.0224L34.3027 60.5972C34.2545 60.5629 34.2015 60.5318 34.1445 60.5047V43.8328Z" fill="#0CC4E9"/>
<path fill-rule="evenodd" clip-rule="evenodd" d="M24.2451 34.2749C24.2134 34.1734 24.1704 34.0792 24.1171 33.9968L16.4816 22.9048C16.3522 22.7157 16.1777 22.609 15.9957 22.6079H1.8814C1.69653 22.6076 1.51583 22.689 1.36259 22.8415C1.20935 22.9941 1.0906 23.2108 1.02163 23.4639C0.952672 23.7169 0.936661 23.9946 0.975669 24.2611C1.01467 24.5277 1.10691 24.7709 1.24048 24.9594L7.60115 33.9866C7.65969 34.0698 7.70777 34.1674 7.74332 34.2749H24.2451Z" fill="#0CC4E9"/>
<path fill-rule="evenodd" clip-rule="evenodd" d="M24.1985 35.9988C24.1753 36.0516 24.1486 36.1015 24.1187 36.1478L16.4826 47.2404C16.3533 47.4295 16.1788 47.5362 15.9967 47.5374H1.88147C1.69658 47.5378 1.51587 47.4566 1.36262 47.3039C1.20937 47.1511 1.09061 46.9346 1.02164 46.6817C0.952672 46.4283 0.936661 46.1508 0.975669 45.8841C1.01468 45.6175 1.10692 45.3742 1.2405 45.186L7.60159 36.158C7.63573 36.1095 7.66628 36.0562 7.69286 35.9988H24.1985Z" fill="#0CC4E9"/>
<path fill-rule="evenodd" clip-rule="evenodd" d="M17.779 18.2342C17.8093 18.1753 17.8314 18.1148 17.8438 18.0548L19.321 9.75227C19.3466 9.6111 19.3162 9.48618 19.2363 9.40448L13.0046 3.10993C12.9231 3.02735 12.8077 2.98269 12.6734 2.98171C12.539 2.98072 12.3919 3.02346 12.2508 3.10442C12.1098 3.18537 11.9813 3.30083 11.882 3.43592C11.7827 3.57101 11.7171 3.71953 11.6937 3.86233L10.5562 10.6847C10.5457 10.7473 10.5243 10.8117 10.4932 10.8748L17.779 18.2342Z" fill="#FBC01A"/>
<path fill-rule="evenodd" clip-rule="evenodd" d="M17.0012 18.9747C16.968 18.9876 16.9345 18.9977 16.9013 19.0047L8.681 20.4969C8.54125 20.5228 8.41758 20.492 8.33666 20.4113L2.10452 14.1163C2.02275 14.034 1.97853 13.9175 1.97756 13.7817C1.97658 13.646 2.0189 13.4974 2.09905 13.3549C2.1792 13.2124 2.29352 13.0827 2.42727 12.9824C2.56101 12.8821 2.70806 12.8158 2.84946 12.7921L9.60419 11.6431C9.64027 11.6369 9.67695 11.627 9.7136 11.6136L17.0012 18.9747Z" fill="#FBC01A"/>
<path fill-rule="evenodd" clip-rule="evenodd" d="M17.062 51.0881C17.0035 51.057 16.9433 51.0348 16.8837 51.0222L8.66393 49.5302C8.52418 49.5043 8.40051 49.535 8.31963 49.6154L2.08791 55.9101C2.00614 55.9925 1.96193 56.1089 1.96095 56.2446C1.95998 56.3804 2.00229 56.529 2.08244 56.6717C2.16259 56.8139 2.2769 56.9436 2.41064 57.0442C2.54437 57.1444 2.69141 57.2106 2.83279 57.2341L9.58704 58.3831C9.64934 58.394 9.71334 58.4154 9.77608 58.4473L17.062 51.0881Z" fill="#FBC01A"/>
<path fill-rule="evenodd" clip-rule="evenodd" d="M17.7905 51.8745C17.8034 51.908 17.8134 51.942 17.8205 51.9759L19.2978 60.279C19.3234 60.42 19.2929 60.5452 19.213 60.6268L12.9809 66.9219C12.8993 67.0043 12.784 67.0491 12.6497 67.0499C12.5153 67.0512 12.3681 67.0083 12.227 66.9271C12.086 66.8463 11.9575 66.7308 11.8583 66.5958C11.7589 66.4605 11.6933 66.3122 11.6699 66.1692L10.5323 59.3465C10.5262 59.3097 10.5163 59.2725 10.5029 59.2354L17.7905 51.8745Z" fill="#FBC01A"/>
<path fill-rule="evenodd" clip-rule="evenodd" d="M50.2097 18.9324C50.2683 18.9632 50.3285 18.9856 50.3883 18.9983L58.6081 20.4903C58.7479 20.5162 58.8715 20.4855 58.9523 20.4047L65.1839 14.1102C65.2656 14.0279 65.31 13.9114 65.3108 13.7757C65.312 13.64 65.2696 13.4913 65.1896 13.3489C65.1092 13.2064 64.9949 13.0767 64.8611 12.9764C64.7274 12.8761 64.5803 12.8098 64.4389 12.7862L57.6849 11.6372C57.6227 11.6265 57.5585 11.6048 57.4958 11.5731L50.2097 18.9324Z" fill="#FBC01A"/>
<path fill-rule="evenodd" clip-rule="evenodd" d="M49.4808 18.1505C49.4679 18.1168 49.4578 18.0828 49.4509 18.049L47.9734 9.74591C47.9479 9.60471 47.9782 9.47978 48.0582 9.39809L54.2903 3.10311C54.3719 3.02052 54.4874 2.97586 54.6216 2.97487C54.7561 2.97389 54.9032 3.01663 55.0442 3.09759C55.1852 3.17855 55.3136 3.29402 55.413 3.42912C55.5124 3.56421 55.5779 3.71274 55.6013 3.85556L56.739 10.6784C56.7451 10.715 56.7552 10.7522 56.7685 10.7895L49.4808 18.1505Z" fill="#FBC01A"/>
<path fill-rule="evenodd" clip-rule="evenodd" d="M49.0728 51.7749C49.0425 51.8339 49.0203 51.8945 49.0078 51.9547L47.5307 60.2573C47.5048 60.3987 47.5355 60.5236 47.6151 60.6052L53.8472 66.8998C53.9284 66.9823 54.0439 67.0271 54.178 67.0279C54.3126 67.0291 54.4596 66.9863 54.6006 66.9051C54.7417 66.8243 54.8701 66.7087 54.9695 66.5738C55.0689 66.4388 55.1344 66.2902 55.1578 66.1471L56.2955 59.3248C56.306 59.2622 56.3274 59.1976 56.3585 59.1341L49.0728 51.7749Z" fill="#FBC01A"/>
<path fill-rule="evenodd" clip-rule="evenodd" d="M49.8438 51.0347C49.8769 51.0218 49.9104 51.0117 49.9435 51.0048L58.1638 49.5124C58.3035 49.4865 58.4272 49.5172 58.5084 49.598L64.7404 55.8931C64.822 55.9755 64.8665 56.0918 64.8673 56.2276C64.8685 56.3633 64.8261 56.512 64.7457 56.6546C64.6657 56.7969 64.5513 56.9266 64.4176 57.0272C64.2839 57.1274 64.1368 57.1936 63.9954 57.217L57.2406 58.3665C57.2046 58.3725 57.1678 58.3822 57.1311 58.3956L49.8438 51.0347Z" fill="#FBC01A"/>
<path fill-rule="evenodd" clip-rule="evenodd" d="M42.3157 35.8767C42.3472 35.9783 42.3904 36.0724 42.4433 36.1549L50.0789 47.2468C50.2082 47.4358 50.3828 47.5425 50.565 47.5437H64.679C64.8641 47.5441 65.0447 47.4625 65.1982 47.3102C65.3513 47.1575 65.4701 46.9409 65.5388 46.688C65.6079 46.4347 65.6241 46.1571 65.5849 45.8905C65.5461 45.6238 65.4536 45.381 65.3202 45.1923L58.9593 36.1651C58.9011 36.0819 58.8527 35.9843 58.8171 35.8767H42.3157Z" fill="#0CC4E9"/>
<path fill-rule="evenodd" clip-rule="evenodd" d="M42.354 34.1485C42.3774 34.0956 42.4041 34.0457 42.434 33.9994L50.07 22.9067C50.1993 22.7175 50.3738 22.6109 50.556 22.6097H64.6713C64.856 22.6095 65.037 22.6908 65.1901 22.8434C65.3432 22.9959 65.462 23.2127 65.5311 23.4657C65.6002 23.7188 65.6159 23.9965 65.5771 24.2631C65.5379 24.5297 65.4458 24.7729 65.3121 24.9614L58.9512 33.9892C58.9168 34.0377 58.8865 34.0911 58.8599 34.1485H42.354Z" fill="#0CC4E9"/>
<path d="M20.8889 23.4765C20.5889 23.0366 21.116 22.5041 21.5516 22.8072L33.0406 30.8014C33.2033 30.9146 33.4184 30.9146 33.5811 30.8014L45.0702 22.8072C45.5057 22.5041 46.033 23.0366 45.7328 23.4765L37.8183 35.0813C37.7062 35.2457 37.7062 35.4629 37.8183 35.6273L45.7328 47.2319C46.033 47.6719 45.5057 48.2044 45.0702 47.9014L33.5811 39.9071C33.4184 39.7939 33.2033 39.7939 33.0406 39.9071L21.5516 47.9014C21.116 48.2044 20.5889 47.6719 20.8889 47.2319L28.8034 35.6273C28.9155 35.4629 28.9155 35.2457 28.8034 35.0813L20.8889 23.4765Z" fill="#FBC01A"/>
</svg>
