<svg width="69" height="66" viewBox="0 0 69 66" fill="none" xmlns="http://www.w3.org/2000/svg">
<path d="M64.6329 54.1298L55.0721 33.3313C54.9161 32.9916 54.5764 32.774 54.2022 32.774L31.1837 32.7739C30.4843 32.7739 30.0193 33.4987 30.3113 34.1339L39.8719 54.9326C40.028 55.2724 40.3677 55.4898 40.7419 55.4898H63.7602C64.4599 55.4898 64.9246 54.7649 64.6329 54.1298Z" fill="#FBC01A"/>
<path d="M34.5126 32.668L24.952 11.8694C24.7959 11.5297 24.4562 11.312 24.0821 11.312H1.06355C0.364131 11.312 -0.100781 12.0368 0.191195 12.672L9.75173 33.4707C9.90788 33.8104 10.2475 34.028 10.6216 34.028H33.6402C34.3396 34.028 34.8045 33.3032 34.5126 32.668Z" fill="#FBC01A"/>
<path d="M59.9991 60.3324L54.6063 38.0845C54.5182 37.7211 54.2265 37.4424 53.8592 37.3705L31.2687 32.9498C30.5823 32.8155 29.987 33.4375 30.1517 34.117L35.5447 56.3649C35.6328 56.7285 35.9244 57.0073 36.2915 57.0792L58.882 61.4996C59.5684 61.6342 60.164 61.012 59.9991 60.3324Z" fill="#0CC4E9"/>
<path d="M4.64039 60.3316L10.0835 38.0826C10.1719 37.721 10.4627 37.4442 10.8289 37.3733L33.6438 32.9495C34.3318 32.8161 34.929 33.4412 34.7627 34.1207L29.3197 56.3698C29.2312 56.7313 28.9404 57.0081 28.5743 57.0792L5.75928 61.5028C5.07131 61.6366 4.47417 61.0111 4.64039 60.3316Z" fill="#0CC4E9"/>
<path d="M59.7754 6.20251L54.6213 28.505C54.5373 28.8693 54.2484 29.1512 53.8824 29.2269L31.342 33.8876C30.657 34.0292 30.0551 33.4136 30.2125 32.7324L35.3665 10.43C35.4507 10.0656 35.7393 9.78375 36.1056 9.70804L58.6458 5.04733C59.3306 4.90569 59.9326 5.52133 59.7754 6.20251Z" fill="#0CC4E9"/>
<path d="M34.674 34.1339L25.1157 54.9314C24.9595 55.2712 24.6199 55.4886 24.2458 55.4886H1.22939C0.529974 55.4886 0.0650084 54.7637 0.356937 54.1286L9.91522 33.3313C10.0714 32.9916 10.411 32.7739 10.7851 32.7739L33.8015 32.774C34.5009 32.774 34.9659 33.4987 34.674 34.1339Z" fill="#FBC01A"/>
<path d="M4.70118 6.20429L9.90303 28.508C9.98759 28.8706 10.2754 29.1503 10.6408 29.2252L33.4048 33.8891C34.0913 34.0298 34.6952 33.4111 34.5363 32.7299L29.3345 10.4262C29.2499 10.0636 28.9621 9.78383 28.5968 9.70897L5.83272 5.04503C5.14621 4.90439 4.54232 5.52307 4.70118 6.20429Z" fill="#0CC4E9"/>
<path d="M30.2808 32.6692L39.8948 11.8694C40.0518 11.5297 40.392 11.312 40.7662 11.312H63.7861C64.4855 11.312 64.9485 12.0368 64.6547 12.672L55.0411 33.4718C54.8839 33.8116 54.5437 34.0292 54.1696 34.0292H31.1498C30.4503 34.0292 29.9872 33.3044 30.2808 32.6692Z" fill="#FBC01A"/>
<path d="M32.9138 37.5895C35.6333 37.5895 37.838 35.3836 37.838 32.6624C37.838 29.9413 35.6333 27.7354 32.9138 27.7354C30.1942 27.7354 27.9895 29.9413 27.9895 32.6624C27.9895 35.3836 30.1942 37.5895 32.9138 37.5895Z" fill="white"/>
</svg>
