<svg width="56" height="65" viewBox="0 0 56 65" fill="none" xmlns="http://www.w3.org/2000/svg">
<path d="M28.475 64.7223C28.2865 64.9105 27.981 64.9105 27.7926 64.7223L14.56 51.4898C14.3716 51.3011 14.3716 50.9957 14.56 50.8074L34.7373 30.6301C34.8989 30.4683 35.1522 30.4424 35.3433 30.5681L43.3025 35.8011C43.3732 35.8475 43.4549 35.8746 43.5389 35.8796L55.4741 36.5879C55.8894 36.6125 56.0809 37.1163 55.7864 37.4109L28.475 64.7223Z" fill="#FBC01A"/>
<path d="M0.680522 37.6183C0.381304 37.3193 0.584728 36.8072 1.0077 36.7949L12.9569 36.4482C13.2124 36.4407 13.4178 36.2354 13.4252 35.9799L13.772 24.0306C13.7843 23.6077 14.2962 23.4043 14.5954 23.7034L41.6992 50.8075C41.8878 50.9958 41.8878 51.3012 41.6992 51.4895L28.4667 64.7224C28.2783 64.9107 27.9728 64.9107 27.7844 64.7224L0.680522 37.6183Z" fill="#FBC01A"/>
<path d="M6.7959 20.3971C6.7959 20.0054 7.23806 19.777 7.55756 20.0036L11.5213 22.8155C11.6885 22.9341 11.9125 22.9341 12.0796 22.8155L16.0434 20.0036C16.3629 19.777 16.8051 20.0054 16.8051 20.3971V52.5152C16.8051 52.7818 16.589 52.9976 16.3226 52.9976H7.27842C7.01193 52.9976 6.7959 52.7818 6.7959 52.5152V20.3971Z" fill="#0CC4E9"/>
<path d="M22.8088 7.57484C22.8088 7.19324 23.2309 6.96267 23.552 7.1688L27.5528 9.73704C27.7116 9.83897 27.9153 9.83897 28.0741 9.73704L32.0749 7.1688C32.396 6.96267 32.818 7.19324 32.818 7.57484V52.5148C32.818 52.7814 32.602 52.9972 32.3355 52.9972H23.2913C23.0249 52.9972 22.8088 52.7814 22.8088 52.5148V7.57484Z" fill="#0CC4E9"/>
<path d="M38.8218 33.3532C38.8218 32.9695 39.2476 32.7393 39.5688 32.9496L43.5618 35.5668C43.7226 35.672 43.9302 35.672 44.0906 35.5668L48.084 32.9496C48.4048 32.7393 48.831 32.9695 48.831 33.3532V52.5151C48.831 52.7817 48.6148 52.9975 48.3482 52.9975H39.3042C39.0375 52.9975 38.8218 52.7817 38.8218 52.5151V33.3532Z" fill="#0CC4E9"/>
<path d="M47.7664 31.487L44.0874 33.8569C43.9282 33.9594 43.7238 33.9594 43.5646 33.8569L39.8852 31.487C39.6456 31.3326 39.5914 31.0051 39.7684 30.7816L43.4478 26.141C43.641 25.8973 44.011 25.8974 44.2042 26.141L47.8832 30.7816C48.0605 31.0051 48.0064 31.3326 47.7664 31.487Z" fill="#0CC4E9"/>
<path d="M31.7538 5.74848L28.0746 8.11843C27.9154 8.22089 27.7111 8.22089 27.552 8.11843L23.8727 5.74848C23.6329 5.59406 23.5786 5.26652 23.7559 5.0431L27.4352 0.402459C27.6284 0.158814 27.9982 0.158814 28.1914 0.402467L31.8706 5.0431C32.0478 5.26656 31.9935 5.59406 31.7538 5.74848Z" fill="#0CC4E9"/>
<path d="M15.8151 18.5319L12.1358 20.9019C11.9767 21.0043 11.7724 21.0043 11.6133 20.9019L7.93391 18.5319C7.6942 18.3775 7.63994 18.05 7.8171 17.8265L11.4965 13.1859C11.6896 12.9423 12.0595 12.9423 12.2526 13.1859L15.9319 17.8265C16.109 18.05 16.0548 18.3775 15.8151 18.5319Z" fill="#0CC4E9"/>
</svg>
