<svg width="64" height="66" viewBox="0 0 64 66" fill="none" xmlns="http://www.w3.org/2000/svg">
<path d="M15.7944 38.4301L31.6999 22.5869L47.6054 38.4301L31.6999 54.2729L15.7944 38.4301Z" fill="#24E2AB"/>
<path d="M20.6831 11.6145L31.6987 0.64209L42.7143 11.6145L31.6987 22.587L20.6831 11.6145Z" fill="#24E2AB"/>
<path d="M49.5973 8.96798C49.9262 8.64048 50.4841 8.91719 50.4203 9.37592L48.4693 23.3586C48.4248 23.676 48.6976 23.9475 49.0163 23.9034L63.054 21.96C63.5146 21.8962 63.7922 22.4523 63.4633 22.7798L49.9464 36.2438C49.7569 36.4324 49.4503 36.4324 49.2608 36.2438L36.0802 23.115C35.8909 22.9264 35.8909 22.6206 36.0802 22.432L49.5973 8.96798Z" fill="#FBC01A"/>
<path d="M17.4303 65.1407C17.1255 65.4446 16.6042 65.2304 16.6027 64.801L16.5584 52.6787C16.5574 52.4133 16.3417 52.1983 16.0753 52.1975L3.90512 52.1535C3.47407 52.1519 3.2593 51.6327 3.56409 51.3289L13.5662 41.3661C13.7556 41.1774 14.0625 41.1774 14.2519 41.3661L27.4324 54.4952C27.6218 54.6835 27.6218 54.9893 27.4324 55.178L17.4303 65.1407Z" fill="#FBC01A"/>
<path d="M0.187778 22.7798C-0.141007 22.4523 0.136782 21.8963 0.597326 21.96L14.635 23.9033C14.9536 23.9475 15.2263 23.6759 15.182 23.3586L13.2309 9.37592C13.1669 8.91716 13.7252 8.64048 14.0539 8.96798L27.571 22.432C27.7603 22.6206 27.7603 22.9263 27.571 23.1149L14.3904 36.2438C14.2011 36.4324 13.8941 36.4324 13.7048 36.2438L0.187778 22.7798Z" fill="#FBC01A"/>
<path d="M59.8304 51.3142C60.135 51.6176 59.9205 52.1367 59.4898 52.1384L47.3082 52.1909C47.0419 52.1921 46.8266 52.4066 46.8254 52.6717L46.7728 64.8056C46.7712 65.2347 46.25 65.4484 45.9454 65.145L35.9423 55.181C35.753 54.9924 35.753 54.6865 35.9423 54.4982L49.142 41.3502C49.3311 41.1619 49.6382 41.1619 49.8276 41.3502L59.8304 51.3142Z" fill="#FBC01A"/>
</svg>
