<svg width="64" height="51" viewBox="0 0 64 51" fill="none" xmlns="http://www.w3.org/2000/svg">
<path d="M27.9529 36.5264C27.9529 38.355 27.5927 40.1658 26.8928 41.8554C26.193 43.545 25.1673 45.0799 23.8742 46.3732C22.5811 47.666 21.0459 48.6918 19.3564 49.3916C17.6669 50.0918 15.8561 50.4518 14.0273 50.4518C12.1986 50.4518 10.3878 50.0918 8.69828 49.3916C7.00875 48.6918 5.47359 47.666 4.18052 46.3732C2.88741 45.0799 1.86164 43.545 1.16184 41.8554C0.461991 40.1658 0.101807 38.355 0.101807 36.5264H27.9529Z" fill="#FBC01A"/>
<path d="M63.7351 36.5264C63.7351 38.355 63.3747 40.1658 62.6749 41.8554C61.9751 43.545 60.9493 45.0799 59.6561 46.3732C58.3632 47.666 56.8279 48.6918 55.1383 49.3916C53.4487 50.0918 51.6379 50.4518 49.8093 50.4518C47.9807 50.4518 46.1698 50.0918 44.4802 49.3916C42.7906 48.6918 41.2557 47.666 39.9625 46.3732C38.6692 45.0799 37.6438 43.545 36.9436 41.8554C36.244 40.1658 35.8838 38.355 35.8838 36.5264H63.7351Z" fill="#FBC01A"/>
<path d="M0.222649 33.4929L6.83607 1.0921C6.90592 0.749772 7.29718 0.583759 7.59191 0.771346L13.2484 4.37121C13.4116 4.47509 13.6203 4.47509 13.7835 4.37121L19.4587 0.759428C19.7483 0.575154 20.133 0.731874 20.2115 1.066L27.8185 33.4787C27.8919 33.7915 27.6546 34.0908 27.3334 34.0908H0.710948C0.39565 34.0908 0.159581 33.802 0.222649 33.4929Z" fill="#0CC4E9"/>
<path d="M36.0046 33.4929L42.6178 1.0921C42.6877 0.749772 43.0792 0.583759 43.3738 0.771346L49.0305 4.37121C49.1937 4.47509 49.4022 4.47509 49.5654 4.37121L55.2407 0.759428C55.5303 0.575154 55.915 0.731874 55.9934 1.066L63.6007 33.4787C63.6738 33.7915 63.4366 34.0908 63.1154 34.0908H36.4929C36.1776 34.0908 35.9416 33.802 36.0046 33.4929Z" fill="#0CC4E9"/>
<path d="M19.5098 8.37141C19.5098 8.09619 19.7329 7.87305 20.0081 7.87305H44.1738C44.449 7.87305 44.672 8.09619 44.672 8.37141V18.4581C44.672 18.7333 44.449 18.9564 44.1738 18.9564H20.0081C19.7329 18.9564 19.5098 18.7333 19.5098 18.4581V8.37141Z" fill="#0CC4E9"/>
</svg>
