<svg width="66" height="66" viewBox="0 0 66 66" fill="none" xmlns="http://www.w3.org/2000/svg">
<path d="M21.8003 12.413L32.2535 2.03124C32.7701 1.5182 33.6061 1.51343 34.1285 2.02054L44.8339 12.4113C45.0909 12.6604 45.2355 13.0019 45.2355 13.3585V19.6361C45.2355 20.3676 44.6384 20.9606 43.9018 20.9606H37.846C37.4923 20.9606 37.1531 20.8211 36.903 20.5727L34.1287 17.8173C33.6079 17.3001 32.7635 17.3001 32.2427 17.8173L29.4684 20.5727C29.2183 20.8211 28.8791 20.9606 28.5254 20.9606H22.7433C22.0067 20.9606 21.4097 20.3676 21.4097 19.6361V13.3495C21.4097 12.9983 21.5502 12.6614 21.8003 12.413Z" fill="#E61777"/>
<path d="M12.3008 44.7382L1.84763 34.3562C1.33106 33.8432 1.32625 33.0129 1.83685 32.494L12.299 21.8616C12.55 21.6066 12.8938 21.4629 13.2528 21.4629H19.5736C20.3102 21.4629 20.9072 22.0559 20.9072 22.7874V28.8019C20.9072 29.1532 20.7667 29.4901 20.5166 29.7385L17.7423 32.4938C17.2215 33.0111 17.2215 33.8497 17.7423 34.367L20.5166 37.1223C20.7668 37.3707 20.9072 37.7076 20.9072 38.0589V43.8017C20.9072 44.5329 20.3102 45.126 19.5736 45.126H13.2438C12.8901 45.126 12.5509 44.9862 12.3008 44.7382Z" fill="#E61777"/>
<path d="M44.848 54.1815L34.3947 64.5632C33.8781 65.0763 33.0421 65.0812 32.5196 64.5741L21.8141 54.1835C21.5574 53.9342 21.4126 53.5924 21.4126 53.2361V46.9584C21.4126 46.2271 22.0097 45.634 22.7462 45.634H28.8022C29.1559 45.634 29.4951 45.7734 29.7452 46.0219L32.5195 48.7773C33.0403 49.2945 33.8847 49.2945 34.4055 48.7773L37.1798 46.0219C37.4299 45.7734 37.7691 45.634 38.1228 45.634H43.905C44.6415 45.634 45.2387 46.2271 45.2387 46.9584V53.245C45.2387 53.5965 45.0981 53.933 44.848 54.1815Z" fill="#E61777"/>
<path d="M53.9053 21.8567L64.3585 32.2385C64.8753 32.7515 64.8801 33.5818 64.3694 34.1007L53.9073 44.733C53.6564 44.9879 53.3126 45.1318 52.9534 45.1318H46.6325C45.896 45.1318 45.2988 44.5387 45.2988 43.8074V37.7928C45.2988 37.4415 45.4394 37.1046 45.6895 36.8562L48.4639 34.1009C48.9847 33.5836 48.9847 32.745 48.4639 32.2277L45.6895 29.4724C45.4394 29.224 45.2988 28.8871 45.2988 28.5358V22.7933C45.2988 22.0618 45.896 21.4688 46.6325 21.4688H52.9623C53.3162 21.4688 53.6552 21.6083 53.9053 21.8567Z" fill="#E61777"/>
<path d="M21.4154 33.7662C21.2277 33.5798 21.2277 33.2777 21.4154 33.0913L33.1163 21.4703C33.3039 21.284 33.6082 21.284 33.7958 21.4703L45.4967 33.0913C45.6845 33.2777 45.6845 33.5798 45.4967 33.7662L33.7958 45.3873C33.6082 45.5735 33.3039 45.5735 33.1163 45.3873L21.4154 33.7662Z" fill="#FBC01A"/>
</svg>
