<svg width="69" height="66" viewBox="0 0 69 66" fill="none" xmlns="http://www.w3.org/2000/svg">
<g clip-path="url(#clip0_2_825)">
<path d="M56.0677 18.8061C51.3842 14.1337 43.7911 14.1337 39.108 18.8061L34.6837 23.2201C34.6606 23.2432 34.6376 23.2663 34.6147 23.2895L9.45576 48.3903C8.80948 49.0351 9.23851 50.1389 10.1515 50.1801L23.0332 50.7643C23.5764 50.7889 24.0111 51.2229 24.0359 51.7646L24.6214 64.6166C24.6629 65.5276 25.769 65.9555 26.4153 65.3107L52.0125 39.7726L56.0677 35.7265C60.7511 31.0541 60.7511 23.4785 56.0677 18.8061Z" fill="#0CC4E9"/>
<path d="M9.23757 18.8061C4.55428 23.4785 4.55428 31.0541 9.23757 35.7265L13.6618 40.1405C13.6772 40.1558 13.6925 40.171 13.7078 40.1862L38.8906 65.3107C39.5369 65.9555 40.6432 65.5272 40.6844 64.6161L41.2702 51.7646C41.2949 51.2225 41.7296 50.7889 42.2726 50.7643L55.1544 50.1801C56.0675 50.1385 56.4966 49.0347 55.8502 48.3899L30.2529 22.8522L26.1973 18.8061C21.514 14.1337 13.9209 14.1337 9.23757 18.8061Z" fill="#FBC01A"/>
<path d="M39.0555 7.21795C39.0555 10.6655 36.2542 13.4603 32.7986 13.4603C29.343 13.4603 26.5417 10.6655 26.5417 7.21795C26.5417 3.77039 29.343 0.975586 32.7986 0.975586C36.2542 0.975586 39.0555 3.77039 39.0555 7.21795Z" fill="#FBC01A"/>
</g>
<defs>
<clipPath id="clip0_2_825">
<rect width="68.6836" height="64.6434" fill="white" transform="translate(0.229248 0.975586)"/>
</clipPath>
</defs>
</svg>
