<svg width="65" height="49" viewBox="0 0 65 49" fill="none" xmlns="http://www.w3.org/2000/svg">
<path d="M30.6615 26.5052L38.5547 3.61041C38.661 3.30222 39.0525 3.20788 39.2884 3.43357L49.6976 13.3877C49.776 13.4627 49.8794 13.5068 49.9881 13.5115L64.25 14.1367C64.5712 14.1507 64.7732 14.4872 64.6339 14.7756L54.1043 36.5447C54.0517 36.6534 53.9568 36.7366 53.8416 36.7746L37.785 42.081C37.5651 42.1533 37.3258 42.047 37.2333 41.8353L30.6744 26.8278C30.6297 26.7257 30.6251 26.6106 30.6615 26.5052Z" fill="#FF5C00"/>
<path d="M48.7602 22.5415C48.6159 22.3546 48.3448 22.3176 48.178 22.4842C47.6762 22.9852 47.3501 23.6395 47.2568 24.3488C47.1449 25.1997 47.3768 26.0601 47.902 26.7407C48.4272 27.4213 49.2026 27.8662 50.0571 27.9777C50.7693 28.0707 51.4885 27.9256 52.1038 27.572C52.3087 27.4543 52.3426 27.1838 52.1984 26.9969L48.7602 22.5415Z" fill="white"/>
<path fill-rule="evenodd" clip-rule="evenodd" d="M37.0886 29.4154C37.0827 29.4118 37.0836 29.4054 37.0867 29.3992L38.292 26.9994C38.3977 26.7889 38.6525 26.7066 38.8513 26.8325C39.1624 27.0292 39.5535 27.304 39.9414 27.5814C40.566 28.0278 41.3486 28.6038 42.178 29.2218C43.6903 30.3488 45.3775 31.6304 46.5855 32.5556C46.7734 32.6994 46.8081 32.9685 46.6631 33.156L45.2724 34.9518C45.1286 35.1381 44.8611 35.1728 44.6745 35.0298C43.4737 34.1102 41.7978 32.8372 40.2993 31.7205C39.4763 31.1072 38.7127 30.5456 38.1129 30.1169C37.8124 29.902 37.5602 29.7256 37.3658 29.5949C37.2001 29.4834 37.115 29.4315 37.0886 29.4154Z" fill="white"/>
<path d="M9.50858 37.9083L0.0595497 9.8244C-0.0444008 9.51545 0.208739 9.20342 0.533971 9.23966L18.2645 11.2135C18.3726 11.2256 18.4815 11.198 18.5708 11.1359L33.0336 1.07391C33.2972 0.890567 33.6631 1.03525 33.7286 1.34861L39.7721 30.2764C39.8218 30.5127 39.7725 30.7592 39.6364 30.9588L28.2788 47.6149C28.0185 47.9967 27.5086 48.118 27.1033 47.8941L9.92339 38.4049C9.72768 38.297 9.57969 38.1196 9.50858 37.9083Z" fill="#24E2AB"/>
<path fill-rule="evenodd" clip-rule="evenodd" d="M24.1049 31.8976C27.2936 31.0338 29.5333 28.6888 29.3397 25.7136C29.3262 25.505 29.452 25.3086 29.6529 25.2491L32.0153 24.5488C32.2679 24.4739 32.5289 24.643 32.5514 24.905C33.0229 30.3922 29.1422 33.9921 24.9848 35.1181C20.8113 36.2485 15.5778 35.2663 13.072 30.7296C12.9578 30.5231 13.0448 30.2662 13.2564 30.1615L15.4936 29.0582C15.7054 28.9538 15.9613 29.0418 16.0811 29.2453C17.6514 31.9122 20.9378 32.7554 24.1049 31.8976Z" fill="white"/>
<path d="M16.8647 23.227C17.0858 23.1441 17.1996 22.8963 17.0888 22.6878C16.9485 22.424 16.7733 22.1792 16.5675 21.9604C16.2636 21.6375 15.8988 21.3772 15.4939 21.1946C15.089 21.012 14.652 20.9105 14.2077 20.8961C13.7635 20.8817 13.3207 20.9545 12.9047 21.1104C12.4887 21.2663 12.1076 21.5022 11.7832 21.8048C11.4588 22.1073 11.1975 22.4705 11.014 22.8736C10.8306 23.2768 10.7287 23.7119 10.7142 24.1542C10.7044 24.4539 10.7348 24.7529 10.8041 25.0433C10.8588 25.2728 11.1086 25.3844 11.3296 25.3016L16.8647 23.227Z" fill="white"/>
</svg>
