<svg width="65" height="65" viewBox="0 0 65 65" fill="none" xmlns="http://www.w3.org/2000/svg">
<path d="M30.9992 6.72605L18.9757 2.6152C18.225 2.35853 17.4083 2.75903 17.1517 3.50973L13.0408 15.5333L1.62454 21.1383C0.912197 21.4881 0.61839 22.3492 0.968385 23.0614L6.57303 34.4664L2.46167 46.5016C2.20525 47.2523 2.60576 48.0688 3.35632 48.3254L15.3802 52.4363L20.9851 63.8418C21.3349 64.5537 22.1958 64.8474 22.9079 64.4975L34.3134 58.8926L46.3371 63.0035C47.0877 63.26 47.9043 62.8596 48.1608 62.109L52.2717 50.0853L63.6881 44.4803C64.4004 44.1304 64.6942 43.2695 64.3443 42.5572L58.7397 31.1522L62.8502 19.1291C63.1072 18.3782 62.7064 17.5615 61.9553 17.3049L49.9207 13.1938L44.3157 1.77713C43.9659 1.06496 43.1053 0.771094 42.393 1.12075L30.9763 6.72605H30.9992ZM34.9326 9.71912L55.758 30.5445C57.0081 31.7944 57.0081 33.8357 55.758 35.0857L34.9326 55.9109C33.6826 57.1609 31.6414 57.1609 30.3914 55.9109L9.55463 35.0857C8.30463 33.8357 8.30463 31.7944 9.55463 30.5445L30.3799 9.71912C31.6299 8.46916 33.6712 8.46916 34.9211 9.71912H34.9326Z" fill="#0CC4E9"/>
<path d="M32.2908 46.9796L20.9925 58.2781C20.8448 58.4264 20.656 58.5266 20.4505 58.5666C20.245 58.6061 20.0321 58.5839 19.8393 58.5019C19.6464 58.4199 19.4824 58.2821 19.3682 58.106C19.254 57.9302 19.195 57.7246 19.1986 57.5153L19.3626 47.5174C19.3644 47.4115 19.3449 47.3065 19.3052 47.2083C19.2655 47.1101 19.2064 47.0208 19.1315 46.9461C19.0565 46.871 18.9673 46.812 18.8691 46.7724C18.7709 46.7324 18.6657 46.713 18.5598 46.715L8.5474 46.8972C8.33772 46.9017 8.13138 46.8431 7.95499 46.7295C7.77859 46.6156 7.64025 46.4516 7.55775 46.2585C7.47525 46.0653 7.45242 45.8524 7.49218 45.6464C7.53194 45.4407 7.63242 45.2512 7.78077 45.1034L19.092 33.7921C19.2386 33.6468 19.4365 33.565 19.6431 33.5644L27.6484 33.5117C27.8729 36.0919 29.9576 38.1393 32.5541 38.3055L32.5204 46.4269C32.5198 46.6346 32.4373 46.833 32.2908 46.9796Z" fill="#FBC01A"/>
<path d="M33.3564 38.2968L33.41 46.4346C33.4107 46.6414 33.4924 46.839 33.6378 46.9857L44.9491 58.297C45.097 58.4453 45.2861 58.5459 45.4921 58.5855C45.6978 58.6255 45.9111 58.6025 46.1042 58.5201C46.2969 58.4376 46.4609 58.2991 46.5749 58.1229C46.6888 57.9464 46.7474 57.7399 46.743 57.5302L46.5603 47.5178C46.5587 47.4119 46.5781 47.3069 46.6177 47.2087C46.6577 47.1105 46.7167 47.0212 46.7914 46.9465C46.8666 46.8713 46.9559 46.8123 47.054 46.7727C47.1522 46.7327 47.2573 46.7134 47.3631 46.7154L57.3606 46.879C57.5703 46.8826 57.776 46.8237 57.9517 46.7097C58.1275 46.5954 58.2652 46.4313 58.3472 46.2386C58.4293 46.0455 58.4519 45.833 58.4119 45.6273C58.3723 45.4217 58.2717 45.233 58.1238 45.0851L46.8254 33.7869C46.6787 33.6405 46.4799 33.558 46.2727 33.5574L38.141 33.5237C37.9149 36.0585 35.893 38.0766 33.3564 38.2968Z" fill="#FBC01A"/>
<path d="M38.1532 32.721L46.2812 32.6675C46.4877 32.6669 46.6856 32.5851 46.8323 32.4397L58.1433 21.1285C58.2916 20.9805 58.3922 20.7914 58.4321 20.5855C58.4717 20.3796 58.4487 20.1665 58.3663 19.9734C58.2839 19.7804 58.1457 19.6164 57.9691 19.5025C57.793 19.3886 57.5865 19.3301 57.3768 19.3345L47.3644 19.5171C47.2585 19.5189 47.1535 19.4994 47.0549 19.4597C46.9567 19.42 46.8675 19.3609 46.7927 19.2859C46.718 19.211 46.6586 19.1218 46.619 19.0236C46.5794 18.9253 46.5596 18.8202 46.5616 18.7143L46.7256 8.71675C46.7293 8.50734 46.6703 8.30153 46.556 8.12574C46.442 7.94991 46.2776 7.81214 46.0849 7.73013C45.8921 7.64811 45.6792 7.62557 45.4736 7.66544C45.2683 7.70528 45.0793 7.80572 44.9318 7.95379L33.6333 19.2521C33.4869 19.3988 33.4044 19.5975 33.4038 19.805L33.3706 27.8039C35.9493 28.0341 37.9931 30.1228 38.1532 32.721Z" fill="#FBC01A"/>
<path d="M32.5656 27.7925L32.5129 19.7972C32.5123 19.5905 32.4305 19.3926 32.2852 19.2461L20.9739 7.93482C20.8259 7.78646 20.6368 7.68598 20.4309 7.64622C20.2251 7.60647 20.0119 7.62934 19.8189 7.7118C19.6258 7.7943 19.4618 7.93263 19.3479 8.10903C19.2341 8.28543 19.1756 8.49176 19.18 8.70149L19.3625 18.7139C19.3644 18.8197 19.3448 18.9249 19.3051 19.0231C19.2654 19.1213 19.2063 19.2106 19.1314 19.2855C19.0564 19.3604 18.9672 19.4195 18.869 19.4592C18.7708 19.4989 18.6656 19.5185 18.5598 19.5166L8.56221 19.3527C8.3528 19.349 8.14699 19.408 7.9712 19.5222C7.79537 19.6364 7.6576 19.8004 7.57559 19.9933C7.49357 20.1861 7.47103 20.399 7.5109 20.6046C7.55074 20.81 7.65118 20.9988 7.79925 21.1466L19.0975 32.4449C19.2442 32.5913 19.4429 32.6738 19.6504 32.6745L27.6393 32.7076C27.8086 30.067 29.9235 27.9559 32.5656 27.7925Z" fill="#FBC01A"/>
</svg>
