<svg width="66" height="66" viewBox="0 0 66 66" fill="none" xmlns="http://www.w3.org/2000/svg">
<g clip-path="url(#clip0_2_1002)">
<path d="M39.9959 18.8289H63.5445C63.8528 18.8285 64.1542 18.9237 64.41 19.1021C64.6653 19.2805 64.8637 19.5341 64.9792 19.8301C65.0948 20.1262 65.1223 20.4513 65.058 20.7636C64.9938 21.076 64.8406 21.3613 64.6188 21.5829L54.029 32.1746C53.9167 32.2866 53.8278 32.4209 53.7668 32.5695C53.7058 32.718 53.6743 32.8778 53.6743 33.0392C53.6743 33.2007 53.7058 33.3604 53.7668 33.509C53.8278 33.6575 53.9167 33.7919 54.029 33.9038L64.6536 44.4916C64.8766 44.7126 65.0309 44.9979 65.096 45.3106C65.161 45.6233 65.1344 45.9489 65.0192 46.2459C64.9041 46.5424 64.7057 46.7966 64.4496 46.9755C64.1938 47.1545 63.892 47.2499 63.5829 47.2495H40.0075C39.7033 47.2483 39.4118 47.1234 39.1958 46.9012L26.4418 33.8919C26.2324 33.6643 26.1176 33.3607 26.1219 33.0464C26.1263 32.732 26.2495 32.432 26.465 32.2106L39.1804 19.1771C39.3973 18.9543 39.6903 18.8291 39.9959 18.8289Z" fill="#FBC01A"/>
<path d="M46.7453 39.9468V63.4955C46.7457 63.8037 46.6523 64.1051 46.4774 64.3609C46.3025 64.6162 46.054 64.8146 45.7635 64.9302C45.4734 65.0457 45.1546 65.0732 44.8484 65.0089C44.5421 64.9447 44.2626 64.7916 44.0452 64.5698L33.6613 53.98C33.5514 53.8677 33.4198 53.7788 33.2741 53.7178C33.1285 53.6568 32.9718 53.6252 32.8136 53.6252C32.6553 53.6252 32.4987 53.6568 32.3531 53.7178C32.2074 53.7788 32.0757 53.8677 31.9659 53.98L21.5857 64.6045C21.369 64.8275 21.0893 64.9819 20.7828 65.0469C20.4763 65.112 20.157 65.0853 19.866 64.9702C19.5751 64.855 19.3259 64.6566 19.1505 64.4005C18.975 64.1447 18.8815 63.8429 18.8818 63.5339V39.9584C18.8831 39.6542 19.0057 39.3627 19.2232 39.1467L31.9777 26.3927C32.2008 26.1834 32.4984 26.0685 32.8066 26.0729C33.1148 26.0772 33.409 26.2004 33.6259 26.4159L46.4039 39.1313C46.6224 39.3482 46.7453 39.6413 46.7453 39.9468Z" fill="#FBC01A"/>
<path d="M25.6227 47.2485H2.07413C1.76581 47.2489 1.46444 47.154 1.20874 46.9754C0.953047 46.7968 0.754701 46.5435 0.639193 46.2473C0.523684 45.9512 0.49629 45.6264 0.560531 45.314C0.624772 45.0017 0.777712 44.7161 0.999699 44.4947L11.5894 33.9029C11.7016 33.7909 11.7909 33.6566 11.8518 33.508C11.9128 33.3595 11.9442 33.1997 11.9442 33.0383C11.9442 32.8768 11.9128 32.7171 11.8518 32.5685C11.7909 32.42 11.7016 32.2857 11.5894 32.1736L0.964917 21.5859C0.741804 21.3648 0.587744 21.0795 0.522592 20.7669C0.45744 20.4542 0.484182 20.1285 0.599372 19.8318C0.714561 19.535 0.91292 19.2808 1.16888 19.1018C1.42484 18.9229 1.72667 18.8275 2.03548 18.8279H25.6111C25.9153 18.8292 26.2067 18.9543 26.4227 19.1761L39.1767 32.1856C39.3861 32.4132 39.5009 32.7168 39.4966 33.0312C39.4923 33.3455 39.3691 33.6456 39.1535 33.8669L26.4381 46.9002C26.2213 47.1232 25.9282 47.2485 25.6227 47.2485Z" fill="#FBC01A"/>
<path d="M18.8738 25.5738V2.0253C18.8735 1.71698 18.9667 1.41562 19.1417 1.15991C19.3166 0.904218 19.5652 0.705871 19.8554 0.590363C20.1457 0.474855 20.4645 0.447461 20.7706 0.511702C21.0768 0.575942 21.3565 0.728883 21.5738 0.95087L31.9578 11.5406C32.0677 11.6528 32.1994 11.7421 32.345 11.803C32.4907 11.8639 32.6473 11.8954 32.8056 11.8954C32.9638 11.8954 33.1204 11.8639 33.2661 11.803C33.4117 11.7421 33.5434 11.6528 33.6532 11.5406L44.0335 0.916088C44.25 0.692976 44.53 0.538916 44.8363 0.473764C45.1429 0.408612 45.4621 0.435354 45.753 0.550543C46.0439 0.665733 46.2932 0.86409 46.4685 1.12005C46.6442 1.37601 46.7376 1.67785 46.7372 1.98665V25.5622C46.736 25.8664 46.6135 26.1579 46.3958 26.3739L33.6414 39.1279C33.4183 39.3373 33.1207 39.4521 32.8125 39.4478C32.5043 39.4434 32.2102 39.3202 31.9932 39.1047L19.2152 26.3893C18.9968 26.1724 18.8741 25.8794 18.8738 25.5738Z" fill="#FBC01A"/>
<path d="M1.16282 33.4378C0.788825 33.0638 0.788825 32.4574 1.16282 32.0834L32.1205 1.12571C32.4945 0.751715 33.1009 0.751716 33.4749 1.12571L64.4326 32.0834C64.8067 32.4574 64.8067 33.0638 64.4326 33.4378L33.4749 64.3953C33.1009 64.7695 32.4945 64.7695 32.1205 64.3953L1.16282 33.4378Z" fill="#0CC4E9"/>
<path d="M18.9966 33.4369C18.6226 33.0629 18.6226 32.4565 18.9966 32.0825L32.1314 18.9477C32.5054 18.5737 33.1118 18.5737 33.4858 18.9477L46.6205 32.0825C46.9946 32.4565 46.9946 33.0629 46.6205 33.4369L33.4857 46.5717C33.1118 46.9458 32.5054 46.9458 32.1314 46.5717L18.9966 33.4369Z" fill="#FBC01A"/>
</g>
<defs>
<clipPath id="clip0_2_1002">
<rect width="64.6434" height="64.6434" fill="white" transform="translate(0.487793 0.438965)"/>
</clipPath>
</defs>
</svg>
