<svg width="61" height="66" viewBox="0 0 61 66" fill="none" xmlns="http://www.w3.org/2000/svg">
<path d="M31.191 51.3534L16.9714 64.6696C16.7854 64.8441 16.5511 64.9593 16.2986 65.0001C16.0461 65.0409 15.7869 65.0057 15.5544 64.8991C15.3219 64.792 15.1266 64.6187 14.9937 64.4009C14.8608 64.1827 14.7963 63.9306 14.8085 63.6761L15.3799 51.5296C15.3861 51.4011 15.3661 51.2726 15.3213 51.1518C15.2764 51.031 15.2075 50.9203 15.1188 50.8266C15.03 50.7325 14.9232 50.6573 14.8047 50.6056C14.6863 50.5535 14.5585 50.526 14.4292 50.5244L2.19267 50.3765C1.93636 50.3741 1.68651 50.2953 1.47529 50.1503C1.26407 50.0056 1.10113 49.8008 1.00756 49.5632C0.913945 49.3257 0.893986 49.0655 0.950145 48.817C1.00634 48.5681 1.13616 48.3419 1.32281 48.1677L15.5588 34.8362C15.7432 34.665 15.988 34.5728 16.2404 34.5797L31.0942 34.9315C31.3458 34.9454 31.582 35.057 31.7522 35.2422C31.9224 35.4274 32.013 35.6715 32.0045 35.9221L31.492 50.69C31.4835 50.9422 31.3754 51.1809 31.191 51.3534Z" fill="#24E2AB"/>
<path d="M47.0381 35.2148L60.4189 49.3657C60.5942 49.5507 60.7098 49.7838 60.751 50.0351C60.7922 50.2864 60.7566 50.5442 60.6492 50.7757C60.5421 51.0072 60.3676 51.2015 60.1486 51.3337C59.9296 51.4658 59.6759 51.53 59.4206 51.5179L47.2151 50.9494C47.0858 50.943 46.9565 50.9632 46.8353 51.0076C46.7137 51.0525 46.6026 51.1207 46.508 51.2092C46.4139 51.2973 46.3384 51.4035 46.2862 51.5215C46.2341 51.6395 46.2062 51.7668 46.2046 51.8952L46.0559 64.0724C46.0535 64.3278 45.9743 64.5763 45.8289 64.7863C45.683 64.9964 45.4778 65.1588 45.239 65.2518C45.0002 65.3451 44.7388 65.3649 44.4887 65.3091C44.2387 65.253 44.0116 65.1241 43.8363 64.9383L30.4399 50.7713C30.2679 50.5878 30.1753 50.3442 30.1822 50.0929L30.5357 35.3112C30.5497 35.0609 30.6618 34.8258 30.8479 34.6564C31.034 34.487 31.2793 34.3968 31.5312 34.4053L46.3711 34.9153C46.6244 34.9238 46.864 35.0314 47.0381 35.2148Z" fill="#24E2AB"/>
<path d="M15.4485 34.9407L31.3484 20.0512C31.7376 19.6867 32.3501 19.7053 32.7165 20.0928L47.6785 35.9153L31.0738 51.4645L15.4485 34.9407Z" fill="#24E2AB"/>
<path d="M28.1842 15.7573C31.1258 18.2201 35.5168 17.8436 37.9917 14.9163C40.4665 11.989 40.0882 7.61932 37.1466 5.15645C34.205 2.69358 29.814 3.07009 27.3391 5.99743C24.8643 8.92476 25.2426 13.2944 28.1842 15.7573Z" fill="#24E2AB"/>
<path d="M37.0511 51.1245L15.5971 29.776C15.3176 29.4979 15.4713 29.0202 15.8605 28.9572L19.9967 28.288C20.1933 28.2561 20.3502 28.1069 20.3917 27.9121L21.2359 23.9521C21.3155 23.5782 21.7775 23.4409 22.0485 23.7105L37.0511 38.6407C37.2397 38.8278 37.544 38.8278 37.7322 38.6407L46.5843 29.8316C46.8736 29.5435 47.3677 29.7227 47.4053 30.1293L47.8029 34.4244C47.8243 34.656 48.0077 34.8395 48.2396 34.8607L52.5546 35.2561C52.9626 35.2935 53.1416 35.79 52.8511 36.079L37.7322 51.1245C37.544 51.312 37.2397 51.312 37.0511 51.1245Z" fill="#FF5C00"/>
<path d="M32.128 11.3753L26.4261 2.27475C26.2301 1.96183 26.4436 1.5536 26.8125 1.53619L39.1346 0.954397C39.3107 0.94607 39.4776 1.03465 39.5693 1.18538L45.1197 10.2931C45.3104 10.6061 45.0963 11.0092 44.7302 11.0265L32.5598 11.6012C32.3856 11.6094 32.2206 11.523 32.128 11.3753Z" fill="#FF5C00"/>
</svg>
