<svg width="65" height="61" viewBox="0 0 65 61" fill="none" xmlns="http://www.w3.org/2000/svg">
<path d="M23.5157 9.86854C23.321 9.68936 23.3147 9.38416 23.5018 9.1971L31.9935 0.705388C32.1752 0.52366 32.4699 0.52366 32.6516 0.705388L41.1464 9.20025C41.3323 9.38614 41.3274 9.68896 41.1359 9.86879L32.7234 17.7577C32.5457 17.9244 32.2693 17.9257 32.09 17.7606L23.5157 9.86854Z" fill="#FBC01A"/>
<path d="M32.6967 45.354L17.3382 59.769C17.1373 59.9581 16.8842 60.0826 16.6115 60.127C16.3388 60.171 16.0588 60.1331 15.8077 60.0175C15.5565 59.9016 15.3456 59.7137 15.2021 59.4777C15.0585 59.2422 14.9888 58.9687 15.002 58.6935L15.6192 45.5447C15.6258 45.4053 15.6043 45.2663 15.5559 45.1354C15.5074 45.0045 15.433 44.8849 15.3372 44.7831C15.2413 44.6817 15.1259 44.6005 14.9979 44.5443C14.87 44.4878 14.732 44.4579 14.5923 44.4562L1.37574 44.2963C1.09892 44.2934 0.829039 44.2082 0.600896 44.0514C0.372751 43.8947 0.196792 43.6732 0.0957025 43.4159C-0.00538763 43.1585 -0.0269742 42.8769 0.0337153 42.6078C0.0944048 42.3384 0.234591 42.0935 0.436213 41.9048L15.8125 27.4731C16.0116 27.2877 16.276 27.188 16.5486 27.1955L32.5921 27.5763C32.8639 27.5914 33.119 27.7121 33.3029 27.9126C33.4867 28.1131 33.5845 28.3774 33.5754 28.6486L33.0218 44.6356C33.0127 44.9087 32.8958 45.1669 32.6967 45.354Z" fill="#0CC4E9"/>
<path d="M49.8138 27.8831L64.2664 43.2018C64.4559 43.4022 64.5807 43.6547 64.6252 43.9266C64.6692 44.1985 64.6312 44.4777 64.5153 44.7282C64.3993 44.9787 64.2111 45.1892 63.9743 45.3322C63.7379 45.4756 63.464 45.5451 63.1877 45.5318L50.0049 44.9161C49.8651 44.9096 49.7257 44.931 49.5944 44.9795C49.4635 45.0276 49.3431 45.1019 49.2413 45.1977C49.1395 45.293 49.0578 45.4081 49.0017 45.5358C48.9451 45.6635 48.9152 45.8013 48.9136 45.9406L48.7528 59.1226C48.7504 59.399 48.6647 59.6681 48.5076 59.8955C48.3504 60.123 48.1282 60.2987 47.8704 60.3993C47.6123 60.5004 47.3302 60.5218 47.0604 60.4612C46.7901 60.4006 46.5448 60.2608 46.3553 60.06L31.8861 44.7233C31.7003 44.525 31.6003 44.2611 31.6078 43.9892L31.9896 27.9874C32.0047 27.7164 32.1258 27.4619 32.3268 27.2785C32.5279 27.0951 32.7928 26.9976 33.0648 27.0067L49.0934 27.5588C49.3669 27.568 49.6259 27.6845 49.8138 27.8831Z" fill="#0CC4E9"/>
<path d="M15.6931 27.5859C25.5981 18.2894 41.1837 18.7618 50.5044 28.641L32.5699 45.474L15.6931 27.5859Z" fill="#0CC4E9"/>
<path d="M31.9771 20.4371L28.0472 16.8134C27.8691 16.6491 27.5946 16.6491 27.4164 16.8134L17.8704 25.6146C17.4932 25.9624 17.8738 26.5752 18.3527 26.3911L31.8285 21.2136C32.1506 21.0899 32.2307 20.6709 31.9771 20.4371Z" fill="#0CC4E9"/>
<path d="M32.8476 20.4597L36.9001 16.9167C37.0775 16.7617 37.3428 16.7637 37.5179 16.9214L48.8154 27.1011C49.2069 27.4539 48.8029 28.0831 48.3193 27.874L32.9693 21.2372C32.6553 21.1015 32.5902 20.6848 32.8476 20.4597Z" fill="#0CC4E9"/>
<path d="M39.5937 26.4947C39.7007 26.5829 39.7626 26.7142 39.7626 26.853V44.1052C39.7626 44.5177 39.2654 44.7274 38.9711 44.4389L32.7739 38.3649C32.5928 38.1875 32.3026 38.1879 32.1216 38.3665L25.9243 44.4696C25.63 44.7593 25.1328 44.5521 25.1328 44.1395V26.8873C25.1328 26.7485 25.1947 26.6169 25.3017 26.5282L32.1512 20.8498C32.3233 20.7072 32.5721 20.7066 32.7442 20.8484L39.5937 26.4947Z" fill="#FBC01A"/>
</svg>
