<svg width="66" height="70" viewBox="0 0 66 70" fill="none" xmlns="http://www.w3.org/2000/svg">
<g clip-path="url(#clip0_2_710)">
<path d="M23.4291 13.1612C23.2349 12.9664 23.2349 12.6506 23.4291 12.4558L32.4768 3.37998C32.6709 3.18519 32.9858 3.18519 33.18 3.37998L42.2276 12.4558C42.4219 12.6506 42.4219 12.9664 42.2276 13.1612L33.18 22.2371C32.9858 22.4319 32.6709 22.4319 32.4768 22.2371L23.4291 13.1612Z" fill="#E61777"/>
<path d="M51.9176 67.8782L45.8916 67.8777C45.1967 67.8777 44.8488 67.035 45.3401 66.5421L51.3661 60.4971C51.8574 60.0042 52.6977 60.3533 52.6977 61.0506V67.0956C52.6977 67.5275 52.3483 67.8782 51.9176 67.8782Z" fill="#0CC4E9"/>
<path d="M48.2487 46.7296C48.4305 46.9122 48.4305 47.2079 48.2487 47.3902L41.8656 53.7935C41.6838 53.9761 41.3889 53.9761 41.207 53.7935L34.8441 47.4108C34.6623 47.2286 34.6623 46.9328 34.8441 46.7502L41.2277 40.347C41.4095 40.1646 41.704 40.1646 41.8858 40.347L48.2487 46.7296Z" fill="#0CC4E9"/>
<path d="M39.4675 38.5818C39.6493 38.3995 39.6493 38.1038 39.4675 37.9214L16.4041 14.7862C16.1108 14.492 15.6094 14.7003 15.6094 15.1164V27.9231C15.6094 28.047 15.6584 28.1658 15.7457 28.2534L32.4256 44.9852C32.6074 45.1675 32.9022 45.1675 33.084 44.9852L39.4675 38.5818Z" fill="#0CC4E9"/>
<path d="M30.6644 47.4117C30.8462 47.2295 30.8462 46.9338 30.6644 46.7515L13.9848 30.0198C13.8975 29.9323 13.7791 29.8831 13.6556 29.8831H0.889346C0.474575 29.8831 0.266857 30.3861 0.560145 30.6803L32.4031 62.6227C32.585 62.8049 32.8798 62.8049 33.0616 62.6227L39.4447 56.2194C39.6265 56.0372 39.6265 55.7414 39.4447 55.5592L33.0827 49.1773C32.9008 48.9947 32.6061 48.9947 32.4243 49.1773L26.0415 55.5798C25.8597 55.762 25.5649 55.762 25.3831 55.5798L24.2816 54.4748C24.0998 54.2926 24.0998 53.9969 24.2816 53.8146L30.6644 47.4117Z" fill="#0CC4E9"/>
<path d="M13.1594 67.0932L13.1596 61.0486C13.1597 60.3513 13.9999 60.0022 14.4914 60.4951L20.5173 66.5397C21.0087 67.033 20.6606 67.8758 19.9656 67.8758H13.9395C13.5087 67.8758 13.1594 67.5255 13.1594 67.0932Z" fill="#E61777"/>
<path d="M32.4261 62.641L26.0426 56.2377C25.8608 56.055 25.8608 55.7597 26.0426 55.5771L51.64 29.8999H64.5998C65.0147 29.8999 65.2224 30.4029 64.9291 30.6972L33.0845 62.641C32.9027 62.8232 32.6079 62.8232 32.4261 62.641Z" fill="#E61777"/>
<path d="M17.2421 47.4084L23.6252 53.8113C23.807 53.9939 24.1018 53.9939 24.2836 53.8113L49.8798 28.1354V15.1359C49.8798 14.7199 49.3784 14.5115 49.0851 14.8057L17.2421 46.7478C17.0603 46.9304 17.0603 47.2262 17.2421 47.4084Z" fill="#E61777"/>
</g>
<defs>
<clipPath id="clip0_2_710">
<rect width="64.6434" height="68.6836" fill="white" transform="translate(0.422852 0.487793)"/>
</clipPath>
</defs>
</svg>
