<svg width="630" height="620" viewBox="0 0 630 620" fill="none" xmlns="http://www.w3.org/2000/svg">
<path fill-rule="evenodd" clip-rule="evenodd" d="M0 0V620H630V0H0ZM404.88 52.6091C353.051 9.13029 277.454 9.13029 225.626 52.6091C207.76 67.5975 186.281 77.8922 163.427 82.4763C97.3501 95.7281 49.9679 154.774 51.7244 222.222C52.3323 245.534 47.052 268.642 36.371 289.372C5.45482 349.373 22.3897 423.063 76.2601 463.694C94.8655 477.713 109.695 496.268 119.281 517.515C147.047 579.08 215.31 611.779 280.688 595.085C303.303 589.328 327.203 589.328 349.818 595.085C415.197 611.779 483.459 579.08 511.224 517.515C520.81 496.268 535.641 477.713 554.245 463.694C608.113 423.063 625.052 349.373 594.126 289.372C583.453 268.642 578.173 245.534 578.781 222.222C580.539 154.774 533.155 95.7281 467.078 82.4763C444.224 77.8922 422.747 67.5975 404.88 52.6091Z" fill="white"/>
<path d="M476.943 69.7932L477.533 66.8517L476.943 69.7932C546.257 83.688 595.956 145.602 594.113 216.306C593.449 241.754 599.216 266.98 610.872 289.611L610.873 289.612C643.307 352.511 625.543 429.771 569.041 472.371C548.723 487.675 532.526 507.929 522.057 531.123L524.792 532.357L522.057 531.123C492.935 595.667 421.329 629.957 352.745 612.453L352.743 612.453C328.048 606.168 301.954 606.168 277.259 612.453L277.257 612.453C208.675 629.957 137.068 595.667 107.945 531.123L105.211 532.357L107.945 531.123C97.477 507.93 81.2823 487.675 60.9627 472.372C4.45641 429.772 -13.3032 352.511 19.1214 289.612L16.4633 288.242L19.1214 289.612C30.7869 266.981 36.5537 241.754 35.8898 216.306C34.0477 145.602 83.7454 83.6879 153.059 69.7932L152.521 67.1097L153.059 69.7932C178.016 64.7897 201.47 53.554 220.983 37.1916C275.35 -8.39719 354.652 -8.39722 409.021 37.1916C428.534 53.5539 451.987 64.7897 476.943 69.7932Z" stroke="#A1FFE4" stroke-width="6"/>
</svg>
