<svg width="569" height="569" viewBox="0 0 569 569" fill="none" xmlns="http://www.w3.org/2000/svg">
<path fill-rule="evenodd" clip-rule="evenodd" d="M317.022 55.0227L317 54.9999L316.385 55.6601L316.343 55.702C316.05 55.9952 315.769 56.2981 315.5 56.6101L316.385 55.6601L317.022 55.0227ZM55.5175 316.517L55.6002 316.435L61.7645 312.414C59.5377 313.242 57.4918 314.543 55.7797 316.255L55.6002 316.435L55.5 316.5L55.5175 316.517ZM253.553 57.9115C253.017 57.1575 252.415 56.4446 251.753 55.7817L251.208 55.237L251 54.9999L250.985 55.0146L251.208 55.237L253.553 57.9115ZM55.5253 251.474L55.5 251.5L55.7122 251.661L55.7163 251.665C56.7902 252.739 57.9953 253.652 59.2937 254.386L55.7122 251.661L55.5253 251.474Z" fill="#D9D9D9"/>
<path d="M563.116 200.848L512.22 251.745C511.339 252.626 510.369 253.398 509.332 254.053L486.402 275.413C480.137 281.249 480.532 291.292 487.236 296.618L508.44 313.466C509.84 314.225 511.137 315.187 512.284 316.334L563.1 367.152C569.612 373.665 569.612 384.223 563.1 390.736L514.457 439.381C511.329 442.508 507.088 444.265 502.665 444.265H458.677C449.467 444.265 442.001 451.731 442.001 460.941V504.931C442.001 509.354 440.244 513.596 437.117 516.723L390.726 563.115C384.214 569.628 373.655 569.628 367.143 563.115L316.247 512.218C316.17 512.14 316.093 512.062 316.017 511.983L316 512L293.519 488.156C287.871 482.166 278.297 482.319 272.844 488.488L252.5 511.5L252.449 511.449C252.195 511.74 251.931 512.023 251.657 512.298L200.841 563.116C194.329 569.628 183.77 569.628 177.258 563.116L128.615 514.471C125.487 511.343 123.73 507.102 123.73 502.679V458.689C123.73 449.479 116.264 442.013 107.055 442.013H63.0665C58.6438 442.013 54.4023 440.256 51.275 437.128L4.88422 390.736C-1.62807 384.224 -1.62808 373.665 4.88422 367.152L55.5175 316.517L55.5 316.5L55.6002 316.435L55.7797 316.255C57.4918 314.543 59.5377 313.242 61.7645 312.414L84.8697 297.346C92.9763 292.059 93.4014 280.338 85.6993 274.478L59.2937 254.386C57.9953 253.652 56.7902 252.739 55.7163 251.665L55.7122 251.661L55.5 251.5L55.5253 251.474L4.90034 200.848C-1.61195 194.335 -1.61196 183.776 4.90032 177.264L53.5435 128.619C56.6708 125.492 60.9123 123.735 65.335 123.735H109.323C118.533 123.735 125.999 116.269 125.999 107.058V63.0688C125.999 58.6459 127.756 54.4042 130.883 51.2768L177.274 4.88451C183.786 -1.628 194.345 -1.62801 200.857 4.8845L250.985 55.0146L251 54.9999L251.208 55.237L251.753 55.7817C252.415 56.4446 253.017 57.1575 253.553 57.9115L272.788 79.8515C278.253 86.0853 287.908 86.2309 293.559 80.1646L315.5 56.6101C315.769 56.2981 316.05 55.9952 316.343 55.702L316.385 55.6601L317 54.9999L317.022 55.0227L367.159 4.88439C370.415 1.62813 374.683 0 378.951 0L0 0V569H569V0L378.951 0C383.218 0 387.486 1.62812 390.742 4.88437L439.385 53.5292C442.513 56.6566 444.27 60.8983 444.27 65.3211V109.311C444.27 118.521 451.735 125.987 460.945 125.987H504.933C509.356 125.987 513.598 127.744 516.725 130.871L563.116 177.264C569.628 183.776 569.628 194.335 563.116 200.848Z" fill="white"/>
</svg>
