<svg width="510" height="517" viewBox="0 0 510 517" fill="none" xmlns="http://www.w3.org/2000/svg">
<path d="M392.077 102.425L347.7 11.9373C344.929 6.28792 338.103 3.95401 332.454 6.7246L241.967 51.1008L146.506 18.5096C140.549 16.4762 134.072 19.6575 132.041 25.6146L99.5109 121.01L8.95571 165.449C3.30818 168.221 0.975679 175.046 3.74568 180.694L48.1243 271.183L15.593 366.583C13.562 372.539 16.7442 379.014 22.6997 381.044L118.099 413.577L162.476 504.063C165.247 509.713 172.073 512.047 177.723 509.276L268.209 464.9L363.671 497.491C369.627 499.525 376.104 496.344 378.136 490.386L410.665 394.991L501.15 350.616C506.8 347.845 509.133 341.017 506.361 335.367L461.923 244.817L494.515 149.352C496.548 143.398 493.368 136.922 487.414 134.889L391.948 102.296L392.077 102.425ZM397.352 141.271L397.352 374.86C397.353 388.881 385.905 400.329 371.884 400.329L138.294 400.328C124.273 400.328 112.825 388.88 112.825 374.859L112.76 141.205C112.759 127.184 124.208 115.736 138.228 115.736L371.818 115.737C385.839 115.737 397.287 127.186 397.287 141.206L397.352 141.271Z" fill="#FBC01A"/>
</svg>
