<svg width="729" height="641" viewBox="0 0 729 641" fill="none" xmlns="http://www.w3.org/2000/svg">
<g clip-path="url(#clip0_951_10361)">
<path fill-rule="evenodd" clip-rule="evenodd" d="M0.5 0.5V640.5H728.5V0.5H0.5ZM24.8793 251.392C15.1655 184.466 44.6816 111.72 77.2229 80.6818C109.764 49.6437 145.364 22 256.554 22C335.235 22 386.164 59.1986 484 35C589.88 8.81153 682.948 77.3441 702.417 206.289C721.886 335.235 672.039 285.469 687.805 418.933C703.571 552.396 614.052 526.479 538.154 585.622C476.267 633.846 363.354 579.557 294.221 605.241C203.441 638.969 127.255 610.688 77.2229 520.398C35.8881 445.804 72.9333 425.386 65.0866 372.635C56.9349 317.833 37.7004 339.726 24.8793 251.392Z" fill="white" stroke="white"/>
<path d="M4.00939 242.133C-4.67159 161.279 43.5418 61.145 113.929 31.4212C157.318 13.0983 264.731 -16.5073 360.765 21.2954C385.996 25.9566 438.866 38.461 510.217 12.6163C534.805 3.71031 587.354 14.0623 625.44 31.4212C681.364 56.9101 746.335 207.609 719.932 286.492C698.264 351.228 696.59 354.061 705.501 454.134C714.413 554.207 601.035 553.242 570.218 585.102C541.508 614.783 495.04 622.754 463.324 622.754C397.745 622.754 345.836 605.123 309.241 618.871C199.939 659.934 147.99 629.291 98.3408 579.792C44.7579 526.371 37.8993 471.961 53.1839 396.911C60.6476 360.263 11.7231 313.977 4.00939 242.133Z" stroke="#FFF7E1" stroke-width="6"/>
</g>
<defs>
<clipPath id="clip0_951_10361">
<rect width="729" height="641" fill="white"/>
</clipPath>
</defs>
</svg>
