<svg width="16" height="20" viewBox="0 0 16 20" fill="none" xmlns="http://www.w3.org/2000/svg">
<path d="M15.2714 7.80576C15.2714 8.09229 15.252 8.37881 15.218 8.66297C15.2132 8.69612 15.2107 8.73164 15.2059 8.7648C15.2156 8.69139 15.2034 8.7719 15.201 8.80032C15.1889 8.87372 15.1792 8.94476 15.1646 9.01817C15.1379 9.16262 15.1087 9.30706 15.0747 9.45151C14.9412 10.0269 14.7493 10.5905 14.5162 11.1351C14.5118 11.1448 14.5039 11.1632 14.4988 11.1752C14.4927 11.1896 14.4907 11.1946 14.504 11.1636C14.5023 11.1674 14.5006 11.1713 14.4988 11.1752C14.4836 11.2092 14.4685 11.243 14.4555 11.2749C14.4239 11.3459 14.3923 11.4146 14.3583 11.4832C14.2952 11.6182 14.2296 11.7508 14.1616 11.8834C14.0232 12.1534 13.8775 12.421 13.722 12.6838C13.4136 13.2071 13.0785 13.7163 12.7191 14.2088C12.5442 14.4503 12.3621 14.6895 12.1775 14.9263C12.1678 14.9381 12.1581 14.95 12.1484 14.9618C12.1144 15.0044 12.1824 14.9192 12.1484 14.9594C12.1265 14.9879 12.1046 15.0139 12.0828 15.0423C12.0366 15.1015 11.9881 15.1584 11.9419 15.2152C11.8521 15.3265 11.7598 15.4354 11.6675 15.5443C11.3105 15.9658 10.9414 16.3755 10.5625 16.7757C9.95539 17.4127 9.32398 18.0284 8.66342 18.6132C8.44244 18.8112 8.21083 18.9975 7.98432 19.1884C7.90464 19.2556 7.82559 19.3233 7.74786 19.3923C7.743 19.397 7.73815 19.3994 7.73572 19.4018C7.90814 19.4018 8.07814 19.4018 8.25057 19.4018C8.16086 19.3321 8.07217 19.2608 7.98432 19.1884C7.76772 19.0099 7.55621 18.8246 7.34715 18.6393C6.61374 17.9905 5.90946 17.3061 5.24162 16.591C4.81663 16.1363 4.40621 15.6698 4.01521 15.1891C3.96421 15.1276 3.91564 15.066 3.86464 15.0021C3.8525 14.9879 3.79665 14.9168 3.8185 14.9429C3.84522 14.9784 3.80636 14.9287 3.79907 14.9192C3.7845 14.9002 3.7675 14.8789 3.75293 14.86C3.6485 14.7274 3.54894 14.5948 3.44694 14.4598C3.2478 14.1922 3.05352 13.9199 2.86652 13.6428C2.49253 13.0887 2.14525 12.5133 1.84168 11.919C1.76397 11.7674 1.68868 11.6135 1.61826 11.4596C1.58668 11.3909 1.55269 11.3199 1.52354 11.2488C1.51626 11.2299 1.50654 11.2109 1.49926 11.192C1.52111 11.2417 1.4774 11.1423 1.49926 11.192C1.48226 11.1494 1.46283 11.1067 1.44583 11.0641C1.32197 10.7634 1.20783 10.4603 1.11069 10.1501C1.01355 9.83986 0.930982 9.52729 0.865411 9.20761C0.83384 9.04895 0.804698 8.88793 0.782841 8.72691C0.794984 8.80742 0.780413 8.69849 0.775556 8.67481C0.770699 8.64166 0.76827 8.60614 0.763413 8.57299C0.753699 8.49011 0.746414 8.40723 0.741557 8.32435C0.717271 7.9881 0.714843 7.65184 0.7367 7.31559C0.741201 7.23878 0.747788 7.164 0.754528 7.08749C0.755061 7.08144 0.755594 7.07539 0.756128 7.06932C0.760985 7.02669 0.765842 6.9817 0.770699 6.93908C0.773127 6.91777 0.775556 6.89645 0.777984 6.87514C0.778515 6.87014 0.778943 6.86599 0.779283 6.86258C0.783603 6.81921 0.773658 6.89572 0.780413 6.8562C0.804698 6.68097 0.836269 6.50574 0.875126 6.33051C0.947981 5.99899 1.04512 5.66984 1.16169 5.35016C1.19083 5.27202 1.2224 5.19151 1.25398 5.11336C1.26126 5.09205 1.3074 4.99023 1.27826 5.05179C1.29769 5.00917 1.31712 4.96418 1.33655 4.92156C1.40697 4.77 1.48226 4.61845 1.5624 4.47164C1.72511 4.17327 1.90968 3.88675 2.11125 3.61443C2.13553 3.58128 2.16225 3.54812 2.18653 3.51497C2.19867 3.4984 2.2691 3.41078 2.22539 3.46288C2.27882 3.39894 2.32981 3.33264 2.38567 3.2687C2.49495 3.14083 2.60667 3.0177 2.72566 2.8993C2.96852 2.65303 3.22594 2.42333 3.50036 2.21021C3.51251 2.20074 3.52465 2.19127 3.53679 2.1818C3.5514 2.17072 3.55136 2.17048 3.54656 2.17384C3.53699 2.18054 3.5085 2.2015 3.53922 2.17943C3.54167 2.17755 3.54411 2.17569 3.54656 2.17384C3.57811 2.14996 3.60967 2.12783 3.64122 2.10365C3.71408 2.05156 3.78693 1.99946 3.86222 1.94973C4.00307 1.85501 4.14635 1.7674 4.29207 1.68215C4.44021 1.5969 4.58835 1.51639 4.74134 1.44299C4.81906 1.4051 4.89434 1.36958 4.97205 1.33406C5.01091 1.31748 5.04977 1.29854 5.08862 1.28196C5.10805 1.27249 5.12748 1.26539 5.14691 1.25591C5.15113 1.25417 5.15469 1.2527 5.15767 1.25148C5.19923 1.23439 5.12765 1.26428 5.16391 1.24881C5.48933 1.11857 5.82447 1.00728 6.16446 0.922028C6.33446 0.879405 6.50688 0.841517 6.67931 0.810733C6.76674 0.794157 6.85416 0.779949 6.94159 0.768109C6.956 0.766548 7.01264 0.75881 7.02868 0.756434C7.03696 0.755207 7.03441 0.755411 7.00959 0.758637C7.01595 0.757948 7.02231 0.757209 7.02868 0.756434C7.06608 0.751884 7.10373 0.746109 7.14316 0.742062C7.50987 0.701806 7.87657 0.689966 8.24571 0.701806C8.43028 0.70891 8.61727 0.72075 8.80184 0.739694C8.8407 0.744429 8.87956 0.749165 8.91841 0.751533C8.92813 0.753901 8.99855 0.761006 8.95241 0.75627C8.90627 0.751534 8.9767 0.758637 8.98641 0.761005C9.0787 0.775213 9.17341 0.789421 9.26569 0.805997C9.6154 0.867565 9.96025 0.952812 10.2978 1.06174C10.463 1.11384 10.6232 1.17303 10.7835 1.23697C10.7921 1.24117 10.8429 1.2603 10.8253 1.25296C10.8231 1.25203 10.8197 1.25067 10.8151 1.24881C10.7874 1.2377 10.8067 1.24574 10.8253 1.25296C10.8344 1.25651 10.8435 1.25987 10.8467 1.26065C10.8807 1.27486 10.9147 1.28907 10.9487 1.30564C11.0361 1.34353 11.1235 1.38379 11.2109 1.42641C11.5169 1.57559 11.8108 1.74372 12.0949 1.93079C12.4009 2.13444 12.5709 2.26468 12.8599 2.51805C13.1149 2.74301 13.3553 2.98454 13.5763 3.24265C13.6273 3.30185 13.6783 3.36105 13.7269 3.42262C13.7342 3.42972 13.7755 3.48182 13.7463 3.44867C13.7196 3.41552 13.7609 3.46761 13.7658 3.47472C13.7949 3.5126 13.824 3.54812 13.8508 3.58601C13.9503 3.72099 14.0475 3.85833 14.1373 3.99804C14.3219 4.28457 14.4895 4.58293 14.6327 4.89077C14.6497 4.92866 14.6667 4.96655 14.6862 5.0068C14.691 5.01614 14.717 5.0738 14.6991 5.03915C14.6989 5.03865 14.6986 5.03813 14.6983 5.03759C14.6887 5.01482 14.6931 5.02462 14.6991 5.03915C14.7038 5.05031 14.7094 5.06426 14.7105 5.06837C14.7445 5.15125 14.7785 5.23413 14.81 5.31938C14.8707 5.47803 14.9242 5.63906 14.9727 5.80245C15.0723 6.13633 15.1476 6.47732 15.1986 6.82305C15.201 6.83252 15.2083 6.90119 15.2034 6.8562C15.1986 6.81594 15.2059 6.86804 15.2059 6.87278C15.2107 6.9154 15.2156 6.96039 15.2204 7.00302C15.2294 7.08393 15.2363 7.16485 15.2431 7.2439C15.2436 7.25045 15.2442 7.25698 15.2447 7.26349C15.2642 7.45056 15.269 7.62816 15.2714 7.80576C15.2714 7.99046 15.439 8.17043 15.6357 8.16096C15.8324 8.15149 16 8.00467 16 7.80576C15.9976 6.34945 15.5799 4.90261 14.7833 3.66652C14.011 2.47069 12.9061 1.47851 11.6141 0.841517C10.2687 0.180849 8.73627 -0.108045 7.23544 0.036402C5.76133 0.178481 4.34306 0.706542 3.16523 1.58506C1.98739 2.46359 1.08155 3.631 0.53756 4.97602C-0.00157338 6.31156 -0.125428 7.77498 0.122282 9.18393C0.357849 10.5266 0.918839 11.81 1.60368 12.9893C2.28853 14.1685 3.11909 15.2673 4.01521 16.2997C4.74377 17.138 5.52333 17.936 6.34174 18.6914C6.77402 19.0916 7.21844 19.4823 7.67743 19.8517C7.69686 19.8683 7.71872 19.8849 7.74058 19.9014C7.90814 20.0317 8.08786 20.034 8.25542 19.9014C8.51771 19.6954 8.7727 19.4752 9.02284 19.255C9.66154 18.6961 10.276 18.1089 10.8637 17.5027C11.6675 16.6739 12.4228 15.8024 13.1125 14.8837C13.8508 13.9033 14.5137 12.8638 15.0262 11.7532C15.5386 10.6402 15.9077 9.46098 15.9854 8.23673C15.9951 8.09229 16 7.94547 16 7.80103C16 7.61632 15.8324 7.43636 15.6357 7.44583C15.4366 7.45767 15.2714 7.60685 15.2714 7.80576Z" fill="#FF5C00"/>
<path fill-rule="evenodd" clip-rule="evenodd" d="M15.218 8.66297C15.252 8.37881 15.2714 8.09229 15.2714 7.80576C15.269 7.62816 15.2642 7.45056 15.2447 7.26349L15.2431 7.2439C15.2363 7.16485 15.2294 7.08393 15.2204 7.00302L15.2059 6.87278C15.2059 6.86804 15.1986 6.81594 15.2034 6.8562C15.2083 6.90119 15.201 6.83252 15.1986 6.82305C15.1476 6.47732 15.0723 6.13633 14.9727 5.80245C14.9242 5.63906 14.8707 5.47803 14.81 5.31938C14.7785 5.23413 14.7445 5.15125 14.7105 5.06837C14.7094 5.06426 14.7038 5.05031 14.6991 5.03915C14.6989 5.03865 14.6986 5.03813 14.6983 5.03759C14.6887 5.01482 14.6931 5.02462 14.6991 5.03915C14.717 5.0738 14.691 5.01614 14.6862 5.0068C14.6667 4.96655 14.6497 4.92866 14.6327 4.89077C14.4895 4.58293 14.3219 4.28457 14.1373 3.99804C14.0475 3.85833 13.9503 3.72099 13.8508 3.58601C13.824 3.54812 13.7949 3.5126 13.7658 3.47472C13.7609 3.46761 13.7196 3.41552 13.7463 3.44867C13.7755 3.48182 13.7342 3.42972 13.7269 3.42262C13.6783 3.36105 13.6273 3.30185 13.5763 3.24265C13.3553 2.98454 13.1149 2.74301 12.8599 2.51805C12.5709 2.26468 12.4009 2.13444 12.0949 1.93079C11.8108 1.74372 11.5169 1.57559 11.2109 1.42641C11.1235 1.38379 11.0361 1.34353 10.9487 1.30564C10.9147 1.28907 10.8807 1.27486 10.8467 1.26065C10.8435 1.25987 10.8344 1.25651 10.8253 1.25296C10.8429 1.2603 10.7921 1.24117 10.7835 1.23697C10.6232 1.17303 10.463 1.11384 10.2978 1.06174C9.96025 0.952812 9.6154 0.867565 9.26569 0.805997C9.17341 0.789421 9.0787 0.775213 8.98641 0.761005C8.9767 0.758637 8.90627 0.751534 8.95241 0.75627C8.99855 0.761006 8.92813 0.753901 8.91841 0.751533C8.87956 0.749165 8.8407 0.744429 8.80184 0.739694C8.61727 0.72075 8.43028 0.70891 8.24571 0.701806C7.87657 0.689966 7.50987 0.701806 7.14316 0.742062C7.10373 0.746109 7.06608 0.751884 7.02868 0.756434C7.01264 0.75881 6.956 0.766548 6.94159 0.768109C6.85416 0.779949 6.76674 0.794157 6.67931 0.810733C6.50688 0.841517 6.33446 0.879405 6.16446 0.922028C5.82447 1.00728 5.48933 1.11857 5.16391 1.24881C5.1613 1.24992 5.15925 1.2508 5.15767 1.25148C5.19624 1.23562 5.13737 1.26022 5.15767 1.25148C5.15469 1.2527 5.15113 1.25417 5.14691 1.25591C5.12748 1.26539 5.10805 1.27249 5.08862 1.28196C5.04977 1.29854 5.01091 1.31748 4.97205 1.33406C4.89434 1.36958 4.81906 1.4051 4.74134 1.44299C4.58835 1.51639 4.44021 1.5969 4.29207 1.68215C4.14635 1.7674 4.00307 1.85501 3.86222 1.94973C3.78693 1.99946 3.71408 2.05156 3.64122 2.10365C3.60967 2.12783 3.57811 2.14996 3.54656 2.17384C3.55136 2.17048 3.5514 2.17072 3.53679 2.1818L3.50036 2.21021C3.22594 2.42333 2.96852 2.65303 2.72566 2.8993C2.60667 3.0177 2.49495 3.14083 2.38567 3.2687C2.32981 3.33264 2.27882 3.39894 2.22539 3.46288C2.2691 3.41078 2.19867 3.4984 2.18653 3.51497C2.16225 3.54812 2.13553 3.58128 2.11125 3.61443C1.90968 3.88675 1.72511 4.17327 1.5624 4.47164C1.48226 4.61845 1.40697 4.77 1.33655 4.92156C1.31712 4.96418 1.29769 5.00917 1.27826 5.05179C1.3074 4.99023 1.26126 5.09205 1.25398 5.11336C1.2224 5.19151 1.19083 5.27202 1.16169 5.35016C1.04512 5.66984 0.947981 5.99899 0.875126 6.33051C0.836269 6.50574 0.804698 6.68097 0.780413 6.8562C0.779967 6.85881 0.779592 6.86091 0.779283 6.86258C0.778943 6.86599 0.778515 6.87014 0.777984 6.87514L0.770699 6.93908L0.756128 7.06932L0.754528 7.08749C0.747788 7.164 0.741201 7.23878 0.7367 7.31559C0.714843 7.65184 0.717271 7.9881 0.741557 8.32435C0.746414 8.40723 0.753699 8.49011 0.763413 8.57299C0.76827 8.60614 0.770699 8.64166 0.775556 8.67481C0.780413 8.69849 0.794984 8.80742 0.782841 8.72691C0.804698 8.88793 0.83384 9.04895 0.865411 9.20761C0.930982 9.52729 1.01355 9.83986 1.11069 10.1501C1.20783 10.4603 1.32197 10.7634 1.44583 11.0641C1.46283 11.1067 1.48226 11.1494 1.49926 11.192C1.50654 11.2109 1.51626 11.2299 1.52354 11.2488C1.55269 11.3199 1.58668 11.3909 1.61826 11.4596C1.68868 11.6135 1.76397 11.7674 1.84168 11.919C2.14525 12.5133 2.49253 13.0887 2.86652 13.6428C3.05352 13.9199 3.2478 14.1922 3.44694 14.4598C3.54894 14.5948 3.6485 14.7274 3.75293 14.86C3.7675 14.8789 3.7845 14.9002 3.79907 14.9192C3.80222 14.9233 3.81141 14.9339 3.8185 14.9429C3.8111 14.934 3.81279 14.9354 3.8185 14.9429C3.82786 14.9547 3.8337 14.9631 3.8185 14.9429C3.82965 14.9575 3.85661 14.9927 3.86464 15.0021C3.91564 15.066 3.96421 15.1276 4.01521 15.1891C4.40621 15.6698 4.81663 16.1363 5.24162 16.591C5.90946 17.3061 6.61374 17.9905 7.34715 18.6393C7.55621 18.8246 7.76772 19.0099 7.98432 19.1884C8.21083 18.9975 8.44244 18.8112 8.66342 18.6132C9.32398 18.0284 9.95539 17.4127 10.5625 16.7757C10.9414 16.3755 11.3105 15.9658 11.6675 15.5443C11.7598 15.4354 11.8521 15.3265 11.9419 15.2152C11.9881 15.1584 12.0366 15.1015 12.0828 15.0423C12.1046 15.0139 12.1265 14.9879 12.1484 14.9594C12.1824 14.9192 12.1144 15.0044 12.1484 14.9618L12.1775 14.9263C12.3621 14.6895 12.5442 14.4503 12.7191 14.2088C13.0785 13.7163 13.4136 13.2071 13.722 12.6838C13.8775 12.421 14.0232 12.1534 14.1616 11.8834C14.2296 11.7508 14.2952 11.6182 14.3583 11.4832C14.3923 11.4146 14.4239 11.3459 14.4555 11.2749C14.4685 11.243 14.4836 11.2092 14.4988 11.1752C14.5039 11.1632 14.5118 11.1448 14.5162 11.1351C14.7493 10.5905 14.9412 10.0269 15.0747 9.45151C15.1087 9.30706 15.1379 9.16262 15.1646 9.01817C15.1792 8.94476 15.1889 8.87372 15.201 8.80032C15.2034 8.7719 15.2156 8.69139 15.2059 8.7648C15.2107 8.73164 15.2132 8.69612 15.218 8.66297ZM5.15767 1.25148C5.19624 1.23562 5.13737 1.26022 5.15767 1.25148V1.25148Z" fill="#FF5C00"/>
<path d="M9.68119 7.80582C9.68119 7.85554 9.67876 7.90527 9.67633 7.955C9.6739 7.98341 9.67147 8.00946 9.66905 8.03551C9.67147 8.0213 9.68119 7.96921 9.66905 8.03788C9.65205 8.1326 9.63019 8.22732 9.60105 8.3173C9.58633 8.36034 9.57161 8.4034 9.55375 8.44644C9.55098 8.45312 9.54813 8.4598 9.54519 8.46648C9.55021 8.45506 9.55285 8.44884 9.55375 8.44644C9.55806 8.43489 9.52208 8.51155 9.51605 8.52331C9.46991 8.61093 9.41648 8.69381 9.36062 8.77669C9.35091 8.7909 9.30719 8.84536 9.35091 8.7909C9.33876 8.80747 9.32419 8.82405 9.30962 8.83826C9.28291 8.86904 9.25377 8.89982 9.22462 8.93061C9.19062 8.96376 9.15663 8.99691 9.12263 9.0277C9.1032 9.04427 9.08377 9.06322 9.06191 9.07979C9.05817 9.08223 9.03904 9.09716 9.02593 9.10758C9.01353 9.11743 9.00653 9.12324 9.02306 9.11058C9.03981 9.09809 9.03617 9.10041 9.02593 9.10758C9.01094 9.11808 8.98177 9.13899 8.98177 9.13899C8.96477 9.15083 8.94777 9.16267 8.92834 9.17451C8.89192 9.19819 8.85549 9.2195 8.81906 9.23845C8.77292 9.26449 8.72435 9.28581 8.67578 9.30949C8.66363 9.31422 8.61264 9.33553 8.67335 9.31185C8.64421 9.32369 8.61264 9.33553 8.58349 9.34501C8.49607 9.37579 8.40621 9.39947 8.31636 9.41841C8.29936 9.42078 8.15607 9.44209 8.23378 9.43499C8.17793 9.44209 8.12207 9.44446 8.06622 9.44683C7.96908 9.4492 7.87436 9.44446 7.77722 9.43736C7.77251 9.43683 7.76898 9.43647 7.76643 9.43625C7.73543 9.4336 7.8495 9.45174 7.76357 9.43604C7.76357 9.43604 7.75981 9.43536 7.75779 9.43499C7.73594 9.43025 7.71408 9.42789 7.69222 9.42315C7.6388 9.41368 7.58537 9.39947 7.53194 9.38526C7.49066 9.37342 7.44937 9.36158 7.40809 9.34737C7.3838 9.3379 7.35709 9.32843 7.3328 9.31896C7.3291 9.3176 7.32617 9.31657 7.32391 9.31582C7.29058 9.30475 7.40222 9.35399 7.3158 9.31185C7.2308 9.26923 7.1458 9.22661 7.06323 9.17451C7.04623 9.16267 7.02681 9.15083 7.00981 9.13899C7.00981 9.13899 6.99189 9.12646 6.97638 9.1154C6.95967 9.10349 6.94711 9.09461 6.96852 9.11058C6.98261 9.12108 6.98256 9.12056 6.97638 9.1154C6.96444 9.10544 6.92967 9.07979 6.92967 9.07979C6.91267 9.06558 6.89809 9.05374 6.88109 9.03954C6.81067 8.97797 6.74267 8.91167 6.68196 8.83826C6.68196 8.83826 6.66855 8.82135 6.65663 8.8068C6.64377 8.79111 6.634 8.77948 6.65038 8.80037C6.66154 8.81421 6.66126 8.81319 6.65663 8.8068C6.65016 8.79787 6.6352 8.77846 6.63096 8.77432C6.60424 8.73643 6.57753 8.69618 6.55324 8.65829C6.53139 8.62277 6.50953 8.58725 6.4901 8.54936C6.47796 8.52568 6.46582 8.502 6.45367 8.47832C6.44978 8.47073 6.44588 8.46313 6.44236 8.45554L6.44066 8.4518C6.43826 8.44643 6.43608 8.44107 6.43425 8.4357C6.43683 8.44226 6.43898 8.44763 6.44066 8.4518C6.44581 8.46459 6.44661 8.46605 6.44236 8.45554L6.44066 8.4518L6.4391 8.44754C6.4051 8.36466 6.37596 8.27941 6.3541 8.1918C6.34196 8.14444 6.33225 8.09708 6.32253 8.04972C6.3201 8.04025 6.31039 7.97157 6.31768 8.01657C6.32253 8.05919 6.31282 7.9621 6.31282 7.95026C6.30553 7.85554 6.30553 7.76319 6.31039 7.66847C6.31282 7.64006 6.31525 7.61401 6.31768 7.58559L6.31807 7.58085C6.32167 7.5354 6.30826 7.63832 6.31768 7.58323L6.31807 7.58085C6.32772 7.5225 6.33973 7.46643 6.3541 7.41036C6.37596 7.32748 6.40267 7.24697 6.43425 7.16883C6.43546 7.16568 6.43657 7.16278 6.43758 7.16012C6.46705 7.08272 6.41571 7.2049 6.44153 7.15225C6.45367 7.12857 6.46339 7.10489 6.47553 7.08121C6.49982 7.03385 6.52653 6.98886 6.55324 6.94387C6.5751 6.90835 6.59939 6.87283 6.62367 6.83968C6.63286 6.82713 6.64205 6.81459 6.65124 6.80204C6.65419 6.79801 6.65715 6.79398 6.6601 6.78995C6.63501 6.82305 6.64041 6.81592 6.65124 6.80204C6.65823 6.79309 6.66748 6.78132 6.67224 6.77574C6.73781 6.69997 6.80581 6.62893 6.88109 6.56262C6.91267 6.53421 6.94424 6.50816 6.97824 6.48211C6.91995 6.5271 7.03166 6.44659 7.04623 6.43712C7.13123 6.38266 7.22109 6.33767 7.31094 6.29267C7.31545 6.29039 7.31937 6.2884 7.32276 6.28669C7.36499 6.2653 7.32461 6.28592 7.31337 6.29031C7.31647 6.2891 7.3196 6.28789 7.32276 6.28669C7.34442 6.27842 7.36747 6.27015 7.38866 6.26189C7.4348 6.24531 7.48094 6.23111 7.52708 6.2169C7.56837 6.20506 7.61208 6.19559 7.65337 6.18611C7.67522 6.18138 7.69708 6.17664 7.71894 6.17427C7.74079 6.16954 7.81851 6.16243 7.75294 6.16717C7.85493 6.1577 7.95693 6.15296 8.05893 6.15533C8.10507 6.1577 8.14879 6.16007 8.19493 6.1648C8.19784 6.165 8.20057 6.16517 8.20311 6.16534C8.29373 6.17115 8.15294 6.15796 8.21436 6.16717C8.24107 6.17191 8.26779 6.17664 8.29693 6.18138C8.40864 6.20269 8.51792 6.23347 8.62721 6.27373C8.63048 6.27453 8.63982 6.27801 8.64918 6.28165C8.66761 6.28881 8.68615 6.29656 8.65878 6.28557C8.65306 6.28313 8.64918 6.28165 8.64918 6.28165C8.64395 6.28006 8.70878 6.30995 8.71706 6.31399C8.76563 6.33767 8.81177 6.36134 8.85792 6.38976C8.90892 6.41818 8.95506 6.45133 9.00363 6.48448C9.00794 6.48763 9.01944 6.49592 9.02621 6.50064C9.03469 6.50655 9.03576 6.50686 9.00606 6.48448C9.01277 6.48972 9.01949 6.49514 9.02621 6.50064C9.04378 6.51503 9.06134 6.52998 9.07891 6.54368C9.15905 6.61235 9.23434 6.68576 9.30234 6.7639C9.31112 6.7739 9.31904 6.78302 9.32712 6.79234C9.33245 6.79847 9.33784 6.80468 9.34362 6.81126C9.32544 6.7891 9.32291 6.78652 9.32712 6.79234C9.33416 6.80206 9.36001 6.83523 9.36305 6.83968C9.39462 6.8823 9.42133 6.92492 9.44805 6.96992C9.47476 7.01491 9.49905 7.0599 9.52333 7.10726C9.53305 7.1262 9.54276 7.14515 9.55005 7.16409C9.51848 7.09542 9.55733 7.18067 9.56219 7.19488C9.60105 7.29433 9.63019 7.39615 9.65205 7.50035C9.65254 7.50301 9.65305 7.50568 9.65354 7.50835C9.65775 7.53125 9.66173 7.55437 9.66599 7.57923L9.66662 7.58086C9.67083 7.60343 9.66956 7.60289 9.66599 7.57923C9.66769 7.59161 9.66905 7.604 9.66905 7.61638C9.67876 7.68268 9.68119 7.74425 9.68119 7.80582C9.68362 7.99052 9.84876 8.17049 10.0455 8.16101C10.2242 8.15241 10.381 8.03035 10.4062 7.85885C10.4088 7.84165 10.41 7.82395 10.4097 7.80582C10.4025 6.81126 9.76133 5.93511 8.80692 5.58938C7.88408 5.2555 6.77181 5.54676 6.15011 6.29031C5.50412 7.0599 5.39241 8.15865 5.92668 9.02059C6.45853 9.87543 7.49308 10.3017 8.49121 10.1075C9.58301 9.89551 10.3716 8.92729 10.4062 7.85885C10.4068 7.8412 10.4072 7.82352 10.4073 7.80582C10.4097 7.62111 10.2397 7.44115 10.043 7.45062C9.84633 7.45772 9.68362 7.6069 9.68119 7.80582Z" fill="white"/>
<path fill-rule="evenodd" clip-rule="evenodd" d="M9.65205 7.50035C9.65254 7.50301 9.65305 7.50568 9.65354 7.50835C9.65775 7.53125 9.66173 7.55437 9.66599 7.57923L9.66419 7.56665C9.6606 7.54617 9.6571 7.52745 9.65354 7.50835L9.65205 7.50035Z" fill="white"/>
<path fill-rule="evenodd" clip-rule="evenodd" d="M9.67633 7.955C9.67876 7.90527 9.68119 7.85554 9.68119 7.80582C9.68119 7.74425 9.67876 7.68268 9.66905 7.61638C9.66905 7.604 9.66769 7.59161 9.66599 7.57923C9.66173 7.55437 9.65775 7.53125 9.65354 7.50835C9.6571 7.52745 9.6606 7.54617 9.66419 7.56665L9.66599 7.57923L9.66662 7.58086C9.67083 7.60343 9.66956 7.60289 9.66599 7.57923C9.66769 7.59161 9.66905 7.604 9.66905 7.61638C9.67876 7.68268 9.68119 7.74425 9.68119 7.80582C9.68362 7.6069 9.84633 7.45772 10.043 7.45062C10.2397 7.44115 10.4097 7.62111 10.4073 7.80582C10.4072 7.82352 10.4068 7.8412 10.4062 7.85885C10.4088 7.84165 10.41 7.82395 10.4097 7.80582C10.4025 6.81126 9.76133 5.93511 8.80692 5.58938C7.88408 5.2555 6.77181 5.54676 6.15011 6.29031C5.50412 7.0599 5.39241 8.15865 5.92668 9.02059C6.45853 9.87543 7.49308 10.3017 8.49121 10.1075C9.58301 9.89551 10.3716 8.92729 10.4062 7.85885C10.381 8.03035 10.2242 8.15241 10.0455 8.16101C9.84876 8.17049 9.68362 7.99052 9.68119 7.80582C9.68119 7.85554 9.67876 7.90527 9.67633 7.955C9.6739 7.98341 9.67147 8.00946 9.66905 8.03551C9.67147 8.0213 9.68119 7.96921 9.66905 8.03788C9.65205 8.1326 9.63019 8.22732 9.60105 8.3173C9.58633 8.36034 9.57161 8.4034 9.55375 8.44644C9.55285 8.44884 9.55021 8.45506 9.54519 8.46648L9.55375 8.44644C9.55806 8.43489 9.52208 8.51155 9.51605 8.52331C9.46991 8.61093 9.41648 8.69381 9.36062 8.77669C9.35091 8.7909 9.30719 8.84536 9.35091 8.7909C9.33876 8.80747 9.32419 8.82405 9.30962 8.83826C9.28291 8.86904 9.25377 8.89982 9.22462 8.93061C9.19062 8.96376 9.15663 8.99691 9.12263 9.0277C9.1032 9.04427 9.08377 9.06322 9.06191 9.07979C9.05817 9.08223 9.03904 9.09716 9.02593 9.10758C9.03617 9.10041 9.03981 9.09809 9.02306 9.11058C9.00653 9.12324 9.01353 9.11743 9.02593 9.10758C9.01094 9.11808 8.98177 9.13899 8.98177 9.13899C8.96477 9.15083 8.94777 9.16267 8.92834 9.17451C8.89192 9.19819 8.85549 9.2195 8.81906 9.23845C8.77292 9.26449 8.72435 9.28581 8.67578 9.30949C8.66363 9.31422 8.61264 9.33553 8.67335 9.31185C8.64421 9.32369 8.61264 9.33553 8.58349 9.34501C8.49607 9.37579 8.40621 9.39947 8.31636 9.41841C8.29936 9.42078 8.15607 9.44209 8.23378 9.43499C8.17793 9.44209 8.12207 9.44446 8.06622 9.44683C7.96908 9.4492 7.87436 9.44446 7.77722 9.43736L7.76643 9.43625C7.76528 9.43615 7.76433 9.43608 7.76357 9.43604L7.76643 9.43625L7.77722 9.43736C7.87436 9.44446 7.96908 9.4492 8.06622 9.44683C8.12207 9.44446 8.17793 9.44209 8.23378 9.43499C8.15607 9.44209 8.29936 9.42078 8.31636 9.41841C8.40621 9.39947 8.49607 9.37579 8.58349 9.34501C8.61264 9.33553 8.64421 9.32369 8.67335 9.31185C8.61264 9.33553 8.66363 9.31422 8.67578 9.30949C8.72435 9.28581 8.77292 9.26449 8.81906 9.23845C8.85549 9.2195 8.89192 9.19819 8.92834 9.17451C8.94777 9.16267 8.96477 9.15083 8.98177 9.13899C8.98177 9.13899 9.01094 9.11808 9.02593 9.10758C9.03904 9.09716 9.05817 9.08223 9.06191 9.07979C9.08377 9.06322 9.1032 9.04427 9.12263 9.0277C9.15663 8.99691 9.19062 8.96376 9.22462 8.93061C9.25377 8.89982 9.28291 8.86904 9.30962 8.83826C9.32419 8.82405 9.33876 8.80747 9.35091 8.7909C9.30719 8.84536 9.35091 8.7909 9.36062 8.77669C9.41648 8.69381 9.46991 8.61093 9.51605 8.52331C9.52208 8.51155 9.55806 8.43489 9.55375 8.44644C9.57161 8.4034 9.58633 8.36034 9.60105 8.3173C9.63019 8.22732 9.65205 8.1326 9.66905 8.03788C9.68119 7.96921 9.67147 8.0213 9.66905 8.03551C9.67147 8.00946 9.6739 7.98341 9.67633 7.955ZM7.69222 9.42315C7.71408 9.42789 7.73594 9.43025 7.75779 9.43499L7.76357 9.43604C7.76433 9.43608 7.76528 9.43615 7.76643 9.43625L7.76357 9.43604C7.7436 9.4349 7.84632 9.45116 7.76357 9.43604L7.75779 9.43499C7.73594 9.43025 7.71408 9.42789 7.69222 9.42315C7.6388 9.41368 7.58537 9.39947 7.53194 9.38526C7.49066 9.37342 7.44937 9.36158 7.40809 9.34737C7.3838 9.3379 7.35709 9.32843 7.3328 9.31896L7.32391 9.31582C7.29171 9.30513 7.39483 9.35072 7.32391 9.31582L7.3158 9.31185C7.2308 9.26923 7.1458 9.22661 7.06323 9.17451C7.04623 9.16267 7.02681 9.15083 7.00981 9.13899L6.97638 9.1154C6.98256 9.12056 6.98261 9.12108 6.96852 9.11058C6.94711 9.09461 6.95967 9.10349 6.97638 9.1154C6.96444 9.10544 6.92967 9.07979 6.92967 9.07979L6.88109 9.03954C6.81067 8.97797 6.74267 8.91167 6.68196 8.83826C6.68196 8.83826 6.66855 8.82135 6.65663 8.8068C6.66126 8.81319 6.66154 8.81421 6.65038 8.80037C6.634 8.77948 6.64377 8.79111 6.65663 8.8068C6.65016 8.79787 6.6352 8.77846 6.63096 8.77432C6.60424 8.73643 6.57753 8.69618 6.55324 8.65829C6.53139 8.62277 6.50953 8.58725 6.4901 8.54936L6.45367 8.47832C6.44978 8.47073 6.44588 8.46313 6.44236 8.45554C6.44661 8.46605 6.44581 8.46459 6.44066 8.4518C6.43826 8.44643 6.43608 8.44107 6.43425 8.4357L6.44066 8.4518L6.4391 8.44754C6.4051 8.36466 6.37596 8.27941 6.3541 8.1918C6.34196 8.14444 6.33225 8.09708 6.32253 8.04972C6.3201 8.04025 6.31039 7.97157 6.31768 8.01657C6.32253 8.05919 6.31282 7.9621 6.31282 7.95026C6.30553 7.85554 6.30553 7.76319 6.31039 7.66847L6.31768 7.58559L6.31807 7.58085L6.31768 7.58323C6.30826 7.63832 6.32167 7.5354 6.31807 7.58085C6.32772 7.5225 6.33973 7.46643 6.3541 7.41036C6.37596 7.32748 6.40267 7.24697 6.43425 7.16883L6.43758 7.16012C6.46522 7.08752 6.42176 7.19052 6.43758 7.16012L6.44153 7.15225C6.45367 7.12857 6.46339 7.10489 6.47553 7.08121C6.49982 7.03385 6.52653 6.98886 6.55324 6.94387C6.5751 6.90835 6.59939 6.87283 6.62367 6.83968L6.65124 6.80204C6.64041 6.81592 6.63501 6.82305 6.6601 6.78995L6.65124 6.80204C6.65823 6.79309 6.66748 6.78132 6.67224 6.77574C6.73781 6.69997 6.80581 6.62893 6.88109 6.56262C6.91267 6.53421 6.94424 6.50816 6.97824 6.48211C6.91995 6.5271 7.03166 6.44659 7.04623 6.43712C7.13123 6.38266 7.22109 6.33767 7.31094 6.29267L7.32276 6.28669L7.31337 6.29031C7.32461 6.28592 7.36499 6.2653 7.32276 6.28669C7.34442 6.27842 7.36747 6.27015 7.38866 6.26189C7.4348 6.24531 7.48094 6.23111 7.52708 6.2169C7.56837 6.20506 7.61208 6.19559 7.65337 6.18611C7.67522 6.18138 7.69708 6.17664 7.71894 6.17427C7.74079 6.16954 7.81851 6.16243 7.75294 6.16717C7.85493 6.1577 7.95693 6.15296 8.05893 6.15533C8.10507 6.1577 8.14879 6.16007 8.19493 6.1648L8.20311 6.16534C8.28632 6.17067 8.17441 6.15999 8.20311 6.16534L8.21436 6.16717C8.24107 6.17191 8.26779 6.17664 8.29693 6.18138C8.40864 6.20269 8.51792 6.23347 8.62721 6.27373C8.63048 6.27453 8.63982 6.27801 8.64918 6.28165C8.66761 6.28881 8.68615 6.29656 8.65878 6.28557L8.64918 6.28165C8.64395 6.28006 8.70878 6.30995 8.71706 6.31399C8.76563 6.33767 8.81177 6.36134 8.85792 6.38976C8.90892 6.41818 8.95506 6.45133 9.00363 6.48448C9.00794 6.48763 9.01944 6.49592 9.02621 6.50064C9.01949 6.49514 9.01277 6.48972 9.00606 6.48448C9.03576 6.50686 9.03469 6.50655 9.02621 6.50064C9.04378 6.51503 9.06134 6.52998 9.07891 6.54368C9.15905 6.61235 9.23434 6.68576 9.30234 6.7639L9.32712 6.79234C9.32291 6.78652 9.32544 6.7891 9.34362 6.81126L9.32712 6.79234C9.33416 6.80206 9.36001 6.83523 9.36305 6.83968C9.39462 6.8823 9.42133 6.92492 9.44805 6.96992C9.47476 7.01491 9.49905 7.0599 9.52333 7.10726C9.53305 7.1262 9.54276 7.14515 9.55005 7.16409C9.51848 7.09542 9.55733 7.18067 9.56219 7.19488C9.60105 7.29433 9.63019 7.39615 9.65205 7.50035L9.65354 7.50835C9.65775 7.53125 9.66173 7.55437 9.66599 7.57923L9.66419 7.56665C9.6606 7.54617 9.6571 7.52745 9.65354 7.50835L9.65205 7.50035C9.63019 7.39615 9.60105 7.29433 9.56219 7.19488C9.55733 7.18067 9.51848 7.09542 9.55005 7.16409C9.54276 7.14515 9.53305 7.1262 9.52333 7.10726C9.49905 7.0599 9.47476 7.01491 9.44805 6.96992C9.42133 6.92492 9.39462 6.8823 9.36305 6.83968C9.36001 6.83523 9.33416 6.80206 9.32712 6.79234L9.30234 6.7639C9.23434 6.68576 9.15905 6.61235 9.07891 6.54368C9.06134 6.52998 9.04378 6.51503 9.02621 6.50064C9.01944 6.49592 9.00794 6.48763 9.00363 6.48448C8.95506 6.45133 8.90892 6.41818 8.85792 6.38976C8.81177 6.36134 8.76563 6.33767 8.71706 6.31399C8.70878 6.30995 8.64395 6.28006 8.64918 6.28165C8.63982 6.27801 8.63048 6.27453 8.62721 6.27373C8.51792 6.23347 8.40864 6.20269 8.29693 6.18138C8.26779 6.17664 8.24107 6.17191 8.21436 6.16717C8.20933 6.16642 8.20566 6.16581 8.20311 6.16534L8.19493 6.1648C8.14879 6.16007 8.10507 6.1577 8.05893 6.15533C7.95693 6.15296 7.85493 6.1577 7.75294 6.16717C7.81851 6.16243 7.74079 6.16954 7.71894 6.17427C7.69708 6.17664 7.67522 6.18138 7.65337 6.18611C7.61208 6.19559 7.56837 6.20506 7.52708 6.2169C7.48094 6.23111 7.4348 6.24531 7.38866 6.26189C7.36747 6.27015 7.34442 6.27842 7.32276 6.28669L7.31094 6.29267C7.22109 6.33767 7.13123 6.38266 7.04623 6.43712C7.03166 6.44659 6.91995 6.5271 6.97824 6.48211C6.94424 6.50816 6.91267 6.53421 6.88109 6.56262C6.80581 6.62893 6.73781 6.69997 6.67224 6.77574C6.66748 6.78132 6.65823 6.79309 6.65124 6.80204L6.62367 6.83968C6.59939 6.87283 6.5751 6.90835 6.55324 6.94387C6.52653 6.98886 6.49982 7.03385 6.47553 7.08121C6.46339 7.10489 6.45367 7.12857 6.44153 7.15225C6.43993 7.15552 6.43863 7.15811 6.43758 7.16012L6.43425 7.16883C6.40267 7.24697 6.37596 7.32748 6.3541 7.41036C6.33973 7.46643 6.32772 7.5225 6.31807 7.58085L6.31768 7.58559L6.31039 7.66847C6.30553 7.76319 6.30553 7.85554 6.31282 7.95026C6.31282 7.9621 6.32253 8.05919 6.31768 8.01657C6.31039 7.97157 6.3201 8.04025 6.32253 8.04972C6.33225 8.09708 6.34196 8.14444 6.3541 8.1918C6.37596 8.27941 6.4051 8.36466 6.4391 8.44754L6.44236 8.45554C6.44588 8.46313 6.44978 8.47073 6.45367 8.47832L6.4901 8.54936C6.50953 8.58725 6.53139 8.62277 6.55324 8.65829C6.57753 8.69618 6.60424 8.73643 6.63096 8.77432C6.6352 8.77846 6.65016 8.79787 6.65663 8.8068C6.66855 8.82135 6.68196 8.83826 6.68196 8.83826C6.74267 8.91167 6.81067 8.97797 6.88109 9.03954L6.92967 9.07979C6.92967 9.07979 6.96444 9.10544 6.97638 9.1154L7.00981 9.13899C7.02681 9.15083 7.04623 9.16267 7.06323 9.17451C7.1458 9.22661 7.2308 9.26923 7.3158 9.31185C7.31872 9.31328 7.32142 9.3146 7.32391 9.31582L7.3328 9.31896C7.35709 9.32843 7.3838 9.3379 7.40809 9.34737C7.44937 9.36158 7.49066 9.37342 7.53194 9.38526C7.58537 9.39947 7.6388 9.41368 7.69222 9.42315ZM7.32391 9.31582L7.3158 9.31185C7.31872 9.31328 7.32142 9.3146 7.32391 9.31582Z" fill="white"/>
</svg>
