<svg width="16" height="17" viewBox="0 0 16 17" fill="none" xmlns="http://www.w3.org/2000/svg">
<path d="M7.66652 0.749519C7.78106 0.439939 8.21892 0.439939 8.33345 0.74952L10.2677 5.97767C10.3039 6.07553 10.3812 6.15254 10.4793 6.18831L15.7365 8.10675C16.0481 8.22044 16.0481 8.66108 15.7365 8.77477L10.4793 10.6932C10.3812 10.729 10.3039 10.806 10.2677 10.9039L8.33345 16.132C8.21892 16.4416 7.78105 16.4416 7.66652 16.132L5.7323 10.9039C5.6961 10.806 5.61874 10.729 5.52072 10.6932L0.263455 8.77477C-0.0481055 8.66108 -0.0481046 8.22044 0.263456 8.10675L5.52072 6.18831C5.61874 6.15254 5.6961 6.07553 5.7323 5.97767L7.66652 0.749519Z" fill="#FBC01A"/>
<path d="M4.52113 3.14191C4.46467 2.81589 4.84507 2.59626 5.09918 2.80817L8.59045 5.71958C8.67058 5.78641 8.77602 5.81466 8.87884 5.79686L13.3581 5.02113C13.6841 4.96467 13.9037 5.34507 13.6918 5.59918L10.7804 9.09045C10.7136 9.17058 10.6853 9.27602 10.7031 9.37884L11.4788 13.8581C11.5353 14.1841 11.1549 14.4037 10.9008 14.1918L7.40953 11.2804C7.32939 11.2136 7.22395 11.1853 7.12114 11.2031L2.64191 11.9788C2.31589 12.0353 2.09626 11.6549 2.30817 11.4008L5.21958 7.90953C5.28641 7.82939 5.31466 7.72395 5.29686 7.62114L4.52113 3.14191Z" fill="#0CC4E9"/>
<path d="M11.191 10.4886C11.316 10.6704 11.1467 10.9093 10.9337 10.8517L8.3843 10.1614C8.31715 10.1433 8.24541 10.1555 8.18809 10.1949L6.01143 11.691C5.82964 11.8159 5.59072 11.6466 5.64836 11.4337L6.33859 8.88424C6.35677 8.81709 6.34453 8.74535 6.30513 8.68803L4.80907 6.51137C4.68412 6.32958 4.85344 6.09066 5.06636 6.1483L7.6158 6.83853C7.68294 6.8567 7.75468 6.84447 7.81201 6.80507L9.98867 5.30901C10.1705 5.18406 10.4094 5.35338 10.3517 5.5663L9.66151 8.11574C9.64333 8.18288 9.65556 8.25462 9.69496 8.31195L11.191 10.4886Z" fill="white"/>
</svg>
