<svg width="111" height="111" viewBox="0 0 111 111" fill="none" xmlns="http://www.w3.org/2000/svg">
<path d="M12.7371 28.065C12.4348 27.7628 12.4348 27.2729 12.7371 26.9706L31.1215 8.58613C31.4238 8.28395 31.9137 8.28395 32.2159 8.58613L102.264 78.6337C102.566 78.936 102.566 79.4264 102.264 79.7287L83.8794 98.1129C83.5771 98.4152 83.0874 98.4152 82.785 98.1129L12.7371 28.065Z" fill="#FBC01A"/>
<path d="M32.2159 98.113C31.9137 98.4153 31.4237 98.4153 31.1215 98.113L12.7371 79.7288C12.4348 79.4264 12.4348 78.9361 12.7371 78.6338L82.785 8.58618C83.0874 8.28394 83.5771 8.28394 83.8794 8.58618L102.264 26.9707C102.566 27.2728 102.566 27.7629 102.264 28.0651L32.2159 98.113Z" fill="#FBC01A"/>
<path d="M30.9502 8.98944C30.8361 8.19703 31.7473 7.67089 32.3765 8.16595L47.9477 20.4177C48.4131 20.7838 49.0997 20.5998 49.3196 20.0501L56.6788 1.65418C56.9761 0.910849 58.0284 0.910843 58.3257 1.65418L65.6847 20.0501C65.9047 20.5998 66.5916 20.7838 67.0571 20.4177L82.6278 8.16595C83.2573 7.67089 84.1688 8.19703 84.0545 8.98944L81.2299 28.6003C81.145 29.1864 81.6478 29.689 82.2341 29.6046L101.845 26.7799C102.637 26.6658 103.163 27.577 102.669 28.2062L90.4168 43.7774C90.0505 44.2428 90.2346 44.9294 90.7844 45.1493L109.18 52.5085C109.923 52.8058 109.923 53.8581 109.18 54.1555L90.7844 61.5146C90.2346 61.7346 90.0505 62.4212 90.4168 62.8865L102.669 78.458C103.163 79.0868 102.637 79.9983 101.845 79.884L82.2341 77.0594C81.6478 76.9752 81.145 77.4773 81.2299 78.0636L84.0545 97.6747C84.1688 98.4667 83.2573 98.993 82.6278 98.4981L67.0571 86.2463C66.5916 85.88 65.9047 86.0641 65.6847 86.6139L58.3257 105.01C58.0284 105.753 56.9761 105.753 56.6788 105.01L49.3196 86.6139C49.0997 86.0641 48.4131 85.88 47.9477 86.2463L32.3765 98.4981C31.7473 98.993 30.8361 98.4667 30.9502 97.6747L33.775 78.0636C33.8594 77.4773 33.3568 76.9752 32.7706 77.0594L13.1597 79.884C12.3673 79.9983 11.8412 79.0868 12.3362 78.458L24.588 62.8865C24.9541 62.4212 24.7702 61.7346 24.2204 61.5146L5.82447 54.1555C5.08114 53.8581 5.08113 52.8058 5.82447 52.5085L24.2203 45.1493C24.7702 44.9294 24.9541 44.2428 24.588 43.7774L12.3362 28.2062C11.8412 27.577 12.3673 26.6658 13.1597 26.7799L32.7706 29.6047C33.3567 29.689 33.8594 29.1864 33.775 28.6003L30.9502 8.98944Z" fill="#FF5C00"/>
<path d="M38.3831 42.8944C38.0809 42.5922 38.0809 42.1023 38.3831 41.8L45.9703 34.2128C46.2726 33.9107 46.7625 33.9107 47.0647 34.2128L76.6262 63.7744C76.9285 64.0766 76.9285 64.5666 76.6262 64.8688L69.039 72.4557C68.7367 72.758 68.247 72.758 67.9447 72.4557L38.3831 42.8944Z" fill="white"/>
<path d="M47.0647 72.4563C46.7625 72.7579 46.2725 72.7579 45.9703 72.4563L38.3831 64.8688C38.0809 64.5666 38.0809 64.0766 38.3831 63.7744L67.9447 34.2128C68.247 33.9107 68.7367 33.9107 69.039 34.2128L76.6262 41.8C76.9285 42.1023 76.9285 42.5922 76.6262 42.8944L47.0647 72.4563Z" fill="white"/>
</svg>
