<svg width="160" height="160" viewBox="0 0 160 160" fill="none" xmlns="http://www.w3.org/2000/svg">
<path d="M38.4904 92.3583L70.1125 83.2499C73.8684 82.1681 73.8309 77.0061 70.0597 75.9754L38.4391 67.3336C37.7625 67.1487 37.047 67.1437 36.3678 67.3191L2.90367 75.9613C-0.941131 76.9543 -0.977572 82.2235 2.85315 83.2662L36.3159 92.3742C37.0277 92.5679 37.7817 92.5624 38.4904 92.3583Z" fill="#FFF7E1"/>
<path d="M121.51 92.3641L89.8875 83.2557C86.1316 82.1738 86.1691 77.0119 89.9403 75.9812L121.561 67.3393C122.237 67.1544 122.953 67.1494 123.632 67.3248L157.096 75.9671C160.941 76.96 160.978 82.2293 157.147 83.272L123.684 92.38C122.972 92.5737 122.218 92.5682 121.51 92.3641Z" fill="#FFF7E1"/>
<path d="M92.5724 121.937L83.7304 89.935C82.6765 86.1864 77.1714 86.2211 76.168 89.9826L67.7788 121.984C67.6176 122.588 67.6132 123.222 67.7661 123.828L76.1556 157.111C77.1205 160.939 82.731 160.972 83.7448 157.156L92.5864 123.875C92.7554 123.239 92.7506 122.571 92.5724 121.937Z" fill="#FFF7E1"/>
<path d="M92.7137 38.0626L83.8717 69.5129C82.8178 73.2614 77.3127 73.2267 76.3092 69.4652L67.9201 38.0163C67.7589 37.4118 67.7545 36.7781 67.9074 36.1716L76.2969 2.88929C77.2618 -0.938618 82.8723 -0.972244 83.8861 2.84381L92.7277 36.1248C92.8967 36.761 92.8919 37.4288 92.7137 38.0626Z" fill="#FFF7E1"/>
<path d="M59.4948 118.383L75.3585 89.5525C77.2451 86.1239 73.4737 82.3579 70.1122 84.3136L41.9528 100.697C41.3821 101.029 40.9058 101.504 40.5699 102.077L23.0916 131.889C21.0835 135.314 24.8797 139.206 28.2891 137.218L58.0631 119.854C58.6631 119.504 59.1579 118.996 59.4948 118.383Z" fill="#FFF7E1"/>
<path d="M118.371 58.7894L89.8872 74.8465C86.4999 76.7561 82.7792 72.9387 84.7114 69.5363L100.897 41.0335C101.225 40.4559 101.695 39.9738 102.261 39.6338L131.713 21.9424C135.097 19.9099 138.943 23.7523 136.978 27.2032L119.824 57.3402C119.478 57.9475 118.976 58.4484 118.371 58.7894Z" fill="#FFF7E1"/>
<path d="M118.371 100.682L89.8873 84.6247C86.5 82.7152 82.7793 86.5325 84.7115 89.935L100.897 118.438C101.225 119.015 101.695 119.497 102.261 119.837L131.714 137.529C135.097 139.561 138.943 135.719 136.978 132.268L119.824 102.131C119.478 101.524 118.976 101.023 118.371 100.682Z" fill="#FFF7E1"/>
<path d="M59.6286 40.9098L75.4923 69.7407C77.3789 73.1693 73.6075 76.9353 70.246 74.9796L42.0866 58.5964C41.5159 58.2644 41.0396 57.7889 40.7037 57.216L23.2254 27.4046C21.2173 23.9796 25.0135 20.0873 28.4228 22.0756L58.1969 39.4394C58.7968 39.7893 59.2917 40.2975 59.6286 40.9098Z" fill="#FFF7E1"/>
</svg>
