<svg width="16" height="17" viewBox="0 0 16 17" fill="none" xmlns="http://www.w3.org/2000/svg">
<g clip-path="url(#clip0_538_3658)">
<path d="M7.58987 2.0441L4.61391 1.02661C4.4281 0.963079 4.22597 1.06221 4.16244 1.24801L3.14495 4.22398L0.319296 5.6113C0.142983 5.69787 0.0702622 5.911 0.15689 6.08728L1.5441 8.91016L0.526496 11.889C0.463028 12.0748 0.562159 12.2769 0.747933 12.3404L3.72399 13.3579L5.11126 16.1809C5.19786 16.3571 5.41094 16.4298 5.58718 16.3432L8.41017 14.9559L11.3861 15.9734C11.5719 16.0369 11.7741 15.9378 11.8376 15.752L12.8551 12.776L15.6807 11.3887C15.8571 11.3022 15.9298 11.089 15.8431 10.9127L14.4559 8.08986L15.4734 5.11399C15.5369 4.92814 15.4378 4.72599 15.2519 4.66249L12.2732 3.64495L10.8858 0.819174C10.7993 0.642905 10.5862 0.570169 10.41 0.656712L7.5842 2.0441H7.58987ZM8.56344 2.78491L13.718 7.93943C14.0273 8.24881 14.0273 8.75405 13.718 9.06343L8.56344 14.2179C8.25406 14.5273 7.74882 14.5273 7.43944 14.2179L2.28208 9.06343C1.9727 8.75405 1.9727 8.24881 2.28208 7.93943L7.4366 2.78491C7.74598 2.47553 8.25122 2.47553 8.5606 2.78491H8.56344Z" fill="#0CC4E9"/>
<path d="M7.90964 12.0073L5.11318 14.8037C5.0766 14.8404 5.02988 14.8652 4.97901 14.8751C4.92815 14.885 4.87546 14.8794 4.82773 14.8591C4.77999 14.8388 4.73939 14.8047 4.71113 14.7612C4.68287 14.7177 4.66826 14.6667 4.66915 14.6149L4.70975 12.1404C4.7102 12.1142 4.70537 12.0881 4.69554 12.0638C4.68571 12.0395 4.67109 12.0174 4.65254 11.9989C4.63399 11.9803 4.61191 11.9657 4.5876 11.9559C4.56329 11.9461 4.53726 11.9412 4.51106 11.9417L2.03286 11.9869C1.98096 11.9879 1.92989 11.9735 1.88623 11.9453C1.84257 11.9171 1.80833 11.8765 1.78791 11.8287C1.76749 11.7809 1.76184 11.7282 1.77168 11.6772C1.78151 11.6263 1.80639 11.5795 1.84311 11.5428L4.64278 8.74316C4.67905 8.70719 4.72804 8.68695 4.77918 8.68679L6.76058 8.67374C6.81615 9.31237 7.33214 9.81913 7.9748 9.86026L7.96646 11.8704C7.96631 11.9218 7.94589 11.971 7.90964 12.0073Z" fill="#FBC01A"/>
<path d="M8.17358 9.85802L8.18684 11.8722C8.187 11.9234 8.20724 11.9724 8.24321 12.0086L11.0429 14.8083C11.0795 14.845 11.1263 14.8699 11.1773 14.8797C11.2282 14.8896 11.281 14.8839 11.3288 14.8635C11.3765 14.8431 11.4171 14.8088 11.4453 14.7652C11.4735 14.7215 11.488 14.6705 11.4869 14.6186L11.4417 12.1404C11.4413 12.1142 11.4461 12.0881 11.4559 12.0638C11.4658 12.0395 11.4804 12.0174 11.4989 11.9989C11.5175 11.9803 11.5396 11.9657 11.5639 11.9559C11.5882 11.946 11.6142 11.9412 11.6404 11.9417L14.1149 11.9823C14.1668 11.9832 14.2177 11.9685 14.2612 11.9403C14.3047 11.912 14.3388 11.8714 14.3591 11.8237C14.3794 11.776 14.385 11.7233 14.3751 11.6724C14.3653 11.6215 14.3404 11.5748 14.3038 11.5382L11.5073 8.74178C11.471 8.70553 11.4218 8.68511 11.3705 8.68495L9.35782 8.67661C9.30185 9.30402 8.8014 9.80351 8.17358 9.85802Z" fill="#FBC01A"/>
<path d="M9.36053 8.47781L11.3723 8.46457C11.4234 8.46441 11.4724 8.44417 11.5087 8.4082L14.3083 5.60853C14.345 5.5719 14.3699 5.52509 14.3798 5.47413C14.3896 5.42318 14.3839 5.37041 14.3635 5.32264C14.3431 5.27486 14.3089 5.23427 14.2652 5.20608C14.2216 5.1779 14.1705 5.16341 14.1186 5.1645L11.6404 5.20968C11.6142 5.21014 11.5882 5.20531 11.5638 5.19548C11.5395 5.18565 11.5174 5.17103 11.4989 5.15248C11.4804 5.13393 11.4657 5.11184 11.4559 5.08753C11.4461 5.06322 11.4412 5.03719 11.4417 5.011L11.4823 2.53647C11.4832 2.48465 11.4686 2.43371 11.4403 2.39019C11.4121 2.34668 11.3714 2.31258 11.3237 2.29228C11.276 2.27198 11.2233 2.2664 11.1724 2.27626C11.1216 2.28613 11.0748 2.31098 11.0383 2.34763L8.2418 5.14409C8.20555 5.18041 8.18513 5.22959 8.18498 5.28095L8.17677 7.26077C8.81503 7.31775 9.3209 7.83471 9.36053 8.47781Z" fill="#FBC01A"/>
<path d="M7.97763 7.25807L7.9646 5.27911C7.96444 5.22798 7.9442 5.17899 7.90823 5.14272L5.10856 2.34305C5.07193 2.30633 5.02512 2.28145 4.97416 2.27162C4.92321 2.26178 4.87044 2.26743 4.82267 2.28785C4.77489 2.30827 4.7343 2.34251 4.70611 2.38617C4.67793 2.42983 4.66345 2.4809 4.66453 2.5328L4.70972 5.011C4.71017 5.03719 4.70534 5.06323 4.69551 5.08754C4.68568 5.11184 4.67106 5.13393 4.65251 5.15248C4.63396 5.17102 4.61187 5.18565 4.58757 5.19548C4.56326 5.20531 4.53723 5.21014 4.51103 5.20969L2.0365 5.16909C1.98468 5.16819 1.93374 5.18281 1.89022 5.21107C1.84671 5.23932 1.81261 5.27993 1.79231 5.32767C1.77201 5.3754 1.76643 5.42809 1.77629 5.47895C1.78616 5.52982 1.81102 5.57654 1.84767 5.61312L4.64413 8.40958C4.68044 8.44582 4.72962 8.46625 4.78098 8.4664L6.75833 8.4746C6.80022 7.82104 7.32368 7.2985 7.97763 7.25807Z" fill="#FBC01A"/>
</g>
<defs>
<clipPath id="clip0_538_3658">
<rect width="16" height="16" fill="white" transform="matrix(0 -1 1 0 0 16.5)"/>
</clipPath>
</defs>
</svg>
