<svg width="85" height="85" viewBox="0 0 85 85" fill="none" xmlns="http://www.w3.org/2000/svg">
<g clip-path="url(#clip0_709_5592)">
<path d="M40.2874 7.67965L24.2363 2.19177C23.2341 1.84913 22.1439 2.38378 21.8013 3.38595L16.3134 19.437L1.07297 26.9197C0.122012 27.3866 -0.270213 28.5361 0.197021 29.4869L7.67908 44.7123L2.19052 60.779C1.8482 61.7811 2.38287 62.8712 3.38485 63.2136L19.4364 68.7016L26.9188 83.9277C27.3858 84.878 28.5351 85.2701 29.4857 84.803L44.7117 77.3205L60.763 82.8085C61.7651 83.151 62.8552 82.6165 63.1977 81.6144L68.6856 65.5631L83.9262 58.0806C84.8771 57.6135 85.2692 56.4641 84.8021 55.5132L77.3202 40.2879L82.8076 24.2373C83.1506 23.235 82.6156 22.1446 81.6129 21.8022L65.5471 16.314L58.0646 1.07297C57.5975 0.12225 56.4487 -0.270058 55.4978 0.196719L40.2567 7.67965H40.2874ZM45.5383 11.6753L73.3397 39.4766C75.0085 41.1453 75.0085 43.8702 73.3397 45.539L45.5383 73.3401C43.8697 75.0089 41.1447 75.0089 39.476 73.3401L11.6594 45.539C9.99071 43.8702 9.99071 41.1453 11.6594 39.4766L39.4606 11.6753C41.1294 10.0067 43.8544 10.0067 45.523 11.6753H45.5383Z" fill="#0CC4E9"/>
<path d="M42.0118 61.4168L26.9289 76.4999C26.7316 76.6979 26.4796 76.8316 26.2052 76.885C25.9309 76.9379 25.6467 76.9082 25.3893 76.7987C25.1318 76.6892 24.9128 76.5053 24.7604 76.2702C24.608 76.0355 24.5292 75.761 24.534 75.4816L24.753 62.1347C24.7554 61.9934 24.7293 61.8531 24.6763 61.7221C24.6233 61.591 24.5444 61.4718 24.4444 61.372C24.3443 61.2717 24.2253 61.193 24.0941 61.1401C23.963 61.0867 23.8226 61.0608 23.6813 61.0635L10.315 61.3068C10.035 61.3127 9.75959 61.2345 9.5241 61.0829C9.28862 60.9309 9.10395 60.7119 8.99381 60.4541C8.88367 60.1962 8.8532 59.912 8.90627 59.6369C8.95934 59.3624 9.09348 59.1094 9.29153 58.912L24.3918 43.8119C24.5874 43.6179 24.8516 43.5087 25.1274 43.5078L35.8143 43.4375C36.114 46.8819 38.897 49.6152 42.3632 49.837L42.3183 60.679C42.3175 60.9562 42.2073 61.221 42.0118 61.4168Z" fill="#FBC01A"/>
<path d="M43.4346 49.827L43.5061 60.6908C43.507 60.9669 43.6161 61.2307 43.8101 61.4265L58.9105 76.5268C59.1079 76.7248 59.3603 76.8591 59.6354 76.9119C59.9099 76.9653 60.1947 76.9346 60.4525 76.8246C60.7097 76.7145 60.9287 76.5295 61.0808 76.2944C61.2329 76.0587 61.3111 75.7831 61.3052 75.5031L61.0614 62.1368C61.0593 61.9955 61.0851 61.8553 61.138 61.7242C61.1914 61.5931 61.2701 61.4739 61.3699 61.3741C61.4702 61.2738 61.5894 61.1951 61.7205 61.1422C61.8516 61.0888 61.9918 61.0629 62.1331 61.0656L75.4795 61.2841C75.7594 61.2889 76.034 61.2102 76.2686 61.0581C76.5032 60.9054 76.6871 60.6865 76.7966 60.4292C76.9061 60.1714 76.9363 59.8877 76.8829 59.6131C76.8301 59.3386 76.6958 59.0867 76.4983 58.8893L61.4152 43.8065C61.2194 43.6111 60.9541 43.5009 60.6774 43.5001L49.8219 43.4551C49.52 46.839 46.8208 49.533 43.4346 49.827Z" fill="#FBC01A"/>
<path d="M49.8378 42.3823L60.6884 42.3109C60.9641 42.3101 61.2283 42.2009 61.4241 42.0068L76.524 26.9066C76.7219 26.7091 76.8562 26.4566 76.9096 26.1818C76.9625 25.9069 76.9317 25.6224 76.8217 25.3647C76.7117 25.107 76.5272 24.888 76.2915 24.736C76.0563 24.584 75.7807 24.5059 75.5008 24.5118L62.1345 24.7555C61.9931 24.7579 61.8529 24.7318 61.7213 24.6788C61.5902 24.6258 61.4711 24.5469 61.3713 24.4469C61.2715 24.3468 61.1922 24.2277 61.1393 24.0966C61.0865 23.9655 61.0601 23.8251 61.0628 23.6838L61.2817 10.3373C61.2866 10.0578 61.2078 9.783 61.0552 9.54833C60.9031 9.3136 60.6836 9.12968 60.4263 9.02019C60.169 8.9107 59.8848 8.8806 59.6103 8.93384C59.3363 8.98702 59.0839 9.1211 58.887 9.31878L43.8039 24.4017C43.6084 24.5975 43.4982 24.8628 43.4974 25.1398L43.4531 35.8181C46.8956 36.1254 49.6241 38.9137 49.8378 42.3823Z" fill="#FBC01A"/>
<path d="M42.3782 35.8049L42.3079 25.1313C42.3071 24.8555 42.1979 24.5913 42.0039 24.3957L26.9037 9.29543C26.7061 9.09738 26.4537 8.96324 26.1788 8.91017C25.904 8.85709 25.6194 8.88762 25.3617 8.9977C25.104 9.10784 24.8851 9.29252 24.733 9.528C24.5811 9.76348 24.503 10.0389 24.5088 10.3189L24.7525 23.6852C24.7549 23.8265 24.7289 23.9669 24.6759 24.098C24.6229 24.2292 24.544 24.3482 24.444 24.4483C24.3439 24.5483 24.2248 24.6272 24.0937 24.6802C23.9626 24.7332 23.8222 24.7593 23.6809 24.7569L10.3344 24.5379C10.0548 24.5331 9.78007 24.6119 9.5454 24.7643C9.31067 24.9167 9.12675 25.1357 9.01726 25.3932C8.90777 25.6506 8.87767 25.9348 8.93091 26.2092C8.98409 26.4835 9.11817 26.7355 9.31585 26.9328L24.3988 42.0157C24.5946 42.2112 24.8599 42.3213 25.1369 42.3222L35.8018 42.3664C36.0278 38.8414 38.8511 36.023 42.3782 35.8049Z" fill="#FBC01A"/>
</g>
<defs>
<clipPath id="clip0_709_5592">
<rect width="85" height="85" fill="white"/>
</clipPath>
</defs>
</svg>
