<svg width="50" height="50" viewBox="0 0 50 50" fill="none" xmlns="http://www.w3.org/2000/svg">
<path fill-rule="evenodd" clip-rule="evenodd" d="M25 -5.44382e-06C11.1928 -4.23676e-06 -1.1022e-05 11.1928 -9.81496e-06 25C-8.6079e-06 38.8072 11.1928 50 25 50C38.8072 50 50 38.8072 50 25C50 11.1928 38.8071 -6.65088e-06 25 -5.44382e-06ZM17.3077 26.9231L30.3846 40.3846C31.5802 41.6154 32.9341 40.641 33.4615 40C34.3846 38.7692 33.8462 37.6923 33.4615 37.3077L21.5385 25L33.0769 13.0769C34.6154 11.5385 33.8461 10.1923 33.0769 9.61538C31.8461 8.6923 30.5128 9.23076 30 9.61538L17.3077 22.6923C15 24.6154 16.5385 26.1538 17.3077 26.9231Z" fill="white"/>
</svg>
