<svg width="85" height="71" viewBox="0 0 85 71" fill="none" xmlns="http://www.w3.org/2000/svg">
<path d="M20.8779 50.0264L41.8519 29.0522L62.826 50.0264L41.8519 71.0001L20.8779 50.0264Z" fill="#24E2AB"/>
<path d="M27.3262 14.5259L41.8521 -6.10352e-05L56.378 14.5259L41.852 29.0518L27.3262 14.5259Z" fill="#24E2AB"/>
<path d="M65.7198 10.8935C66.1114 10.5016 66.7771 10.8327 66.7007 11.3818L64.0916 30.1543C64.0388 30.5342 64.3641 30.8592 64.7436 30.8064L83.5161 28.1973C84.0654 28.121 84.3964 28.7864 84.0048 29.1784L66.0076 47.1757C65.7814 47.4013 65.4156 47.4013 65.19 47.1757L47.7225 29.708C47.4968 29.4823 47.4968 29.1164 47.7225 28.8907L65.7198 10.8935Z" fill="#FBC01A"/>
<path d="M0.171176 29.1784C-0.220777 28.7864 0.11038 28.121 0.659409 28.1973L19.432 30.8064C19.8118 30.8592 20.1368 30.5342 20.084 30.1543L17.4749 11.3818C17.3986 10.8327 18.0641 10.5016 18.456 10.8935L36.4532 28.8907C36.6789 29.1164 36.6789 29.4823 36.4532 29.708L18.9857 47.1757C18.76 47.4013 18.3941 47.4013 18.1684 47.1757L0.171176 29.1784Z" fill="#FBC01A"/>
</svg>
