<svg width="160" height="160" viewBox="0 0 160 160" fill="none" xmlns="http://www.w3.org/2000/svg">
<g clip-path="url(#clip0_437_2677)">
<path fill-rule="evenodd" clip-rule="evenodd" d="M0.991752 43.4281L37.3718 79.7945C37.4457 79.8683 37.5237 79.937 37.6053 80.0005C37.5252 80.0619 37.4485 80.1284 37.3756 80.1996L0.989569 116.572C0.514461 117.048 0.192494 117.656 0.0649867 118.316C-0.0625208 118.977 0.0102229 119.66 0.273896 120.279C0.537568 120.898 0.980169 121.424 1.5449 121.79C2.10964 122.155 2.77079 122.344 3.44357 122.332L35.5963 121.777C35.9367 121.77 36.275 121.833 36.5908 121.96C36.9065 122.088 37.1934 122.277 37.4342 122.518C37.6749 122.759 37.8647 123.045 37.9921 123.361C38.1195 123.677 38.1819 124.015 38.1757 124.355L37.5547 156.55C37.5398 157.225 37.7278 157.888 38.0942 158.456C38.4606 159.023 38.9887 159.467 39.6103 159.731C40.2319 159.995 40.9184 160.067 41.5812 159.937C42.244 159.807 42.8527 159.482 43.3285 159.003L79.7504 122.594C79.8291 122.515 79.9021 122.431 79.969 122.343C80.031 122.424 80.0982 122.501 80.1703 122.575L116.556 158.948C117.033 159.422 117.64 159.744 118.301 159.872C118.962 159.999 119.646 159.927 120.265 159.663C120.884 159.399 121.41 158.957 121.776 158.392C122.142 157.828 122.331 157.167 122.318 156.494L121.763 124.354C121.757 124.013 121.819 123.675 121.946 123.36C122.074 123.044 122.264 122.757 122.504 122.517C122.745 122.276 123.032 122.086 123.348 121.959C123.664 121.832 124.002 121.769 124.342 121.775L156.549 122.396C157.224 122.411 157.888 122.223 158.456 121.857C159.023 121.491 159.467 120.963 159.732 120.341C159.996 119.72 160.068 119.034 159.938 118.371C159.808 117.709 159.482 117.1 159.003 116.624L122.581 80.2162C122.501 80.1366 122.416 80.0629 122.326 79.9954C122.415 79.9282 122.5 79.8548 122.58 79.7755L159.002 43.3673C159.479 42.8909 159.803 42.2825 159.932 41.6204C160.06 40.9583 159.988 40.273 159.723 39.6526C159.458 39.0322 159.014 38.5053 158.447 38.1398C157.88 37.7742 157.216 37.5868 156.542 37.6016L124.335 38.2224C123.995 38.2286 123.657 38.1662 123.341 38.0388C123.025 37.9115 122.738 37.7218 122.497 37.4811C122.257 37.2405 122.067 36.9537 121.939 36.638C121.812 36.3224 121.75 35.9843 121.756 35.6439L122.317 3.49728C122.329 2.82403 122.14 2.16245 121.774 1.59756C121.407 1.03266 120.88 0.590227 120.26 0.327146C119.64 0.0640651 118.955 -0.00767307 118.294 0.121162C117.633 0.249998 117.025 0.573539 116.549 1.05017L80.1692 37.4166C80.0956 37.4903 80.027 37.5681 79.9637 37.6494C79.8972 37.562 79.8247 37.4786 79.7466 37.3998L43.3247 0.991601C42.8482 0.514168 42.2395 0.190341 41.5772 0.0618469C40.9149 -0.0666466 40.2292 0.00608193 39.6086 0.270668C38.988 0.535254 38.4609 0.979576 38.0952 1.54635C37.7295 2.11313 37.5421 2.77639 37.5569 3.45066L38.1779 35.6451C38.1841 35.9854 38.1217 36.3235 37.9943 36.6392C37.8669 36.9548 37.6771 37.2416 37.4364 37.4823C37.1956 37.7229 36.9087 37.9126 36.5929 38.04C36.2772 38.1674 35.9389 38.2298 35.5985 38.2235L3.43978 37.6625C2.76628 37.6501 2.10445 37.8393 1.53934 38.2057C0.974235 38.5722 0.531639 39.0993 0.26846 39.7191C0.00528058 40.339 -0.0664844 41.0233 0.0623992 41.6842C0.191283 42.3452 0.514945 42.9524 0.991752 43.4281ZM72.2196 111.876C76.1256 115.78 82.4584 115.78 86.3644 111.876L111.86 86.3895C115.766 82.485 115.766 76.1546 111.86 72.2501L86.3644 46.764C82.4584 42.8595 76.1256 42.8595 72.2196 46.764L46.724 72.2501C42.8181 76.1546 42.8181 82.485 46.724 86.3895L72.2196 111.876Z" fill="#FFF7E1"/>
<path d="M93.9721 92.7378C93.9721 93.3923 93.4415 93.923 92.7869 93.923H65.7941C65.1395 93.923 64.6089 93.3923 64.6089 92.7378V65.7559C64.6089 65.1013 65.1395 64.5707 65.7941 64.5707H92.7869C93.4415 64.5707 93.9721 65.1013 93.9721 65.7559V92.7378Z" fill="#FFF7E1"/>
</g>
<defs>
<clipPath id="clip0_437_2677">
<rect width="160" height="160" fill="white"/>
</clipPath>
</defs>
</svg>
