<svg width="111" height="111" viewBox="0 0 111 111" fill="none" xmlns="http://www.w3.org/2000/svg">
<g clip-path="url(#clip0_321_2264)">
<path fill-rule="evenodd" clip-rule="evenodd" d="M55.8935 11.9814C55.2617 11.443 54.3324 11.443 53.7005 11.9814L41.8407 22.0882C41.57 22.319 41.2333 22.4584 40.8787 22.4867L25.346 23.7262C24.5184 23.7923 23.8613 24.4494 23.7953 25.277L22.5558 40.8097C22.5275 41.1643 22.388 41.5009 22.1573 41.7717L12.0505 53.6315C11.512 54.2633 11.512 55.1927 12.0505 55.8245L22.1573 67.6843C22.388 67.955 22.5275 68.2917 22.5558 68.6463L23.7953 84.179C23.8613 85.0066 24.5184 85.6637 25.346 85.7297L40.8787 86.9692C41.2333 86.9975 41.57 87.137 41.8407 87.3677L53.7005 97.4746C54.3324 98.013 55.2617 98.013 55.8935 97.4746L67.7533 87.3677C68.0241 87.137 68.3607 86.9975 68.7153 86.9692L84.2481 85.7297C85.0756 85.6637 85.7327 85.0066 85.7988 84.179L87.0383 68.6463C87.0666 68.2917 87.206 67.955 87.4368 67.6843L97.5436 55.8245C98.0821 55.1927 98.0821 54.2633 97.5436 53.6315L87.4368 41.7717C87.206 41.5009 87.0666 41.1643 87.0383 40.8097L85.7988 25.277C85.7327 24.4494 85.0756 23.7923 84.2481 23.7262L68.7153 22.4867C68.3607 22.4584 68.0241 22.319 67.7533 22.0882L55.8935 11.9814ZM28.1954 53.5326C27.5352 54.1928 27.5352 55.2632 28.1954 55.9234L53.1818 80.9098C53.842 81.57 54.9124 81.57 55.5726 80.9098L80.5591 55.9234C81.2193 55.2632 81.2193 54.1928 80.5591 53.5326L55.5726 28.5462C54.9124 27.886 53.842 27.886 53.1818 28.5462L28.1954 53.5326Z" fill="#FBC01A"/>
<path d="M68.7231 19.9384L58.8052 10.9651C58.3781 10.5787 58.4542 9.88755 58.9551 9.60322L76.4242 -0.311642C76.883 -0.57208 77.4657 -0.353112 77.6395 0.145071L84.7224 20.4494C84.9256 21.0318 84.4568 21.6286 83.8429 21.5692L69.2088 20.153C69.0281 20.1355 68.8578 20.0603 68.7231 19.9384Z" fill="#FF5C00"/>
<path d="M39.4078 20.2471L26.0498 20.915C25.4745 20.9438 25.0395 20.4013 25.1927 19.846L30.5343 0.482646C30.6746 -0.0259808 31.2415 -0.283171 31.7167 -0.053786L51.0824 9.29519C51.6378 9.56333 51.7284 10.3168 51.2523 10.7089L39.903 20.0554C39.7628 20.1708 39.5892 20.238 39.4078 20.2471Z" fill="#FF5C00"/>
<path d="M20.062 40.748L11.0887 50.6658C10.7022 51.093 10.0111 51.0169 9.72675 50.516L-0.188115 33.0469C-0.448554 32.5881 -0.229585 32.0054 0.268598 31.8316L20.573 24.7487C21.1553 24.5455 21.7521 25.0143 21.6927 25.6282L20.2765 40.2623C20.259 40.443 20.1838 40.6133 20.062 40.748Z" fill="#FF5C00"/>
<path d="M20.3706 69.6315L21.0385 82.9895C21.0673 83.5648 20.5248 83.9998 19.9695 83.8466L0.606173 78.505C0.0975467 78.3646 -0.159643 77.7978 0.0697415 77.3226L9.41872 57.9569C9.68686 57.4015 10.4403 57.3109 10.8324 57.787L20.1789 69.1363C20.2943 69.2765 20.3616 69.4501 20.3706 69.6315Z" fill="#FF5C00"/>
<path d="M89.8395 39.2843L89.1716 25.9262C89.1428 25.351 89.6853 24.916 90.2406 25.0692L109.604 30.4108C110.113 30.5511 110.37 31.118 110.14 31.5931L100.791 50.9589C100.523 51.5143 99.7697 51.6048 99.3776 51.1287L90.0312 39.7795C89.9157 39.6393 89.8485 39.4657 89.8395 39.2843Z" fill="#FF5C00"/>
<path d="M90.0561 68.5996L99.0294 58.6817C99.4158 58.2546 100.107 58.3306 100.391 58.8316L110.306 76.3006C110.567 76.7595 110.348 77.3422 109.849 77.516L89.5451 84.5989C88.9627 84.802 88.3659 84.3332 88.4253 83.7193L89.8415 69.0852C89.859 68.9045 89.9342 68.7342 90.0561 68.5996Z" fill="#FF5C00"/>
<path d="M69.7553 89.7156L83.1134 89.0476C83.6887 89.0189 84.1236 89.5614 83.9704 90.1167L78.6288 109.48C78.4885 109.989 77.9216 110.246 77.4465 110.016L58.0807 100.667C57.5253 100.399 57.4348 99.6458 57.9109 99.2537L69.2602 89.9073C69.4003 89.7918 69.5739 89.7246 69.7553 89.7156Z" fill="#FF5C00"/>
<path d="M40.8715 89.9326L50.7894 98.9059C51.2165 99.2923 51.1404 99.9835 50.6395 100.268L33.1704 110.183C32.7116 110.443 32.1289 110.224 31.9551 109.726L24.8722 89.4216C24.669 88.8392 25.1378 88.2424 25.7517 88.3018L40.3858 89.718C40.5666 89.7355 40.7369 89.8108 40.8715 89.9326Z" fill="#FF5C00"/>
<rect x="41.4728" y="54.6738" width="18.8442" height="18.8442" rx="0.845275" transform="rotate(-45 41.4728 54.6738)" fill="#FF5C00"/>
</g>
<defs>
<clipPath id="clip0_321_2264">
<rect width="111" height="111" fill="white"/>
</clipPath>
</defs>
</svg>
