<svg width="317" height="216" viewBox="0 0 317 216" fill="none" xmlns="http://www.w3.org/2000/svg">
<g clip-path="url(#clip0_3411_5316)">
<path d="M132.734 17.8914C134.468 16.7029 136.821 16.7029 138.555 17.8914L178.12 45.0079C178.968 45.589 179.991 45.9012 181.04 45.8993L230.013 45.8117C232.159 45.8078 234.063 47.1071 234.722 49.0263L249.767 92.8142C250.089 93.7524 250.721 94.5698 251.571 95.1478L291.246 122.123C292.985 123.305 293.712 125.407 293.045 127.324L277.823 171.058C277.496 171.995 277.496 173.005 277.823 173.942L293.045 217.676C293.712 219.593 292.985 221.695 291.246 222.877L251.571 249.852C250.721 250.43 250.089 251.248 249.767 252.186L234.722 295.974C234.063 297.893 232.159 299.192 230.013 299.188L181.04 299.101C179.991 299.099 178.968 299.411 178.12 299.992L138.555 327.109C136.821 328.297 134.468 328.297 132.734 327.109L93.1694 299.992C92.3216 299.411 91.2989 299.099 90.2495 299.101L41.2768 299.188C39.1303 299.192 37.227 297.893 36.5676 295.974L21.5229 252.186C21.2005 251.248 20.5684 250.43 19.7183 249.852L-19.9563 222.877C-21.6952 221.695 -22.4222 219.593 -21.755 217.676L-6.53294 173.942C-6.20678 173.005 -6.20678 171.995 -6.53294 171.058L-21.755 127.324C-22.4222 125.407 -21.6952 123.305 -19.9563 122.123L19.7183 95.1478C20.5684 94.5698 21.2005 93.7524 21.5229 92.8142L36.5676 49.0263C37.227 47.1071 39.1303 45.8078 41.2768 45.8117L90.2495 45.8993C91.2989 45.9012 92.3216 45.589 93.1694 45.0079L132.734 17.8914Z" fill="white" fill-opacity="0.2"/>
</g>
<defs>
<clipPath id="clip0_3411_5316">
<rect width="317" height="216" fill="white"/>
</clipPath>
</defs>
</svg>
