<svg width="16" height="16" viewBox="0 0 16 16" fill="none" xmlns="http://www.w3.org/2000/svg">
<path fill-rule="evenodd" clip-rule="evenodd" d="M0.0991752 4.34281L3.73718 7.97945C3.74457 7.98683 3.75237 7.9937 3.76053 8.00005C3.75252 8.00619 3.74485 8.01284 3.73756 8.01996L0.0989569 11.6572C0.0514461 11.7048 0.0192494 11.7656 0.00649867 11.8316C-0.00625208 11.8977 0.00102229 11.966 0.0273896 12.0279C0.0537568 12.0898 0.0980169 12.1424 0.15449 12.179C0.210964 12.2155 0.277079 12.2344 0.344357 12.2332L3.55963 12.1777C3.59367 12.177 3.6275 12.1833 3.65908 12.196C3.69065 12.2088 3.71934 12.2277 3.74342 12.2518C3.76749 12.2759 3.78647 12.3045 3.79921 12.3361C3.81195 12.3677 3.81819 12.4015 3.81757 12.4355L3.75547 15.655C3.75398 15.7225 3.77278 15.7888 3.80942 15.8456C3.84606 15.9023 3.89887 15.9467 3.96103 15.9731C4.02319 15.9995 4.09184 16.0067 4.15812 15.9937C4.2244 15.9807 4.28527 15.9482 4.33285 15.9003L7.97504 12.2594C7.98291 12.2515 7.99021 12.2431 7.9969 12.2343C8.0031 12.2424 8.00982 12.2501 8.01703 12.2575L11.6556 15.8948C11.7033 15.9422 11.764 15.9744 11.8301 15.9872C11.8962 15.9999 11.9646 15.9927 12.0265 15.9663C12.0884 15.9399 12.141 15.8957 12.1776 15.8392C12.2142 15.7828 12.2331 15.7167 12.2318 15.6494L12.1763 12.4354C12.1757 12.4013 12.1819 12.3675 12.1946 12.336C12.2074 12.3044 12.2264 12.2757 12.2504 12.2517C12.2745 12.2276 12.3032 12.2086 12.3348 12.1959C12.3664 12.1832 12.4002 12.1769 12.4342 12.1775L15.6549 12.2396C15.7224 12.2411 15.7888 12.2223 15.8456 12.1857C15.9023 12.1491 15.9467 12.0963 15.9732 12.0341C15.9996 11.972 16.0068 11.9034 15.9938 11.8371C15.9808 11.7709 15.9482 11.71 15.9003 11.6624L12.2581 8.02162C12.2501 8.01366 12.2416 8.00629 12.2326 7.99954C12.2415 7.99282 12.25 7.98548 12.258 7.97755L15.9002 4.33673C15.9479 4.28909 15.9803 4.22825 15.9932 4.16204C16.006 4.09583 15.9988 4.0273 15.9723 3.96526C15.9458 3.90322 15.9014 3.85053 15.8447 3.81398C15.788 3.77742 15.7216 3.75868 15.6542 3.76016L12.4335 3.82224C12.3995 3.82286 12.3657 3.81662 12.3341 3.80388C12.3025 3.79115 12.2738 3.77218 12.2497 3.74811C12.2257 3.72405 12.2067 3.69537 12.1939 3.6638C12.1812 3.63224 12.175 3.59843 12.1756 3.56439L12.2317 0.349728C12.2329 0.282403 12.214 0.216245 12.1774 0.159756C12.1407 0.103266 12.088 0.0590227 12.026 0.0327146C11.964 0.00640651 11.8955 -0.000767308 11.8294 0.0121162C11.7633 0.0249998 11.7025 0.0573539 11.6549 0.105017L8.01692 3.74166C8.00956 3.74903 8.0027 3.75681 7.99637 3.76494C7.98972 3.7562 7.98247 3.74786 7.97466 3.73998L4.33247 0.0991601C4.28482 0.0514168 4.22395 0.0190341 4.15772 0.00618469C4.09149 -0.00666466 4.02292 0.00060819 3.96086 0.0270668C3.8988 0.0535254 3.84609 0.0979576 3.80952 0.154635C3.77295 0.211313 3.75421 0.277639 3.75569 0.345066L3.81779 3.56451C3.81841 3.59854 3.81217 3.63235 3.79943 3.66392C3.78669 3.69548 3.76771 3.72416 3.74364 3.74823C3.71956 3.77229 3.69087 3.79126 3.65929 3.804C3.62772 3.81674 3.59389 3.82298 3.55985 3.82235L0.343978 3.76625C0.276628 3.76501 0.210445 3.78393 0.153934 3.82057C0.0974235 3.85722 0.0531639 3.90993 0.026846 3.97191C0.000528059 4.0339 -0.00664844 4.10233 0.00623992 4.16842C0.0191283 4.23452 0.0514945 4.29524 0.0991752 4.34281ZM7.22196 11.1876C7.61256 11.578 8.24584 11.578 8.63644 11.1876L11.186 8.63895C11.5766 8.2485 11.5766 7.61546 11.186 7.22501L8.63644 4.6764C8.24584 4.28595 7.61256 4.28595 7.22196 4.6764L4.6724 7.22501C4.28181 7.61546 4.28181 8.2485 4.6724 8.63895L7.22196 11.1876Z" fill="#24E2AB"/>
<path d="M9.39628 9.27423C9.39628 9.33968 9.34322 9.39274 9.27777 9.39274L6.57848 9.39274C6.51302 9.39274 6.45996 9.33968 6.45996 9.27423L6.45996 6.57604C6.45996 6.51058 6.51302 6.45752 6.57848 6.45752L9.27776 6.45752C9.34322 6.45752 9.39628 6.51058 9.39628 6.57604L9.39628 9.27423Z" fill="#24E2AB"/>
</svg>
