<svg width="85" height="85" viewBox="0 0 85 85" fill="none" xmlns="http://www.w3.org/2000/svg">
<g clip-path="url(#clip0_653_4528)">
<path d="M40.7218 1.24541C41.3325 -0.415138 43.6674 -0.415134 44.2781 1.24541L54.5923 29.2884C54.7853 29.8133 55.1975 30.2264 55.7201 30.4183L83.7538 40.7085C85.4154 41.3183 85.4154 43.6818 83.7538 44.2916L55.7201 54.582C55.1975 54.7735 54.7853 55.1871 54.5923 55.7117L44.2781 83.7549C43.6674 85.415 41.3325 85.415 40.7218 83.7549L30.4078 55.7117C30.2147 55.1871 29.8023 54.7735 29.2796 54.582L1.24601 44.2916C-0.41534 43.6818 -0.415335 41.3183 1.24602 40.7085L29.2796 30.4183C29.8023 30.2264 30.2147 29.8133 30.4078 29.2884L40.7218 1.24541Z" fill="#FBC01A"/>
<path d="M23.9477 14.0808C23.6466 12.3321 25.6751 11.154 27.0301 12.2907L45.6467 27.9071C46.074 28.2655 46.6363 28.417 47.1845 28.3215L71.0694 24.1606C72.8078 23.8578 73.9788 25.8983 72.8488 27.2613L57.3242 45.9879C56.968 46.4177 56.8171 46.9833 56.912 47.5347L61.0489 71.5607C61.3496 73.3093 59.3212 74.4872 57.9663 73.3506L39.3496 57.7343C38.9223 57.376 38.36 57.2242 37.8118 57.3197L13.927 61.4809C12.1885 61.7835 11.0175 59.7431 12.1474 58.3801L27.6721 39.6536C28.0284 39.2237 28.179 38.6582 28.0841 38.1067L23.9477 14.0808Z" fill="#0CC4E9"/>
<path d="M59.5136 53.4856C60.1801 54.4608 59.2774 55.7422 58.1421 55.4333L44.5473 51.7308C44.1893 51.6333 43.8068 51.6989 43.5011 51.9103L31.8944 59.9352C30.925 60.6051 29.651 59.697 29.9584 58.555L33.6389 44.88C33.7358 44.5199 33.6706 44.1351 33.4605 43.8276L25.4829 32.1523C24.8167 31.1772 25.7195 29.8957 26.8549 30.2049L40.4494 33.9071C40.8074 34.0047 41.19 33.9391 41.4957 33.7277L53.1025 25.703C54.0719 25.0329 55.3458 25.941 55.0381 27.0831L51.3579 40.7579C51.2609 41.118 51.3261 41.5028 51.5363 41.8103L59.5136 53.4856Z" fill="white"/>
</g>
<defs>
<clipPath id="clip0_653_4528">
<rect width="85" height="85" fill="white"/>
</clipPath>
</defs>
</svg>
