<svg width="16" height="16" viewBox="0 0 16 16" fill="none" xmlns="http://www.w3.org/2000/svg">
<path d="M7.8523 0.0458588C7.94031 -0.0152862 8.05969 -0.0152863 8.1477 0.0458587L10.1555 1.44092C10.1985 1.47081 10.2504 1.48688 10.3037 1.48678L12.7889 1.48227C12.8978 1.48208 12.9944 1.54892 13.0279 1.64766L13.7913 3.90041C13.8077 3.94868 13.8398 3.99073 13.8829 4.02047L15.8963 5.40824C15.9845 5.46906 16.0214 5.57722 15.9876 5.67583L15.2151 7.9258C15.1985 7.97401 15.1985 8.02599 15.2151 8.0742L15.9876 10.3242C16.0214 10.4228 15.9845 10.5309 15.8963 10.5918L13.8829 11.9795C13.8398 12.0093 13.8077 12.0513 13.7913 12.0996L13.0279 14.3523C12.9944 14.4511 12.8978 14.5179 12.7889 14.5177L10.3037 14.5132C10.2504 14.5131 10.1985 14.5292 10.1555 14.5591L8.1477 15.9541C8.05969 16.0153 7.94031 16.0153 7.8523 15.9541L5.8445 14.5591C5.80148 14.5292 5.74958 14.5131 5.69633 14.5132L3.21111 14.5177C3.10218 14.5179 3.00559 14.4511 2.97213 14.3523L2.20865 12.0996C2.1923 12.0513 2.16022 12.0093 2.11708 11.9795L0.103712 10.5918C0.0154674 10.5309 -0.0214259 10.4228 0.0124314 10.3242L0.784907 8.0742C0.801459 8.02599 0.801459 7.97401 0.784907 7.9258L0.0124314 5.67583C-0.0214258 5.57722 0.0154673 5.46906 0.103712 5.40824L2.11708 4.02047C2.16022 3.99073 2.1923 3.94868 2.20865 3.90041L2.97213 1.64766C3.00559 1.54892 3.10218 1.48208 3.21111 1.48227L5.69633 1.48678C5.74958 1.48688 5.80148 1.47081 5.8445 1.44092L7.8523 0.0458588Z" fill="#24E2AB"/>
<path fill-rule="evenodd" clip-rule="evenodd" d="M10.8227 9.02594C10.8598 9.0799 10.8461 9.15368 10.7921 9.19073L8.39259 10.8385C8.15598 11.001 7.84375 11.001 7.60714 10.8385L5.20768 9.19073C5.15372 9.15367 5.14002 9.07989 5.17708 9.02594L5.74567 8.19797C5.78272 8.14402 5.8565 8.13031 5.91046 8.16737L7.93278 9.55617C7.9732 9.58393 8.02654 9.58393 8.06697 9.55617L10.0894 8.16736C10.1433 8.13031 10.2171 8.14401 10.2541 8.19797L10.8227 9.02594Z" fill="white"/>
<path d="M9.19001 6.31031C9.12455 6.31031 9.07092 6.25713 9.07701 6.19196C9.08883 6.06566 9.11951 5.94162 9.16822 5.82401C9.23208 5.66984 9.32569 5.52975 9.44369 5.41175C9.56169 5.29375 9.70178 5.20014 9.85595 5.13628C10.0101 5.07242 10.1754 5.03955 10.3423 5.03955C10.5091 5.03955 10.6744 5.07242 10.8285 5.13628C10.9827 5.20014 11.1228 5.29375 11.2408 5.41175C11.3588 5.52975 11.4524 5.66984 11.5163 5.82401C11.565 5.94162 11.5957 6.06566 11.6075 6.19196C11.6136 6.25713 11.5599 6.31031 11.4945 6.31031L9.19001 6.31031Z" fill="white"/>
<path d="M4.50507 6.31031C4.43961 6.31031 4.38598 6.25713 4.39207 6.19196C4.40389 6.06566 4.43457 5.94162 4.48328 5.82401C4.54714 5.66984 4.64075 5.52975 4.75875 5.41175C4.87675 5.29375 5.01684 5.20014 5.17101 5.13628C5.32519 5.07242 5.49043 5.03955 5.65731 5.03955C5.82419 5.03955 5.98943 5.07242 6.14361 5.13628C6.29778 5.20014 6.43787 5.29375 6.55587 5.41175C6.67387 5.52975 6.76748 5.66984 6.83134 5.82401C6.88005 5.94162 6.91073 6.06566 6.92255 6.19196C6.92864 6.25713 6.87501 6.31031 6.80955 6.31031L4.50507 6.31031Z" fill="white"/>
</svg>
