<svg width="111" height="111" viewBox="0 0 111 111" fill="none" xmlns="http://www.w3.org/2000/svg">
<g clip-path="url(#clip0_443_3481)">
<path d="M84.1387 85.0996C84.1387 85.6736 83.7133 86.1386 83.188 86.1386H62.4956C61.9935 86.1386 61.578 85.7117 61.5468 85.1645L60.101 59.7684C60.0652 59.1387 60.5469 58.6197 61.1225 58.6679L83.2609 60.5229C83.7561 60.5644 84.1387 61.0158 84.1387 61.5588V85.0996Z" fill="#24E2AB"/>
<path d="M49.7679 85.1861C49.731 85.7235 49.3384 86.1386 48.8664 86.1386H28.3778C27.8784 86.1386 27.4736 85.6762 27.4736 85.1052V61.6897C27.4736 61.1503 27.8366 60.7017 28.3071 60.6595L50.5383 58.668C51.0922 58.6184 51.5538 59.146 51.5104 59.779L49.7679 85.1861Z" fill="#24E2AB"/>
<path d="M84.1387 49.3829C84.1387 49.8995 83.782 50.3328 83.3131 50.3868L61.1182 52.942C60.5403 53.0085 60.0508 52.4809 60.1029 51.8476L62.1951 26.3929C62.2379 25.8726 62.6364 25.4739 63.1138 25.4739H83.2162C83.7259 25.4739 84.1387 25.9258 84.1387 26.4834V49.3829Z" fill="#24E2AB"/>
<path d="M51.5077 51.8264C51.5693 52.4648 51.1058 53.0063 50.5523 52.9426L28.2612 50.379C27.8141 50.3276 27.4736 49.8932 27.4736 49.3746V26.4832C27.4736 25.9258 27.865 25.4739 28.3478 25.4739H48.1822C48.6275 25.4739 49.0017 25.8604 49.051 26.3714L51.5077 51.8264Z" fill="#24E2AB"/>
<path d="M56.3112 110.512C55.661 111.162 54.6069 111.162 53.9567 110.512L36.4796 93.035C35.8294 92.3849 35.8294 91.3304 36.4796 90.6804L54.6912 72.4687C55.3414 71.8187 56.3955 71.8187 57.0457 72.4687L74.5226 89.9457C75.1727 90.5957 75.1727 91.6502 74.5226 92.3003L56.3112 110.512Z" fill="#0CC4E9"/>
<path d="M21.0535 75.2549C20.4034 75.9056 19.3492 75.9056 18.699 75.2549L0.487389 57.0435C-0.162787 56.3934 -0.162789 55.3392 0.487386 54.689L18.699 36.4774C19.3492 35.8272 20.4034 35.8272 21.0535 36.4774L39.2652 54.689C39.9154 55.3392 39.9154 56.3934 39.2652 57.0435L21.0535 75.2549Z" fill="#0CC4E9"/>
<path d="M92.3025 74.5209C91.6524 75.1709 90.5986 75.1709 89.9479 74.5209L72.4709 57.0435C71.8209 56.3933 71.8209 55.3392 72.4709 54.689L90.6826 36.4774C91.3326 35.8272 92.3871 35.8272 93.0371 36.4774L110.514 53.9545C111.164 54.6047 111.164 55.6588 110.514 56.309L92.3025 74.5209Z" fill="#0CC4E9"/>
<path d="M57.0457 39.2654C56.3955 39.9156 55.3414 39.9156 54.6912 39.2654L36.4796 21.0538C35.8294 20.4036 35.8294 19.3495 36.4796 18.6993L54.6912 0.487633C55.3414 -0.162543 56.3955 -0.162545 57.0457 0.48763L75.2575 18.6993C75.9075 19.3495 75.9075 20.4036 75.2575 21.0538L57.0457 39.2654Z" fill="#0CC4E9"/>
<circle cx="54.9476" cy="54.9476" r="13.7369" fill="white"/>
</g>
<defs>
<clipPath id="clip0_443_3481">
<rect width="111" height="111" fill="white"/>
</clipPath>
</defs>
</svg>
