<svg width="111" height="111" viewBox="0 0 111 111" fill="none" xmlns="http://www.w3.org/2000/svg">
<path d="M34.135 29.7007C33.1568 28.7332 33.1568 27.1647 34.135 26.1973L53.8227 6.7256C54.8009 5.75813 56.3868 5.75813 57.365 6.7256L77.0525 26.1973C78.0306 27.1647 78.0306 28.7332 77.0525 29.7007L57.365 49.1724C56.3868 50.1398 54.8009 50.1398 53.8227 49.1724L34.135 29.7007Z" fill="#FF5C00"/>
<path d="M0.733629 70.5376C-0.244543 69.5702 -0.244543 68.0019 0.733629 67.0344L15.9931 51.9424C16.9713 50.9749 18.5573 50.9749 19.5354 51.9424L34.795 67.0344C35.7731 68.0019 35.7731 69.5702 34.795 70.5376L19.5354 85.6301C18.5573 86.5976 16.9713 86.5976 15.9931 85.6301L0.733629 70.5376Z" fill="#FF5C00"/>
<path d="M75.4846 70.1474C74.5064 69.18 74.5064 67.6113 75.4846 66.6439L90.7444 51.5518C91.7225 50.5843 93.3087 50.5843 94.2869 51.5518L109.546 66.6439C110.524 67.6113 110.524 69.18 109.546 70.1474L94.2869 85.2392C93.3087 86.2066 91.7225 86.2066 90.7444 85.2392L75.4846 70.1474Z" fill="#FF5C00"/>
<path fill-rule="evenodd" clip-rule="evenodd" d="M21.2518 31.6533C22.1836 30.7323 23.6941 30.7328 24.6253 31.6545L55.1405 61.8563L85.656 31.6545C86.587 30.7328 88.0974 30.7323 89.0292 31.6533L92.9664 35.5446C93.8988 36.4656 93.8988 37.9595 92.9678 38.8812L62.4474 69.0877L73.9169 80.4398C76.2439 82.743 76.2439 86.4751 73.9169 88.7783L59.359 103.186C57.0297 105.492 53.2514 105.492 50.9221 103.186L36.3642 88.7783C34.0373 86.4751 34.0373 82.743 36.3643 80.4398L47.8337 69.0877L17.3133 38.8812C16.3821 37.9594 16.3826 36.4656 17.3145 35.5446L21.2518 31.6533ZM55.1405 76.3198L46.7655 84.6087L55.1405 92.8976L63.5157 84.6087L55.1405 76.3198Z" fill="#24E2AB"/>
</svg>
