<svg width="111" height="111" viewBox="0 0 111 111" fill="none" xmlns="http://www.w3.org/2000/svg">
<path fill-rule="evenodd" clip-rule="evenodd" d="M57.2442 0.733079C56.2957 -0.244357 54.7581 -0.244361 53.8097 0.733075L16.7776 38.8986C15.8292 39.876 15.8292 41.4607 16.7776 42.4382L53.8097 80.6037C54.7581 81.5811 56.2957 81.5811 57.2442 80.6037L94.2762 42.4382C95.2246 41.4607 95.2246 39.876 94.2762 38.8986L57.2442 0.733079ZM57.3285 27.0487C56.1591 25.8569 54.2631 25.8569 53.0937 27.0487L42.0864 38.2671C40.917 39.4589 40.917 41.3913 42.0864 42.5831L53.4703 54.1854C54.6397 55.3772 56.5357 55.3772 57.7051 54.1854L68.7124 42.967C69.8818 41.7751 69.8818 39.8428 68.7124 38.651L57.3285 27.0487Z" fill="#24E2AB"/>
<path d="M53.4398 57.1164C54.6092 55.9246 56.5051 55.9246 57.6745 57.1164L66.7792 66.3958C67.9486 67.5876 67.9486 69.52 66.7792 70.7118L28.1273 110.105C26.9578 111.297 25.0618 111.297 23.8924 110.105L0.87693 86.6455C-0.292355 85.4537 -0.292303 83.5215 0.877046 82.3297L9.98189 73.0502C11.1513 71.8583 13.0472 71.8583 14.2166 73.0502L23.8939 82.9131C25.0633 84.1049 26.9593 84.1049 28.1287 82.9131L53.4398 57.1164Z" fill="#24E2AB"/>
<path d="M57.5585 57.1188C56.3891 55.927 54.4932 55.927 53.3238 57.1188L44.2209 66.3963C43.0515 67.5882 43.0515 69.5205 44.2209 70.7123L71.6475 98.665C71.6482 98.6658 71.6486 98.6667 71.6486 98.6678C71.6486 98.6688 71.649 98.6698 71.6497 98.6705L82.8729 110.106C84.0424 111.298 85.9382 111.298 87.1075 110.106L98.3261 98.6722C98.3268 98.6715 98.3272 98.6706 98.3272 98.6696C98.3272 98.6686 98.3276 98.6677 98.3283 98.667L110.123 86.6461C111.292 85.4542 111.292 83.5219 110.123 82.3301L101.018 73.0507C99.8488 71.8589 97.9529 71.8589 96.7835 73.0507L87.1044 82.9155C85.935 84.1073 84.039 84.1073 82.8696 82.9155L57.5585 57.1188Z" fill="#24E2AB"/>
</svg>
