<svg width="16" height="16" viewBox="0 0 16 16" fill="none" xmlns="http://www.w3.org/2000/svg">
<g clip-path="url(#clip0_2952_7122)">
<path d="M5.69425 2.95231C5.64619 2.90693 5.64619 2.83336 5.69425 2.78799L7.93366 0.673742C7.98172 0.628365 8.05965 0.628365 8.10771 0.673742L10.3471 2.78799C10.3952 2.83336 10.3952 2.90693 10.3471 2.95231L8.10771 5.06655C8.05965 5.11193 7.98172 5.11193 7.93366 5.06655L5.69425 2.95231Z" fill="#E61777"/>
<path d="M12.7455 15.6987L11.254 15.6986C11.082 15.6986 10.9959 15.5023 11.1175 15.3875L12.609 13.9793C12.7306 13.8645 12.9386 13.9458 12.9386 14.1082V15.5164C12.9386 15.617 12.8521 15.6987 12.7455 15.6987Z" fill="#0CC4E9"/>
<path d="M11.8379 10.7721C11.8829 10.8147 11.8829 10.8836 11.8379 10.926L10.258 12.4177C10.213 12.4602 10.14 12.4602 10.095 12.4177L8.52008 10.9308C8.47508 10.8884 8.47508 10.8195 8.52008 10.7769L10.1001 9.28528C10.1451 9.2428 10.218 9.2428 10.263 9.28528L11.8379 10.7721Z" fill="#0CC4E9"/>
<path d="M9.66298 8.87411C9.70798 8.83162 9.70798 8.76274 9.66298 8.72025L3.95452 3.33085C3.88193 3.26231 3.75781 3.31085 3.75781 3.40778V6.39113C3.75781 6.41999 3.76995 6.44766 3.79156 6.46806L7.92003 10.3658C7.96503 10.4082 8.03799 10.4082 8.08299 10.3658L9.66298 8.87411Z" fill="#0CC4E9"/>
<path d="M7.48513 10.9311C7.53014 10.8886 7.53014 10.8197 7.48513 10.7773L3.35675 6.87958C3.33514 6.85918 3.30583 6.84772 3.27527 6.84772H0.115463C0.0128022 6.84772 -0.0386105 6.9649 0.0339818 7.03343L7.9155 14.4745C7.96051 14.5169 8.03347 14.5169 8.07847 14.4745L9.65837 12.9828C9.70337 12.9404 9.70337 12.8715 9.65837 12.829L8.08369 11.3424C8.03869 11.2998 7.96573 11.2998 7.92073 11.3424L6.34092 12.8338C6.29592 12.8763 6.22296 12.8763 6.17796 12.8338L5.90533 12.5764C5.86033 12.534 5.86033 12.4651 5.90533 12.4226L7.48513 10.9311Z" fill="#0CC4E9"/>
<path d="M3.15234 15.5159L3.15239 14.1078C3.1524 13.9454 3.36037 13.864 3.48201 13.9789L4.97349 15.387C5.09513 15.5019 5.00898 15.6982 4.83696 15.6982H3.34543C3.23879 15.6982 3.15234 15.6166 3.15234 15.5159Z" fill="#E61777"/>
<path d="M7.92233 14.4787L6.34234 12.9871C6.29734 12.9445 6.29734 12.8757 6.34234 12.8332L12.678 6.85162H15.8857C15.9884 6.85162 16.0398 6.96881 15.9672 7.03735L8.08529 14.4787C8.04029 14.5212 7.96733 14.5212 7.92233 14.4787Z" fill="#E61777"/>
<path d="M4.16266 10.9302L5.74256 12.4218C5.78756 12.4644 5.86052 12.4644 5.90552 12.4218L12.2409 6.44056V3.4123C12.2409 3.31538 12.1168 3.26683 12.0442 3.33537L4.16266 10.7764C4.11765 10.8189 4.11765 10.8878 4.16266 10.9302Z" fill="#E61777"/>
</g>
<defs>
<clipPath id="clip0_2952_7122">
<rect width="16" height="16" fill="white"/>
</clipPath>
</defs>
</svg>
