<svg width="135" height="135" viewBox="0 0 135 135" fill="none" xmlns="http://www.w3.org/2000/svg">
<path d="M120.957 63.024L129.542 37.9143C130.078 36.3465 129.241 34.6411 127.674 34.1051L102.564 25.52L90.8583 1.67851C90.1285 0.190872 88.3296 -0.422712 86.8429 0.308212L63.0244 12.0128L37.8903 3.42675C36.3227 2.89125 34.6177 3.72767 34.0819 5.29514L25.4965 30.4056L1.67754 42.1107C0.190544 42.8414 -0.422529 44.6392 0.308214 46.1262L12.0133 69.9452L3.42822 95.055C2.89221 96.6227 3.72859 98.3279 5.29635 98.8646L30.4061 107.449L42.1117 131.291C42.842 132.778 44.6403 133.392 46.1277 132.661L69.9457 120.956L95.0543 129.541C96.6228 130.077 98.328 129.24 98.8638 127.673L107.45 102.54L131.292 90.8338C132.779 90.1031 133.393 88.3059 132.663 86.8184L120.957 62.9761V63.024ZM114.706 71.2385L71.215 114.73C68.6046 117.34 64.3417 117.34 61.7312 114.73L18.24 71.2385C15.6296 68.628 15.6296 64.3652 18.24 61.7547L61.7312 18.2395C64.3417 15.6291 68.6046 15.6291 71.215 18.2395L114.706 61.7308C117.317 64.3412 117.317 68.6041 114.706 71.2145V71.2385Z" fill="#FBC01A"/>
<path d="M83.1227 66.4984C83.1227 57.302 75.6746 49.8539 66.4782 49.8539C57.2819 49.8539 49.8337 57.302 49.8337 66.4984C49.8337 75.6947 57.2819 83.1429 66.4782 83.1429C75.6746 83.1429 83.1227 75.6947 83.1227 66.4984Z" fill="#0CC4E9"/>
</svg>
