<svg width="111" height="111" viewBox="0 0 111 111" fill="none" xmlns="http://www.w3.org/2000/svg">
<path d="M97.795 50.1511H64.5123C62.7271 50.1511 61.2742 48.7148 61.2537 46.9297L60.8663 13.2273C60.8562 12.35 61.2002 11.5058 61.8206 10.8854L71.7512 0.954519C73.0238 -0.318171 75.0872 -0.318174 76.3598 0.954516L85.8658 10.4608C86.4769 11.072 86.8203 11.9009 86.8203 12.7652V21.3618C86.8203 23.1616 88.2793 24.6207 90.0791 24.6207H98.6754C99.5397 24.6207 100.369 24.9641 100.98 25.5752L110.046 34.6413C111.318 35.914 111.318 37.9775 110.046 39.2502L100.099 49.1966C99.4882 49.8078 98.6593 50.1511 97.795 50.1511Z" fill="#F8E4ED"/>
<path d="M13.205 60.8489L46.4877 60.8489C48.2729 60.8489 49.7258 62.2852 49.7463 64.0703L50.1337 97.7727C50.1438 98.65 49.7998 99.4942 49.1794 100.115L39.2488 110.045C37.9762 111.318 35.9128 111.318 34.6402 110.045L25.1342 100.539C24.5231 99.928 24.1797 99.0991 24.1797 98.2348V89.6382C24.1797 87.8383 22.7207 86.3793 20.9209 86.3793H12.3246C11.4603 86.3793 10.6314 86.0359 10.0203 85.4248L0.954487 76.3587C-0.318161 75.086 -0.318163 73.0225 0.954487 71.7498L10.9006 61.8034C11.5118 61.1922 12.3407 60.8489 13.205 60.8489Z" fill="#F8E4ED"/>
<path d="M50.1526 13.2054V46.4893C50.1526 48.2745 48.7163 49.7275 46.9312 49.748L13.23 50.1354C12.3528 50.1455 11.5085 49.8015 10.8882 49.1811L0.957637 39.2502C-0.315011 37.9775 -0.315014 35.9141 0.957633 34.6414L10.4636 25.1351C11.0747 24.5239 11.9036 24.1806 12.7679 24.1806H21.3642C23.164 24.1806 24.623 22.7215 24.623 20.9216V12.3251C24.623 11.4607 24.9664 10.6318 25.5775 10.0206L34.6433 0.954543C35.916 -0.318149 37.9793 -0.31815 39.252 0.954542L49.1981 10.901C49.8093 11.5122 50.1526 12.3411 50.1526 13.2054Z" fill="#F8E4ED"/>
<path d="M60.8474 97.7946L60.8474 64.5107C60.8474 62.7254 62.2837 61.2725 64.0688 61.252L97.77 60.8646C98.6472 60.8545 99.4915 61.1985 100.112 61.8189L110.042 71.7498C111.315 73.0225 111.315 75.0859 110.042 76.3586L100.536 85.8649C99.9253 86.4761 99.0964 86.8194 98.2321 86.8194H89.6358C87.836 86.8194 86.377 88.2785 86.377 90.0784V98.6749C86.377 99.5392 86.0336 100.368 85.4225 100.979L76.3567 110.045C75.084 111.318 73.0207 111.318 71.748 110.045L61.8019 100.099C61.1907 99.4878 60.8474 98.6589 60.8474 97.7946Z" fill="#F8E4ED"/>
</svg>
