<svg width="35" height="35" viewBox="0 0 35 35" fill="none" xmlns="http://www.w3.org/2000/svg">
<path d="M11.0044 7.70534L11.234 0.462211C11.2368 0.367377 11.2681 0.275506 11.3237 0.198401C11.3793 0.121297 11.4566 0.0624858 11.5459 0.02952C11.6351 -0.00344567 11.7321 -0.0090593 11.8244 0.0134027C11.9168 0.0358648 12.0002 0.0853777 12.0639 0.155574L15.1125 3.50446C15.1448 3.53995 15.1839 3.56855 15.2275 3.5886C15.2711 3.60863 15.3183 3.61967 15.3664 3.62108C15.4144 3.62246 15.4622 3.61419 15.507 3.59673C15.5518 3.57927 15.5927 3.55296 15.6271 3.51943L18.8813 0.343161C18.9493 0.276449 19.0356 0.231533 19.1293 0.214198C19.223 0.196865 19.3196 0.20791 19.4068 0.245909C19.494 0.283908 19.5677 0.34712 19.6185 0.427398C19.6692 0.507676 19.6947 0.60134 19.6916 0.69632L19.4618 7.94777C19.4584 8.0413 19.4184 8.12988 19.3503 8.19439L15.3547 12.0047C15.2849 12.0671 15.1935 12.0998 15.1 12.0958C15.0065 12.0917 14.9184 12.0512 14.8546 11.983L11.1001 7.95918C11.0359 7.89052 11.0016 7.79931 11.0044 7.70534Z" fill="#FBC01A"/>
<path d="M11.0907 16.1197L3.84817 15.909C3.75335 15.9064 3.66156 15.8754 3.5846 15.82C3.50764 15.7646 3.44901 15.6874 3.41629 15.5982C3.38356 15.5091 3.37821 15.4121 3.4009 15.3197C3.4236 15.2274 3.47334 15.1438 3.5437 15.0798L6.90051 12.0225C6.93607 11.9902 6.9648 11.951 6.98495 11.9073C7.0051 11.8637 7.01626 11.8164 7.0178 11.7684C7.01933 11.7203 7.01115 11.6725 6.99381 11.6278C6.97645 11.583 6.95027 11.5423 6.91683 11.5079L3.74901 8.26198C3.68247 8.19419 3.6378 8.10789 3.62071 8.01429C3.60362 7.92067 3.6149 7.82398 3.65313 7.7367C3.69136 7.64942 3.75476 7.57552 3.83518 7.52457C3.91559 7.4736 4.00932 7.44791 4.10428 7.45078L11.3552 7.66169C11.4487 7.6648 11.5371 7.70464 11.6015 7.77258L15.4014 11.7583C15.4637 11.8279 15.4961 11.9193 15.4918 12.0128C15.4875 12.1063 15.4468 12.1945 15.3784 12.2584L11.3448 16.0234C11.276 16.0877 11.1847 16.1224 11.0907 16.1197Z" fill="#FBC01A"/>
<path d="M19.4635 7.89149C19.3155 12.5627 15.4091 16.2393 10.7383 16.1034L11.0063 7.64551L19.4635 7.89149Z" fill="#FBC01A"/>
<path d="M10.8541 8.00231C10.8541 7.67204 11.1218 7.4043 11.4521 7.4043H23.2828C23.4212 7.4043 23.5553 7.45231 23.6623 7.54013L31.0553 13.6098C31.1936 13.7234 31.2739 13.893 31.2739 14.072V33.5406C31.2739 33.8708 31.0062 34.1385 30.6757 34.1385H11.4521C11.1218 34.1385 10.8541 33.8708 10.8541 33.5406V8.00231Z" fill="#0CC4E9"/>
<path d="M23.2076 13.5707L23.2965 7.83177C23.3004 7.58206 23.5906 7.44684 23.7843 7.60453L30.9707 13.4551C31.1905 13.6342 31.0608 13.9903 30.7773 13.986L23.5019 13.8743C23.3368 13.8718 23.205 13.7358 23.2076 13.5707Z" fill="#FBC01A"/>
<path d="M13.63 18.7V25H14.665V22.84H15.952C16.546 22.84 17.041 22.642 17.437 22.246C17.842 21.841 18.04 21.355 18.04 20.77C18.04 20.185 17.842 19.69 17.437 19.294C17.041 18.898 16.546 18.7 15.952 18.7H13.63ZM14.665 21.868V19.672H15.952C16.564 19.672 17.005 20.131 17.005 20.77C17.005 21.409 16.564 21.868 15.952 21.868H14.665ZM18.9386 18.7V25H21.4136C22.2776 25 22.9976 24.694 23.5646 24.091C24.1406 23.479 24.4286 22.732 24.4286 21.85C24.4286 20.959 24.1406 20.212 23.5646 19.609C22.9976 19.006 22.2776 18.7 21.4136 18.7H18.9386ZM19.9736 24.01V19.69H21.4136C22.0076 19.69 22.4936 19.897 22.8626 20.302C23.2406 20.707 23.4296 21.22 23.4296 21.85C23.4296 22.471 23.2406 22.993 22.8626 23.398C22.4936 23.803 22.0076 24.01 21.4136 24.01H19.9736ZM29.0622 18.7H25.3722V25H26.4072V22.444H28.9722V21.454H26.4072V19.69H29.0622V18.7Z" fill="white"/>
</svg>
