<svg width="112" height="111" viewBox="0 0 112 111" fill="none" xmlns="http://www.w3.org/2000/svg">
<path d="M5.27249 90.4436C10.7113 90.4436 16.1984 91.7245 21.1049 94.118C25.432 96.2449 30.1691 97.3576 34.9065 97.3576H76.2389C80.976 97.3576 85.7145 96.2461 89.9682 94.1666C94.947 91.7009 100.434 90.4436 105.873 90.4436C108.169 90.4436 110.175 89.0905 111.118 87.132H0C0.966871 89.0894 2.97409 90.4436 5.27027 90.4436H5.27249Z" fill="#FBC01A"/>
<path d="M5.27249 75.0207C10.7113 75.0207 16.1984 76.2778 21.1049 78.695C25.432 80.8219 30.1691 81.9346 34.9065 81.9346H76.2389C80.976 81.9346 85.7145 80.8232 89.9682 78.7437C94.947 76.2779 100.434 75.0207 105.873 75.0207C108.169 75.0207 110.175 73.6675 111.118 71.709L0 71.7101C0.966871 73.6913 2.97409 75.0206 5.27027 75.0206L5.27249 75.0207Z" fill="#FBC01A"/>
<path d="M5.27249 59.6225C10.7113 59.6225 16.1984 60.8796 21.1049 63.2968C25.432 65.4486 30.1691 66.5364 34.9065 66.5364H76.2389C80.976 66.5364 85.7145 65.4487 89.9682 63.3455C94.947 60.8797 100.434 59.6225 105.873 59.6225C108.169 59.6225 110.175 58.2693 111.118 56.3108H0C0.966871 58.2683 2.97409 59.6225 5.27027 59.6225H5.27249Z" fill="#FBC01A"/>
<path fill-rule="evenodd" clip-rule="evenodd" d="M75.5936 54.7593H66.0127C65.2197 49.6795 60.8252 45.7928 55.5229 45.7928C50.2206 45.7928 45.8261 49.6795 45.033 54.7593H35.1094L13.21 40.3117C11.8376 39.4064 12.4786 37.2707 14.1227 37.2707H34.3838C35.2992 37.2707 36.0413 36.5286 36.0413 35.6132L36.0412 15.3522C36.0412 13.7081 38.1769 13.0671 39.0823 14.4394L53.8717 36.8571C54.5249 37.8472 55.9762 37.8508 56.6343 36.864L71.6252 14.3834C72.535 13.0191 74.6617 13.6632 74.6617 15.303L74.6617 35.6132C74.6617 36.5286 75.4038 37.2707 76.3192 37.2707H96.5803C98.2243 37.2707 98.8653 39.4064 97.493 40.3117L75.5936 54.7593Z" fill="#0CC4E9"/>
</svg>
