<svg width="32" height="32" viewBox="0 0 32 32" fill="none" xmlns="http://www.w3.org/2000/svg">
<path fill-rule="evenodd" clip-rule="evenodd" d="M16 32C24.8366 32 32 24.8366 32 16C32 7.16344 24.8366 0 16 0C7.16344 0 0 7.16344 0 16C0 24.8366 7.16344 32 16 32ZM20.9231 14.7692L12.5538 6.15385C11.7887 5.36615 10.9222 5.98974 10.5846 6.4C9.99385 7.18769 10.3385 7.87692 10.5846 8.12308L18.2154 16L10.8308 23.6308C9.84615 24.6154 10.3385 25.4769 10.8308 25.8462C11.6185 26.4369 12.4718 26.0923 12.8 25.8462L20.9231 17.4769C22.4 16.2462 21.4154 15.2615 20.9231 14.7692Z" fill="#0CC4E9"/>
</svg>
