<svg width="111" height="111" viewBox="0 0 111 111" fill="none" xmlns="http://www.w3.org/2000/svg">
<path d="M47.9688 70.841L2.08193 25.2211C0.963442 24.1091 1.75093 22.2001 3.32811 22.2001H95.4183C96.0579 22.2001 96.6478 22.5457 96.9603 23.1036L110.347 46.9938C111.075 48.2933 109.967 49.8556 108.5 49.5989L74.8221 43.7084C74.2067 43.6008 73.5802 43.8259 73.1745 44.3005L50.558 70.7368C49.8896 71.5178 48.698 71.5661 47.9688 70.841Z" fill="#FF5C00"/>
<path d="M0.182312 24.3228L47.9858 80.3908C48.7282 81.2615 50.0899 81.2077 50.7617 80.2818L75.0158 46.8353C75.4235 46.2727 76.1231 46.0014 76.8041 46.1419L97.3071 50.3726V88.2244C97.3071 89.2007 96.5158 89.9921 95.5395 89.9921H1.94985C0.97367 89.9921 0.182312 89.2007 0.182312 88.2244V24.3228Z" fill="#24E2AB"/>
</svg>
