<svg width="16" height="16" viewBox="0 0 16 16" fill="none" xmlns="http://www.w3.org/2000/svg">
<g clip-path="url(#clip0_1680_12404)">
<path d="M11.6651 8.12017C11.6651 10.3145 9.88631 12.0934 7.69195 12.0934C5.49761 12.0934 3.71875 10.3145 3.71875 8.12017C3.71875 5.92583 5.49761 4.14697 7.69195 4.14697C9.88631 4.14697 11.6651 5.92583 11.6651 8.12017Z" fill="#0CC4E9"/>
<path d="M4.71635 5.612L3.95355 1.94662C3.86295 1.51127 4.39814 1.22736 4.70777 1.54654L7.30391 4.22268C7.35945 4.27993 7.39852 4.3511 7.41699 4.4287L8.32717 8.25206C8.43175 8.69134 7.88946 8.9886 7.57538 8.66416L4.83186 5.83004C4.7735 5.76975 4.73344 5.69415 4.71635 5.612Z" fill="#FBC01A"/>
<path d="M7.25599 12.1531L4.86072 14.419C4.57622 14.6881 4.11603 14.4181 4.21221 14.0385L5.01856 10.8554C5.03581 10.7873 5.07112 10.7251 5.12075 10.6754L7.56634 8.22602C7.84732 7.9446 8.3208 8.21375 8.22273 8.59916L7.36606 11.9657C7.34784 12.0373 7.30967 12.1023 7.25599 12.1531Z" fill="#FBC01A"/>
<path d="M7.79974 9.15466C8.37087 9.15466 8.83386 8.69167 8.83386 8.12054C8.83386 7.54942 8.37087 7.08643 7.79974 7.08643C7.22862 7.08643 6.76562 7.54942 6.76562 8.12054C6.76562 8.69167 7.22862 9.15466 7.79974 9.15466Z" fill="white"/>
<path d="M0.270165 8.16526C0.227653 8.12275 0.227653 8.05382 0.270165 8.01132L1.60995 6.67153C1.65246 6.62902 1.72138 6.62902 1.76389 6.67153L3.10368 8.01132C3.14619 8.05382 3.14619 8.12275 3.10368 8.16526L1.76389 9.50509C1.72138 9.54753 1.65246 9.54753 1.60995 9.50509L0.270165 8.16526Z" fill="#FBC01A"/>
<path d="M6.3522 2.08445C6.30968 2.04193 6.30968 1.97301 6.3522 1.93051L7.69198 0.59072C7.73449 0.54821 7.80342 0.54821 7.84593 0.59072L9.18571 1.93051C9.22822 1.97301 9.22822 2.04193 9.18571 2.08445L7.84593 3.42423C7.80342 3.46674 7.73449 3.46674 7.69198 3.42423L6.3522 2.08445Z" fill="#FBC01A"/>
<path d="M6.3522 14.246C6.30968 14.2034 6.30968 14.1345 6.3522 14.092L7.69198 12.7522C7.73449 12.7097 7.80342 12.7097 7.84593 12.7522L9.18571 14.092C9.22822 14.1345 9.22822 14.2034 9.18571 14.246L7.84593 15.5857C7.80342 15.6282 7.73449 15.6282 7.69198 15.5857L6.3522 14.246Z" fill="#FBC01A"/>
<path d="M12.4323 8.16526C12.3898 8.12275 12.3898 8.05382 12.4323 8.01132L13.7721 6.67153C13.8146 6.62902 13.8835 6.62902 13.926 6.67153L15.2658 8.01132C15.3083 8.05382 15.3083 8.12275 15.2658 8.16526L13.926 9.50509C13.8835 9.54753 13.8146 9.54753 13.7721 9.50509L12.4323 8.16526Z" fill="#FBC01A"/>
</g>
<defs>
<clipPath id="clip0_1680_12404">
<rect width="16" height="16" fill="white"/>
</clipPath>
</defs>
</svg>
