<svg width="111" height="111" viewBox="0 0 111 111" fill="none" xmlns="http://www.w3.org/2000/svg">
<path d="M85.4546 21.4719C85.4546 21.4674 85.4535 21.4629 85.4515 21.4589L75.3831 0.929726C74.9793 0.106331 73.9843 -0.233811 73.1608 0.170032L53.2367 9.94075C52.8417 10.1345 52.3859 10.1635 51.9695 10.0216L30.9651 2.86185C30.0971 2.56597 29.1535 3.02958 28.8575 3.89739L21.6933 24.898C21.551 25.3152 21.2486 25.6586 20.8528 25.8527L0.929737 35.623C0.106356 36.0267 -0.233784 37.0214 0.169987 37.8447L9.93894 57.7632C10.1327 58.1583 10.1617 58.6143 10.0194 59.0308L2.84195 80.0458C2.54546 80.9139 3.00923 81.8579 3.87763 82.1539L24.8794 89.3127C25.2968 89.455 25.6404 89.7574 25.8346 90.1532L35.6028 110.07C36.0066 110.894 37.0017 111.234 37.8252 110.83L57.7489 101.059C58.1441 100.866 58.6001 100.837 59.0167 100.979L80.0345 108.151C80.9026 108.448 81.8466 107.984 82.1427 107.116L89.3067 86.116C89.449 85.6989 89.7514 85.3554 90.1472 85.1613L110.07 75.3911C110.894 74.9873 111.234 73.9927 110.83 73.1694L101.061 53.2506C100.867 52.8556 100.838 52.3999 100.98 51.9836L108.145 30.982C108.441 30.114 107.977 29.1704 107.109 28.8744L85.4747 21.5C85.4627 21.4959 85.4546 21.4846 85.4546 21.4719Z" fill="#FBC01A"/>
<path fill-rule="evenodd" clip-rule="evenodd" d="M85.4876 33.8195C86.1486 33.7367 86.6285 34.4333 86.3156 35.0215L60.7172 83.1454C57.987 88.1909 54.3082 82.5419 50.2516 78.4853L25.1021 53.3355C24.6168 52.8502 24.9046 52.0191 25.5861 51.9377L33.5263 50.9897C33.9031 50.9447 34.2002 50.6476 34.2452 50.2708L35.1933 42.3306C35.2746 41.6492 36.1058 41.3614 36.5911 41.8467L53.6845 58.9404C54.0735 59.3293 54.7273 59.2341 54.9891 58.7503L71.9657 27.3765C72.292 26.7734 73.1698 26.8113 73.443 27.4402L76.4466 34.3556C76.592 34.6904 76.9407 34.8893 77.3028 34.8439L85.4876 33.8195Z" fill="white"/>
</svg>
