<svg width="135" height="135" viewBox="0 0 135 135" fill="none" xmlns="http://www.w3.org/2000/svg">
<path d="M0 10.6071C0 10.0745 0.431725 9.64282 0.964286 9.64282H96.8825C97.4151 9.64282 97.8468 10.0745 97.8468 10.6071V103.219C97.8468 103.751 97.4151 104.183 96.8825 104.183H31.6735C31.4766 104.183 31.2845 104.243 31.1229 104.356L1.51485 124.946C0.87548 125.391 0 124.934 0 124.155V10.6071Z" fill="#FBC01A"/>
<rect x="13.2966" y="24.1941" width="75.0053" height="7.40397" rx="0.964286" fill="white"/>
<rect x="13.2966" y="40.3904" width="75.0053" height="7.40397" rx="0.964286" fill="white"/>
<rect x="13.2966" y="56.5867" width="75.0053" height="7.40397" rx="0.964286" fill="white"/>
<path d="M45.2891 76.6755C45.2891 76.1429 45.7208 75.7112 46.2534 75.7112H132.904C133.649 75.7112 134.113 76.5195 133.736 77.1624L121.877 97.4361C121.701 97.7369 121.701 98.1091 121.877 98.4099L133.736 118.684C134.113 119.326 133.649 120.135 132.904 120.135H46.2534C45.7209 120.135 45.2891 119.703 45.2891 119.171V76.6755Z" fill="#0CC4E9"/>
<circle cx="67.2308" cy="97.923" r="4.39586" fill="white"/>
<circle cx="84.7009" cy="97.923" r="4.39586" fill="white"/>
<circle cx="102.171" cy="97.923" r="4.39586" fill="white"/>
</svg>
