<svg width="23" height="19" viewBox="0 0 23 19" fill="none" xmlns="http://www.w3.org/2000/svg">
<path fill-rule="evenodd" clip-rule="evenodd" d="M8.16634 1.91602C6.73961 1.91602 5.58301 3.07261 5.58301 4.49935C5.58301 5.92608 6.73961 7.08268 8.16634 7.08268C9.59308 7.08268 10.7497 5.92608 10.7497 4.49935C10.7497 3.07261 9.59308 1.91602 8.16634 1.91602ZM4 5.25C4.05106 5.25 4.10093 5.2449 4.14913 5.23517C4.49561 7.13913 6.1624 8.58268 8.16634 8.58268C10.1704 8.58268 11.8372 7.139 12.1836 5.23492C12.2322 5.24481 12.2825 5.25 12.334 5.25H21.5007C21.9149 5.25 22.2507 4.91421 22.2507 4.5C22.2507 4.08579 21.9149 3.75 21.5007 3.75H12.334C12.2826 3.75 12.2323 3.75518 12.1838 3.76504C11.838 1.86033 10.1708 0.416016 8.16634 0.416016C6.16196 0.416016 4.49488 1.8602 4.1489 3.76478C4.10078 3.75509 4.05098 3.75 4 3.75H1.5C1.08579 3.75 0.75 4.08579 0.75 4.5C0.75 4.91421 1.08579 5.25 1.5 5.25H4ZM18.8506 15.2351C18.5041 17.1391 16.8373 18.5827 14.8333 18.5827C12.8294 18.5827 11.1626 17.1391 10.8161 15.2351C10.7678 15.2449 10.7178 15.25 10.6667 15.25H1.5C1.08579 15.25 0.75 14.9142 0.75 14.5C0.75 14.0858 1.08579 13.75 1.5 13.75H10.6667C10.7178 13.75 10.7677 13.7551 10.8159 13.7648C11.1618 11.8602 12.8289 10.416 14.8333 10.416C16.8377 10.416 18.5048 11.8602 18.8508 13.7648C18.899 13.7551 18.9489 13.75 19 13.75H21.5C21.9142 13.75 22.25 14.0858 22.25 14.5C22.25 14.9142 21.9142 15.25 21.5 15.25H19C18.9488 15.25 18.8989 15.2449 18.8506 15.2351ZM12.25 14.4993C12.25 13.0726 13.4066 11.916 14.8333 11.916C16.2601 11.916 17.4167 13.0726 17.4167 14.4993C17.4167 15.9261 16.2601 17.0827 14.8333 17.0827C13.4066 17.0827 12.25 15.9261 12.25 14.4993Z" fill="#24E2AB"/>
</svg>
