<svg width="135" height="135" viewBox="0 0 135 135" fill="none" xmlns="http://www.w3.org/2000/svg">
<g clip-path="url(#clip0_910_6056)">
<path fill-rule="evenodd" clip-rule="evenodd" d="M0.836791 36.6425L31.5325 67.3266C31.5948 67.3889 31.6606 67.4468 31.7295 67.5004C31.6619 67.5522 31.5972 67.6083 31.5357 67.6684L0.834949 98.3576C0.434077 98.7593 0.162417 99.2723 0.0548325 99.8291C-0.052752 100.387 0.00862556 100.963 0.2311 101.485C0.453573 102.008 0.827018 102.452 1.30351 102.76C1.78001 103.068 2.33785 103.228 2.90551 103.218L30.0344 102.749C30.3216 102.743 30.607 102.797 30.8735 102.904C31.1399 103.012 31.3819 103.171 31.5851 103.375C31.7882 103.578 31.9483 103.819 32.0558 104.086C32.1633 104.352 32.216 104.638 32.2108 104.925L31.6868 132.089C31.6742 132.659 31.8328 133.218 32.142 133.697C32.4511 134.176 32.8967 134.55 33.4212 134.773C33.9457 134.996 34.5249 135.057 35.0841 134.947C35.6434 134.837 36.157 134.563 36.5584 134.159L67.2894 103.439C67.3558 103.372 67.4174 103.301 67.4739 103.227C67.5262 103.295 67.5829 103.36 67.6437 103.423L98.3441 134.112C98.7466 134.512 99.2588 134.784 99.8165 134.892C100.374 134.999 100.951 134.938 101.474 134.716C101.996 134.493 102.44 134.12 102.749 133.643C103.057 133.167 103.217 132.61 103.206 132.042L102.738 104.924C102.732 104.636 102.785 104.351 102.892 104.085C103 103.818 103.16 103.576 103.363 103.374C103.566 103.17 103.808 103.01 104.075 102.903C104.342 102.796 104.627 102.743 104.914 102.748L132.088 103.272C132.658 103.284 133.218 103.126 133.697 102.817C134.176 102.508 134.55 102.063 134.774 101.538C134.997 101.014 135.057 100.435 134.948 99.8755C134.838 99.317 134.563 98.8031 134.159 98.4015L103.428 67.6824C103.36 67.6153 103.289 67.5531 103.213 67.4961C103.288 67.4394 103.359 67.3775 103.427 67.3106L134.158 36.5912C134.56 36.1892 134.834 35.6759 134.943 35.1172C135.051 34.5586 134.99 33.9803 134.766 33.4569C134.543 32.9334 134.168 32.4888 133.69 32.1805C133.211 31.872 132.651 31.7139 132.082 31.7264L104.908 32.2502C104.621 32.2554 104.336 32.2027 104.069 32.0952C103.802 31.9878 103.56 31.8278 103.357 31.6247C103.154 31.4217 102.994 31.1797 102.886 30.9133C102.779 30.647 102.727 30.3618 102.732 30.0745L103.205 2.95083C103.215 2.38278 103.056 1.82457 102.747 1.34794C102.437 0.871307 101.993 0.498004 101.469 0.276029C100.946 0.054055 100.368 -0.00647415 99.8106 0.10223C99.2529 0.210936 98.7399 0.483924 98.3382 0.886081L67.6428 31.5703C67.5807 31.6324 67.5228 31.6981 67.4694 31.7667C67.4133 31.6929 67.3521 31.6226 67.2862 31.5561L36.5552 0.836663C36.1532 0.433829 35.6396 0.1606 35.0808 0.0521833C34.5219 -0.0562331 33.9434 0.00513163 33.4198 0.228376C32.8961 0.451621 32.4514 0.826517 32.1428 1.30473C31.8343 1.78295 31.6762 2.34258 31.6886 2.91149L32.2126 30.0756C32.2178 30.3627 32.1652 30.648 32.0577 30.9143C31.9502 31.1806 31.7901 31.4226 31.587 31.6257C31.3838 31.8287 31.1417 31.9888 30.8753 32.0963C30.6089 32.2037 30.3235 32.2564 30.0362 32.2511L2.90231 31.7777C2.33405 31.7673 1.77563 31.9269 1.29882 32.2361C0.822011 32.5453 0.44857 32.99 0.226513 33.513C0.00445549 34.036 -0.0560962 34.6134 0.0526493 35.171C0.161395 35.7288 0.434485 36.2411 0.836791 36.6425ZM60.9353 94.3954C64.231 97.6894 69.5743 97.6894 72.87 94.3954L94.3819 72.8912C97.6776 69.5967 97.6776 64.2554 94.3819 60.961L72.87 39.4571C69.5743 36.1627 64.231 36.1627 60.9353 39.4571L39.4234 60.961C36.1278 64.2554 36.1278 69.5967 39.4234 72.8912L60.9353 94.3954Z" fill="#0CC4E9"/>
<path d="M79.2891 78.2476C79.2891 78.7998 78.8414 79.2476 78.289 79.2476H55.5139C54.9616 79.2476 54.5139 78.7998 54.5139 78.2476V55.4816C54.5139 54.9293 54.9616 54.4816 55.5139 54.4816H78.289C78.8414 54.4816 79.2891 54.9293 79.2891 55.4816V78.2476Z" fill="#FBC01A"/>
</g>
<defs>
<clipPath id="clip0_910_6056">
<rect width="135" height="135" fill="white"/>
</clipPath>
</defs>
</svg>
