<svg width="86" height="86" viewBox="0 0 86 86" fill="none" xmlns="http://www.w3.org/2000/svg">
<path fill-rule="evenodd" clip-rule="evenodd" d="M43.8879 1.40426C43.1616 0.655776 41.9841 0.655772 41.2578 1.40426L12.9 30.6301C12.1737 31.3786 12.1737 32.5921 12.9 33.3406L41.2579 62.5664C41.9841 63.3149 43.1616 63.3149 43.8879 62.5664L72.2457 33.3406C72.972 32.5921 72.972 31.3786 72.2457 30.6301L43.8879 1.40426ZM43.9524 21.5559C43.0569 20.6432 41.6051 20.6432 40.7096 21.5559L32.2806 30.1465C31.3851 31.0592 31.3851 32.5389 32.2806 33.4516L40.998 42.3362C41.8935 43.2489 43.3454 43.2489 44.2408 42.3362L52.6698 33.7455C53.5653 32.8329 53.5653 31.3531 52.6698 30.4405L43.9524 21.5559Z" fill="#24E2AB"/>
<path d="M40.9746 44.5807C41.8701 43.6681 43.3219 43.6681 44.2174 44.5807L51.1895 51.6865C52.085 52.5992 52.085 54.0789 51.1895 54.9916L21.5912 85.1577C20.6956 86.0704 19.2437 86.0704 18.3482 85.1576L0.723769 67.1931C-0.17163 66.2804 -0.17159 64.8008 0.723858 63.8881L7.69603 56.7822C8.59152 55.8696 10.0434 55.8696 10.9389 56.7822L18.3494 64.3349C19.2449 65.2476 20.6967 65.2476 21.5922 64.3349L40.9746 44.5807Z" fill="#24E2AB"/>
<path d="M44.1286 44.5825C43.2331 43.6699 41.7812 43.6699 40.8858 44.5825L33.9151 51.6869C33.0196 52.5996 33.0196 54.0793 33.9151 54.992L54.9174 76.3972C54.918 76.3978 54.9183 76.3985 54.9183 76.3993C54.9183 76.4001 54.9186 76.4008 54.9191 76.4014L63.5135 85.1586C64.409 86.0711 65.8607 86.071 66.7562 85.1584L75.347 76.4027C75.3476 76.4022 75.3479 76.4014 75.3479 76.4007C75.3479 76.3999 75.3482 76.3992 75.3487 76.3987L84.3806 67.1935C85.2761 66.2808 85.2761 64.8011 84.3806 63.8884L77.4085 56.7826C76.5131 55.87 75.0612 55.87 74.1657 56.7826L66.7538 64.3367C65.8583 65.2494 64.4064 65.2494 63.511 64.3367L44.1286 44.5825Z" fill="#24E2AB"/>
</svg>
