<svg width="55" height="28" viewBox="0 0 55 28" fill="none" xmlns="http://www.w3.org/2000/svg">
<path d="M0 9.11024C0 9.41919 0.252796 9.66964 0.564635 9.66964H4.36225C4.67408 9.66964 4.92688 9.41919 4.92688 9.11024V5.5205C4.92688 5.35447 5.15075 5.29853 5.23023 5.4447L7.36763 9.37555C7.46612 9.55669 7.65704 9.66964 7.86472 9.66964H9.55659C9.76385 9.66964 9.95444 9.55715 10.0531 9.37658L12.2035 5.44161C12.2832 5.29577 12.5067 5.35186 12.5067 5.51771V9.11024C12.5067 9.41919 12.7595 9.66964 13.0713 9.66964H16.882C17.1938 9.66964 17.4466 9.41919 17.4466 9.11024V0.559403C17.4466 0.250454 17.1938 0 16.882 0H11.5474C11.3411 0 11.1513 0.111432 11.0522 0.290659L8.97868 4.041C8.91689 4.15276 8.7544 4.15145 8.69446 4.0387L6.7062 0.298716C6.60853 0.115005 6.4162 0 6.20662 0H0.564635C0.252795 0 0 0.250453 0 0.559403V9.11024Z" fill="white"/>
<path d="M23.8985 3.86006C23.8094 3.86006 23.7371 3.7885 23.7371 3.70023V2.79819C23.7371 2.70991 23.8094 2.63836 23.8985 2.63836H27.3572C28.0237 2.63836 28.2589 2.8853 28.2589 3.24921C28.2589 3.60012 28.0367 3.86006 27.3572 3.86006H23.8985ZM23.7371 6.97597C23.7371 6.75529 23.9177 6.5764 24.1404 6.5764H26.5077C27.906 6.5764 28.3896 7.21324 28.3896 8.201C28.3896 8.386 28.4122 8.77184 28.4308 9.11086C28.4477 9.41935 28.7077 9.66964 29.0196 9.66964H32.8302C33.1421 9.66964 33.3949 9.4192 33.3949 9.11025C33.3949 8.48907 33.3949 7.8572 33.3949 7.22624C33.3949 6.19629 32.8977 5.42658 31.8677 5.01632C31.7041 4.95118 31.6995 4.62534 31.8611 4.55559C32.6049 4.23459 33.3426 3.62323 33.3426 2.56037V2.4434C33.3426 0.519873 31.6045 0 29.5135 0H19.3357C19.0238 0 18.7711 0.250453 18.7711 0.559403V9.11024C18.7711 9.41919 19.0238 9.66964 19.3357 9.66964H23.1725C23.4843 9.66964 23.7371 9.41919 23.7371 9.11024V6.97597Z" fill="white"/>
<path d="M39.3945 0.559403C39.3945 0.250454 39.1417 0 38.8298 0H35.0061C34.6942 0 34.4414 0.250453 34.4414 0.559403V9.11024C34.4414 9.41919 34.6942 9.66964 35.0061 9.66964H38.8298C39.1417 9.66964 39.3945 9.41919 39.3945 9.11024V0.559403Z" fill="white"/>
<path d="M45.0099 9.11024C45.0099 9.41919 45.2627 9.66964 45.5745 9.66964H49.4113C49.7232 9.66964 49.976 9.41919 49.976 9.11024V6.51179C49.976 6.37741 50.0248 6.24753 50.1135 6.14588L54.901 0.660936C55.1269 0.402095 54.9413 0 54.5959 0H50.5806C50.3461 0 50.1231 0.101154 49.9699 0.277103L47.799 2.76993C47.7343 2.8442 47.618 2.84376 47.5539 2.769L45.4214 0.281777C45.2681 0.103027 45.0433 0 44.8066 0H40.2358C39.8863 0 39.7022 0.410217 39.9363 0.66724L44.8645 6.0788C44.9581 6.18159 45.0099 6.3151 45.0099 6.45354V9.11024Z" fill="white"/>
<path d="M18.7711 20.1057C18.7711 20.4147 19.0238 20.6651 19.3357 20.6651H26.56C32.5323 20.6651 33.8523 18.3777 33.8523 15.9733V15.5704C33.8523 13.075 32.1141 10.9955 26.56 10.9955H19.3357C19.0238 10.9955 18.7711 11.2459 18.7711 11.5549V20.1057ZM23.7371 14.3174C23.7371 14.1409 23.8816 13.9978 24.0598 13.9978H25.7236C28.4941 13.9978 28.7163 15.1805 28.7163 15.7523V15.8303C28.7163 16.4022 28.5333 17.6759 25.7236 17.6759H24.0598C23.8816 17.6759 23.7371 17.5328 23.7371 17.3562V14.3174Z" fill="white"/>
<path d="M39.3962 11.5549C39.3962 11.2459 39.1434 10.9955 38.8316 10.9955H35.0079C34.696 10.9955 34.4432 11.2459 34.4432 11.5549V20.1057C34.4432 20.4147 34.696 20.6651 35.0079 20.6651H38.8316C39.1434 20.6651 39.3962 20.4147 39.3962 20.1057V11.5549Z" fill="white"/>
<path d="M44.8846 20.1057C44.8846 20.4147 45.1374 20.6651 45.4493 20.6651H49.2861C49.5979 20.6651 49.8507 20.4147 49.8507 20.1057V17.5073C49.8507 17.3729 49.8995 17.243 49.9882 17.1414L54.7757 11.6564C55.0016 11.3976 54.816 10.9955 54.4706 10.9955H50.4553C50.2208 10.9955 49.9978 11.0967 49.8446 11.2726L47.6737 13.7654C47.609 13.8397 47.4927 13.8393 47.4286 13.7645L45.2961 11.2773C45.1428 11.0985 44.9181 10.9955 44.6813 10.9955H40.224C39.8767 10.9955 39.6918 11.4014 39.9215 11.6594L44.7434 17.0754C44.8344 17.1776 44.8846 17.3092 44.8846 17.4454V20.1057Z" fill="white"/>
<path fill-rule="evenodd" clip-rule="evenodd" d="M12.6061 27.6672C12.6061 27.996 12.1765 28.1252 11.9928 27.8516L8.96485 23.344C8.83193 23.1461 8.53878 23.1468 8.40686 23.3453L5.41962 27.8404C5.23675 28.1156 4.80538 27.987 4.80538 27.6574L4.80538 23.5948C4.80538 23.4112 4.65549 23.2624 4.47059 23.2624L0.368239 23.2624C0.0370199 23.2624 -0.0930678 22.836 0.182501 22.6536L4.72322 19.6477C4.92254 19.5157 4.92182 19.2247 4.72184 19.0938L0.193814 16.1283C-0.0833746 15.9468 0.0460997 15.5185 0.378175 15.5185H4.47059C4.65549 15.5185 4.80538 15.3697 4.80538 15.1862L4.80538 11.1236C4.80538 10.7939 5.23675 10.6654 5.41962 10.9406L8.40686 15.4356C8.53878 15.6341 8.83193 15.6348 8.96484 15.437L11.9928 10.9293C12.1765 10.6558 12.6061 10.7849 12.6061 11.1137L12.6061 15.1862C12.6061 15.3697 12.756 15.5185 12.9409 15.5185H17.0333C17.3654 15.5185 17.4949 15.9468 17.2177 16.1283L12.6896 19.0938C12.4897 19.2247 12.4889 19.5157 12.6883 19.6477L17.229 22.6536C17.5046 22.836 17.3745 23.2624 17.0432 23.2624H12.9409C12.756 23.2624 12.6061 23.4112 12.6061 23.5948V27.6672ZM8.74036 21.4852C9.92477 21.4852 10.8849 20.532 10.8849 19.3562C10.8849 18.1805 9.92477 17.2273 8.74036 17.2273C7.55595 17.2273 6.5958 18.1805 6.5958 19.3562C6.5958 20.532 7.55595 21.4852 8.74036 21.4852Z" fill="#FF5C00"/>
<path d="M21.2793 27.2629C23.0913 27.2629 23.3917 26.6569 23.3917 26.0652V25.9979C23.3917 25.2861 22.8442 24.959 21.4876 24.9349L20.882 24.9253C20.1455 24.9109 20.0486 24.7714 20.0486 24.6175C20.0486 24.4636 20.1116 24.3097 20.9837 24.3097H21.0612C21.7183 24.3097 21.9535 24.4516 22.044 24.5833C22.0987 24.6628 22.1732 24.7377 22.2697 24.7377H23.2274C23.2539 24.7377 23.2755 24.7162 23.2755 24.6896C23.2755 24.1509 22.8878 23.5593 21.1824 23.5593H20.848C19.2055 23.5593 18.8858 24.1173 18.8858 24.6512V24.6944C18.8858 25.2524 19.2976 25.7045 20.6445 25.743L21.2647 25.7574C22.0981 25.7815 22.2095 25.9113 22.2095 26.1182C22.2095 26.3106 22.1029 26.4981 21.1533 26.4981H21.0855C20.3884 26.4981 20.1429 26.301 20.0575 26.1111C20.0145 26.0153 19.9331 25.9306 19.8282 25.9306H18.8902C18.861 25.9306 18.8373 25.9543 18.8373 25.9835C18.8373 26.4548 19.0553 27.2629 20.9449 27.2629H21.2793Z" fill="white"/>
<path d="M26.2428 27.2629C28.302 27.2629 28.6606 26.2625 28.6606 25.8103C28.6606 25.7811 28.6369 25.7574 28.6077 25.7574H27.6046C27.5202 25.7574 27.451 25.8131 27.4122 25.888C27.314 26.0778 27.0313 26.3923 26.1508 26.3923C25.0994 26.3923 24.8135 25.8344 24.8135 25.4111V25.3534C24.8135 24.9061 25.0606 24.4251 26.1411 24.4251C26.9959 24.4251 27.2929 24.7046 27.4005 24.886C27.4454 24.9616 27.5191 25.0215 27.607 25.0215H28.6028C28.632 25.0215 28.6557 24.9978 28.6557 24.9686C28.6557 24.5502 28.3311 23.5593 26.2428 23.5593H26.0442C23.9123 23.5593 23.6313 24.68 23.6313 25.3293V25.4688C23.6313 26.1037 23.9559 27.2629 26.0442 27.2629H26.2428Z" fill="white"/>
<path d="M29.0524 27.0009C29.0524 27.1111 29.1417 27.2004 29.2518 27.2004H29.9819C30.092 27.2004 30.1813 27.1111 30.1813 27.0009V25.9905C30.1813 25.8804 30.2706 25.7911 30.3807 25.7911H32.4044C32.5146 25.7911 32.6039 25.8804 32.6039 25.9905V27.0009C32.6039 27.1111 32.6931 27.2004 32.8033 27.2004H33.5333C33.6435 27.2004 33.7328 27.1111 33.7328 27.0009V23.8213C33.7328 23.7111 33.6435 23.6219 33.5333 23.6219H32.8033C32.6931 23.6219 32.6039 23.7111 32.6039 23.8213V24.7259C32.6039 24.836 32.5146 24.9253 32.4044 24.9253H30.3807C30.2706 24.9253 30.1813 24.836 30.1813 24.7259V23.8213C30.1813 23.7111 30.092 23.6219 29.9819 23.6219H29.2518C29.1417 23.6219 29.0524 23.7111 29.0524 23.8213V27.0009Z" fill="white"/>
<path d="M36.679 23.5593C34.3969 23.5593 34.1401 24.6896 34.1401 25.3293V25.4736C34.1401 26.1037 34.3969 27.2629 36.679 27.2629H36.8873C39.1597 27.2629 39.4213 26.1037 39.4213 25.4736V25.3293C39.4213 24.6896 39.1549 23.5593 36.8873 23.5593H36.679ZM38.2391 25.4304C38.2391 25.844 37.992 26.3923 36.7807 26.3923C35.5598 26.3923 35.3224 25.8296 35.3224 25.4207V25.363C35.3224 24.9542 35.5404 24.4251 36.7807 24.4251C38.0017 24.4251 38.2391 24.9542 38.2391 25.363V25.4304Z" fill="white"/>
<path d="M42.2197 23.5593C39.9376 23.5593 39.6808 24.6896 39.6808 25.3293V25.4736C39.6808 26.1037 39.9376 27.2629 42.2197 27.2629H42.428C44.7004 27.2629 44.962 26.1037 44.962 25.4736V25.3293C44.962 24.6896 44.6955 23.5593 42.428 23.5593H42.2197ZM43.7798 25.4304C43.7798 25.844 43.5327 26.3923 42.3214 26.3923C41.1005 26.3923 40.863 25.8296 40.863 25.4207V25.363C40.863 24.9542 41.0811 24.4251 42.3214 24.4251C43.5424 24.4251 43.7798 24.9542 43.7798 25.363V25.4304Z" fill="white"/>
<path d="M45.5663 23.6219C45.4562 23.6219 45.3669 23.7111 45.3669 23.8213V27.0009C45.3669 27.1111 45.4562 27.2004 45.5663 27.2004H48.8013C48.9114 27.2004 49.0007 27.1111 49.0007 27.0009V26.51C49.0007 26.3998 48.9114 26.3106 48.8013 26.3106H46.6952C46.5851 26.3106 46.4958 26.2213 46.4958 26.1111V23.8213C46.4958 23.7111 46.4065 23.6219 46.2963 23.6219H45.5663Z" fill="white"/>
</svg>
