<svg width="111" height="111" viewBox="0 0 111 111" fill="none" xmlns="http://www.w3.org/2000/svg">
<g clip-path="url(#clip0_595_4182)">
<path d="M100.188 52.5549L107.247 31.909C107.688 30.62 107 29.2178 105.711 28.7771L85.0656 21.7182L75.441 2.11521C74.8404 0.892043 73.3619 0.387545 72.139 0.988528L52.5553 10.6123L31.8893 3.55266C30.6005 3.11235 29.1986 3.80009 28.7579 5.08888L21.699 25.7352L2.11442 35.3594C0.891772 35.9602 0.387693 37.4386 0.988532 38.6611L10.6127 58.2457L3.55388 78.8913C3.11314 80.1805 3.80084 81.5827 5.0899 82.0234L25.7356 89.0822L35.3603 108.685C35.9608 109.908 37.4393 110.413 38.6624 109.812L58.2461 100.188L78.8912 107.247C80.1804 107.688 81.583 106.999 82.0233 105.71L89.0826 85.0456L108.686 75.4205C109.909 74.8202 110.414 73.342 109.814 72.1193L100.188 52.5155V52.5549ZM95.0492 59.309L59.2897 95.0684C57.1434 97.2148 53.6382 97.2148 51.4919 95.0684L15.7325 59.309C13.5861 57.1626 13.5861 53.6576 15.7325 51.5111L51.4919 15.7321C53.6382 13.5857 57.1434 13.5857 59.2897 15.7321L95.0492 51.4915C97.1955 53.6378 97.1955 57.143 95.0492 59.2893V59.309Z" fill="#FBC01A"/>
<path d="M69.0755 55.4097C69.0755 47.8482 62.9515 41.7241 55.39 41.7241C47.8287 41.7241 41.7046 47.8482 41.7046 55.4097C41.7046 62.9711 47.8287 69.0952 55.39 69.0952C62.9515 69.0952 69.0755 62.9711 69.0755 55.4097Z" fill="#24E2AB"/>
</g>
<defs>
<clipPath id="clip0_595_4182">
<rect width="111" height="111" fill="white"/>
</clipPath>
</defs>
</svg>
