<svg width="16" height="16" viewBox="0 0 16 16" fill="none" xmlns="http://www.w3.org/2000/svg">
<g clip-path="url(#clip0_2621_7959)">
<path fill-rule="evenodd" clip-rule="evenodd" d="M8.10985 1.97206C8.02145 1.89603 7.89075 1.89603 7.80235 1.97206L6.15635 3.38764C6.1185 3.42019 6.0713 3.43989 6.02153 3.4439L3.86499 3.61757C3.74957 3.62686 3.65798 3.71859 3.64886 3.83401L3.47649 6.01384C3.4726 6.063 3.4534 6.1097 3.42158 6.14738L2.0156 7.81235C1.94141 7.9002 1.94141 8.02875 2.0156 8.11661L3.42158 9.78158C3.4534 9.81925 3.4726 9.86596 3.47649 9.91512L3.64886 12.0949C3.65798 12.2104 3.74957 12.3021 3.86499 12.3114L6.02153 12.4851C6.0713 12.4891 6.1185 12.5088 6.15635 12.5413L7.80235 13.9569C7.89076 14.0329 8.02145 14.0329 8.10985 13.9569L9.75585 12.5413C9.7937 12.5088 9.84091 12.4891 9.89067 12.4851L12.0472 12.3114C12.1626 12.3021 12.2542 12.2104 12.2633 12.0949L12.4357 9.91512C12.4396 9.86596 12.4588 9.81925 12.4906 9.78158L13.8966 8.11661C13.9708 8.02875 13.9708 7.9002 13.8966 7.81235L12.4906 6.14738C12.4588 6.1097 12.4396 6.063 12.4357 6.01384L12.2633 3.83401C12.2542 3.71859 12.1626 3.62686 12.0472 3.61757L9.89067 3.4439C9.84091 3.43989 9.7937 3.42019 9.75585 3.38764L8.10985 1.97206ZM4.26013 7.79734C4.16847 7.88985 4.16847 8.03982 4.26013 8.13232L7.73195 11.636C7.82361 11.7285 7.97222 11.7285 8.06388 11.636L11.5357 8.13232C11.6274 8.03982 11.6274 7.88985 11.5357 7.79734L8.06388 4.29368C7.97222 4.20118 7.82361 4.20118 7.73195 4.29368L4.26013 7.79734Z" fill="#FBC01A"/>
<path d="M9.89283 3.08705L8.51392 1.82803C8.4549 1.77414 8.46547 1.67839 8.53482 1.63866L10.9619 0.248483C11.0261 0.211746 11.1078 0.24241 11.1319 0.31227L12.1163 3.15998C12.1444 3.24119 12.0789 3.32418 11.9934 3.31583L9.96086 3.11733C9.93551 3.11485 9.91164 3.10423 9.89283 3.08705Z" fill="#FF5C00"/>
<path d="M5.81696 3.13059L3.96087 3.22425C3.88099 3.22828 3.82061 3.15227 3.84187 3.07447L4.58409 0.359263C4.60357 0.287999 4.68227 0.251963 4.74824 0.284103L7.43909 1.59505C7.51621 1.63262 7.52878 1.73819 7.46268 1.79313L5.8857 3.10373C5.86624 3.1199 5.84214 3.12932 5.81696 3.13059Z" fill="#FF5C00"/>
<path d="M3.13322 6.0032L1.88714 7.39308C1.83323 7.45321 1.73618 7.44257 1.69659 7.37217L0.318826 4.92241C0.28291 4.85854 0.313326 4.77774 0.382436 4.75341L3.20314 3.76041C3.28438 3.73181 3.36787 3.79714 3.35965 3.88287L3.16279 5.93576C3.16039 5.96082 3.15002 5.98445 3.13322 6.0032Z" fill="#FF5C00"/>
<path d="M3.17434 10.0531L3.26715 11.9262C3.27114 12.0068 3.19582 12.0677 3.11873 12.0463L0.428209 11.2972C0.357592 11.2776 0.321885 11.1982 0.353732 11.1316L1.65276 8.41604C1.68999 8.33822 1.79461 8.32553 1.84904 8.39224L3.14773 9.98368C3.16375 10.0033 3.17309 10.0276 3.17434 10.0531Z" fill="#FF5C00"/>
<path d="M12.8257 5.79851L12.7329 3.92539C12.7289 3.84478 12.8042 3.78384 12.8813 3.8053L15.5718 4.55433C15.6424 4.57398 15.6781 4.65341 15.6463 4.71998L14.3472 7.43552C14.31 7.51334 14.2054 7.52603 14.151 7.45932L12.8523 5.86788C12.8362 5.84824 12.8269 5.82392 12.8257 5.79851Z" fill="#FF5C00"/>
<path d="M12.8551 9.90891L14.1011 8.51903C14.1551 8.4589 14.2521 8.46954 14.2917 8.53994L15.6695 10.9897C15.7054 11.0536 15.675 11.1344 15.6058 11.1587L12.7851 12.1517C12.7039 12.1803 12.6204 12.115 12.6286 12.0292L12.8255 9.97635C12.8279 9.95129 12.8383 9.92765 12.8551 9.90891Z" fill="#FF5C00"/>
<path d="M10.0346 12.8694L11.8907 12.7758C11.9706 12.7717 12.031 12.8477 12.0097 12.9255L11.2675 15.6407C11.248 15.712 11.1693 15.748 11.1033 15.7159L8.41247 14.4049C8.33536 14.3674 8.32279 14.2618 8.38889 14.2069L9.96586 12.8963C9.98532 12.8801 10.0094 12.8707 10.0346 12.8694Z" fill="#FF5C00"/>
<path d="M6.02124 12.9011L7.40014 14.1601C7.45916 14.214 7.44859 14.3098 7.37924 14.3495L4.95214 15.7397C4.888 15.7764 4.80627 15.7457 4.78212 15.6759L3.79776 12.8282C3.76969 12.747 3.83513 12.664 3.92065 12.6723L5.9532 12.8708C5.97856 12.8733 6.00243 12.8839 6.02124 12.9011Z" fill="#FF5C00"/>
<rect width="2.63022" height="2.63022" rx="0.117896" transform="matrix(0.703871 -0.710328 0.703871 0.710328 6.10547 7.95697)" fill="#FF5C00"/>
</g>
<defs>
<clipPath id="clip0_2621_7959">
<rect width="16" height="16" fill="white"/>
</clipPath>
</defs>
</svg>
