<svg width="111" height="111" viewBox="0 0 111 111" fill="none" xmlns="http://www.w3.org/2000/svg">
<g clip-path="url(#clip0_321_2277)">
<path d="M4.65189 109.619C2.57138 110.575 0.423405 108.427 1.38022 106.347L24.3361 56.4312C24.6386 55.7736 24.6369 55.0163 24.3315 54.36L1.05363 4.33182C0.0829788 2.24572 2.24456 0.084144 4.33066 1.0548L54.3588 24.3327C55.0151 24.6381 55.7724 24.6397 56.4301 24.3373L106.346 1.38138C108.426 0.424566 110.574 2.57254 109.617 4.65306L86.6616 54.5688C86.3591 55.2264 86.3608 55.9837 86.6662 56.64L109.944 106.668C110.915 108.754 108.753 110.916 106.667 109.945L56.6389 86.6673C55.9826 86.362 55.2253 86.3603 54.5676 86.6627L4.65189 109.619Z" fill="#FBC01A"/>
<path d="M53.9588 11.0273C54.6108 10.0616 56.0326 10.0616 56.6846 11.0273L73.8101 36.3914C73.9279 36.566 74.0782 36.7163 74.2528 36.8341L99.617 53.9596C100.583 54.6116 100.583 56.0334 99.617 56.6854L74.2528 73.8109C74.0782 73.9288 73.9279 74.079 73.8101 74.2536L56.6846 99.6178C56.0326 100.583 54.6108 100.583 53.9588 99.6178L36.8333 74.2536C36.7155 74.079 36.5652 73.9288 36.3906 73.8109L11.0264 56.6854C10.0608 56.0334 10.0608 54.6116 11.0264 53.9596L36.3906 36.8341C36.5652 36.7163 36.7155 36.566 36.8333 36.3914L53.9588 11.0273Z" fill="#FF5C00"/>
<path d="M55.0336 36.2702C55.3575 35.9315 55.8983 35.9315 56.2221 36.2702L62.6547 42.9969C62.7631 43.1102 62.9016 43.1902 63.054 43.2274L72.0958 45.4348C72.5509 45.5459 72.8214 46.0144 72.69 46.4641L70.0808 55.3982C70.0368 55.5488 70.0368 55.7087 70.0808 55.8592L72.69 64.7934C72.8214 65.2431 72.5509 65.7115 72.0958 65.8227L63.054 68.0301C62.9016 68.0673 62.7631 68.1473 62.6547 68.2606L56.2221 74.9873C55.8983 75.3259 55.3575 75.3259 55.0336 74.9873L48.6011 68.2606C48.4927 68.1473 48.3541 68.0673 48.2018 68.0301L39.16 65.8227C38.7048 65.7115 38.4344 65.2431 38.5657 64.7934L41.175 55.8592C41.2189 55.7087 41.2189 55.5488 41.175 55.3982L38.5657 46.4641C38.4344 46.0144 38.7048 45.5459 39.16 45.4348L48.2018 43.2274C48.3541 43.1902 48.4927 43.1102 48.6011 42.9969L55.0336 36.2702Z" fill="white"/>
</g>
<defs>
<clipPath id="clip0_321_2277">
<rect width="111" height="111" fill="white"/>
</clipPath>
</defs>
</svg>
