<svg width="16" height="16" viewBox="0 0 16 16" fill="none" xmlns="http://www.w3.org/2000/svg">
<path d="M7.66652 0.249519C7.78106 -0.0600615 8.21892 -0.0600609 8.33345 0.24952L10.2677 5.47767C10.3039 5.57553 10.3812 5.65254 10.4793 5.68831L15.7365 7.60675C16.0481 7.72044 16.0481 8.16108 15.7365 8.27477L10.4793 10.1932C10.3812 10.229 10.3039 10.306 10.2677 10.4039L8.33345 15.632C8.21892 15.9416 7.78105 15.9416 7.66652 15.632L5.7323 10.4039C5.6961 10.306 5.61874 10.229 5.52072 10.1932L0.263455 8.27477C-0.0481055 8.16108 -0.0481046 7.72044 0.263456 7.60675L5.52072 5.68831C5.61874 5.65254 5.6961 5.57553 5.7323 5.47767L7.66652 0.249519Z" fill="#FBC01A"/>
<path d="M4.52113 2.64191C4.46467 2.31589 4.84507 2.09626 5.09918 2.30817L8.59045 5.21958C8.67058 5.28641 8.77602 5.31466 8.87884 5.29686L13.3581 4.52113C13.6841 4.46467 13.9037 4.84507 13.6918 5.09918L10.7804 8.59045C10.7136 8.67058 10.6853 8.77602 10.7031 8.87884L11.4788 13.3581C11.5353 13.6841 11.1549 13.9037 10.9008 13.6918L7.40953 10.7804C7.32939 10.7136 7.22395 10.6853 7.12114 10.7031L2.64191 11.4788C2.31589 11.5353 2.09626 11.1549 2.30817 10.9008L5.21958 7.40953C5.28641 7.32939 5.31466 7.22395 5.29686 7.12114L4.52113 2.64191Z" fill="#0CC4E9"/>
<path d="M11.191 9.98861C11.316 10.1704 11.1467 10.4093 10.9337 10.3517L8.3843 9.66145C8.31715 9.64327 8.24541 9.6555 8.18809 9.6949L6.01143 11.191C5.82964 11.3159 5.59072 11.1466 5.64836 10.9337L6.33859 8.38424C6.35677 8.31709 6.34453 8.24535 6.30513 8.18803L4.80907 6.01137C4.68412 5.82958 4.85344 5.59066 5.06636 5.6483L7.6158 6.33853C7.68294 6.3567 7.75468 6.34447 7.81201 6.30507L9.98867 4.80901C10.1705 4.68406 10.4094 4.85338 10.3517 5.0663L9.66151 7.61574C9.64333 7.68288 9.65556 7.75462 9.69496 7.81195L11.191 9.98861Z" fill="white"/>
</svg>
