<svg width="21" height="20" viewBox="0 0 21 20" fill="none" xmlns="http://www.w3.org/2000/svg">
<path d="M16.6047 6.74338C14.7686 5.1906 12.4418 4.33875 10.0371 4.33875C7.63236 4.33875 5.30555 5.1906 3.46949 6.74338L0.36131 9.36072H0.361463C0.164435 9.52641 0.0507812 9.77074 0.0507812 10.0282C0.0507812 10.2855 0.164435 10.5298 0.361463 10.6955L3.46964 13.3128L3.46949 13.313C5.30558 14.8656 7.63236 15.7176 10.0371 15.7176C12.4418 15.7176 14.7686 14.8656 16.6047 13.313L19.7128 10.6957L19.7127 10.6955C19.9097 10.5298 20.0234 10.2855 20.0234 10.0282C20.0234 9.77076 19.9097 9.52641 19.7127 9.36072L16.6047 6.74338ZM7.77531 10.0303C7.7747 9.42966 8.01281 8.85333 8.43728 8.42824C8.86175 8.00315 9.43781 7.76428 10.0386 7.76412C10.6393 7.76397 11.2154 8.00253 11.6402 8.42715C12.0648 8.85193 12.3034 9.4281 12.3033 10.0288C12.3031 10.6296 12.0642 11.2056 11.6391 11.6301C11.214 12.0546 10.6377 12.2927 10.037 12.2921C9.43758 12.291 8.86292 12.0523 8.43892 11.6284C8.01504 11.2044 7.77632 10.6297 7.77527 10.0303L7.77531 10.0303ZM2.27881 10.0303L4.58425 8.06738C5.85862 6.9902 7.42371 6.31545 9.0817 6.1283C7.90972 6.4119 6.92809 7.20882 6.40971 8.29757C5.89122 9.38616 5.89122 10.6505 6.40971 11.7392C6.92809 12.8278 7.90972 13.6248 9.0817 13.9083C7.42636 13.7282 5.86139 13.0618 4.58425 11.9933L2.27881 10.0303ZM15.49 11.9933C14.2156 13.0705 12.6505 13.7452 10.9925 13.9324C12.1645 13.6488 13.1461 12.8518 13.6645 11.7631C14.183 10.6745 14.183 9.41019 13.6645 8.32144C13.1461 7.23286 12.1645 6.43592 10.9925 6.15233C12.6478 6.33247 14.2128 6.99885 15.49 8.06738L17.8064 10.0303L15.49 11.9933Z" fill="#B6B6B6"/>
</svg>
