<svg width="16" height="16" viewBox="0 0 16 16" fill="none" xmlns="http://www.w3.org/2000/svg">
<g clip-path="url(#clip0_538_3641)">
<path d="M5.82014 2.88571C5.77196 2.84136 5.77039 2.76582 5.81669 2.71952L7.91849 0.61772C7.96347 0.572739 8.0364 0.572739 8.08138 0.61772L10.184 2.72031C10.23 2.76631 10.2288 2.84126 10.1813 2.88577L8.09917 4.83837C8.05516 4.87964 7.98676 4.87996 7.94238 4.8391L5.82014 2.88571Z" fill="#FBC01A"/>
<path d="M8.09283 11.6685L4.2914 15.2364C4.24168 15.2832 4.17904 15.314 4.11154 15.325C4.04404 15.3359 3.97475 15.3265 3.91259 15.2978C3.85043 15.2692 3.79822 15.2227 3.76269 15.1643C3.72716 15.1059 3.70991 15.0383 3.71318 14.9702L3.86593 11.7157C3.86758 11.6812 3.86225 11.6468 3.85026 11.6144C3.83826 11.582 3.81985 11.5524 3.79613 11.5272C3.7724 11.5021 3.74385 11.4819 3.71217 11.468C3.6805 11.4541 3.64635 11.4467 3.61177 11.4463L0.340512 11.4066C0.271995 11.406 0.205197 11.3849 0.148729 11.3461C0.0922604 11.3072 0.0487084 11.2524 0.0236875 11.1888C-0.0013335 11.1251 -0.00667642 11.0554 0.00834493 10.9888C0.0233663 10.9221 0.058064 10.8615 0.107968 10.8148L3.91377 7.24275C3.96307 7.19687 4.0285 7.17219 4.09597 7.17403L8.06694 7.26828C8.1342 7.27202 8.19736 7.30191 8.24286 7.35153C8.28836 7.40116 8.31257 7.46656 8.3103 7.5337L8.17329 11.4907C8.17103 11.5582 8.14211 11.6221 8.09283 11.6685Z" fill="#0CC4E9"/>
<path d="M12.3296 7.34421L15.9068 11.1358C15.9537 11.1854 15.9846 11.2478 15.9956 11.3152C16.0065 11.3825 15.9971 11.4516 15.9684 11.5136C15.9397 11.5756 15.8931 11.6277 15.8345 11.6631C15.776 11.6985 15.7082 11.7157 15.6398 11.7125L12.3769 11.5601C12.3423 11.5585 12.3078 11.5638 12.2753 11.5758C12.2429 11.5877 12.2131 11.6061 12.1879 11.6297C12.1627 11.6534 12.1425 11.6819 12.1286 11.7135C12.1146 11.7451 12.1072 11.7791 12.1068 11.8136L12.067 15.0764C12.0664 15.1447 12.0452 15.2114 12.0063 15.2677C11.9674 15.324 11.9124 15.3674 11.8486 15.3924C11.7847 15.4173 11.7149 15.4227 11.6481 15.4077C11.5812 15.3927 11.5205 15.3581 11.4736 15.3083L7.8923 11.5124C7.84631 11.4632 7.82156 11.398 7.82341 11.3307L7.9179 7.37003C7.92165 7.30295 7.95161 7.23995 8.00137 7.19457C8.05113 7.14919 8.1167 7.12504 8.18402 7.1273L12.1513 7.26396C12.219 7.26622 12.2831 7.29506 12.3296 7.34421Z" fill="#0CC4E9"/>
<path d="M3.88429 7.27065C6.33589 4.96965 10.1935 5.08656 12.5005 7.53179L8.06149 11.6981L3.88429 7.27065Z" fill="#0CC4E9"/>
<path d="M7.9146 5.50128L6.94192 4.60439C6.89782 4.56372 6.82988 4.56371 6.78577 4.60438L4.42303 6.78279C4.32967 6.86886 4.42388 7.02053 4.54241 6.97499L7.87783 5.69348C7.95754 5.66285 7.97738 5.55917 7.9146 5.50128Z" fill="#0CC4E9"/>
<path d="M8.13017 5.5069L9.1332 4.62998C9.17711 4.59159 9.24279 4.59208 9.28612 4.63113L12.0824 7.15073C12.1793 7.23804 12.0793 7.39378 11.9596 7.34202L8.16028 5.69934C8.08258 5.66574 8.06645 5.56262 8.13017 5.5069Z" fill="#0CC4E9"/>
<path d="M9.80056 7.00055C9.82703 7.02237 9.84236 7.05488 9.84236 7.08922L9.84236 11.3593C9.84236 11.4615 9.7193 11.5134 9.64645 11.442L8.11256 9.93854C8.06775 9.89462 7.99592 9.89479 7.95111 9.93892L6.41722 11.4495C6.34437 11.5213 6.22131 11.4699 6.22131 11.3678L6.22131 7.09771C6.22131 7.06337 6.23664 7.03078 6.26311 7.00884L7.95845 5.60336C8.00104 5.56805 8.06263 5.56791 8.10522 5.60302L9.80056 7.00055Z" fill="#FBC01A"/>
</g>
<defs>
<clipPath id="clip0_538_3641">
<rect width="16" height="16" fill="white"/>
</clipPath>
</defs>
</svg>
