<svg width="111" height="111" viewBox="0 0 111 111" fill="none" xmlns="http://www.w3.org/2000/svg">
<path d="M40.1574 19.8805C39.825 19.5745 39.8142 19.0533 40.1336 18.7339L54.6349 4.23263C54.9452 3.92229 55.4484 3.92229 55.7587 4.23263L70.2653 18.7392C70.5826 19.0567 70.5744 19.5738 70.2473 19.8809L55.8814 33.3527C55.5778 33.6375 55.1059 33.6397 54.7996 33.3578L40.1574 19.8805Z" fill="#FBC01A"/>
<path d="M55.836 80.4789L29.6082 105.095C29.2652 105.418 28.833 105.631 28.3673 105.707C27.9016 105.782 27.4235 105.717 26.9947 105.52C26.5658 105.322 26.2056 105.001 25.9604 104.598C25.7153 104.196 25.5963 103.729 25.6188 103.259L26.6727 80.8046C26.6841 80.5666 26.6473 80.3292 26.5646 80.1057C26.4818 79.8821 26.3548 79.6779 26.1912 79.5041C26.0274 79.3309 25.8305 79.1922 25.6119 79.0963C25.3934 78.9997 25.1578 78.9486 24.9192 78.9459L2.34934 78.6727C1.87661 78.6678 1.41574 78.5223 1.02615 78.2546C0.636545 77.9869 0.33606 77.6088 0.16343 77.1693C-0.00920041 76.7298 -0.0460635 76.2489 0.0575753 75.7894C0.161214 75.3292 0.400609 74.9111 0.744918 74.5889L27.0028 49.9439C27.3429 49.6274 27.7944 49.4571 28.2599 49.4698L55.6573 50.1201C56.1214 50.1459 56.5571 50.3521 56.8711 50.6944C57.185 51.0368 57.352 51.4881 57.3364 51.9514L56.3911 79.2522C56.3755 79.7186 56.176 80.1595 55.836 80.4789Z" fill="#0CC4E9"/>
<path d="M85.0667 50.6437L109.747 76.8034C110.071 77.1456 110.284 77.5768 110.36 78.0411C110.435 78.5055 110.37 78.9822 110.172 79.41C109.974 79.8377 109.653 80.1972 109.249 80.4414C108.845 80.6864 108.377 80.805 107.905 80.7823L85.3931 79.7308C85.1543 79.7198 84.9163 79.7563 84.6921 79.8391C84.4685 79.9212 84.2629 80.0482 84.0891 80.2117C83.9152 80.3745 83.7758 80.5712 83.6799 80.7892C83.5833 81.0072 83.5323 81.2425 83.5295 81.4805L83.2549 103.991C83.2508 104.463 83.1045 104.923 82.8361 105.311C82.5678 105.7 82.1883 106 81.7481 106.172C81.3072 106.344 80.8256 106.381 80.3648 106.277C79.9032 106.174 79.4844 105.935 79.1608 105.592L54.4519 79.4017C54.1346 79.0629 53.9638 78.6124 53.9766 78.1481L54.6285 50.8218C54.6544 50.359 54.8611 49.9244 55.2044 49.6113C55.5477 49.2981 56.0001 49.1315 56.4646 49.1471L83.8366 50.09C84.3037 50.1056 84.7459 50.3046 85.0667 50.6437Z" fill="#0CC4E9"/>
<path d="M26.7992 50.1364C43.7139 34.2608 70.3292 35.0674 86.2462 51.9381L55.6195 80.6838L26.7992 50.1364Z" fill="#0CC4E9"/>
<path d="M54.6071 37.9283L47.8961 31.7402C47.5919 31.4596 47.1231 31.4596 46.8188 31.7402L30.5172 46.77C29.8731 47.3639 30.5231 48.4103 31.3409 48.096L54.3534 39.2543C54.9033 39.0431 55.0402 38.3277 54.6071 37.9283Z" fill="#0CC4E9"/>
<path d="M56.0936 37.9671L63.014 31.9168C63.3169 31.652 63.7701 31.6554 64.069 31.9248L83.3618 49.3086C84.0303 49.911 83.3404 50.9856 82.5145 50.6284L56.3014 39.2948C55.7653 39.0631 55.654 38.3515 56.0936 37.9671Z" fill="#0CC4E9"/>
<path d="M67.6141 48.273C67.7967 48.4235 67.9025 48.6478 67.9025 48.8848V78.3463C67.9025 79.0507 67.0535 79.4088 66.5508 78.9162L55.9679 68.5435C55.6587 68.2407 55.1631 68.2413 54.854 68.5463L44.271 78.9686C43.7684 79.4633 42.9193 79.1093 42.9193 78.4049V48.9433C42.9193 48.7064 43.0251 48.4816 43.2077 48.3302L54.9046 38.6332C55.1984 38.3896 55.6234 38.3886 55.9172 38.6308L67.6141 48.273Z" fill="#FBC01A"/>
</svg>
