<svg width="48" height="48" viewBox="0 0 48 48" fill="none" xmlns="http://www.w3.org/2000/svg">
<path d="M24 9C15.7296 9 9 15.7296 9 24C9 32.2704 15.7296 39 24 39C32.2704 39 39 32.2704 39 24C39 15.7296 32.2704 9 24 9ZM29.5238 27.7573C30.0114 28.2448 30.0114 29.0363 29.5238 29.5257C29.2798 29.7692 28.9594 29.8914 28.6408 29.8914C28.3217 29.8914 28.0013 29.7692 27.7573 29.5257L24 25.7683L20.2427 29.5257C19.9987 29.7692 19.6783 29.8914 19.3592 29.8914C19.0388 29.8914 18.7202 29.7692 18.4762 29.5257C17.9886 29.0381 17.9886 28.2467 18.4762 27.7573L22.2317 24L18.4743 20.2427C17.9868 19.7552 17.9868 18.9637 18.4743 18.4743C18.9619 17.985 19.7533 17.9868 20.2427 18.4743L24 22.2317L27.7573 18.4743C28.2448 17.9868 29.0363 17.9868 29.5257 18.4743C30.015 18.9619 30.0132 19.7533 29.5257 20.2427L25.7683 24L29.5238 27.7573Z" fill="white"/>
</svg>
