<svg width="85" height="85" viewBox="0 0 85 85" fill="none" xmlns="http://www.w3.org/2000/svg">
<g clip-path="url(#clip0_653_4539)">
<path d="M40.2874 7.67965L24.2363 2.19177C23.2341 1.84913 22.1439 2.38378 21.8013 3.38595L16.3134 19.437L1.07297 26.9197C0.122012 27.3866 -0.270213 28.5361 0.197021 29.4869L7.67908 44.7123L2.19052 60.779C1.8482 61.7811 2.38287 62.8712 3.38485 63.2136L19.4364 68.7016L26.9188 83.9277C27.3858 84.878 28.5351 85.2701 29.4857 84.803L44.7117 77.3205L60.763 82.8085C61.7651 83.151 62.8552 82.6165 63.1977 81.6144L68.6856 65.5631L83.9262 58.0806C84.8771 57.6135 85.2692 56.4641 84.8021 55.5132L77.3202 40.2879L82.8076 24.2373C83.1506 23.235 82.6156 22.1446 81.6129 21.8022L65.5471 16.314L58.0646 1.07297C57.5975 0.12225 56.4487 -0.270058 55.4978 0.196719L40.2567 7.67965H40.2874ZM45.5383 11.6753L73.3397 39.4766C75.0085 41.1453 75.0085 43.8702 73.3397 45.539L45.5383 73.3401C43.8697 75.0089 41.1447 75.0089 39.476 73.3401L11.6594 45.539C9.99071 43.8702 9.99071 41.1453 11.6594 39.4766L39.4606 11.6753C41.1294 10.0067 43.8544 10.0067 45.523 11.6753H45.5383Z" fill="#0CC4E9"/>
<path d="M42.0118 61.4168L26.9289 76.4999C26.7316 76.6979 26.4796 76.8316 26.2052 76.885C25.9309 76.9379 25.6467 76.9082 25.3893 76.7987C25.1318 76.6892 24.9128 76.5053 24.7604 76.2702C24.608 76.0355 24.5292 75.761 24.534 75.4816L24.753 62.1347C24.7554 61.9934 24.7293 61.8531 24.6763 61.7221C24.6233 61.591 24.5444 61.4718 24.4444 61.372C24.3443 61.2717 24.2253 61.193 24.0941 61.1401C23.963 61.0867 23.8226 61.0608 23.6813 61.0635L10.315 61.3068C10.035 61.3127 9.75959 61.2345 9.5241 61.0829C9.28862 60.9309 9.10395 60.7119 8.99381 60.4541C8.88367 60.1962 8.8532 59.912 8.90627 59.6369C8.95934 59.3624 9.09348 59.1094 9.29153 58.912L24.3918 43.8119C24.5874 43.6179 24.8516 43.5087 25.1274 43.5078L35.8143 43.4375C36.114 46.8819 38.897 49.6152 42.3632 49.837L42.3183 60.679C42.3175 60.9562 42.2073 61.221 42.0118 61.4168Z" fill="#FBC01A"/>
<path d="M43.4336 49.827L43.5051 60.6908C43.506 60.9669 43.6151 61.2307 43.8091 61.4265L58.9095 76.5268C59.1069 76.7248 59.3593 76.8591 59.6344 76.9119C59.9089 76.9653 60.1937 76.9346 60.4515 76.8246C60.7088 76.7145 60.9278 76.5295 61.0799 76.2944C61.2319 76.0587 61.3102 75.7831 61.3042 75.5031L61.0604 62.1368C61.0583 61.9955 61.0842 61.8553 61.137 61.7242C61.1904 61.5931 61.2692 61.4739 61.3689 61.3741C61.4693 61.2738 61.5885 61.1951 61.7195 61.1422C61.8506 61.0888 61.9908 61.0629 62.1321 61.0656L75.4785 61.2841C75.7585 61.2889 76.033 61.2102 76.2676 61.0581C76.5022 60.9054 76.6862 60.6865 76.7956 60.4292C76.9051 60.1714 76.9353 59.8877 76.8819 59.6131C76.8291 59.3386 76.6948 59.0867 76.4974 58.8893L61.4143 43.8065C61.2185 43.6111 60.9531 43.5009 60.6764 43.5001L49.8209 43.4551C49.519 46.839 46.8198 49.533 43.4336 49.827Z" fill="#FBC01A"/>
<path d="M49.8378 42.3823L60.6884 42.3109C60.9641 42.3101 61.2283 42.2009 61.4241 42.0068L76.524 26.9066C76.7219 26.7091 76.8562 26.4566 76.9096 26.1818C76.9625 25.9069 76.9317 25.6224 76.8217 25.3647C76.7117 25.107 76.5272 24.888 76.2915 24.736C76.0563 24.584 75.7807 24.5059 75.5008 24.5118L62.1345 24.7555C61.9931 24.7579 61.8529 24.7318 61.7213 24.6788C61.5902 24.6258 61.4711 24.5469 61.3713 24.4469C61.2715 24.3468 61.1922 24.2277 61.1393 24.0966C61.0865 23.9655 61.0601 23.8251 61.0628 23.6838L61.2817 10.3373C61.2866 10.0578 61.2078 9.783 61.0552 9.54833C60.9031 9.3136 60.6836 9.12968 60.4263 9.02019C60.169 8.9107 59.8848 8.8806 59.6103 8.93384C59.3363 8.98702 59.0839 9.1211 58.887 9.31878L43.8039 24.4017C43.6084 24.5975 43.4982 24.8628 43.4974 25.1398L43.4531 35.8181C46.8956 36.1254 49.6241 38.9137 49.8378 42.3823Z" fill="#FBC01A"/>
<path d="M42.3792 35.8049L42.3089 25.1313C42.3081 24.8555 42.1989 24.5913 42.0049 24.3957L26.9047 9.29543C26.7071 9.09738 26.4546 8.96324 26.1798 8.91017C25.905 8.85709 25.6204 8.88762 25.3627 8.9977C25.105 9.10784 24.8861 9.29252 24.734 9.528C24.582 9.76348 24.5039 10.0389 24.5098 10.3189L24.7535 23.6852C24.7559 23.8265 24.7299 23.9669 24.6769 24.098C24.6238 24.2292 24.545 24.3482 24.4449 24.4483C24.3449 24.5483 24.2258 24.6272 24.0947 24.6802C23.9636 24.7332 23.8232 24.7593 23.6818 24.7569L10.3353 24.5379C10.0558 24.5331 9.78105 24.6119 9.54638 24.7643C9.31165 24.9167 9.12773 25.1357 9.01824 25.3932C8.90875 25.6506 8.87865 25.9348 8.93189 26.2092C8.98507 26.4835 9.11915 26.7355 9.31683 26.9328L24.3997 42.0157C24.5956 42.2112 24.8608 42.3213 25.1378 42.3222L35.8028 42.3664C36.0288 38.8414 38.8521 36.023 42.3792 35.8049Z" fill="#FBC01A"/>
</g>
<defs>
<clipPath id="clip0_653_4539">
<rect width="85" height="85" fill="white"/>
</clipPath>
</defs>
</svg>
