<svg width="250" height="250" viewBox="0 0 250 250" fill="none" xmlns="http://www.w3.org/2000/svg">
<path d="M210.065 205.104C210.851 207.448 208.618 209.681 206.273 208.895L125.285 181.739C124.667 181.532 123.999 181.532 123.381 181.739L42.3937 208.895C40.0488 209.681 37.8153 207.448 38.6016 205.104L65.7581 124.116C65.9652 123.498 65.9652 122.83 65.7581 122.212L38.6016 41.2247C37.8153 38.8797 40.0488 36.6462 42.3937 37.4325L123.381 64.5891C123.999 64.7962 124.667 64.7962 125.285 64.5891L206.273 37.4325C208.618 36.6462 210.851 38.8797 210.065 41.2247L182.908 122.212C182.7 122.83 182.7 123.498 182.908 124.116L210.065 205.104Z" fill="#FBC01A"/>
<path d="M5.19789 125.799C3.12056 124.663 3.12056 121.679 5.1979 120.543L79.749 79.7696C80.2516 79.4947 80.6648 79.0814 80.9397 78.5789L121.713 4.02772C122.849 1.9504 125.833 1.9504 126.969 4.02772L167.743 78.5789C168.018 79.0814 168.431 79.4947 168.933 79.7696L243.484 120.543C245.562 121.679 245.562 124.663 243.484 125.799L168.933 166.572C168.431 166.847 168.018 167.26 167.743 167.763L126.969 242.314C125.833 244.391 122.849 244.391 121.713 242.314L80.9397 167.763C80.6648 167.26 80.2516 166.847 79.749 166.572L5.19789 125.799Z" fill="#FF5C00"/>
<path d="M102.977 128.569H106.908V135.278H102.977V141.516H95.6911V135.278H78.3411V128.569L90.5542 104.824H98.3118L86.1512 128.569H95.6911V119.868H102.977V128.569Z" fill="white"/>
<path d="M124.159 142.25C119.581 142.25 115.982 140.521 113.361 137.061C110.775 133.532 109.482 128.902 109.482 123.171C109.482 117.44 110.775 112.827 113.361 109.333C115.982 105.838 119.581 104.091 124.159 104.091C128.806 104.091 132.405 105.838 134.956 109.333C137.542 112.827 138.835 117.44 138.835 123.171C138.835 128.902 137.542 133.532 134.956 137.061C132.405 140.521 128.806 142.25 124.159 142.25ZM131.654 123.171C131.654 119.257 131.008 116.269 129.715 114.208C128.457 112.146 126.605 111.115 124.159 111.115C121.712 111.115 119.86 112.146 118.602 114.208C117.344 116.269 116.715 119.257 116.715 123.171C116.715 127.085 117.344 130.072 118.602 132.134C119.86 134.161 121.712 135.174 124.159 135.174C126.605 135.174 128.457 134.143 129.715 132.082C131.008 130.02 131.654 127.05 131.654 123.171Z" fill="white"/>
<path d="M166.399 128.569H170.331V135.278H166.399V141.516H159.113V135.278H141.764V128.569L153.978 104.824H161.734L149.574 128.569H159.113V119.868H166.399V128.569Z" fill="white"/>
</svg>
