<svg width="25" height="25" viewBox="0 0 25 25" fill="none" xmlns="http://www.w3.org/2000/svg">
<path fill-rule="evenodd" clip-rule="evenodd" d="M12.5 25C19.4036 25 25 19.4036 25 12.5C25 5.59643 19.4036 3.39263e-06 12.5 2.18557e-06C5.59642 9.7851e-07 -9.7851e-07 5.59642 -2.18557e-06 12.5C-3.39263e-06 19.4036 5.59642 25 12.5 25ZM16.3461 11.5385L9.80769 4.80769C9.20988 4.19231 8.53296 4.6795 8.26923 5C7.80769 5.61539 8.07692 6.15385 8.26923 6.34615L14.2308 12.5L8.46153 18.4615C7.6923 19.2308 8.07692 19.9038 8.46153 20.1923C9.07692 20.6538 9.74357 20.3846 10 20.1923L16.3461 13.6538C17.5 12.6923 16.7308 11.9231 16.3461 11.5385Z" fill="#FF5C00"/>
</svg>
