<svg width="85" height="85" viewBox="0 0 85 85" fill="none" xmlns="http://www.w3.org/2000/svg">
<path fill-rule="evenodd" clip-rule="evenodd" d="M61.6131 83.3562C61.6131 84.9795 59.5081 85.6168 58.6076 84.2669L43.7697 62.0157C43.1184 61.039 41.6819 61.042 41.0354 62.0226L26.397 84.2109C25.5009 85.5692 23.387 84.935 23.387 83.3078V63.2535C23.387 62.3474 22.6525 61.6133 21.7465 61.6133H1.64358C0.0204986 61.6133 -0.616973 59.5078 0.733399 58.6079L22.9844 43.7697C23.9611 43.1185 23.9576 41.6818 22.9777 41.0353L0.788839 26.3967C-0.569473 25.5006 0.0649927 23.387 1.69227 23.387H21.7465C22.6525 23.387 23.387 22.6524 23.387 21.7464V1.69229C23.387 0.0650242 25.5009 -0.569462 26.397 0.788817L41.0354 22.9776C41.6819 23.9572 43.1184 23.961 43.7697 22.9844L58.6075 0.733449C59.508 -0.616997 61.6131 0.0204878 61.6131 1.6436V21.7464C61.6131 22.6524 62.3476 23.387 63.2536 23.387H83.3078C84.935 23.387 85.5692 25.5006 84.2116 26.3967L62.0224 41.0353C61.0425 41.6818 61.0389 43.1185 62.0157 43.7697L84.2669 58.6079C85.6168 59.5078 84.9795 61.6133 83.3562 61.6133H63.2537C62.3476 61.6133 61.6131 62.3474 61.6131 63.2535V83.3562ZM42.6697 52.8397C48.4737 52.8397 53.1787 48.135 53.1787 42.3307C53.1787 36.5271 48.4737 31.8217 42.6697 31.8217C36.8657 31.8217 32.1607 36.5271 32.1607 42.3307C32.1607 48.135 36.8657 52.8397 42.6697 52.8397Z" fill="#FF5C00"/>
</svg>
