<svg width="85" height="85" viewBox="0 0 85 85" fill="none" xmlns="http://www.w3.org/2000/svg">
<g clip-path="url(#clip0_709_5605)">
<path d="M28.3885 21.7424L13.2812 6.36818C15.2652 4.34925 17.6204 2.74767 20.2125 1.65503C22.8046 0.562399 25.5828 0 28.3885 0C31.1941 0 33.9724 0.562399 36.5645 1.65503C39.1566 2.74772 41.5119 16.6457 43.4958 18.6646C45.4797 16.6457 47.8349 2.74772 50.427 1.65503C53.0193 0.562399 55.7972 1.08368e-05 58.6027 1.61493e-05C61.4087 1.61493e-05 64.1866 0.562399 66.7791 1.65503C69.371 2.74772 71.7265 4.34925 73.7102 6.36824L58.6032 21.7423C56.619 23.7613 54.264 25.3629 51.6718 26.4555C49.0797 27.5482 46.3015 28.1106 43.4958 28.1106C40.6901 28.1106 37.9119 27.5482 35.3198 26.4555C32.7277 25.3629 30.3724 23.7614 28.3885 21.7424Z" fill="#FBC01A"/>
<path d="M28.3886 63.2574C30.3725 61.2381 32.7277 59.6369 35.3199 58.5441C37.912 57.4513 40.6902 56.8887 43.4958 56.8887C46.3015 56.8887 49.0797 57.4513 51.6718 58.5441C54.264 59.6369 56.619 61.2381 58.6032 63.2574L73.7102 78.6314C71.7265 80.6502 69.371 82.2519 66.7791 83.3447C64.1866 84.437 61.4087 84.9996 58.6027 84.9996C55.7972 84.9996 53.0193 84.437 50.427 83.3447C47.8349 82.2519 45.4798 70.4543 43.4958 68.4355C41.512 70.4543 39.1566 82.2519 36.5645 83.3447C33.9724 84.437 31.1941 84.9996 28.3885 84.9996C25.5828 84.9996 22.8046 84.437 20.2125 83.3447C17.6204 82.2519 15.2652 80.6502 13.2812 78.6314L28.3886 63.2574Z" fill="#FBC01A"/>
<path d="M1.64207 36.1858C2.72615 38.7984 15.0117 41.1723 17.0149 43.1719L21.5719 27.9453L6.3183 12.7188C4.31514 14.7183 2.72616 17.0922 1.64207 19.7047C0.557973 22.3173 -1.06248e-06 25.1175 0 27.9453C-1.59373e-06 30.7731 0.557973 33.5733 1.64207 36.1858Z" fill="#FBC01A"/>
<path d="M6.3183 73.6232C4.31513 71.6236 2.72616 69.2494 1.64206 66.6372C0.557971 64.0245 5.31244e-07 61.2242 0 58.3964C1.06249e-06 55.5685 0.557977 52.7682 1.64207 50.156C2.72616 47.5433 15.0117 45.1695 17.0149 43.1699L21.5719 58.3964L6.3183 73.6232Z" fill="#FBC01A"/>
<path d="M21.5727 27.9453C23.5758 29.9449 25.1648 32.3188 26.249 34.9313C27.3331 37.5439 27.891 40.3441 27.891 43.1719C27.891 45.9997 27.3331 48.8002 26.249 51.4123C25.1648 54.0251 23.5758 56.3987 21.5727 58.3984L17.0156 43.1719L21.5727 27.9453Z" fill="#FBC01A"/>
<path d="M83.3579 50.1561C82.2736 47.5434 71.3055 45.1695 69.3028 43.1699L63.4277 58.3964L78.6813 73.6233C80.6846 71.6236 82.2736 69.2495 83.3579 66.6373C84.4416 64.0245 84.9999 61.2243 84.9999 58.3964C84.9999 55.5685 84.4416 52.7683 83.3579 50.1561Z" fill="#FBC01A"/>
<path d="M78.6813 12.7188C80.6846 14.7183 82.2736 17.0922 83.3579 19.7048C84.4416 22.3173 84.9999 25.1175 84.9999 27.9453C84.9999 30.7731 84.4416 33.5733 83.3579 36.1858C82.2736 38.7984 71.3055 41.1723 69.3028 43.1719L63.4277 27.9453L78.6813 12.7188Z" fill="#FBC01A"/>
<path d="M63.4275 58.3984C61.4241 56.3987 59.8352 54.0251 58.7514 51.4123C57.6672 48.7996 57.1094 45.9997 57.1094 43.1719C57.1094 40.344 57.6672 37.5439 58.7514 34.9313C59.8352 32.3188 61.4241 29.9449 63.4275 27.9453L69.3025 43.1719L63.4275 58.3984Z" fill="#FBC01A"/>
<path d="M39.2826 26.7965C41.1962 24.1486 45.1399 24.1486 47.0535 26.7965C48.1119 28.2612 49.9044 29.0061 51.6893 28.7234C54.9028 28.2144 57.6732 31.0338 57.1717 34.2485C56.8928 36.0374 57.6307 37.855 59.09 38.9264C61.7303 40.8648 61.7303 44.8103 59.09 46.7488C57.6307 47.8202 56.8928 49.6377 57.1717 51.4265C57.6732 54.6416 54.9028 57.461 51.6893 56.9515C49.9044 56.6689 48.1119 57.4142 47.0535 58.8784C45.1399 61.5267 41.1962 61.5267 39.2826 58.8784C38.2242 57.4142 36.4316 56.6689 34.6468 56.9515C31.4334 57.461 28.6631 54.6416 29.1644 51.4265C29.4433 49.6377 28.7054 47.8202 27.246 46.7488C24.6055 44.8103 24.6055 40.8648 27.246 38.9264C28.7054 37.855 29.4433 36.0374 29.1644 34.2485C28.6631 31.0338 31.4334 28.2144 34.6468 28.7234C36.4316 29.0061 38.2242 28.2612 39.2826 26.7965Z" fill="#0CC4E9"/>
</g>
<defs>
<clipPath id="clip0_709_5605">
<rect width="85" height="85" fill="white"/>
</clipPath>
</defs>
</svg>
