<svg width="16" height="16" viewBox="0 0 16 16" fill="none" xmlns="http://www.w3.org/2000/svg">
<g clip-path="url(#clip0_2929_2593)">
<path fill-rule="evenodd" clip-rule="evenodd" d="M8.11083 1.97206C8.02243 1.89603 7.89173 1.89603 7.80333 1.97206L6.15733 3.38764C6.11948 3.42019 6.07227 3.43989 6.02251 3.4439L3.86596 3.61757C3.75055 3.62686 3.65896 3.71859 3.64983 3.83401L3.47746 6.01384C3.47358 6.063 3.45437 6.1097 3.42256 6.14738L2.01658 7.81235C1.94239 7.9002 1.94239 8.02875 2.01658 8.11661L3.42256 9.78158C3.45437 9.81925 3.47358 9.86596 3.47746 9.91512L3.64983 12.0949C3.65896 12.2104 3.75055 12.3021 3.86596 12.3114L6.02251 12.4851C6.07227 12.4891 6.11948 12.5088 6.15733 12.5413L7.80333 13.9569C7.89173 14.0329 8.02243 14.0329 8.11083 13.9569L9.75683 12.5413C9.79468 12.5088 9.84188 12.4891 9.89165 12.4851L12.0482 12.3114C12.1636 12.3021 12.2552 12.2104 12.2643 12.0949L12.4367 9.91512C12.4406 9.86596 12.4598 9.81925 12.4916 9.78158L13.8976 8.11661C13.9718 8.02875 13.9718 7.9002 13.8976 7.81235L12.4916 6.14738C12.4598 6.1097 12.4406 6.063 12.4367 6.01384L12.2643 3.83401C12.2552 3.71859 12.1636 3.62686 12.0482 3.61757L9.89165 3.4439C9.84188 3.43989 9.79468 3.42019 9.75683 3.38764L8.11083 1.97206ZM4.26111 7.79734C4.16945 7.88985 4.16945 8.03982 4.26111 8.13232L7.73292 11.636C7.82458 11.7285 7.9732 11.7285 8.06486 11.636L11.5367 8.13232C11.6283 8.03982 11.6283 7.88985 11.5367 7.79734L8.06486 4.29368C7.9732 4.20118 7.82458 4.20118 7.73292 4.29368L4.26111 7.79734Z" fill="#FBC01A"/>
<path d="M9.89283 3.08705L8.51392 1.82803C8.4549 1.77414 8.46547 1.67839 8.53482 1.63866L10.9619 0.248483C11.0261 0.211746 11.1078 0.24241 11.1319 0.31227L12.1163 3.15998C12.1444 3.24119 12.0789 3.32418 11.9934 3.31583L9.96086 3.11733C9.93551 3.11485 9.91164 3.10423 9.89283 3.08705Z" fill="#FF5C00"/>
<path d="M5.81891 3.13059L3.96282 3.22425C3.88295 3.22828 3.82256 3.15227 3.84383 3.07447L4.58604 0.359263C4.60552 0.287999 4.68422 0.251963 4.75019 0.284103L7.44104 1.59505C7.51816 1.63262 7.53073 1.73819 7.46463 1.79313L5.88766 3.10373C5.86819 3.1199 5.84409 3.12932 5.81891 3.13059Z" fill="#FF5C00"/>
<path d="M3.13126 6.0032L1.88518 7.39308C1.83127 7.45321 1.73423 7.44257 1.69464 7.37217L0.316873 4.92241C0.280957 4.85854 0.311373 4.77774 0.380483 4.75341L3.20119 3.76041C3.28243 3.73181 3.36592 3.79714 3.3577 3.88287L3.16084 5.93576C3.15843 5.96082 3.14807 5.98445 3.13126 6.0032Z" fill="#FF5C00"/>
<path d="M3.17434 10.0531L3.26715 11.9262C3.27114 12.0068 3.19582 12.0677 3.11873 12.0463L0.428209 11.2972C0.357592 11.2776 0.321885 11.1982 0.353732 11.1316L1.65276 8.41604C1.68999 8.33822 1.79461 8.32553 1.84904 8.39224L3.14773 9.98368C3.16375 10.0033 3.17309 10.0276 3.17434 10.0531Z" fill="#FF5C00"/>
<path d="M12.8257 5.79851L12.7329 3.92539C12.7289 3.84478 12.8042 3.78384 12.8813 3.8053L15.5718 4.55433C15.6424 4.57398 15.6781 4.65341 15.6463 4.71998L14.3472 7.43552C14.31 7.51334 14.2054 7.52603 14.151 7.45932L12.8523 5.86788C12.8362 5.84824 12.8269 5.82392 12.8257 5.79851Z" fill="#FF5C00"/>
<path d="M12.8551 9.90891L14.1011 8.51903C14.1551 8.4589 14.2521 8.46954 14.2917 8.53994L15.6695 10.9897C15.7054 11.0536 15.675 11.1344 15.6058 11.1587L12.7851 12.1517C12.7039 12.1803 12.6204 12.115 12.6286 12.0292L12.8255 9.97635C12.8279 9.95129 12.8383 9.92765 12.8551 9.90891Z" fill="#FF5C00"/>
<path d="M10.0346 12.8694L11.8907 12.7758C11.9706 12.7717 12.031 12.8477 12.0097 12.9255L11.2675 15.6407C11.248 15.712 11.1693 15.748 11.1033 15.7159L8.41247 14.4049C8.33536 14.3674 8.32279 14.2618 8.38889 14.2069L9.96586 12.8963C9.98532 12.8801 10.0094 12.8707 10.0346 12.8694Z" fill="#FF5C00"/>
<path d="M6.02124 12.9011L7.40014 14.1601C7.45916 14.214 7.44859 14.3098 7.37924 14.3495L4.95214 15.7397C4.888 15.7764 4.80627 15.7457 4.78212 15.6759L3.79776 12.8282C3.76969 12.747 3.83513 12.664 3.92065 12.6723L5.9532 12.8708C5.97856 12.8733 6.00243 12.8839 6.02124 12.9011Z" fill="#FF5C00"/>
<rect width="2.63022" height="2.63022" rx="0.117896" transform="matrix(0.703871 -0.710328 0.703871 0.710328 6.10547 7.95691)" fill="#FF5C00"/>
</g>
<defs>
<clipPath id="clip0_2929_2593">
<rect width="16" height="16" fill="white"/>
</clipPath>
</defs>
</svg>
