<svg width="174" height="174" viewBox="0 0 174 174" fill="none" xmlns="http://www.w3.org/2000/svg">
<g clip-path="url(#clip0_709_5651)">
<path d="M86.7103 38.59L79.09 -2.23263C84.4326 -3.32688 89.9199 -3.35468 95.2388 -2.31415C100.558 -1.27356 105.604 0.814738 110.089 3.83164C114.575 6.84855 118.411 10.7351 121.38 15.2691C124.349 19.8031 113.171 44.5537 114.172 49.9145C119.514 48.8202 138.223 29.1349 143.542 30.1753C148.861 31.2161 153.907 33.3041 158.392 36.3208C162.878 39.3382 166.714 43.2242 169.684 47.7586C172.653 52.2925 174.696 57.3857 175.697 62.7464L135.014 71.0796C129.671 72.1737 124.184 72.2017 118.865 71.161C113.546 70.1206 108.5 68.0322 104.015 65.0153C99.5292 61.9984 95.6924 58.1119 92.7234 53.5778C89.7544 49.0438 87.711 43.9509 86.7103 38.59Z" fill="white"/>
<path d="M42.0694 104.96C47.4124 103.865 52.8994 103.838 58.2184 104.879C63.5374 105.919 68.5838 108.007 73.0692 111.024C77.5546 114.041 81.3911 117.927 84.36 122.462C87.3291 126.996 89.3722 132.088 90.3731 137.45L97.9931 178.272C92.6511 179.366 87.1631 179.394 81.8443 178.354C76.5253 177.312 71.4794 175.225 66.9935 172.207C62.5084 169.191 58.6724 165.304 55.7025 160.771C52.7336 156.236 61.6541 134.844 60.6532 129.483C55.3109 130.577 38.8598 146.905 33.5408 145.864C28.2224 144.823 23.1759 142.735 18.6905 139.718C14.2052 136.701 10.3687 132.815 7.39914 128.281C4.43025 123.747 2.3873 118.654 1.38635 113.293L42.0694 104.96Z" fill="white"/>
<path d="M28.422 32.9179C27.3459 38.2603 44.434 55.2659 45.4864 60.6165L69.1443 41.1747L61.1312 0.430746C55.7787 1.4734 50.6859 3.55967 46.1436 6.5705C41.6012 9.58142 37.6983 13.4579 34.6576 17.9786C31.617 22.4992 29.4981 27.5757 28.422 32.9179Z" fill="white"/>
<path d="M-4.35839 97.7974C-5.41066 92.4467 -5.39805 86.9426 -4.32236 81.6009C-3.24611 76.2584 -1.12711 71.1818 1.91362 66.661C4.95435 62.1402 8.8574 58.2636 13.3993 55.2534C17.9418 52.2423 40.135 61.658 45.4875 60.6154L36.4003 89.8572L-4.35839 97.7974Z" fill="white"/>
<path d="M69.1456 41.1746C70.198 46.5252 70.1857 52.0288 69.1097 57.3711C68.0336 62.7135 65.9147 67.7899 62.874 72.3106C59.8333 76.8313 55.9301 80.7082 51.3882 83.7184C46.8456 86.7295 41.7529 88.8154 36.4004 89.8582L45.4877 60.6163L69.1456 41.1746Z" fill="white"/>
<path d="M144.035 143.122C145.111 137.779 130.13 122.19 129.078 116.84L103.313 134.864L111.326 175.609C116.678 174.566 121.772 172.479 126.314 169.469C130.856 166.458 134.759 162.581 137.8 158.061C140.841 153.54 142.959 148.463 144.035 143.122Z" fill="white"/>
<path d="M176.816 78.2419C177.869 83.5927 177.857 89.0962 176.781 94.4388C175.704 99.7807 173.586 104.857 170.545 109.378C167.504 113.899 163.601 117.775 159.059 120.786C154.517 123.797 134.43 115.798 129.078 116.841L136.058 86.1817L176.816 78.2419Z" fill="white"/>
<path d="M103.312 134.864C102.26 129.513 102.272 124.01 103.349 118.668C104.425 113.325 106.544 108.249 109.584 103.729C112.625 99.2079 116.528 95.3312 121.07 92.3206C125.612 89.3094 130.705 87.223 136.058 86.1805L129.077 116.84L103.312 134.864Z" fill="white"/>
<path d="M98.6932 58.383C104.6 56.2075 110.904 60.4481 111.116 66.7389C111.234 70.2186 113.298 73.3369 116.456 74.8042C122.14 77.4459 123.538 84.9322 119.279 89.5322C116.91 92.0921 116.135 95.7911 117.316 99.0732C119.453 105.011 115.21 111.319 108.905 111.578C105.42 111.722 102.286 113.834 100.808 116.994C98.153 122.673 90.6923 124.201 86.1028 119.931C83.5533 117.56 79.8862 116.824 76.6197 118.026C70.7129 120.202 64.4081 115.962 64.1966 109.67C64.0788 106.192 62.0145 103.073 58.8573 101.605C53.1722 98.9643 51.775 91.4783 56.0336 86.8774C58.4028 84.3178 59.1775 80.6187 57.9963 77.3366C55.8595 71.3985 60.102 65.091 66.4075 64.8314C69.8928 64.6879 73.0268 62.5758 74.5044 59.4161C77.1597 53.7378 84.6202 52.2094 89.2101 56.4785C91.7594 58.8496 95.4262 59.5863 98.6932 58.383Z" fill="white"/>
</g>
<defs>
<clipPath id="clip0_709_5651">
<rect width="174" height="174" fill="white"/>
</clipPath>
</defs>
</svg>
