<svg width="111" height="111" viewBox="0 0 111 111" fill="none" xmlns="http://www.w3.org/2000/svg">
<path d="M101.523 38.1495C115.82 109.011 22.1781 125.698 7.02132 58.3902C6.91637 57.9241 7.20913 57.4427 7.67494 57.3429L100.5 37.4591C100.965 37.3593 101.429 37.6813 101.523 38.1495Z" fill="#24E2AB"/>
<path d="M92.9917 39.9751C104.528 97.8611 28.0682 111.491 15.5491 56.5615C15.4429 56.0958 15.736 55.6151 16.2018 55.5153L91.9693 39.2853C92.4349 39.1855 92.8987 39.5066 92.9917 39.9751Z" fill="#FF5C00"/>
<path d="M40.7294 66.9045C40.3297 66.6445 40.2157 66.1088 40.4747 65.708L45.0715 58.5929C45.3305 58.192 45.8645 58.0776 46.2643 58.3374L53.3575 62.9479C53.7572 63.2079 53.8713 63.7436 53.6123 64.1444L49.0155 71.2594C48.7564 71.6603 48.2224 71.7746 47.8227 71.5152L40.7294 66.9045Z" fill="white"/>
<path d="M61.5947 63.6851C61.1949 63.4257 61.0809 62.8895 61.34 62.4887L65.9367 55.374C66.1957 54.973 66.7298 54.8586 67.1294 55.1184L74.2229 59.7292C74.6225 59.9891 74.7365 60.5247 74.4773 60.9256L69.8805 68.0407C69.6219 68.4415 69.0879 68.5559 68.6877 68.2959L61.5947 63.6851Z" fill="white"/>
<path d="M53.3193 75.4342C52.9196 75.1742 52.8055 74.6386 53.0646 74.2377L57.6614 67.1227C57.9204 66.7219 58.4544 66.6075 58.8541 66.8669L65.9474 71.4777C66.3471 71.7377 66.4611 72.2733 66.2021 72.6741L61.6054 79.7892C61.3463 80.19 60.8123 80.3043 60.4126 80.0449L53.3193 75.4342Z" fill="white"/>
<path d="M74.1855 26.1167C61.302 65.6162 9.76076 47.3267 21.2093 9.3598C21.2885 9.09691 21.571 8.93947 21.8321 9.02205L73.8687 25.4803C74.1297 25.5629 74.2707 25.8557 74.1855 26.1167Z" fill="#24E2AB"/>
<path d="M69.4042 24.6045C58.8084 56.8304 16.723 41.8994 25.9912 10.8723C26.0698 10.6092 26.3522 10.4522 26.6133 10.5348L69.0873 23.9687C69.3489 24.0512 69.49 24.3437 69.4042 24.6045Z" fill="#FF5C00"/>
</svg>
