<svg width="16" height="16" viewBox="0 0 16 16" fill="none" xmlns="http://www.w3.org/2000/svg">
<path fill-rule="evenodd" clip-rule="evenodd" d="M0.0991752 4.34244L3.73718 7.97909C3.74465 7.98654 3.75253 7.99347 3.76077 7.99988C3.75285 8.00597 3.74526 8.01254 3.73805 8.0196L0.0994452 11.6568C0.0519344 11.7045 0.0197377 11.7652 0.00698695 11.8313C-0.0057638 11.8973 0.00151057 11.9656 0.0278778 12.0275C0.0542451 12.0894 0.0985052 12.142 0.154979 12.1786C0.211452 12.2152 0.277567 12.234 0.344845 12.2328L3.56012 12.1773C3.59416 12.1767 3.62799 12.1829 3.65956 12.1957C3.69114 12.2084 3.71983 12.2274 3.74391 12.2514C3.76798 12.2755 3.78696 12.3042 3.7997 12.3357C3.81244 12.3673 3.81868 12.4011 3.81806 12.4351L3.75596 15.6546C3.75447 15.7221 3.77326 15.7885 3.80991 15.8452C3.84655 15.9019 3.89936 15.9463 3.96152 15.9728C4.02368 15.9992 4.09233 16.0063 4.15861 15.9933C4.22489 15.9804 4.28575 15.9478 4.33334 15.8999L7.97553 12.2591C7.98331 12.2512 7.99052 12.2429 7.99714 12.2342C8.00328 12.2422 8.00991 12.2499 8.01703 12.2571L11.6556 15.8944C11.7033 15.9419 11.764 15.9741 11.8301 15.9868C11.8962 15.9996 11.9646 15.9923 12.0265 15.9659C12.0884 15.9396 12.141 15.8953 12.1776 15.8389C12.2142 15.7824 12.2331 15.7163 12.2318 15.6491L12.1763 12.435C12.1757 12.401 12.1819 12.3672 12.1946 12.3356C12.2074 12.304 12.2264 12.2754 12.2504 12.2513C12.2745 12.2272 12.3032 12.2083 12.3348 12.1955C12.3664 12.1828 12.4002 12.1765 12.4342 12.1772L15.6549 12.2392C15.7224 12.2407 15.7888 12.2219 15.8456 12.1853C15.9023 12.1487 15.9467 12.0959 15.9732 12.0338C15.9996 11.9716 16.0068 11.903 15.9938 11.8367C15.9808 11.7705 15.9482 11.7096 15.9003 11.6621L12.2581 8.02126C12.2502 8.01344 12.2419 8.0062 12.2331 7.99955C12.2422 7.99272 12.2508 7.98526 12.259 7.97719L15.9011 4.33636C15.9489 4.28873 15.9813 4.22788 15.9942 4.16168C16.007 4.09547 15.9997 4.02693 15.9733 3.96489C15.9468 3.90286 15.9023 3.85017 15.8456 3.81361C15.7889 3.77706 15.7226 3.75831 15.6551 3.7598L12.4345 3.82187C12.4004 3.8225 12.3666 3.81625 12.335 3.80352C12.3035 3.79078 12.2748 3.77182 12.2507 3.74775C12.2266 3.72368 12.2077 3.695 12.1949 3.66344C12.1822 3.63187 12.1759 3.59806 12.1766 3.56403L12.2327 0.349362C12.2339 0.282037 12.215 0.215879 12.1783 0.159389C12.1417 0.1029 12.0889 0.0586565 12.0269 0.0323484C11.9649 0.0060403 11.8965 -0.00113352 11.8304 0.01175C11.7642 0.0246336 11.7035 0.0569876 11.6559 0.10465L8.0179 3.7413C8.01035 3.74886 8.00333 3.75685 7.99685 3.76521C7.99007 3.75624 7.98266 3.74769 7.97466 3.73962L4.33247 0.0987939C4.28482 0.0510506 4.22395 0.0186678 4.15772 0.00581848C4.09149 -0.00703087 4.02292 0.000241979 3.96086 0.0267006C3.8988 0.0531592 3.84609 0.0975914 3.80952 0.154269C3.77295 0.210947 3.75421 0.277273 3.75569 0.3447L3.81779 3.56414C3.81841 3.59818 3.81217 3.63199 3.79943 3.66355C3.78669 3.69512 3.76771 3.72379 3.74364 3.74786C3.71956 3.77193 3.69087 3.7909 3.65929 3.80363C3.62772 3.81637 3.59389 3.82261 3.55985 3.82199L0.343978 3.76588C0.276628 3.76464 0.210445 3.78356 0.153934 3.82021C0.0974235 3.85686 0.0531639 3.90956 0.026846 3.97155C0.000528059 4.03353 -0.00664844 4.10197 0.00623992 4.16806C0.0191283 4.23415 0.0514945 4.29488 0.0991752 4.34244ZM7.22304 11.1871C7.61363 11.5776 8.24691 11.5776 8.63751 11.1871L11.1871 8.63852C11.5777 8.24806 11.5777 7.61502 11.1871 7.22457L8.63751 4.67596C8.24692 4.28551 7.61363 4.28551 7.22304 4.67596L4.67348 7.22457C4.28288 7.61502 4.28288 8.24806 4.67348 8.63852L7.22304 11.1871Z" fill="#0CC4E9"/>
<path d="M9.39726 9.27374C9.39726 9.33919 9.3442 9.39226 9.27874 9.39226L6.57946 9.39226C6.514 9.39226 6.46094 9.33919 6.46094 9.27374L6.46094 6.57555C6.46094 6.51009 6.514 6.45703 6.57946 6.45703L9.27874 6.45703C9.3442 6.45703 9.39726 6.51009 9.39726 6.57555L9.39726 9.27374Z" fill="#0CC4E9"/>
</svg>
