<svg width="111" height="111" viewBox="0 0 111 111" fill="none" xmlns="http://www.w3.org/2000/svg">
<path d="M27.3027 18.1706V44.7536C27.3027 45.2019 27.6682 45.5652 28.1191 45.5652H85.0336C85.4845 45.5652 85.8503 45.2019 85.8503 44.7536V18.1706C85.8503 17.5004 85.0791 17.1189 84.5414 17.523L57.0687 38.1664C56.7775 38.3852 56.3755 38.3852 56.0842 38.1664L28.6114 17.523C28.0735 17.1189 27.3027 17.5004 27.3027 18.1706Z" fill="#0CC4E9"/>
<path d="M29.7244 52.7552C29.7709 52.3447 30.1201 52.0344 30.5356 52.0344H82.597C83.02 52.0344 83.3734 52.3564 83.41 52.7759L86.4455 87.5391C86.4869 88.0132 86.1111 88.4209 85.6325 88.4209H26.5958C26.1087 88.4209 25.73 87.9997 25.7845 87.5186L29.7244 52.7552Z" fill="#0CC4E9"/>
<path d="M26.576 95.217C26.7294 95.0619 26.9393 94.9744 27.1582 94.9744H86.8299C87.113 94.9744 87.3759 95.1201 87.5248 95.3598L90.8771 100.762C91.2127 101.303 90.8215 102 90.1822 102H21.818C21.0941 102 20.7284 101.133 21.2357 100.62L26.576 95.217Z" fill="#0CC4E9"/>
<path d="M55.2088 8.45559L44.0377 19.1807C43.3062 19.883 43.3913 21.072 44.2155 21.6642L55.4262 29.7193C55.9868 30.122 56.7418 30.13 57.3108 29.7392L68.4765 22.0691C69.3156 21.4925 69.4237 20.3004 68.701 19.5841L57.496 8.47391C56.866 7.84923 55.8489 7.84108 55.2088 8.45559Z" fill="#FF5C00"/>
<path d="M32.1091 77.886C31.4714 77.2521 31.4714 76.2246 32.1091 75.5907L55.2048 52.6285C55.8425 51.9946 56.8763 51.9946 57.5139 52.6285L80.6096 75.5907C81.2472 76.2246 81.2472 77.2521 80.6096 77.886L57.5139 100.848C56.8763 101.482 55.8425 101.482 55.2048 100.848L32.1091 77.886Z" fill="#FF5C00"/>
</svg>
