<svg width="65" height="65" viewBox="0 0 65 65" fill="none" xmlns="http://www.w3.org/2000/svg">
<path d="M51 46.5142C40.6033 56.9994 23.7474 56.9994 13.3509 46.5142C13.3399 46.5033 13.3399 46.4851 13.3509 46.4738L45.3825 14.1697C45.7618 13.7872 46.4115 14.0087 46.4826 14.545L48.4688 29.5014C48.5076 29.7933 48.7354 30.023 49.0247 30.0621L64.2535 32.1189C64.6219 32.1687 64.7743 32.6229 64.5112 32.888L51 46.5142Z" fill="#24E2AB"/>
<path d="M50.6287 46.0322C50.8816 46.2871 50.8816 46.7008 50.6287 46.9562L45.0673 52.5644C37.9843 59.7079 26.5 59.7079 19.4167 52.5644L0.190447 33.1746C-0.188856 32.7921 0.0308386 32.1369 0.562514 32.0651L15.3927 30.0621C15.6823 30.023 15.91 29.7933 15.9488 29.5014L17.9349 14.5449C18.0061 14.0087 18.6557 13.7872 19.035 14.1697L50.6287 46.0322Z" fill="#24E2AB"/>
<path d="M37.8769 13.5985C37.8769 16.6905 35.3915 19.197 32.3256 19.197C29.2598 19.197 26.7744 16.6905 26.7744 13.5985C26.7744 10.5066 29.2598 8.00006 32.3256 8.00006C35.3915 8.00006 37.8769 10.5066 37.8769 13.5985Z" fill="#FF5C00"/>
<path d="M35.4921 24.1466C38.6706 20.9411 43.8238 20.9411 47.0022 24.1466C50.1883 27.3597 50.1798 32.5719 46.9832 35.7742L32.3248 50.4583C32.2577 50.5254 32.149 50.5246 32.0828 50.4563L26.5689 44.7733L20.918 39.0883C20.8512 39.0213 20.8512 38.9122 20.9179 38.8447L35.4921 24.1466Z" fill="#FF5C00"/>
<path d="M17.6412 35.7842C14.4574 32.5733 14.4574 27.3674 17.6412 24.1565C20.825 20.9456 25.9869 20.9456 29.1708 24.1565L38.1866 33.2491C38.4993 33.5645 38.5183 34.0695 38.2303 34.4079L33.6046 39.8416C33.4817 39.9858 33.4101 40.1677 33.4015 40.358L32.9962 49.2509C32.9625 49.991 32.073 50.3389 31.5533 49.8149L17.6412 35.7842Z" fill="#FF5C00"/>
</svg>
