<svg width="111" height="111" viewBox="0 0 111 111" fill="none" xmlns="http://www.w3.org/2000/svg">
<g clip-path="url(#clip0_315_2228)">
<path d="M53.3661 1.72907C54.1606 -0.418645 57.1983 -0.418641 57.9929 1.72908L71.4119 37.9994C71.663 38.6782 72.1993 39.2126 72.8792 39.4607L109.352 52.7699C111.513 53.5586 111.513 56.6156 109.352 57.4043L72.8792 70.7137C72.1993 70.9613 71.663 71.4962 71.4119 72.1747L57.9929 108.445C57.1983 110.592 54.1606 110.592 53.3661 108.445L39.9474 72.1747C39.6962 71.4962 39.1596 70.9613 38.4796 70.7137L2.00729 57.4043C-0.154166 56.6156 -0.15416 53.5586 2.00729 52.7699L38.4796 39.4607C39.1596 39.2126 39.6962 38.6782 39.9474 37.9994L53.3661 1.72907Z" fill="#FBC01A"/>
<path d="M31.5422 18.3291C31.1505 16.0673 33.7896 14.5437 35.5525 16.0138L59.7731 36.2118C60.329 36.6753 61.0606 36.8713 61.7738 36.7478L92.8486 31.3662C95.1103 30.9745 96.6338 33.6136 95.1637 35.3765L74.9658 59.5971C74.5024 60.153 74.3061 60.8846 74.4296 61.5978L79.8117 92.6725C80.203 94.9342 77.5639 96.4576 75.8011 94.9876L51.5805 74.7897C51.0246 74.3263 50.293 74.13 49.5798 74.2535L18.5051 79.6356C16.2434 80.0269 14.7198 77.3878 16.1898 75.625L36.3878 51.4045C36.8514 50.8485 37.0473 50.117 36.9239 49.4038L31.5422 18.3291Z" fill="#0CC4E9"/>
<path d="M77.8145 69.2969C78.6817 70.5582 77.5072 72.2156 76.0302 71.816L58.3431 67.0272C57.8773 66.9011 57.3796 66.986 56.9819 67.2594L41.8813 77.6386C40.6202 78.5051 38.9626 77.3306 39.3626 75.8536L44.151 58.1666C44.2771 57.7008 44.1922 57.2031 43.9188 56.8054L33.5399 41.7048C32.6731 40.4436 33.8477 38.7861 35.3249 39.186L53.0116 43.9745C53.4774 44.1006 53.9751 44.0158 54.3728 43.7424L69.4735 33.3634C70.7348 32.4967 72.3921 33.6713 71.9918 35.1484L67.2037 52.8351C67.0776 53.3009 67.1624 53.7986 67.4359 54.1963L77.8145 69.2969Z" fill="white"/>
</g>
<defs>
<clipPath id="clip0_315_2228">
<rect width="111" height="111" fill="white"/>
</clipPath>
</defs>
</svg>
