<svg width="250" height="250" viewBox="0 0 250 250" fill="none" xmlns="http://www.w3.org/2000/svg">
<path d="M124.393 8.27037C125.202 6.94955 127.12 6.94955 127.928 8.27037L147.641 40.4836C148.216 41.4247 149.428 41.7495 150.397 41.2224L183.575 23.1809C184.935 22.4411 186.598 23.4005 186.637 24.9485L187.601 62.7019C187.629 63.8049 188.516 64.6924 189.621 64.7205L227.373 65.6849C228.921 65.7244 229.881 67.3859 229.141 68.7464L211.099 101.924C210.572 102.893 210.897 104.106 211.838 104.681L244.052 124.393C245.373 125.202 245.373 127.12 244.052 127.928L211.838 147.64C210.897 148.216 210.572 149.428 211.099 150.398L229.141 183.575C229.881 184.936 228.921 186.598 227.373 186.636L189.621 187.601C188.516 187.629 187.629 188.517 187.601 189.62L186.637 227.374C186.598 228.921 184.935 229.881 183.575 229.141L150.397 211.099C149.428 210.573 148.216 210.897 147.641 211.838L127.928 244.051C127.12 245.372 125.202 245.372 124.393 244.051L104.681 211.838C104.106 210.897 102.893 210.573 101.924 211.099L68.7463 229.141C67.386 229.881 65.7244 228.921 65.6848 227.374L64.7206 189.62C64.6923 188.517 63.8049 187.629 62.702 187.601L24.9484 186.636C23.4004 186.598 22.4412 184.936 23.181 183.575L41.2225 150.398C41.7496 149.428 41.4248 148.216 40.4837 147.64L8.27033 127.928C6.94952 127.12 6.94952 125.202 8.27033 124.393L40.4835 104.681C41.4248 104.106 41.7496 102.893 41.2225 101.924L23.181 68.7464C22.4412 67.3861 23.4004 65.7244 24.9484 65.6849L62.702 64.7205C63.8049 64.6924 64.6923 63.8049 64.7206 62.7019L65.6848 24.9485C65.7244 23.4005 67.386 22.4411 68.7463 23.1809L101.924 41.2224C102.893 41.7495 104.106 41.4247 104.681 40.4836L124.393 8.27037Z" fill="#FBC01A"/>
<path fill-rule="evenodd" clip-rule="evenodd" d="M64.2758 125.853L11.4479 73.1557C10.7554 72.4665 10.2855 71.5865 10.0983 70.6288C9.91115 69.6712 10.0153 68.6794 10.3976 67.7812C10.7798 66.8831 11.4225 66.1193 12.243 65.5882C13.0636 65.0572 14.0246 64.7831 15.0027 64.801L61.7007 65.6141C62.1951 65.6231 62.6862 65.5326 63.1448 65.3481C63.6033 65.1635 64.0199 64.8886 64.3694 64.5398C64.7191 64.191 64.9946 63.7757 65.1796 63.3182C65.3646 62.8608 65.4554 62.3708 65.4462 61.8778L64.5445 15.2259C64.5229 14.2489 64.7952 13.2878 65.3263 12.4665C65.8572 11.6452 66.6227 11.0013 67.524 10.6179C68.4251 10.2345 69.4207 10.1291 70.3825 10.3153C71.3442 10.5015 72.2281 10.9708 72.9201 11.6626L125.809 64.4205C125.924 64.5359 126.03 64.6584 126.127 64.7865C126.22 64.6676 126.32 64.5539 126.428 64.4462L179.257 11.7489C179.948 11.0582 180.829 10.5894 181.789 10.4027C182.749 10.216 183.743 10.3199 184.644 10.7011C185.544 11.0824 186.311 11.7235 186.843 12.542C187.375 13.3606 187.65 14.3193 187.632 15.2949L186.816 61.8775C186.807 62.3705 186.898 62.8605 187.084 63.3179C187.268 63.7754 187.544 64.1909 187.893 64.5397C188.243 64.8884 188.66 65.1632 189.118 65.3478C189.577 65.5323 190.068 65.6228 190.562 65.6138L237.33 64.7143C238.31 64.6927 239.272 64.9644 240.096 65.494C240.919 66.0237 241.565 66.7873 241.949 67.6861C242.334 68.5852 242.439 69.5783 242.252 70.5377C242.066 71.4972 241.595 72.3788 240.903 73.0691L188.014 125.827C187.896 125.943 187.772 126.05 187.642 126.148C187.772 126.246 187.895 126.352 188.011 126.467L240.9 179.225C241.595 179.915 242.068 180.796 242.256 181.756C242.445 182.716 242.341 183.71 241.958 184.611C241.574 185.511 240.929 186.277 240.105 186.807C239.281 187.338 238.317 187.61 237.336 187.589L190.568 186.688C190.073 186.679 189.583 186.77 189.124 186.954C188.666 187.14 188.249 187.415 187.899 187.763C187.55 188.112 187.274 188.528 187.09 188.984C186.904 189.442 186.813 189.932 186.824 190.426L187.629 236.999C187.647 237.974 187.373 238.932 186.841 239.749C186.311 240.568 185.546 241.209 184.648 241.591C183.749 241.972 182.755 242.078 181.796 241.894C180.836 241.708 179.954 241.243 179.263 240.553L126.426 187.847C126.321 187.742 126.224 187.629 126.134 187.512C126.037 187.638 125.932 187.76 125.819 187.874L72.9298 240.632C72.2388 241.326 71.355 241.797 70.3926 241.986C69.4302 242.175 68.4332 242.07 67.5306 241.687C66.628 241.305 65.8611 240.66 65.329 239.839C64.797 239.017 64.524 238.055 64.5457 237.077L65.4474 190.426C65.4565 189.932 65.3658 189.442 65.1808 188.984C64.9958 188.526 64.7203 188.112 64.3706 187.763C64.021 187.413 63.6044 187.139 63.1459 186.954C62.6873 186.77 62.1961 186.679 61.7017 186.688L15.0124 187.494C14.0355 187.511 13.0754 187.238 12.2554 186.708C11.4352 186.177 10.7925 185.415 10.4097 184.519C10.0268 183.621 9.92117 182.631 10.1063 181.674C10.2915 180.717 10.759 179.838 11.4489 179.147L64.2856 126.441C64.391 126.338 64.5019 126.242 64.6176 126.154C64.4981 126.061 64.384 125.961 64.2758 125.853Z" fill="#FF5C00"/>
<path d="M88.2232 120.439H92.5611C96.6579 120.439 100.072 121.664 102.803 124.114C105.574 126.524 106.96 129.898 106.96 134.236C106.96 138.573 105.494 141.967 102.562 144.417C99.7104 146.867 96.1559 148.092 91.8983 148.092C88.4442 148.092 85.4117 147.329 82.8011 145.803C80.2304 144.237 78.3628 141.987 77.1981 139.055L84.3071 134.898C85.3114 138.272 87.8416 139.959 91.8983 139.959C94.027 139.959 95.6738 139.457 96.8386 138.453C98.0436 137.409 98.646 136.003 98.646 134.236C98.646 132.508 98.0636 131.123 96.8989 130.079C95.7342 129.034 94.1475 128.512 92.1393 128.512H79.3669L81.0538 105.076H104.972V112.848H88.7655L88.2232 120.439Z" fill="white"/>
<path d="M126.969 148.094C121.707 148.094 117.57 146.106 114.558 142.129C111.586 138.073 110.099 132.751 110.099 126.164C110.099 119.577 111.586 114.275 114.558 110.258C117.57 106.242 121.707 104.234 126.969 104.234C132.311 104.234 136.448 106.242 139.38 110.258C142.352 114.275 143.838 119.577 143.838 126.164C143.838 132.751 142.352 138.073 139.38 142.129C136.448 146.106 132.311 148.094 126.969 148.094ZM135.584 126.164C135.584 121.665 134.841 118.231 133.355 115.862C131.909 113.492 129.78 112.307 126.969 112.307C124.157 112.307 122.028 113.492 120.583 115.862C119.137 118.231 118.414 121.665 118.414 126.164C118.414 130.662 119.137 134.096 120.583 136.466C122.028 138.796 124.157 139.96 126.969 139.96C129.78 139.96 131.909 138.776 133.355 136.406C134.841 134.036 135.584 130.622 135.584 126.164Z" fill="white"/>
<path d="M173.396 111.944L165.504 122.186C168.436 123.03 170.765 124.516 172.493 126.644C174.26 128.773 175.143 131.304 175.143 134.236C175.143 138.573 173.677 141.967 170.745 144.417C167.894 146.867 164.339 148.092 160.082 148.092C156.747 148.092 153.796 147.329 151.225 145.803C148.654 144.237 146.786 142.028 145.621 139.176L152.73 135.079C153.735 138.332 156.185 139.959 160.082 139.959C162.21 139.959 163.856 139.457 165.021 138.453C166.226 137.409 166.83 136.003 166.83 134.236C166.83 132.508 166.226 131.123 165.021 130.079C163.856 129.034 162.21 128.512 160.082 128.512H158.273L155.081 123.692L163.396 112.848H146.887V105.076H173.396V111.944Z" fill="white"/>
</svg>
