<svg width="16" height="16" viewBox="0 0 16 16" fill="none" xmlns="http://www.w3.org/2000/svg">
<g clip-path="url(#clip0_2952_6987)">
<path d="M13.6605 4.41326C12.5013 3.25678 10.6219 3.25678 9.46282 4.41326L8.36775 5.50579C8.36204 5.51149 8.35634 5.51722 8.35068 5.52296L2.12354 11.7357C1.96358 11.8953 2.06977 12.1685 2.29575 12.1787L5.48411 12.3233C5.61856 12.3294 5.72617 12.4368 5.73229 12.5709L5.87721 15.7519C5.88748 15.9774 6.16127 16.0833 6.32123 15.9237L12.6568 9.60272L13.6605 8.60127C14.8197 7.44478 14.8197 5.56975 13.6605 4.41326Z" fill="#0CC4E9"/>
<path d="M2.0725 4.41326C0.913332 5.56975 0.913332 7.44478 2.0725 8.60127L3.16756 9.69379C3.17135 9.69757 3.17514 9.70133 3.17894 9.70509L9.41198 15.9237C9.57194 16.0833 9.84577 15.9773 9.85597 15.7518L10.001 12.5709C10.0071 12.4367 10.1147 12.3294 10.2491 12.3233L13.4375 12.1787C13.6635 12.1684 13.7697 11.8952 13.6097 11.7356L7.27405 5.41472L6.27024 4.41326C5.11106 3.25678 3.23167 3.25678 2.0725 4.41326Z" fill="#FBC01A"/>
<path d="M9.44886 1.54518C9.44886 2.3985 8.7555 3.09024 7.90021 3.09024C7.04491 3.09024 6.35156 2.3985 6.35156 1.54518C6.35156 0.69187 7.04491 0.00012207 7.90021 0.00012207C8.7555 0.00012207 9.44886 0.69187 9.44886 1.54518Z" fill="#FBC01A"/>
</g>
<defs>
<clipPath id="clip0_2952_6987">
<rect width="16" height="16" fill="white"/>
</clipPath>
</defs>
</svg>
