<svg width="30" height="30" viewBox="0 0 30 30" fill="none" xmlns="http://www.w3.org/2000/svg">
<path d="M5.76312 7.625H5.79562C7.53937 7.625 8.625 6.375 8.625 4.8125C8.5925 3.21562 7.53937 2 5.82875 2C4.11812 2 3 3.21562 3 4.8125C3 6.375 4.085 7.625 5.76312 7.625ZM3 9.5H8.625V25.75H3V9.5ZM28 15.4375C28 12.1581 25.3419 9.5 22.0625 9.5C20.1544 9.5 18.4613 10.4038 17.375 11.8025V9.5H11.75V25.75H17.375V16.375C17.375 14.9944 18.4944 13.875 19.875 13.875C21.2556 13.875 22.375 14.9944 22.375 16.375V25.75H28C28 25.75 28 16.3469 28 15.4375Z" fill="white"/>
</svg>
