<svg width="80" height="40" viewBox="0 0 80 40" fill="none" xmlns="http://www.w3.org/2000/svg">
<path d="M0 13.0144C0 13.4558 0.367703 13.8135 0.821287 13.8135H6.34508C6.79867 13.8135 7.16637 13.4558 7.16637 13.0144V7.88629C7.16637 7.64911 7.492 7.5692 7.60761 7.77801L10.7165 13.3934C10.8598 13.6522 11.1375 13.8135 11.4396 13.8135H13.9005C14.202 13.8135 14.4792 13.6528 14.6227 13.3949L17.7506 7.7736C17.8665 7.56525 18.1916 7.64538 18.1916 7.88231V13.0144C18.1916 13.4558 18.5593 13.8135 19.0128 13.8135H24.5557C25.0092 13.8135 25.3769 13.4558 25.3769 13.0144V0.799134C25.3769 0.357785 25.0092 0 24.5557 0H16.7962C16.4962 0 16.2201 0.159186 16.0759 0.41522L13.0599 5.77276C12.97 5.93242 12.7337 5.93054 12.6465 5.76948L9.75447 0.42673C9.61241 0.16429 9.33265 0 9.02781 0H0.821287C0.367702 0 0 0.357784 0 0.799133V13.0144Z" fill="#232323"/>
<path d="M34.7614 5.51428C34.6318 5.51428 34.5267 5.41205 34.5267 5.28595V3.99734C34.5267 3.87124 34.6318 3.76902 34.7614 3.76902H39.7922C40.7617 3.76902 41.1038 4.12178 41.1038 4.64165C41.1038 5.14295 40.7807 5.51428 39.7922 5.51428H34.7614ZM34.5267 9.9655C34.5267 9.65025 34.7894 9.39469 35.1134 9.39469H38.5566C40.5906 9.39469 41.2939 10.3045 41.2939 11.7155C41.2939 11.9798 41.3268 12.531 41.3538 13.0153C41.3785 13.456 41.7567 13.8135 42.2103 13.8135H47.7531C48.2067 13.8135 48.5744 13.4558 48.5744 13.0144C48.5744 12.127 48.5744 11.2244 48.5744 10.323C48.5744 8.85169 47.8512 7.75213 46.353 7.16606C46.1151 7.07299 46.1083 6.60752 46.3434 6.50788C47.4253 6.04932 48.4983 5.17595 48.4983 3.65762V3.49052C48.4983 0.742663 45.9701 0 42.9287 0H28.1246C27.6711 0 27.3034 0.357784 27.3034 0.799133V13.0144C27.3034 13.4558 27.6711 13.8135 28.1246 13.8135H33.7055C34.159 13.8135 34.5267 13.4558 34.5267 13.0144V9.9655Z" fill="#232323"/>
<path d="M57.301 0.799134C57.301 0.357785 56.9333 0 56.4798 0H50.9179C50.4644 0 50.0967 0.357784 50.0967 0.799133V13.0144C50.0967 13.4558 50.4644 13.8135 50.9179 13.8135H56.4798C56.9333 13.8135 57.301 13.4558 57.301 13.0144V0.799134Z" fill="#232323"/>
<path d="M65.4689 13.0144C65.4689 13.4558 65.8366 13.8135 66.2902 13.8135H71.871C72.3246 13.8135 72.6923 13.4558 72.6923 13.0144V9.3024C72.6923 9.11044 72.7633 8.92489 72.8924 8.77969L79.856 0.944178C80.1846 0.574412 79.9146 0 79.4122 0H73.5718C73.2306 0 72.9063 0.144504 72.6835 0.395854L69.5258 3.95698C69.4317 4.06308 69.2625 4.06245 69.1693 3.95565L66.0675 0.402532C65.8445 0.147179 65.5176 0 65.1732 0H58.5247C58.0165 0 57.7487 0.586015 58.0892 0.953183L65.2574 8.68386C65.3936 8.83069 65.4689 9.02143 65.4689 9.21918V13.0144Z" fill="#232323"/>
<path d="M27.3034 28.722C27.3034 29.1633 27.671 29.5211 28.1246 29.5211H38.6327C47.3198 29.5211 49.2397 26.2534 49.2397 22.8186V22.243C49.2397 18.6782 46.7115 15.7076 38.6327 15.7076H28.1246C27.671 15.7076 27.3034 16.0654 27.3034 16.5067V28.722ZM34.5267 20.4531C34.5267 20.2009 34.7369 19.9965 34.9961 19.9965H37.4161C41.446 19.9965 41.7692 21.686 41.7692 22.503V22.6144C41.7692 23.4313 41.503 25.2508 37.4161 25.2508H34.9961C34.7369 25.2508 34.5267 25.0464 34.5267 24.7942V20.4531Z" fill="#232323"/>
<path d="M57.3036 16.5067C57.3036 16.0654 56.9359 15.7076 56.4823 15.7076H50.9205C50.4669 15.7076 50.0992 16.0654 50.0992 16.5067V28.722C50.0992 29.1633 50.4669 29.5211 50.9205 29.5211H56.4823C56.9359 29.5211 57.3036 29.1633 57.3036 28.722V16.5067Z" fill="#232323"/>
<path d="M65.2867 28.722C65.2867 29.1633 65.6544 29.5211 66.108 29.5211H71.6888C72.1424 29.5211 72.5101 29.1633 72.5101 28.722V25.01C72.5101 24.818 72.5811 24.6325 72.7102 24.4873L79.6738 16.6518C80.0024 16.282 79.7324 15.7076 79.23 15.7076H73.3896C73.0484 15.7076 72.7241 15.8521 72.5013 16.1034L69.3436 19.6646C69.2495 19.7707 69.0803 19.77 68.9871 19.6632L65.8853 16.1101C65.6623 15.8548 65.3354 15.7076 64.991 15.7076H58.5076C58.0025 15.7076 57.7335 16.2874 58.0677 16.656L65.0814 24.393C65.2137 24.539 65.2867 24.727 65.2867 24.9216V28.722Z" fill="#232323"/>
<path fill-rule="evenodd" clip-rule="evenodd" d="M18.3363 39.5235C18.3363 39.9932 17.7114 40.1777 17.4441 39.7869L13.0399 33.3475C12.8465 33.0649 12.4201 33.0659 12.2282 33.3495L7.88317 39.7709C7.61718 40.164 6.98973 39.9804 6.98973 39.5094L6.98973 33.7058C6.98973 33.4436 6.77171 33.231 6.50277 33.231L0.53571 33.231C0.0539359 33.231 -0.135283 32.6219 0.265545 32.3613L6.87023 28.0672C7.16015 27.8787 7.1591 27.463 6.86823 27.2759L0.282001 23.0396C-0.121183 22.7803 0.0671428 22.1685 0.550162 22.1685H6.50277C6.77171 22.1685 6.98973 21.9559 6.98973 21.6937L6.98973 15.8901C6.98973 15.4192 7.61718 15.2356 7.88317 15.6287L12.2282 22.05C12.4201 22.3336 12.8465 22.3347 13.0399 22.052L17.4441 15.6126C17.7114 15.2218 18.3362 15.4063 18.3362 15.876L18.3362 21.6937C18.3362 21.9559 18.5543 22.1685 18.8232 22.1685H24.7758C25.2588 22.1685 25.4472 22.7803 25.044 23.0396L18.4578 27.2759C18.1669 27.463 18.1658 27.8787 18.4557 28.0672L25.0604 32.3613C25.4613 32.6219 25.272 33.231 24.7903 33.231H18.8232C18.5543 33.231 18.3363 33.4436 18.3363 33.7058V39.5235ZM12.7133 30.6922C14.4361 30.6922 15.8327 29.3305 15.8327 27.6509C15.8327 25.9712 14.4361 24.6096 12.7133 24.6096C10.9906 24.6096 9.59398 25.9712 9.59398 27.6509C9.59398 29.3305 10.9906 30.6922 12.7133 30.6922Z" fill="#FF5C00"/>
</svg>
