<svg width="1065" height="540" viewBox="0 0 1065 540" fill="none" xmlns="http://www.w3.org/2000/svg">
<path d="M167.794 200.786C169.662 199.488 172.196 199.488 174.064 200.786L216.686 230.4C217.599 231.034 218.7 231.375 219.831 231.374L272.587 231.278C274.899 231.274 276.948 232.692 277.659 234.788L293.866 282.61C294.214 283.634 294.894 284.527 295.81 285.158L338.55 314.616C340.423 315.908 341.206 318.204 340.487 320.298L324.09 368.059C323.738 369.083 323.738 370.186 324.09 371.21L340.487 418.971C341.206 421.064 340.423 423.36 338.55 424.651L295.81 454.111C294.894 454.742 294.214 455.634 293.866 456.659L277.659 504.48C276.948 506.576 274.899 507.995 272.587 507.991L219.831 507.895C218.7 507.894 217.599 508.234 216.686 508.868L174.064 538.483C172.196 539.78 169.662 539.78 167.794 538.483L125.172 508.868C124.259 508.234 123.158 507.894 122.027 507.895L69.2709 507.991C66.9589 507.995 64.9095 506.576 64.1989 504.48L47.9922 456.659C47.6442 455.634 46.9629 454.742 46.0482 454.111L3.30821 424.651C1.43487 423.36 0.652205 421.064 1.37087 418.971L17.7682 371.21C18.1202 370.186 18.1202 369.083 17.7682 368.059L1.37087 320.298C0.652205 318.204 1.43487 315.908 3.30821 314.616L46.0482 285.158C46.9629 284.527 47.6442 283.634 47.9922 282.61L64.1989 234.788C64.9095 232.692 66.9589 231.274 69.2709 231.278L122.027 231.374C123.158 231.375 124.259 231.034 125.172 230.4L167.794 200.786Z" fill="#EB5E1E"/>
<path fill-rule="evenodd" clip-rule="evenodd" d="M230.854 391.413C231.641 392.558 231.35 394.125 230.204 394.911L179.268 429.89C174.245 433.339 167.617 433.339 162.594 429.89L111.66 394.911C110.514 394.123 110.224 392.558 111.01 391.413L123.08 373.837C123.866 372.691 125.433 372.401 126.578 373.187L169.508 402.669C170.365 403.258 171.497 403.258 172.356 402.669L215.286 373.187C216.432 372.401 217.998 372.691 218.784 373.837L230.854 391.413Z" fill="white"/>
<path d="M196.195 333.766C194.806 333.766 193.667 332.637 193.796 331.254C194.047 328.573 194.699 325.939 195.732 323.443C197.088 320.17 199.075 317.197 201.58 314.691C204.084 312.186 207.059 310.199 210.331 308.845C213.604 307.489 217.112 306.791 220.655 306.791C224.198 306.791 227.704 307.489 230.978 308.845C234.251 310.199 237.224 312.186 239.728 314.691C242.234 317.197 244.22 320.17 245.576 323.443C246.611 325.939 247.262 328.573 247.512 331.254C247.642 332.637 246.504 333.766 245.114 333.766H196.195Z" fill="white"/>
<path d="M96.7449 333.766C95.3555 333.766 94.2169 332.637 94.3462 331.254C94.5969 328.573 95.2475 325.939 96.2822 323.443C97.6369 320.17 99.6249 317.197 102.13 314.691C104.634 312.186 107.608 310.199 110.881 308.845C114.154 307.489 117.662 306.791 121.204 306.791C124.746 306.791 128.254 307.489 131.528 308.845C134.8 310.199 137.774 312.186 140.278 314.691C142.784 317.197 144.77 320.17 146.126 323.443C147.16 325.939 147.812 328.573 148.062 331.254C148.192 332.637 147.053 333.766 145.664 333.766H96.7449Z" fill="white"/>
<path d="M412.585 527.093C369.462 527.093 362.951 505.106 362.951 491.801V489.065C362.951 475.666 368.802 454.246 412.585 454.246H416.266C458.917 454.246 465.143 473.59 465.143 482.649V483.875H437.307C436.741 481.987 434.571 473.118 414.189 473.118C394.845 473.118 390.694 481.705 390.694 489.537V490.67C390.694 498.218 395.411 508.125 414.283 508.125C434.947 508.125 437.025 498.218 437.402 496.614H465.143V498.123C465.143 507.277 458.539 527.093 416.266 527.093H412.585Z" fill="#010101"/>
<path d="M498.369 455.567V505.672H547.058V525.771H471.57V455.567H498.369Z" fill="#010101"/>
<path d="M550.181 455.566H577.073V486.987C577.073 495.575 580.848 505.861 598.588 505.861C616.044 505.861 620.008 495.575 620.008 486.987V455.566H646.806V489.065C646.806 502.651 640.294 526.903 600.569 526.903H596.794C555.936 526.903 550.181 502.651 550.181 489.065V455.566Z" fill="#010101"/>
<path d="M681.918 497.18V509.259H714.756C721.737 509.259 723.058 505.956 723.058 503.219V502.936C723.058 499.917 721.644 497.18 714.756 497.18H681.918ZM681.918 471.513V481.423H713.057C718.624 481.423 720.228 479.156 720.228 476.515V476.325C720.228 473.591 718.624 471.513 713.057 471.513H681.918ZM655.12 455.567H721.172C741.648 455.567 747.121 463.493 747.121 471.513V472.552C747.121 481.327 739.668 485.291 735.044 486.328C741.27 487.839 751.178 491.989 751.178 504.352V505.484C751.178 516.524 744.478 525.771 721.55 525.771H655.12V455.567Z" fill="#010101"/>
<path d="M796.762 527.093C757.981 527.093 753.923 511.334 753.923 502.181V501.237H783.363C783.646 505.011 785.627 511.145 800.914 511.145H801.763C816.767 511.145 818.938 507.937 818.938 504.541V504.446C818.938 500.859 817.145 498.595 802.425 498.123L789.402 497.746C762.227 496.991 754.961 487.461 754.961 476.61V475.761C754.961 464.342 762.605 454.341 795.346 454.341H803.745C838.47 454.341 846.397 465.381 846.397 476.514V477.27H817.238C816.957 474.722 815.446 469.815 800.254 469.815H799.31C785.25 469.815 783.835 472.269 783.835 475.006V475.099C783.835 477.93 785.91 480.195 799.122 480.478L811.766 480.761C838.47 481.515 848.849 487.743 848.849 501.898V503.219C848.849 515.014 842.243 527.093 805.349 527.093H796.762Z" fill="#010101"/>
<path d="M0.2854 177.563C0.2854 183.598 5.1774 188.49 11.2121 188.49H85.3587C91.3934 188.49 96.2854 183.598 96.2854 177.563V107.612C96.2854 104.37 100.616 103.276 102.156 106.13L143.513 182.756C145.419 186.288 149.109 188.49 153.123 188.49H185.867C189.879 188.49 193.568 186.294 195.481 182.767L237.084 106.068C238.629 103.222 242.952 104.319 242.952 107.558V177.584C242.952 183.607 247.835 188.49 253.857 188.49H326.692C332.727 188.49 337.619 183.598 337.619 177.563V11.3951C337.619 5.37241 332.736 0.489746 326.713 0.489746H223.547C219.563 0.489746 215.896 2.65906 213.977 6.14839L173.891 79.0537C172.693 81.2324 169.555 81.2071 168.392 79.0084L129.96 6.31506C128.065 2.73239 124.344 0.489746 120.291 0.489746H11.1907C5.16807 0.489746 0.2854 5.37241 0.2854 11.3951V177.563Z" fill="#010101"/>
<path d="M460.285 72.0342V54.2716C460.285 52.5516 461.68 51.1569 463.401 51.1569H530.881C543.879 51.1569 548.467 56.0076 548.467 63.1569C548.467 70.0502 544.133 75.1569 530.881 75.1569H463.408C461.683 75.1569 460.285 73.7582 460.285 72.0342ZM460.285 136.28C460.285 131.977 463.773 128.49 468.075 128.49H513.344C513.344 128.49 549.763 140.449 549.763 159.705C549.763 163.312 550.2 170.833 550.56 177.442C550.888 183.456 555.92 188.336 561.955 188.49H635.7C641.735 188.336 646.627 183.453 646.952 177.43V140.702C646.627 120.625 637.005 105.62 617.072 97.6222C613.908 96.3516 613.817 89.9996 616.944 88.6409C631.339 82.3822 645.619 49.7449 645.619 49.7449V48.1222C645.619 10.6236 612.06 0.490234 571.689 0.490234H375.212C369.177 0.490234 364.285 5.38222 364.285 11.4169V177.585C364.285 183.608 369.168 188.49 375.191 188.49H449.359C455.393 188.49 460.285 183.597 460.285 177.562V136.28Z" fill="#010101"/>
<path d="M752.047 0.489746H677.879C671.844 0.489746 666.952 5.38174 666.952 11.4164V177.584C666.952 183.607 671.835 188.49 677.857 188.49H752.025C758.06 188.49 762.952 183.598 762.952 177.563V11.3951C762.952 5.37241 758.069 0.489746 752.047 0.489746Z" fill="#010101"/>
<path d="M881.857 188.49H956.025C962.06 188.49 966.952 183.598 966.952 177.563V127.11C966.952 124.487 967.898 121.954 969.617 119.974L1062.16 13.3404C1066.53 8.30707 1062.94 0.489746 1056.26 0.489746H978.641C974.105 0.489746 969.793 2.4604 966.824 5.8884L924.87 54.3431C923.617 55.7884 921.37 55.7804 920.129 54.3244L878.912 5.97375C875.945 2.49374 871.602 0.489746 867.03 0.489746H778.701C771.941 0.489746 768.386 8.50575 772.924 13.5164L868.134 118.668C869.948 120.671 870.952 123.276 870.952 125.978V177.584C870.952 183.607 875.834 188.49 881.857 188.49Z" fill="#010101"/>
<path d="M362.952 390.918C362.952 396.941 367.835 401.823 373.857 401.823H513.76C629.395 401.823 654.952 357.35 654.952 310.603V302.77C654.952 254.254 621.299 213.823 513.76 213.823H373.879C367.844 213.823 362.952 218.715 362.952 224.75V390.918ZM460.285 278.722C460.285 275.279 463.075 272.49 466.517 272.49H498.584C552.001 272.49 556.285 295.642 556.285 306.837V308.363C556.285 319.557 552.757 344.49 498.584 344.49H466.529C463.081 344.49 460.285 341.694 460.285 338.246V278.722Z" fill="#010101"/>
<path d="M752.047 213.823H677.879C671.844 213.823 666.952 218.715 666.952 224.75V390.918C666.952 396.941 671.835 401.823 677.857 401.823H752.025C758.06 401.823 762.952 396.931 762.952 390.897V224.729C762.952 218.706 758.069 213.823 752.047 213.823Z" fill="#010101"/>
<path d="M880.524 401.823H954.713C960.736 401.823 965.619 396.941 965.619 390.918V340.446C965.619 337.822 966.565 335.286 968.285 333.303L1060.82 226.674C1065.19 221.641 1061.6 213.823 1054.93 213.823H977.308C972.772 213.823 968.46 215.794 965.491 219.222L923.536 267.677C922.284 269.122 920.037 269.114 918.796 267.658L877.577 219.307C874.612 215.827 870.269 213.823 865.697 213.823H779.541C772.831 213.823 769.263 221.746 773.711 226.77L866.889 332.03C868.648 334.017 869.619 336.575 869.619 339.225V390.918C869.619 396.941 874.501 401.823 880.524 401.823Z" fill="#010101"/>
</svg>
