<svg width="65" height="65" viewBox="0 0 65 65" fill="none" xmlns="http://www.w3.org/2000/svg">
<g clip-path="url(#clip0_920_8841)">
<path fill-rule="evenodd" clip-rule="evenodd" d="M32.5 65C50.4493 65 65 50.4493 65 32.5C65 14.5507 50.4493 8.82084e-06 32.5 5.68248e-06C14.5507 2.54413e-06 -2.54413e-06 14.5507 -5.68248e-06 32.5C-8.82084e-06 50.4493 14.5507 65 32.5 65ZM42.5 30L25.5 12.5C23.9457 10.9 22.1857 12.1667 21.5 13C20.3 14.6 21 16 21.5 16.5L37 32.5L22 48C20 50 21 51.75 22 52.5C23.6 53.7 25.3333 53 26 52.5L42.5 35.5C45.5 33 43.5 31 42.5 30Z" fill="#FF5C00"/>
<path d="M42.5 30L25.5 12.5C23.9457 10.9 22.1857 12.1667 21.5 13C20.3 14.6 21 16 21.5 16.5L37 32.5L22 48C20 50 21 51.75 22 52.5C23.6 53.7 25.3333 53 26 52.5L42.5 35.5C45.5 33 43.5 31 42.5 30Z" fill="white"/>
</g>
<defs>
<clipPath id="clip0_920_8841">
<rect width="65" height="65" fill="white"/>
</clipPath>
</defs>
</svg>
