<svg width="65" height="65" viewBox="0 0 65 65" fill="none" xmlns="http://www.w3.org/2000/svg">
<g clip-path="url(#clip0_920_8839)">
<path fill-rule="evenodd" clip-rule="evenodd" d="M32.5 2.84124e-06C14.5507 4.41042e-06 -4.41042e-06 14.5507 -2.84124e-06 32.5C-1.27206e-06 50.4493 14.5507 65 32.5 65C50.4493 65 65 50.4493 65 32.5C65 14.5507 50.4493 1.27206e-06 32.5 2.84124e-06ZM22.5 35L39.5 52.5C41.0543 54.1 42.8143 52.8333 43.5 52C44.7 50.4 44 49 43.5 48.5L28 32.5L43 17C45 15 44 13.25 43 12.5C41.4 11.3 39.6667 12 39 12.5L22.5 29.5C19.5 32 21.5 34 22.5 35Z" fill="#FF5C00"/>
<path d="M22.5 35L39.5 52.5C41.0543 54.1 42.8143 52.8333 43.5 52C44.7 50.4 44 49 43.5 48.5L28 32.5L43 17C45 15 44 13.25 43 12.5C41.4 11.3 39.6667 12 39 12.5L22.5 29.5C19.5 32 21.5 34 22.5 35Z" fill="white"/>
</g>
<defs>
<clipPath id="clip0_920_8839">
<rect width="65" height="65" fill="white" transform="translate(65 65) rotate(180)"/>
</clipPath>
</defs>
</svg>
