<svg width="392" height="256" viewBox="0 0 392 256" fill="none" xmlns="http://www.w3.org/2000/svg">
<path d="M369 254H42C30.9543 254 22 245.046 22 234V84.5M22 27.5V22C22 10.9543 30.9543 2 42 2H349C360.046 2 369 10.9543 369 22V128V199.5" stroke="#FF5C00" stroke-width="3"/>
<rect x="22.3528" y="77.9995" width="11.2304" height="11.6463" rx="0.338088" transform="rotate(-135 22.3528 77.9995)" fill="#FF5C00"/>
<rect x="8.23511" y="63.8821" width="11.6463" height="11.6463" rx="0.338088" transform="rotate(-135 8.23511 63.8821)" fill="#FF5C00"/>
<path d="M37.004 63.3486C36.8719 63.4806 36.6579 63.4806 36.5258 63.3486L29.0629 55.8856C28.9309 55.7536 28.9309 55.5395 29.0629 55.4075L36.8199 47.6505C36.952 47.5184 37.166 47.5184 37.2981 47.6505L44.761 55.1134C44.893 55.2454 44.893 55.4595 44.761 55.5915L37.004 63.3486Z" fill="#FF5C00"/>
<rect x="22.6472" y="49.4705" width="11.6463" height="11.6463" rx="0.338088" transform="rotate(-135 22.6472 49.4705)" fill="#FF5C00"/>
<path d="M33.8533 66.2942C33.8533 66.481 33.7019 66.6323 33.5152 66.6323L26.269 66.6323C26.0904 66.6323 25.9427 66.4935 25.9316 66.3152L25.4253 58.1775C25.4125 57.9726 25.5838 57.8037 25.7885 57.8194L33.541 58.4137C33.7172 58.4273 33.8533 58.5742 33.8533 58.7508L33.8533 66.2942Z" fill="#FBC01A"/>
<path d="M19.8297 66.3207C19.8159 66.4966 19.6691 66.6323 19.4926 66.6323L11.9487 66.6323C11.762 66.6323 11.6106 66.481 11.6106 66.2942L11.6106 58.7503C11.6106 58.5738 11.7464 58.427 11.9223 58.4133L20.1078 57.7717C20.3149 57.7554 20.4875 57.928 20.4713 58.1351L19.8297 66.3207Z" fill="#FBC01A"/>
<path d="M33.8533 51.9873C33.8533 52.1604 33.7226 52.3055 33.5506 52.3236L25.5406 53.1662C25.3288 53.1885 25.1494 53.0118 25.1685 52.7997L25.9236 44.4049C25.9393 44.2306 26.0854 44.0971 26.2603 44.0971L33.5152 44.0971C33.7019 44.0971 33.8533 44.2484 33.8533 44.4352L33.8533 51.9873Z" fill="#FBC01A"/>
<path d="M20.7743 52.7939C20.7981 53.0077 20.6188 53.1891 20.4048 53.1678L11.9151 52.3222C11.7422 52.305 11.6105 52.1595 11.6105 51.9858L11.6105 44.4353C11.6105 44.2486 11.7619 44.0972 11.9486 44.0972L19.5026 44.0972C19.6749 44.0972 19.8196 44.2267 19.8386 44.3979L20.7743 52.7939Z" fill="#FBC01A"/>
<rect x="19.0518" y="59.6733" width="7.62097" height="7.62097" rx="0.338088" transform="rotate(-90 19.0518 59.6733)" fill="#FF5C00"/>
<rect x="369.353" y="249" width="11.2304" height="11.6463" rx="0.338088" transform="rotate(-135 369.353 249)" fill="#FF5C00"/>
<rect x="355.235" y="234.882" width="11.6463" height="11.6463" rx="0.338088" transform="rotate(-135 355.235 234.882)" fill="#FF5C00"/>
<path d="M384.004 234.349C383.872 234.481 383.658 234.481 383.526 234.349L376.063 226.886C375.931 226.754 375.931 226.54 376.063 226.408L383.82 218.65C383.952 218.518 384.166 218.518 384.298 218.65L391.761 226.113C391.893 226.245 391.893 226.459 391.761 226.592L384.004 234.349Z" fill="#FF5C00"/>
<rect x="369.647" y="220.47" width="11.6463" height="11.6463" rx="0.338088" transform="rotate(-135 369.647 220.47)" fill="#FF5C00"/>
<path d="M380.853 237.294C380.853 237.481 380.702 237.632 380.515 237.632L373.269 237.632C373.09 237.632 372.943 237.493 372.932 237.315L372.425 229.177C372.413 228.973 372.584 228.804 372.789 228.819L380.541 229.414C380.717 229.427 380.853 229.574 380.853 229.751L380.853 237.294Z" fill="#FBC01A"/>
<path d="M366.83 237.321C366.816 237.497 366.669 237.632 366.493 237.632L358.949 237.632C358.762 237.632 358.611 237.481 358.611 237.294L358.611 229.75C358.611 229.574 358.746 229.427 358.922 229.413L367.108 228.772C367.315 228.755 367.488 228.928 367.471 229.135L366.83 237.321Z" fill="#FBC01A"/>
<path d="M380.853 222.987C380.853 223.16 380.723 223.305 380.551 223.324L372.541 224.166C372.329 224.188 372.149 224.012 372.169 223.8L372.924 215.405C372.939 215.231 373.085 215.097 373.26 215.097L380.515 215.097C380.702 215.097 380.853 215.248 380.853 215.435L380.853 222.987Z" fill="#FBC01A"/>
<path d="M367.774 223.794C367.798 224.008 367.619 224.189 367.405 224.168L358.915 223.322C358.742 223.305 358.61 223.16 358.61 222.986L358.61 215.435C358.61 215.249 358.762 215.097 358.949 215.097L366.503 215.097C366.675 215.097 366.82 215.227 366.839 215.398L367.774 223.794Z" fill="#FBC01A"/>
<rect x="366.052" y="230.673" width="7.62097" height="7.62097" rx="0.338088" transform="rotate(-90 366.052 230.673)" fill="#FF5C00"/>
</svg>
