<svg width="392" height="256" viewBox="0 0 392 256" fill="none" xmlns="http://www.w3.org/2000/svg">
<path d="M369 254H42C30.9543 254 22 245.046 22 234V84.5M22 27.5V22C22 10.9543 30.9543 2 42 2H349C360.046 2 369 10.9543 369 22V128V199.5" stroke="#0CC4E9" stroke-width="3"/>
<path d="M21.5456 33.7466C21.8735 32.8605 23.1267 32.8605 23.4545 33.7466L28.8751 48.3983C28.9787 48.6784 29.2002 48.8988 29.4807 49.0012L44.2136 54.3774C45.1054 54.7028 45.1054 55.964 44.2136 56.2894L29.4807 61.6656C29.2002 61.768 28.9787 61.9884 28.8751 62.2685L23.4545 76.9203C23.1267 77.8063 21.8735 77.8063 21.5456 76.9203L16.125 62.2685C16.0214 61.9884 15.8 61.768 15.5195 61.6656L0.786546 56.2894C-0.105193 55.964 -0.105191 54.7028 0.786549 54.3774L15.5195 49.0012C15.8 48.8988 16.0214 48.6784 16.125 48.3983L21.5456 33.7466Z" fill="#FBC01A"/>
<path d="M12.7239 40.4777C12.5623 39.5445 13.6511 38.9159 14.3784 39.5224L24.1544 47.6748C24.3838 47.866 24.6855 47.9469 24.9798 47.8959L37.5222 45.7238C38.4554 45.5622 39.084 46.651 38.4775 47.3783L30.3251 57.1543C30.1339 57.3836 30.053 57.6854 30.1039 57.9797L32.2761 70.5221C32.4377 71.4553 31.3489 72.0839 30.6216 71.4773L20.8456 63.325C20.6162 63.1337 20.3144 63.0529 20.0202 63.1038L7.47776 65.276C6.54464 65.4376 5.91603 64.3488 6.52254 63.6215L14.6749 53.8455C14.8661 53.6161 14.947 53.3143 14.896 53.0201L12.7239 40.4777Z" fill="#0CC4E9"/>
<path d="M31.4567 61.0666C31.8143 61.5869 31.3297 62.2708 30.7203 62.1058L23.5861 60.1743C23.394 60.1223 23.1886 60.1573 23.0246 60.2701L16.9336 64.4565C16.4133 64.8141 15.7295 64.3295 15.8944 63.7201L17.8259 56.586C17.8779 56.3938 17.8429 56.1885 17.7301 56.0244L13.5437 49.9334C13.1861 49.4131 13.6707 48.7293 14.2801 48.8943L21.4142 50.8258C21.6064 50.8778 21.8117 50.8428 21.9758 50.73L28.0668 46.5436C28.5871 46.1859 29.2709 46.6705 29.1059 47.28L27.1745 54.4141C27.1224 54.6063 27.1574 54.8116 27.2702 54.9757L31.4567 61.0666Z" fill="white"/>
<path d="M368.545 203.747C368.873 202.86 370.126 202.86 370.454 203.747L375.875 218.398C375.978 218.678 376.2 218.899 376.48 219.001L391.213 224.377C392.105 224.703 392.105 225.964 391.213 226.289L376.48 231.666C376.2 231.768 375.978 231.988 375.875 232.269L370.454 246.92C370.126 247.806 368.873 247.806 368.545 246.92L363.125 232.269C363.021 231.988 362.8 231.768 362.519 231.666L347.786 226.289C346.895 225.964 346.895 224.703 347.786 224.377L362.519 219.001C362.8 218.899 363.021 218.678 363.125 218.398L368.545 203.747Z" fill="#FBC01A"/>
<path d="M359.724 210.478C359.562 209.545 360.651 208.916 361.378 209.522L371.154 217.675C371.384 217.866 371.686 217.947 371.98 217.896L384.522 215.724C385.455 215.562 386.084 216.651 385.477 217.378L377.325 227.154C377.134 227.384 377.053 227.685 377.104 227.98L379.276 240.522C379.438 241.455 378.349 242.084 377.622 241.477L367.846 233.325C367.616 233.134 367.314 233.053 367.02 233.104L354.478 235.276C353.545 235.438 352.916 234.349 353.523 233.621L361.675 223.845C361.866 223.616 361.947 223.314 361.896 223.02L359.724 210.478Z" fill="#0CC4E9"/>
<path d="M378.457 231.067C378.814 231.587 378.33 232.271 377.72 232.106L370.586 230.174C370.394 230.122 370.189 230.157 370.025 230.27L363.934 234.457C363.413 234.814 362.729 234.33 362.894 233.72L364.826 226.586C364.878 226.394 364.843 226.188 364.73 226.024L360.544 219.933C360.186 219.413 360.671 218.729 361.28 218.894L368.414 220.826C368.606 220.878 368.812 220.843 368.976 220.73L375.067 216.544C375.587 216.186 376.271 216.671 376.106 217.28L374.174 224.414C374.122 224.606 374.157 224.812 374.27 224.976L378.457 231.067Z" fill="white"/>
</svg>
