<svg width="392" height="256" viewBox="0 0 392 256" fill="none" xmlns="http://www.w3.org/2000/svg">
<path d="M369 254H42C30.9543 254 22 245.046 22 234V84.5M22 27.5V22C22 10.9543 30.9543 2 42 2H349C360.046 2 369 10.9543 369 22V128V199.5" stroke="#24E2AB" stroke-width="3"/>
<g clip-path="url(#clip0_1506_10096)">
<path d="M32.4712 72.8416L31.5891 73.6716C26.3604 78.5919 18.1331 78.3419 13.2128 73.1133L12.3827 72.2311L22.7322 62.4921L32.4712 72.8416Z" fill="#24E2AB"/>
<path d="M22.6589 62.5615L31.5218 54.2213C31.6378 54.1119 31.7838 54.0399 31.9412 54.0143C32.0986 53.9887 32.2601 54.0108 32.405 54.0777C32.55 54.1446 32.6717 54.2533 32.7545 54.3897C32.8374 54.5262 32.8776 54.6843 32.87 54.8436L32.5138 62.4512C32.51 62.5317 32.5224 62.6122 32.5504 62.6879C32.5783 62.7636 32.6212 62.8329 32.6766 62.8917C32.7319 62.9505 32.7984 62.9975 32.8723 63.03C32.9461 63.0625 33.0258 63.0798 33.1064 63.0809L40.7333 63.1735C40.893 63.175 41.0487 63.2243 41.1804 63.3151C41.3121 63.4059 41.4136 63.534 41.4719 63.6828C41.5303 63.8317 41.5427 63.9945 41.5077 64.1503C41.4727 64.3061 41.3918 64.4478 41.2754 64.557L32.4023 72.9068C32.2873 73.0141 32.1348 73.0718 31.9775 73.0675L22.7192 72.8471C22.5624 72.8384 22.4152 72.7685 22.3091 72.6525C22.203 72.5365 22.1466 72.3837 22.1519 72.2267L22.4713 62.9771C22.4766 62.8192 22.544 62.6698 22.6589 62.5615Z" fill="#24E2AB"/>
<path d="M12.7815 72.6697L4.44123 63.8068C4.33191 63.6908 4.25983 63.5448 4.23424 63.3874C4.20865 63.23 4.23073 63.0685 4.29764 62.9236C4.36454 62.7787 4.47323 62.6569 4.60971 62.5741C4.7462 62.4912 4.90425 62.451 5.06358 62.4587L12.6711 62.8148C12.7517 62.8186 12.8322 62.8062 12.9079 62.7783C12.9836 62.7503 13.0529 62.7074 13.1117 62.6521C13.1704 62.5967 13.2175 62.5302 13.25 62.4563C13.2825 62.3825 13.2998 62.3028 13.3008 62.2222L13.3935 54.5954C13.395 54.4356 13.4443 54.2799 13.5351 54.1482C13.6259 54.0166 13.7539 53.915 13.9028 53.8567C14.0517 53.7984 14.2145 53.7859 14.3703 53.8209C14.5261 53.8559 14.6678 53.9368 14.777 54.0532L23.1268 62.9263C23.234 63.0413 23.2917 63.1938 23.2874 63.3511L23.0671 72.6094C23.0584 72.7662 22.9885 72.9134 22.8725 73.0195C22.7565 73.1256 22.6036 73.1821 22.4467 73.1768L13.1971 72.8573C13.0391 72.852 12.8898 72.7846 12.7815 72.6697Z" fill="#24E2AB"/>
<ellipse cx="22.9382" cy="53.5645" rx="3.94925" ry="3.94925" transform="rotate(40.0751 22.9382 53.5645)" fill="#24E2AB"/>
<rect x="15.2297" y="40.7568" width="10.97" height="10.97" rx="0.333333" transform="rotate(-45 15.2297 40.7568)" fill="#FBC01A"/>
</g>
<g clip-path="url(#clip1_1506_10096)">
<path d="M378.592 243.842L377.71 244.672C372.481 249.592 364.254 249.342 359.333 244.113L358.503 243.231L368.853 233.492L378.592 243.842Z" fill="#24E2AB"/>
<path d="M368.779 233.561L377.642 225.221C377.758 225.112 377.904 225.04 378.062 225.014C378.219 224.989 378.381 225.011 378.526 225.078C378.671 225.145 378.792 225.253 378.875 225.39C378.958 225.526 378.998 225.684 378.991 225.844L378.634 233.451C378.631 233.532 378.643 233.612 378.671 233.688C378.699 233.764 378.742 233.833 378.797 233.892C378.852 233.95 378.919 233.998 378.993 234.03C379.067 234.063 379.146 234.08 379.227 234.081L386.854 234.174C387.014 234.175 387.169 234.224 387.301 234.315C387.433 234.406 387.534 234.534 387.593 234.683C387.651 234.832 387.663 234.995 387.628 235.15C387.593 235.306 387.512 235.448 387.396 235.557L378.523 243.907C378.408 244.014 378.255 244.072 378.098 244.067L368.84 243.847C368.683 243.838 368.536 243.769 368.43 243.653C368.324 243.537 368.267 243.384 368.272 243.227L368.592 233.977C368.597 233.819 368.665 233.67 368.779 233.561Z" fill="#24E2AB"/>
<path d="M358.902 243.67L350.562 234.807C350.453 234.691 350.38 234.545 350.355 234.387C350.329 234.23 350.351 234.069 350.418 233.924C350.485 233.779 350.594 233.657 350.73 233.574C350.867 233.491 351.025 233.451 351.184 233.459L358.792 233.815C358.872 233.819 358.953 233.806 359.028 233.778C359.104 233.75 359.173 233.707 359.232 233.652C359.291 233.597 359.338 233.53 359.371 233.456C359.403 233.382 359.42 233.303 359.421 233.222L359.514 225.595C359.516 225.436 359.565 225.28 359.656 225.148C359.746 225.017 359.875 224.915 360.023 224.857C360.172 224.798 360.335 224.786 360.491 224.821C360.647 224.856 360.788 224.937 360.898 225.053L369.247 233.926C369.355 234.041 369.412 234.194 369.408 234.351L369.188 243.609C369.179 243.766 369.109 243.913 368.993 244.02C368.877 244.126 368.724 244.182 368.567 244.177L359.318 243.857C359.16 243.852 359.01 243.785 358.902 243.67Z" fill="#24E2AB"/>
<ellipse cx="369.059" cy="224.564" rx="3.94925" ry="3.94925" transform="rotate(40.0751 369.059 224.564)" fill="#24E2AB"/>
<rect x="361.35" y="211.757" width="10.97" height="10.97" rx="0.333333" transform="rotate(-45 361.35 211.757)" fill="#FBC01A"/>
</g>
<defs>
<clipPath id="clip0_1506_10096">
<rect width="45" height="45" fill="white" transform="translate(0 33)"/>
</clipPath>
<clipPath id="clip1_1506_10096">
<rect width="45" height="45" fill="white" transform="translate(347 204)"/>
</clipPath>
</defs>
</svg>
