<svg width="729" height="641" viewBox="0 0 729 641" fill="none" xmlns="http://www.w3.org/2000/svg">
<path fill-rule="evenodd" clip-rule="evenodd" d="M111.849 28.6897C40.8783 58.6944 -7.73526 159.774 1.01777 241.392C8.79547 313.915 58.126 360.639 50.6003 397.633C35.1889 473.392 42.1044 528.316 96.132 582.242C146.193 632.209 198.573 663.142 308.783 621.69C345.681 607.812 398.021 625.61 464.144 625.61C496.124 625.61 542.977 617.564 571.925 587.602C602.998 555.441 717.317 556.416 708.331 455.397C699.346 354.378 701.034 351.518 722.882 286.171C749.504 206.543 683.993 54.4195 627.605 28.6897C589.203 11.1668 536.218 0.717022 511.427 9.70713C439.483 35.796 386.174 23.1735 360.734 18.4683C263.903 -19.6916 155.599 10.1937 111.849 28.6897ZM8.00102 242.873C-0.607925 162.783 47.2054 63.5956 117.008 34.1526C160.037 16.0029 266.559 -13.323 361.796 24.1225C386.817 28.7397 439.249 41.1259 510.008 15.5254C534.391 6.7036 586.504 16.9578 624.274 34.1526C679.734 59.4007 744.167 208.676 717.982 286.814C696.494 350.937 694.834 353.743 703.671 452.871C712.509 551.999 600.072 551.043 569.511 582.601C541.039 612.003 494.957 619.898 463.504 619.898C398.469 619.898 346.991 602.434 310.7 616.052C202.305 656.727 150.787 626.373 101.55 577.342C48.4113 524.425 41.6096 470.53 56.7674 396.189C64.1692 359.887 15.6507 314.039 8.00102 242.873Z" fill="#FFF7E1"/>
</svg>
